G04*
G04 #@! TF.GenerationSoftware,Altium Limited,Altium Designer,20.1.14 (287)*
G04*
G04 Layer_Physical_Order=4*
G04 Layer_Color=16515196*
%FSLAX43Y43*%
%MOMM*%
G71*
G04*
G04 #@! TF.SameCoordinates,785F46E0-C1C1-4AA7-83CD-D68E938E2BB6*
G04*
G04*
G04 #@! TF.FilePolarity,Negative*
G04*
G01*
G75*
%ADD98C,1.016*%
%ADD99C,2.036*%
%ADD100C,2.516*%
%ADD101C,2.316*%
%ADD102C,2.116*%
%ADD103C,1.266*%
%ADD105C,3.716*%
%ADD106C,2.716*%
%ADD107C,1.216*%
%ADD108R,1.100X1.100*%
D98*
X5000Y60000D02*
G03*
X-0Y55000I0J-5000D01*
G01*
X145000Y55000D02*
G03*
X140000Y60000I-5000J0D01*
G01*
X140000Y-0D02*
G03*
X145000Y5000I0J5000D01*
G01*
X-0Y5000D02*
G03*
X5000Y-0I5000J-0D01*
G01*
X140000Y-0D01*
X145000Y5000D02*
X145000Y55000D01*
X5000Y60000D02*
X140000Y60000D01*
X-0Y5000D02*
Y55000D01*
D99*
X57500Y38500D02*
D03*
X103000Y42000D02*
D03*
Y37000D02*
D03*
X72500Y43000D02*
D03*
Y36000D02*
D03*
D100*
X55000Y5000D02*
D03*
X45000D02*
D03*
X35000D02*
D03*
X25000D02*
D03*
X55000Y55000D02*
D03*
X45000D02*
D03*
X35000D02*
D03*
X25000D02*
D03*
X5000Y45000D02*
D03*
Y35000D02*
D03*
Y25000D02*
D03*
Y15000D02*
D03*
X70000Y55000D02*
D03*
D101*
X130500Y54500D02*
D03*
X125500D02*
D03*
D102*
X103000Y14310D02*
D03*
Y11770D02*
D03*
Y6690D02*
D03*
Y9230D02*
D03*
X103000Y24730D02*
D03*
Y29810D02*
D03*
Y32350D02*
D03*
Y27270D02*
D03*
Y22190D02*
D03*
Y19650D02*
D03*
D103*
X76500Y40500D02*
D03*
X109250Y17750D02*
D03*
X118000Y6500D02*
D03*
X86500Y50250D02*
D03*
Y55750D02*
D03*
X100750Y38500D02*
D03*
Y36500D02*
D03*
X85750Y4250D02*
D03*
X85500Y3500D02*
D03*
X92365Y11500D02*
D03*
Y23500D02*
D03*
Y35500D02*
D03*
X96175Y3500D02*
D03*
Y15500D02*
D03*
Y27500D02*
D03*
Y39500D02*
D03*
X92365Y47500D02*
D03*
X93635Y3500D02*
D03*
X91095D02*
D03*
Y15500D02*
D03*
X93635D02*
D03*
Y27500D02*
D03*
X91095D02*
D03*
X93635Y39500D02*
D03*
X91095D02*
D03*
X87000Y53500D02*
D03*
X86000D02*
D03*
X87250Y49900D02*
D03*
X120500Y51500D02*
D03*
X119000D02*
D03*
X110000D02*
D03*
X108500D02*
D03*
X87250Y55400D02*
D03*
X82250Y52250D02*
D03*
X119750Y51500D02*
D03*
X109250D02*
D03*
X82250Y52750D02*
D03*
X106830Y20615D02*
D03*
X108115Y19330D02*
D03*
X114000D02*
D03*
X120000D02*
D03*
X126000D02*
D03*
X131885D02*
D03*
X133170Y20615D02*
D03*
Y26500D02*
D03*
Y32500D02*
D03*
Y38500D02*
D03*
Y44385D02*
D03*
X131885Y45670D02*
D03*
X126000D02*
D03*
X120000D02*
D03*
X114000D02*
D03*
X108115D02*
D03*
X106830Y44385D02*
D03*
Y38500D02*
D03*
Y32500D02*
D03*
Y26500D02*
D03*
X24000Y30750D02*
D03*
X37000D02*
D03*
X50000D02*
D03*
X63000D02*
D03*
X78500Y28250D02*
D03*
X80500Y28000D02*
D03*
X77325Y31500D02*
D03*
X121750Y18000D02*
D03*
X117250Y18500D02*
D03*
X119000Y6500D02*
D03*
X110750Y12250D02*
D03*
X111750Y13750D02*
D03*
X111250Y13000D02*
D03*
X113250Y5000D02*
D03*
X116250Y9000D02*
D03*
X55500Y28500D02*
D03*
X125000Y4000D02*
D03*
X82250Y9125D02*
D03*
X76500Y5225D02*
D03*
Y7175D02*
D03*
X81250Y42750D02*
D03*
X79250D02*
D03*
X77250Y37250D02*
D03*
X82250Y36250D02*
D03*
Y38000D02*
D03*
X71750Y28250D02*
D03*
Y29750D02*
D03*
X72500Y22500D02*
D03*
Y25500D02*
D03*
X84250Y20750D02*
D03*
X75000Y15500D02*
D03*
X59500Y10000D02*
D03*
X22750Y11000D02*
D03*
X32750D02*
D03*
X42750D02*
D03*
X52750D02*
D03*
X82250Y7175D02*
D03*
X70000Y5250D02*
D03*
X23750Y14250D02*
D03*
X23500Y26500D02*
D03*
X25000D02*
D03*
X18750Y25250D02*
D03*
X22250Y14250D02*
D03*
X18250Y20000D02*
D03*
X28250Y23750D02*
D03*
X18250Y17000D02*
D03*
X12500Y45000D02*
D03*
Y35000D02*
D03*
Y25000D02*
D03*
Y15000D02*
D03*
X64500Y27250D02*
D03*
X51500D02*
D03*
X38500D02*
D03*
X25500D02*
D03*
X67765Y23515D02*
D03*
X79000Y14500D02*
D03*
X80500D02*
D03*
X82000D02*
D03*
X83500D02*
D03*
X62200Y45737D02*
D03*
X49200Y45746D02*
D03*
X36200Y45756D02*
D03*
X23200Y45746D02*
D03*
X67750Y26500D02*
D03*
X63000Y12000D02*
D03*
X110000Y10750D02*
D03*
X106500D02*
D03*
Y16750D02*
D03*
X128500Y4000D02*
D03*
X132000D02*
D03*
X128500Y10000D02*
D03*
X125000D02*
D03*
X116250Y25000D02*
D03*
X117500Y17750D02*
D03*
X70500Y11000D02*
D03*
X75000Y11250D02*
D03*
X71500Y5250D02*
D03*
X79250Y10250D02*
D03*
X70500Y9500D02*
D03*
X81500Y11250D02*
D03*
X119500Y5000D02*
D03*
Y3500D02*
D03*
X116500D02*
D03*
X113250D02*
D03*
X121000Y33500D02*
D03*
X109000Y31500D02*
D03*
X121000Y32000D02*
D03*
X109000Y30000D02*
D03*
X119750Y28500D02*
D03*
X129500Y25750D02*
D03*
X113500Y22000D02*
D03*
X118000Y32000D02*
D03*
X112000Y30000D02*
D03*
X118250Y28500D02*
D03*
X109000Y33000D02*
D03*
X131000Y36000D02*
D03*
X57250Y17000D02*
D03*
X31250D02*
D03*
X57250Y20000D02*
D03*
X31250D02*
D03*
X41250Y23750D02*
D03*
X57750Y25250D02*
D03*
X44750D02*
D03*
X43250Y32250D02*
D03*
X17250D02*
D03*
X61825Y34000D02*
D03*
X48825D02*
D03*
X22825D02*
D03*
X43250Y35250D02*
D03*
X17250D02*
D03*
X53500Y38250D02*
D03*
X27500D02*
D03*
X62000Y40000D02*
D03*
X53500D02*
D03*
X49000D02*
D03*
X27500D02*
D03*
X23000D02*
D03*
X61250Y43500D02*
D03*
X35250D02*
D03*
X22250D02*
D03*
X44250Y17000D02*
D03*
Y20000D02*
D03*
X54250Y23750D02*
D03*
X31750Y25250D02*
D03*
X56250Y32250D02*
D03*
X30250D02*
D03*
X35825Y34000D02*
D03*
X56250Y35250D02*
D03*
X30250D02*
D03*
X66500Y38250D02*
D03*
X40500D02*
D03*
X66500Y40000D02*
D03*
X40500D02*
D03*
X36000D02*
D03*
X48250Y43500D02*
D03*
X61000Y12000D02*
D03*
X49750Y14250D02*
D03*
X36750D02*
D03*
X35250D02*
D03*
X64000Y26500D02*
D03*
X51000D02*
D03*
X49500D02*
D03*
X36500D02*
D03*
X65000Y30500D02*
D03*
X52000D02*
D03*
X43250Y30750D02*
D03*
X39000Y30500D02*
D03*
X17250Y30750D02*
D03*
X66000Y44750D02*
D03*
X64000D02*
D03*
X53000D02*
D03*
X51000D02*
D03*
X27000D02*
D03*
X25000D02*
D03*
X48250Y14250D02*
D03*
X62500Y26500D02*
D03*
X38000D02*
D03*
X56250Y30750D02*
D03*
X30250D02*
D03*
X26000Y30500D02*
D03*
X40000Y44750D02*
D03*
X38000D02*
D03*
D105*
X140000Y55000D02*
D03*
Y5000D02*
D03*
X5000D02*
D03*
Y55000D02*
D03*
D106*
X52460Y2460D02*
D03*
X57540D02*
D03*
Y7540D02*
D03*
X52460D02*
D03*
X42460Y2460D02*
D03*
X47540D02*
D03*
Y7540D02*
D03*
X42460D02*
D03*
X32460Y2460D02*
D03*
X37540D02*
D03*
Y7540D02*
D03*
X32460D02*
D03*
X22460Y2460D02*
D03*
X27540D02*
D03*
Y7540D02*
D03*
X22460D02*
D03*
X57540Y52460D02*
D03*
X52460D02*
D03*
Y57540D02*
D03*
X57540D02*
D03*
X47540Y52460D02*
D03*
X42460D02*
D03*
Y57540D02*
D03*
X47540D02*
D03*
X37540Y52460D02*
D03*
X32460D02*
D03*
Y57540D02*
D03*
X37540D02*
D03*
X27540Y52460D02*
D03*
X22460D02*
D03*
Y57540D02*
D03*
X27540D02*
D03*
X7540Y47540D02*
D03*
Y42460D02*
D03*
X2460D02*
D03*
Y47540D02*
D03*
X7540Y37540D02*
D03*
Y32460D02*
D03*
X2460D02*
D03*
Y37540D02*
D03*
X7540Y27540D02*
D03*
Y22460D02*
D03*
X2460D02*
D03*
Y27540D02*
D03*
X7540Y17540D02*
D03*
Y12460D02*
D03*
X2460D02*
D03*
Y17540D02*
D03*
X72540Y57540D02*
D03*
X67460D02*
D03*
Y52460D02*
D03*
X72540D02*
D03*
D107*
X62550Y19950D02*
D03*
X61450D02*
D03*
X62550Y21050D02*
D03*
X61450D02*
D03*
X49550Y19950D02*
D03*
X48450D02*
D03*
X49550Y21050D02*
D03*
X48450D02*
D03*
X36550Y19950D02*
D03*
X35450D02*
D03*
X36550Y21050D02*
D03*
X35450D02*
D03*
X22450D02*
D03*
X23550D02*
D03*
X22450Y19950D02*
D03*
X23550D02*
D03*
D108*
X62000Y20500D02*
D03*
X49000D02*
D03*
X36000D02*
D03*
X23000D02*
D03*
M02*
