G04*
G04 #@! TF.GenerationSoftware,Altium Limited,Altium Designer,20.1.14 (287)*
G04*
G04 Layer_Color=2752767*
%FSLAX43Y43*%
%MOMM*%
G71*
G04*
G04 #@! TF.SameCoordinates,785F46E0-C1C1-4AA7-83CD-D68E938E2BB6*
G04*
G04*
G04 #@! TF.FilePolarity,Positive*
G04*
G01*
G75*
%ADD109C,0.051*%
%ADD110C,0.068*%
D109*
X57297Y38297D02*
Y38703D01*
X57703D01*
Y38297D01*
X57297D01*
X102797Y41797D02*
Y42203D01*
X103203D01*
Y41797D01*
X102797D01*
Y36797D02*
Y37203D01*
X103203D01*
Y36797D01*
X102797D01*
X72297Y42797D02*
Y43203D01*
X72703D01*
Y42797D01*
X72297D01*
Y35797D02*
Y36203D01*
X72703D01*
Y35797D01*
X72297D01*
X55000Y4797D02*
X54797Y5203D01*
X55203D01*
X55000Y4797D01*
X52460Y2257D02*
X52562Y2358D01*
X52663D01*
X52562Y2460D01*
X52663Y2562D01*
X52562D01*
X52460Y2663D01*
X52358Y2562D01*
X52257D01*
X52358Y2460D01*
X52257Y2358D01*
X52358D01*
X52460Y2257D01*
X57540D02*
X57642Y2358D01*
X57743D01*
X57642Y2460D01*
X57743Y2562D01*
X57642D01*
X57540Y2663D01*
X57438Y2562D01*
X57337D01*
X57438Y2460D01*
X57337Y2358D01*
X57438D01*
X57540Y2257D01*
Y7337D02*
X57642Y7438D01*
X57743D01*
X57642Y7540D01*
X57743Y7642D01*
X57642D01*
X57540Y7743D01*
X57438Y7642D01*
X57337D01*
X57438Y7540D01*
X57337Y7438D01*
X57438D01*
X57540Y7337D01*
X52460D02*
X52562Y7438D01*
X52663D01*
X52562Y7540D01*
X52663Y7642D01*
X52562D01*
X52460Y7743D01*
X52358Y7642D01*
X52257D01*
X52358Y7540D01*
X52257Y7438D01*
X52358D01*
X52460Y7337D01*
X45000Y4797D02*
X44797Y5203D01*
X45203D01*
X45000Y4797D01*
X42460Y2257D02*
X42562Y2358D01*
X42663D01*
X42562Y2460D01*
X42663Y2562D01*
X42562D01*
X42460Y2663D01*
X42358Y2562D01*
X42257D01*
X42358Y2460D01*
X42257Y2358D01*
X42358D01*
X42460Y2257D01*
X47540D02*
X47642Y2358D01*
X47743D01*
X47642Y2460D01*
X47743Y2562D01*
X47642D01*
X47540Y2663D01*
X47438Y2562D01*
X47337D01*
X47438Y2460D01*
X47337Y2358D01*
X47438D01*
X47540Y2257D01*
Y7337D02*
X47642Y7438D01*
X47743D01*
X47642Y7540D01*
X47743Y7642D01*
X47642D01*
X47540Y7743D01*
X47438Y7642D01*
X47337D01*
X47438Y7540D01*
X47337Y7438D01*
X47438D01*
X47540Y7337D01*
X42460D02*
X42562Y7438D01*
X42663D01*
X42562Y7540D01*
X42663Y7642D01*
X42562D01*
X42460Y7743D01*
X42358Y7642D01*
X42257D01*
X42358Y7540D01*
X42257Y7438D01*
X42358D01*
X42460Y7337D01*
X35000Y4797D02*
X34797Y5203D01*
X35203D01*
X35000Y4797D01*
X32460Y2257D02*
X32562Y2358D01*
X32663D01*
X32562Y2460D01*
X32663Y2562D01*
X32562D01*
X32460Y2663D01*
X32358Y2562D01*
X32257D01*
X32358Y2460D01*
X32257Y2358D01*
X32358D01*
X32460Y2257D01*
X37540D02*
X37642Y2358D01*
X37743D01*
X37642Y2460D01*
X37743Y2562D01*
X37642D01*
X37540Y2663D01*
X37438Y2562D01*
X37337D01*
X37438Y2460D01*
X37337Y2358D01*
X37438D01*
X37540Y2257D01*
Y7337D02*
X37642Y7438D01*
X37743D01*
X37642Y7540D01*
X37743Y7642D01*
X37642D01*
X37540Y7743D01*
X37438Y7642D01*
X37337D01*
X37438Y7540D01*
X37337Y7438D01*
X37438D01*
X37540Y7337D01*
X32460D02*
X32562Y7438D01*
X32663D01*
X32562Y7540D01*
X32663Y7642D01*
X32562D01*
X32460Y7743D01*
X32358Y7642D01*
X32257D01*
X32358Y7540D01*
X32257Y7438D01*
X32358D01*
X32460Y7337D01*
X25000Y4797D02*
X24797Y5203D01*
X25203D01*
X25000Y4797D01*
X22460Y2257D02*
X22562Y2358D01*
X22663D01*
X22562Y2460D01*
X22663Y2562D01*
X22562D01*
X22460Y2663D01*
X22358Y2562D01*
X22257D01*
X22358Y2460D01*
X22257Y2358D01*
X22358D01*
X22460Y2257D01*
X27540D02*
X27642Y2358D01*
X27743D01*
X27642Y2460D01*
X27743Y2562D01*
X27642D01*
X27540Y2663D01*
X27438Y2562D01*
X27337D01*
X27438Y2460D01*
X27337Y2358D01*
X27438D01*
X27540Y2257D01*
Y7337D02*
X27642Y7438D01*
X27743D01*
X27642Y7540D01*
X27743Y7642D01*
X27642D01*
X27540Y7743D01*
X27438Y7642D01*
X27337D01*
X27438Y7540D01*
X27337Y7438D01*
X27438D01*
X27540Y7337D01*
X22460D02*
X22562Y7438D01*
X22663D01*
X22562Y7540D01*
X22663Y7642D01*
X22562D01*
X22460Y7743D01*
X22358Y7642D01*
X22257D01*
X22358Y7540D01*
X22257Y7438D01*
X22358D01*
X22460Y7337D01*
X57540Y52257D02*
X57642Y52358D01*
X57743D01*
X57642Y52460D01*
X57743Y52562D01*
X57642D01*
X57540Y52663D01*
X57438Y52562D01*
X57337D01*
X57438Y52460D01*
X57337Y52358D01*
X57438D01*
X57540Y52257D01*
X52460D02*
X52562Y52358D01*
X52663D01*
X52562Y52460D01*
X52663Y52562D01*
X52562D01*
X52460Y52663D01*
X52358Y52562D01*
X52257D01*
X52358Y52460D01*
X52257Y52358D01*
X52358D01*
X52460Y52257D01*
Y57337D02*
X52562Y57438D01*
X52663D01*
X52562Y57540D01*
X52663Y57642D01*
X52562D01*
X52460Y57743D01*
X52358Y57642D01*
X52257D01*
X52358Y57540D01*
X52257Y57438D01*
X52358D01*
X52460Y57337D01*
X57540D02*
X57642Y57438D01*
X57743D01*
X57642Y57540D01*
X57743Y57642D01*
X57642D01*
X57540Y57743D01*
X57438Y57642D01*
X57337D01*
X57438Y57540D01*
X57337Y57438D01*
X57438D01*
X57540Y57337D01*
X55000Y54797D02*
X54797Y55203D01*
X55203D01*
X55000Y54797D01*
X47540Y52257D02*
X47642Y52358D01*
X47743D01*
X47642Y52460D01*
X47743Y52562D01*
X47642D01*
X47540Y52663D01*
X47438Y52562D01*
X47337D01*
X47438Y52460D01*
X47337Y52358D01*
X47438D01*
X47540Y52257D01*
X42460D02*
X42562Y52358D01*
X42663D01*
X42562Y52460D01*
X42663Y52562D01*
X42562D01*
X42460Y52663D01*
X42358Y52562D01*
X42257D01*
X42358Y52460D01*
X42257Y52358D01*
X42358D01*
X42460Y52257D01*
Y57337D02*
X42562Y57438D01*
X42663D01*
X42562Y57540D01*
X42663Y57642D01*
X42562D01*
X42460Y57743D01*
X42358Y57642D01*
X42257D01*
X42358Y57540D01*
X42257Y57438D01*
X42358D01*
X42460Y57337D01*
X47540D02*
X47642Y57438D01*
X47743D01*
X47642Y57540D01*
X47743Y57642D01*
X47642D01*
X47540Y57743D01*
X47438Y57642D01*
X47337D01*
X47438Y57540D01*
X47337Y57438D01*
X47438D01*
X47540Y57337D01*
X45000Y54797D02*
X44797Y55203D01*
X45203D01*
X45000Y54797D01*
X37540Y52257D02*
X37642Y52358D01*
X37743D01*
X37642Y52460D01*
X37743Y52562D01*
X37642D01*
X37540Y52663D01*
X37438Y52562D01*
X37337D01*
X37438Y52460D01*
X37337Y52358D01*
X37438D01*
X37540Y52257D01*
X32460D02*
X32562Y52358D01*
X32663D01*
X32562Y52460D01*
X32663Y52562D01*
X32562D01*
X32460Y52663D01*
X32358Y52562D01*
X32257D01*
X32358Y52460D01*
X32257Y52358D01*
X32358D01*
X32460Y52257D01*
Y57337D02*
X32562Y57438D01*
X32663D01*
X32562Y57540D01*
X32663Y57642D01*
X32562D01*
X32460Y57743D01*
X32358Y57642D01*
X32257D01*
X32358Y57540D01*
X32257Y57438D01*
X32358D01*
X32460Y57337D01*
X37540D02*
X37642Y57438D01*
X37743D01*
X37642Y57540D01*
X37743Y57642D01*
X37642D01*
X37540Y57743D01*
X37438Y57642D01*
X37337D01*
X37438Y57540D01*
X37337Y57438D01*
X37438D01*
X37540Y57337D01*
X35000Y54797D02*
X34797Y55203D01*
X35203D01*
X35000Y54797D01*
X27540Y52257D02*
X27642Y52358D01*
X27743D01*
X27642Y52460D01*
X27743Y52562D01*
X27642D01*
X27540Y52663D01*
X27438Y52562D01*
X27337D01*
X27438Y52460D01*
X27337Y52358D01*
X27438D01*
X27540Y52257D01*
X22460D02*
X22562Y52358D01*
X22663D01*
X22562Y52460D01*
X22663Y52562D01*
X22562D01*
X22460Y52663D01*
X22358Y52562D01*
X22257D01*
X22358Y52460D01*
X22257Y52358D01*
X22358D01*
X22460Y52257D01*
Y57337D02*
X22562Y57438D01*
X22663D01*
X22562Y57540D01*
X22663Y57642D01*
X22562D01*
X22460Y57743D01*
X22358Y57642D01*
X22257D01*
X22358Y57540D01*
X22257Y57438D01*
X22358D01*
X22460Y57337D01*
X27540D02*
X27642Y57438D01*
X27743D01*
X27642Y57540D01*
X27743Y57642D01*
X27642D01*
X27540Y57743D01*
X27438Y57642D01*
X27337D01*
X27438Y57540D01*
X27337Y57438D01*
X27438D01*
X27540Y57337D01*
X25000Y54797D02*
X24797Y55203D01*
X25203D01*
X25000Y54797D01*
X7540Y47337D02*
X7642Y47438D01*
X7743D01*
X7642Y47540D01*
X7743Y47642D01*
X7642D01*
X7540Y47743D01*
X7438Y47642D01*
X7337D01*
X7438Y47540D01*
X7337Y47438D01*
X7438D01*
X7540Y47337D01*
Y42257D02*
X7642Y42358D01*
X7743D01*
X7642Y42460D01*
X7743Y42562D01*
X7642D01*
X7540Y42663D01*
X7438Y42562D01*
X7337D01*
X7438Y42460D01*
X7337Y42358D01*
X7438D01*
X7540Y42257D01*
X2460D02*
X2562Y42358D01*
X2663D01*
X2562Y42460D01*
X2663Y42562D01*
X2562D01*
X2460Y42663D01*
X2358Y42562D01*
X2257D01*
X2358Y42460D01*
X2257Y42358D01*
X2358D01*
X2460Y42257D01*
Y47337D02*
X2562Y47438D01*
X2663D01*
X2562Y47540D01*
X2663Y47642D01*
X2562D01*
X2460Y47743D01*
X2358Y47642D01*
X2257D01*
X2358Y47540D01*
X2257Y47438D01*
X2358D01*
X2460Y47337D01*
X5000Y44797D02*
X4797Y45203D01*
X5203D01*
X5000Y44797D01*
X7540Y37337D02*
X7642Y37438D01*
X7743D01*
X7642Y37540D01*
X7743Y37642D01*
X7642D01*
X7540Y37743D01*
X7438Y37642D01*
X7337D01*
X7438Y37540D01*
X7337Y37438D01*
X7438D01*
X7540Y37337D01*
Y32257D02*
X7642Y32358D01*
X7743D01*
X7642Y32460D01*
X7743Y32562D01*
X7642D01*
X7540Y32663D01*
X7438Y32562D01*
X7337D01*
X7438Y32460D01*
X7337Y32358D01*
X7438D01*
X7540Y32257D01*
X2460D02*
X2562Y32358D01*
X2663D01*
X2562Y32460D01*
X2663Y32562D01*
X2562D01*
X2460Y32663D01*
X2358Y32562D01*
X2257D01*
X2358Y32460D01*
X2257Y32358D01*
X2358D01*
X2460Y32257D01*
Y37337D02*
X2562Y37438D01*
X2663D01*
X2562Y37540D01*
X2663Y37642D01*
X2562D01*
X2460Y37743D01*
X2358Y37642D01*
X2257D01*
X2358Y37540D01*
X2257Y37438D01*
X2358D01*
X2460Y37337D01*
X5000Y34797D02*
X4797Y35203D01*
X5203D01*
X5000Y34797D01*
X7540Y27337D02*
X7642Y27438D01*
X7743D01*
X7642Y27540D01*
X7743Y27642D01*
X7642D01*
X7540Y27743D01*
X7438Y27642D01*
X7337D01*
X7438Y27540D01*
X7337Y27438D01*
X7438D01*
X7540Y27337D01*
Y22257D02*
X7642Y22358D01*
X7743D01*
X7642Y22460D01*
X7743Y22562D01*
X7642D01*
X7540Y22663D01*
X7438Y22562D01*
X7337D01*
X7438Y22460D01*
X7337Y22358D01*
X7438D01*
X7540Y22257D01*
X2460D02*
X2562Y22358D01*
X2663D01*
X2562Y22460D01*
X2663Y22562D01*
X2562D01*
X2460Y22663D01*
X2358Y22562D01*
X2257D01*
X2358Y22460D01*
X2257Y22358D01*
X2358D01*
X2460Y22257D01*
Y27337D02*
X2562Y27438D01*
X2663D01*
X2562Y27540D01*
X2663Y27642D01*
X2562D01*
X2460Y27743D01*
X2358Y27642D01*
X2257D01*
X2358Y27540D01*
X2257Y27438D01*
X2358D01*
X2460Y27337D01*
X5000Y24797D02*
X4797Y25203D01*
X5203D01*
X5000Y24797D01*
X7540Y17337D02*
X7642Y17438D01*
X7743D01*
X7642Y17540D01*
X7743Y17642D01*
X7642D01*
X7540Y17743D01*
X7438Y17642D01*
X7337D01*
X7438Y17540D01*
X7337Y17438D01*
X7438D01*
X7540Y17337D01*
Y12257D02*
X7642Y12358D01*
X7743D01*
X7642Y12460D01*
X7743Y12562D01*
X7642D01*
X7540Y12663D01*
X7438Y12562D01*
X7337D01*
X7438Y12460D01*
X7337Y12358D01*
X7438D01*
X7540Y12257D01*
X2460D02*
X2562Y12358D01*
X2663D01*
X2562Y12460D01*
X2663Y12562D01*
X2562D01*
X2460Y12663D01*
X2358Y12562D01*
X2257D01*
X2358Y12460D01*
X2257Y12358D01*
X2358D01*
X2460Y12257D01*
Y17337D02*
X2562Y17438D01*
X2663D01*
X2562Y17540D01*
X2663Y17642D01*
X2562D01*
X2460Y17743D01*
X2358Y17642D01*
X2257D01*
X2358Y17540D01*
X2257Y17438D01*
X2358D01*
X2460Y17337D01*
X5000Y14797D02*
X4797Y15203D01*
X5203D01*
X5000Y14797D01*
X130297Y54297D02*
X130398Y54500D01*
X130297Y54703D01*
X130500Y54602D01*
X130703Y54703D01*
X130602Y54500D01*
X130703Y54297D01*
X130500Y54398D01*
X130297Y54297D01*
X125297D02*
X125398Y54500D01*
X125297Y54703D01*
X125500Y54602D01*
X125703Y54703D01*
X125602Y54500D01*
X125703Y54297D01*
X125500Y54398D01*
X125297Y54297D01*
X102898Y14208D02*
Y14107D01*
X103102D01*
Y14208D01*
X103203D01*
Y14412D01*
X103102D01*
Y14513D01*
X102898D01*
Y14412D01*
X102797D01*
Y14208D01*
X102898D01*
Y11668D02*
Y11567D01*
X103102D01*
Y11668D01*
X103203D01*
Y11872D01*
X103102D01*
Y11973D01*
X102898D01*
Y11872D01*
X102797D01*
Y11668D01*
X102898D01*
Y6588D02*
Y6487D01*
X103102D01*
Y6588D01*
X103203D01*
Y6792D01*
X103102D01*
Y6893D01*
X102898D01*
Y6792D01*
X102797D01*
Y6588D01*
X102898D01*
Y9128D02*
Y9027D01*
X103102D01*
Y9128D01*
X103203D01*
Y9332D01*
X103102D01*
Y9433D01*
X102898D01*
Y9332D01*
X102797D01*
Y9128D01*
X102898D01*
X102898Y24628D02*
Y24527D01*
X103102D01*
Y24628D01*
X103203D01*
Y24832D01*
X103102D01*
Y24933D01*
X102898D01*
Y24832D01*
X102797D01*
Y24628D01*
X102898D01*
Y29708D02*
Y29607D01*
X103102D01*
Y29708D01*
X103203D01*
Y29912D01*
X103102D01*
Y30013D01*
X102898D01*
Y29912D01*
X102797D01*
Y29708D01*
X102898D01*
Y32248D02*
Y32147D01*
X103102D01*
Y32248D01*
X103203D01*
Y32452D01*
X103102D01*
Y32553D01*
X102898D01*
Y32452D01*
X102797D01*
Y32248D01*
X102898D01*
Y27168D02*
Y27067D01*
X103102D01*
Y27168D01*
X103203D01*
Y27372D01*
X103102D01*
Y27473D01*
X102898D01*
Y27372D01*
X102797D01*
Y27168D01*
X102898D01*
Y22088D02*
Y21987D01*
X103102D01*
Y22088D01*
X103203D01*
Y22292D01*
X103102D01*
Y22393D01*
X102898D01*
Y22292D01*
X102797D01*
Y22088D01*
X102898D01*
Y19548D02*
Y19447D01*
X103102D01*
Y19548D01*
X103203D01*
Y19752D01*
X103102D01*
Y19853D01*
X102898D01*
Y19752D01*
X102797D01*
Y19548D01*
X102898D01*
X70000Y54797D02*
X69797Y55203D01*
X70203D01*
X70000Y54797D01*
X72540Y57337D02*
X72642Y57438D01*
X72743D01*
X72642Y57540D01*
X72743Y57642D01*
X72642D01*
X72540Y57743D01*
X72438Y57642D01*
X72337D01*
X72438Y57540D01*
X72337Y57438D01*
X72438D01*
X72540Y57337D01*
X67460D02*
X67562Y57438D01*
X67663D01*
X67562Y57540D01*
X67663Y57642D01*
X67562D01*
X67460Y57743D01*
X67358Y57642D01*
X67257D01*
X67358Y57540D01*
X67257Y57438D01*
X67358D01*
X67460Y57337D01*
Y52257D02*
X67562Y52358D01*
X67663D01*
X67562Y52460D01*
X67663Y52562D01*
X67562D01*
X67460Y52663D01*
X67358Y52562D01*
X67257D01*
X67358Y52460D01*
X67257Y52358D01*
X67358D01*
X67460Y52257D01*
X72540D02*
X72642Y52358D01*
X72743D01*
X72642Y52460D01*
X72743Y52562D01*
X72642D01*
X72540Y52663D01*
X72438Y52562D01*
X72337D01*
X72438Y52460D01*
X72337Y52358D01*
X72438D01*
X72540Y52257D01*
X76297Y40297D02*
X76398D01*
X76500Y40398D01*
X76602Y40297D01*
X76703D01*
Y40398D01*
X76602Y40500D01*
X76703Y40602D01*
Y40703D01*
X76602D01*
X76500Y40602D01*
X76398Y40703D01*
X76297D01*
Y40602D01*
X76398Y40500D01*
X76297Y40398D01*
Y40297D01*
X62347Y19950D02*
X62550Y20153D01*
X62753Y19950D01*
X62550Y19747D01*
X62347Y19950D01*
X61247D02*
X61450Y20153D01*
X61653Y19950D01*
X61450Y19747D01*
X61247Y19950D01*
X62347Y21050D02*
X62550Y21253D01*
X62753Y21050D01*
X62550Y20847D01*
X62347Y21050D01*
X61247D02*
X61450Y21253D01*
X61653Y21050D01*
X61450Y20847D01*
X61247Y21050D01*
X49347Y19950D02*
X49550Y20153D01*
X49753Y19950D01*
X49550Y19747D01*
X49347Y19950D01*
X48247D02*
X48450Y20153D01*
X48653Y19950D01*
X48450Y19747D01*
X48247Y19950D01*
X49347Y21050D02*
X49550Y21253D01*
X49753Y21050D01*
X49550Y20847D01*
X49347Y21050D01*
X48247D02*
X48450Y21253D01*
X48653Y21050D01*
X48450Y20847D01*
X48247Y21050D01*
X36347Y19950D02*
X36550Y20153D01*
X36753Y19950D01*
X36550Y19747D01*
X36347Y19950D01*
X35247D02*
X35450Y20153D01*
X35653Y19950D01*
X35450Y19747D01*
X35247Y19950D01*
X36347Y21050D02*
X36550Y21253D01*
X36753Y21050D01*
X36550Y20847D01*
X36347Y21050D01*
X35247D02*
X35450Y21253D01*
X35653Y21050D01*
X35450Y20847D01*
X35247Y21050D01*
X22247D02*
X22450Y21253D01*
X22653Y21050D01*
X22450Y20847D01*
X22247Y21050D01*
X23347D02*
X23550Y21253D01*
X23753Y21050D01*
X23550Y20847D01*
X23347Y21050D01*
X22247Y19950D02*
X22450Y20153D01*
X22653Y19950D01*
X22450Y19747D01*
X22247Y19950D01*
X23347D02*
X23550Y20153D01*
X23753Y19950D01*
X23550Y19747D01*
X23347Y19950D01*
X109047Y17547D02*
X109148D01*
X109250Y17648D01*
X109352Y17547D01*
X109453D01*
Y17648D01*
X109352Y17750D01*
X109453Y17852D01*
Y17953D01*
X109352D01*
X109250Y17852D01*
X109148Y17953D01*
X109047D01*
Y17852D01*
X109148Y17750D01*
X109047Y17648D01*
Y17547D01*
X117797Y6297D02*
X117898D01*
X118000Y6398D01*
X118102Y6297D01*
X118203D01*
Y6398D01*
X118102Y6500D01*
X118203Y6602D01*
Y6703D01*
X118102D01*
X118000Y6602D01*
X117898Y6703D01*
X117797D01*
Y6602D01*
X117898Y6500D01*
X117797Y6398D01*
Y6297D01*
X86297Y50047D02*
X86398D01*
X86500Y50148D01*
X86602Y50047D01*
X86703D01*
Y50148D01*
X86602Y50250D01*
X86703Y50352D01*
Y50453D01*
X86602D01*
X86500Y50352D01*
X86398Y50453D01*
X86297D01*
Y50352D01*
X86398Y50250D01*
X86297Y50148D01*
Y50047D01*
Y55547D02*
X86398D01*
X86500Y55648D01*
X86602Y55547D01*
X86703D01*
Y55648D01*
X86602Y55750D01*
X86703Y55852D01*
Y55953D01*
X86602D01*
X86500Y55852D01*
X86398Y55953D01*
X86297D01*
Y55852D01*
X86398Y55750D01*
X86297Y55648D01*
Y55547D01*
X100547Y38297D02*
X100648D01*
X100750Y38398D01*
X100852Y38297D01*
X100953D01*
Y38398D01*
X100852Y38500D01*
X100953Y38602D01*
Y38703D01*
X100852D01*
X100750Y38602D01*
X100648Y38703D01*
X100547D01*
Y38602D01*
X100648Y38500D01*
X100547Y38398D01*
Y38297D01*
Y36297D02*
X100648D01*
X100750Y36398D01*
X100852Y36297D01*
X100953D01*
Y36398D01*
X100852Y36500D01*
X100953Y36602D01*
Y36703D01*
X100852D01*
X100750Y36602D01*
X100648Y36703D01*
X100547D01*
Y36602D01*
X100648Y36500D01*
X100547Y36398D01*
Y36297D01*
X85547Y4047D02*
X85648D01*
X85750Y4148D01*
X85852Y4047D01*
X85953D01*
Y4148D01*
X85852Y4250D01*
X85953Y4352D01*
Y4453D01*
X85852D01*
X85750Y4352D01*
X85648Y4453D01*
X85547D01*
Y4352D01*
X85648Y4250D01*
X85547Y4148D01*
Y4047D01*
X85297Y3297D02*
X85398D01*
X85500Y3398D01*
X85602Y3297D01*
X85703D01*
Y3398D01*
X85602Y3500D01*
X85703Y3602D01*
Y3703D01*
X85602D01*
X85500Y3602D01*
X85398Y3703D01*
X85297D01*
Y3602D01*
X85398Y3500D01*
X85297Y3398D01*
Y3297D01*
X92162Y11297D02*
X92263D01*
X92365Y11398D01*
X92467Y11297D01*
X92568D01*
Y11398D01*
X92467Y11500D01*
X92568Y11602D01*
Y11703D01*
X92467D01*
X92365Y11602D01*
X92263Y11703D01*
X92162D01*
Y11602D01*
X92263Y11500D01*
X92162Y11398D01*
Y11297D01*
Y23297D02*
X92263D01*
X92365Y23398D01*
X92467Y23297D01*
X92568D01*
Y23398D01*
X92467Y23500D01*
X92568Y23602D01*
Y23703D01*
X92467D01*
X92365Y23602D01*
X92263Y23703D01*
X92162D01*
Y23602D01*
X92263Y23500D01*
X92162Y23398D01*
Y23297D01*
Y35297D02*
X92263D01*
X92365Y35398D01*
X92467Y35297D01*
X92568D01*
Y35398D01*
X92467Y35500D01*
X92568Y35602D01*
Y35703D01*
X92467D01*
X92365Y35602D01*
X92263Y35703D01*
X92162D01*
Y35602D01*
X92263Y35500D01*
X92162Y35398D01*
Y35297D01*
X95972Y3297D02*
X96073D01*
X96175Y3398D01*
X96277Y3297D01*
X96378D01*
Y3398D01*
X96277Y3500D01*
X96378Y3602D01*
Y3703D01*
X96277D01*
X96175Y3602D01*
X96073Y3703D01*
X95972D01*
Y3602D01*
X96073Y3500D01*
X95972Y3398D01*
Y3297D01*
Y15297D02*
X96073D01*
X96175Y15398D01*
X96277Y15297D01*
X96378D01*
Y15398D01*
X96277Y15500D01*
X96378Y15602D01*
Y15703D01*
X96277D01*
X96175Y15602D01*
X96073Y15703D01*
X95972D01*
Y15602D01*
X96073Y15500D01*
X95972Y15398D01*
Y15297D01*
Y27297D02*
X96073D01*
X96175Y27398D01*
X96277Y27297D01*
X96378D01*
Y27398D01*
X96277Y27500D01*
X96378Y27602D01*
Y27703D01*
X96277D01*
X96175Y27602D01*
X96073Y27703D01*
X95972D01*
Y27602D01*
X96073Y27500D01*
X95972Y27398D01*
Y27297D01*
Y39297D02*
X96073D01*
X96175Y39398D01*
X96277Y39297D01*
X96378D01*
Y39398D01*
X96277Y39500D01*
X96378Y39602D01*
Y39703D01*
X96277D01*
X96175Y39602D01*
X96073Y39703D01*
X95972D01*
Y39602D01*
X96073Y39500D01*
X95972Y39398D01*
Y39297D01*
X92162Y47297D02*
X92263D01*
X92365Y47398D01*
X92467Y47297D01*
X92568D01*
Y47398D01*
X92467Y47500D01*
X92568Y47602D01*
Y47703D01*
X92467D01*
X92365Y47602D01*
X92263Y47703D01*
X92162D01*
Y47602D01*
X92263Y47500D01*
X92162Y47398D01*
Y47297D01*
X93432Y3297D02*
X93533D01*
X93635Y3398D01*
X93737Y3297D01*
X93838D01*
Y3398D01*
X93737Y3500D01*
X93838Y3602D01*
Y3703D01*
X93737D01*
X93635Y3602D01*
X93533Y3703D01*
X93432D01*
Y3602D01*
X93533Y3500D01*
X93432Y3398D01*
Y3297D01*
X90892D02*
X90993D01*
X91095Y3398D01*
X91197Y3297D01*
X91298D01*
Y3398D01*
X91197Y3500D01*
X91298Y3602D01*
Y3703D01*
X91197D01*
X91095Y3602D01*
X90993Y3703D01*
X90892D01*
Y3602D01*
X90993Y3500D01*
X90892Y3398D01*
Y3297D01*
Y15297D02*
X90993D01*
X91095Y15398D01*
X91197Y15297D01*
X91298D01*
Y15398D01*
X91197Y15500D01*
X91298Y15602D01*
Y15703D01*
X91197D01*
X91095Y15602D01*
X90993Y15703D01*
X90892D01*
Y15602D01*
X90993Y15500D01*
X90892Y15398D01*
Y15297D01*
X93432D02*
X93533D01*
X93635Y15398D01*
X93737Y15297D01*
X93838D01*
Y15398D01*
X93737Y15500D01*
X93838Y15602D01*
Y15703D01*
X93737D01*
X93635Y15602D01*
X93533Y15703D01*
X93432D01*
Y15602D01*
X93533Y15500D01*
X93432Y15398D01*
Y15297D01*
Y27297D02*
X93533D01*
X93635Y27398D01*
X93737Y27297D01*
X93838D01*
Y27398D01*
X93737Y27500D01*
X93838Y27602D01*
Y27703D01*
X93737D01*
X93635Y27602D01*
X93533Y27703D01*
X93432D01*
Y27602D01*
X93533Y27500D01*
X93432Y27398D01*
Y27297D01*
X90892D02*
X90993D01*
X91095Y27398D01*
X91197Y27297D01*
X91298D01*
Y27398D01*
X91197Y27500D01*
X91298Y27602D01*
Y27703D01*
X91197D01*
X91095Y27602D01*
X90993Y27703D01*
X90892D01*
Y27602D01*
X90993Y27500D01*
X90892Y27398D01*
Y27297D01*
X93432Y39297D02*
X93533D01*
X93635Y39398D01*
X93737Y39297D01*
X93838D01*
Y39398D01*
X93737Y39500D01*
X93838Y39602D01*
Y39703D01*
X93737D01*
X93635Y39602D01*
X93533Y39703D01*
X93432D01*
Y39602D01*
X93533Y39500D01*
X93432Y39398D01*
Y39297D01*
X90892D02*
X90993D01*
X91095Y39398D01*
X91197Y39297D01*
X91298D01*
Y39398D01*
X91197Y39500D01*
X91298Y39602D01*
Y39703D01*
X91197D01*
X91095Y39602D01*
X90993Y39703D01*
X90892D01*
Y39602D01*
X90993Y39500D01*
X90892Y39398D01*
Y39297D01*
X86797Y53297D02*
X86898D01*
X87000Y53398D01*
X87102Y53297D01*
X87203D01*
Y53398D01*
X87102Y53500D01*
X87203Y53602D01*
Y53703D01*
X87102D01*
X87000Y53602D01*
X86898Y53703D01*
X86797D01*
Y53602D01*
X86898Y53500D01*
X86797Y53398D01*
Y53297D01*
X85797D02*
X85898D01*
X86000Y53398D01*
X86102Y53297D01*
X86203D01*
Y53398D01*
X86102Y53500D01*
X86203Y53602D01*
Y53703D01*
X86102D01*
X86000Y53602D01*
X85898Y53703D01*
X85797D01*
Y53602D01*
X85898Y53500D01*
X85797Y53398D01*
Y53297D01*
X87047Y49697D02*
X87148D01*
X87250Y49798D01*
X87352Y49697D01*
X87453D01*
Y49798D01*
X87352Y49900D01*
X87453Y50002D01*
Y50103D01*
X87352D01*
X87250Y50002D01*
X87148Y50103D01*
X87047D01*
Y50002D01*
X87148Y49900D01*
X87047Y49798D01*
Y49697D01*
X120297Y51297D02*
X120398D01*
X120500Y51398D01*
X120602Y51297D01*
X120703D01*
Y51398D01*
X120602Y51500D01*
X120703Y51602D01*
Y51703D01*
X120602D01*
X120500Y51602D01*
X120398Y51703D01*
X120297D01*
Y51602D01*
X120398Y51500D01*
X120297Y51398D01*
Y51297D01*
X118797D02*
X118898D01*
X119000Y51398D01*
X119102Y51297D01*
X119203D01*
Y51398D01*
X119102Y51500D01*
X119203Y51602D01*
Y51703D01*
X119102D01*
X119000Y51602D01*
X118898Y51703D01*
X118797D01*
Y51602D01*
X118898Y51500D01*
X118797Y51398D01*
Y51297D01*
X109797D02*
X109898D01*
X110000Y51398D01*
X110102Y51297D01*
X110203D01*
Y51398D01*
X110102Y51500D01*
X110203Y51602D01*
Y51703D01*
X110102D01*
X110000Y51602D01*
X109898Y51703D01*
X109797D01*
Y51602D01*
X109898Y51500D01*
X109797Y51398D01*
Y51297D01*
X108297D02*
X108398D01*
X108500Y51398D01*
X108602Y51297D01*
X108703D01*
Y51398D01*
X108602Y51500D01*
X108703Y51602D01*
Y51703D01*
X108602D01*
X108500Y51602D01*
X108398Y51703D01*
X108297D01*
Y51602D01*
X108398Y51500D01*
X108297Y51398D01*
Y51297D01*
X87047Y55197D02*
X87148D01*
X87250Y55298D01*
X87352Y55197D01*
X87453D01*
Y55298D01*
X87352Y55400D01*
X87453Y55502D01*
Y55603D01*
X87352D01*
X87250Y55502D01*
X87148Y55603D01*
X87047D01*
Y55502D01*
X87148Y55400D01*
X87047Y55298D01*
Y55197D01*
X82047Y58047D02*
X82148D01*
X82250Y58148D01*
X82352Y58047D01*
X82453D01*
Y58148D01*
X82352Y58250D01*
X82453Y58352D01*
Y58453D01*
X82352D01*
X82250Y58352D01*
X82148Y58453D01*
X82047D01*
Y58352D01*
X82148Y58250D01*
X82047Y58148D01*
Y58047D01*
Y52047D02*
X82148D01*
X82250Y52148D01*
X82352Y52047D01*
X82453D01*
Y52148D01*
X82352Y52250D01*
X82453Y52352D01*
Y52453D01*
X82352D01*
X82250Y52352D01*
X82148Y52453D01*
X82047D01*
Y52352D01*
X82148Y52250D01*
X82047Y52148D01*
Y52047D01*
Y57547D02*
X82148D01*
X82250Y57648D01*
X82352Y57547D01*
X82453D01*
Y57648D01*
X82352Y57750D01*
X82453Y57852D01*
Y57953D01*
X82352D01*
X82250Y57852D01*
X82148Y57953D01*
X82047D01*
Y57852D01*
X82148Y57750D01*
X82047Y57648D01*
Y57547D01*
X119547Y51297D02*
X119648D01*
X119750Y51398D01*
X119852Y51297D01*
X119953D01*
Y51398D01*
X119852Y51500D01*
X119953Y51602D01*
Y51703D01*
X119852D01*
X119750Y51602D01*
X119648Y51703D01*
X119547D01*
Y51602D01*
X119648Y51500D01*
X119547Y51398D01*
Y51297D01*
X109047D02*
X109148D01*
X109250Y51398D01*
X109352Y51297D01*
X109453D01*
Y51398D01*
X109352Y51500D01*
X109453Y51602D01*
Y51703D01*
X109352D01*
X109250Y51602D01*
X109148Y51703D01*
X109047D01*
Y51602D01*
X109148Y51500D01*
X109047Y51398D01*
Y51297D01*
X82047Y52547D02*
X82148D01*
X82250Y52648D01*
X82352Y52547D01*
X82453D01*
Y52648D01*
X82352Y52750D01*
X82453Y52852D01*
Y52953D01*
X82352D01*
X82250Y52852D01*
X82148Y52953D01*
X82047D01*
Y52852D01*
X82148Y52750D01*
X82047Y52648D01*
Y52547D01*
X106627Y20412D02*
X106728D01*
X106830Y20513D01*
X106932Y20412D01*
X107033D01*
Y20513D01*
X106932Y20615D01*
X107033Y20717D01*
Y20818D01*
X106932D01*
X106830Y20717D01*
X106728Y20818D01*
X106627D01*
Y20717D01*
X106728Y20615D01*
X106627Y20513D01*
Y20412D01*
X107912Y19127D02*
X108013D01*
X108115Y19228D01*
X108217Y19127D01*
X108318D01*
Y19228D01*
X108217Y19330D01*
X108318Y19432D01*
Y19533D01*
X108217D01*
X108115Y19432D01*
X108013Y19533D01*
X107912D01*
Y19432D01*
X108013Y19330D01*
X107912Y19228D01*
Y19127D01*
X113797D02*
X113898D01*
X114000Y19228D01*
X114102Y19127D01*
X114203D01*
Y19228D01*
X114102Y19330D01*
X114203Y19432D01*
Y19533D01*
X114102D01*
X114000Y19432D01*
X113898Y19533D01*
X113797D01*
Y19432D01*
X113898Y19330D01*
X113797Y19228D01*
Y19127D01*
X119797D02*
X119898D01*
X120000Y19228D01*
X120102Y19127D01*
X120203D01*
Y19228D01*
X120102Y19330D01*
X120203Y19432D01*
Y19533D01*
X120102D01*
X120000Y19432D01*
X119898Y19533D01*
X119797D01*
Y19432D01*
X119898Y19330D01*
X119797Y19228D01*
Y19127D01*
X125797D02*
X125898D01*
X126000Y19228D01*
X126102Y19127D01*
X126203D01*
Y19228D01*
X126102Y19330D01*
X126203Y19432D01*
Y19533D01*
X126102D01*
X126000Y19432D01*
X125898Y19533D01*
X125797D01*
Y19432D01*
X125898Y19330D01*
X125797Y19228D01*
Y19127D01*
X131682D02*
X131783D01*
X131885Y19228D01*
X131987Y19127D01*
X132088D01*
Y19228D01*
X131987Y19330D01*
X132088Y19432D01*
Y19533D01*
X131987D01*
X131885Y19432D01*
X131783Y19533D01*
X131682D01*
Y19432D01*
X131783Y19330D01*
X131682Y19228D01*
Y19127D01*
X132967Y20412D02*
X133068D01*
X133170Y20513D01*
X133272Y20412D01*
X133373D01*
Y20513D01*
X133272Y20615D01*
X133373Y20717D01*
Y20818D01*
X133272D01*
X133170Y20717D01*
X133068Y20818D01*
X132967D01*
Y20717D01*
X133068Y20615D01*
X132967Y20513D01*
Y20412D01*
Y26297D02*
X133068D01*
X133170Y26398D01*
X133272Y26297D01*
X133373D01*
Y26398D01*
X133272Y26500D01*
X133373Y26602D01*
Y26703D01*
X133272D01*
X133170Y26602D01*
X133068Y26703D01*
X132967D01*
Y26602D01*
X133068Y26500D01*
X132967Y26398D01*
Y26297D01*
Y32297D02*
X133068D01*
X133170Y32398D01*
X133272Y32297D01*
X133373D01*
Y32398D01*
X133272Y32500D01*
X133373Y32602D01*
Y32703D01*
X133272D01*
X133170Y32602D01*
X133068Y32703D01*
X132967D01*
Y32602D01*
X133068Y32500D01*
X132967Y32398D01*
Y32297D01*
Y38297D02*
X133068D01*
X133170Y38398D01*
X133272Y38297D01*
X133373D01*
Y38398D01*
X133272Y38500D01*
X133373Y38602D01*
Y38703D01*
X133272D01*
X133170Y38602D01*
X133068Y38703D01*
X132967D01*
Y38602D01*
X133068Y38500D01*
X132967Y38398D01*
Y38297D01*
Y44182D02*
X133068D01*
X133170Y44283D01*
X133272Y44182D01*
X133373D01*
Y44283D01*
X133272Y44385D01*
X133373Y44487D01*
Y44588D01*
X133272D01*
X133170Y44487D01*
X133068Y44588D01*
X132967D01*
Y44487D01*
X133068Y44385D01*
X132967Y44283D01*
Y44182D01*
X131682Y45467D02*
X131783D01*
X131885Y45568D01*
X131987Y45467D01*
X132088D01*
Y45568D01*
X131987Y45670D01*
X132088Y45772D01*
Y45873D01*
X131987D01*
X131885Y45772D01*
X131783Y45873D01*
X131682D01*
Y45772D01*
X131783Y45670D01*
X131682Y45568D01*
Y45467D01*
X125797D02*
X125898D01*
X126000Y45568D01*
X126102Y45467D01*
X126203D01*
Y45568D01*
X126102Y45670D01*
X126203Y45772D01*
Y45873D01*
X126102D01*
X126000Y45772D01*
X125898Y45873D01*
X125797D01*
Y45772D01*
X125898Y45670D01*
X125797Y45568D01*
Y45467D01*
X119797D02*
X119898D01*
X120000Y45568D01*
X120102Y45467D01*
X120203D01*
Y45568D01*
X120102Y45670D01*
X120203Y45772D01*
Y45873D01*
X120102D01*
X120000Y45772D01*
X119898Y45873D01*
X119797D01*
Y45772D01*
X119898Y45670D01*
X119797Y45568D01*
Y45467D01*
X113797D02*
X113898D01*
X114000Y45568D01*
X114102Y45467D01*
X114203D01*
Y45568D01*
X114102Y45670D01*
X114203Y45772D01*
Y45873D01*
X114102D01*
X114000Y45772D01*
X113898Y45873D01*
X113797D01*
Y45772D01*
X113898Y45670D01*
X113797Y45568D01*
Y45467D01*
X107912D02*
X108013D01*
X108115Y45568D01*
X108217Y45467D01*
X108318D01*
Y45568D01*
X108217Y45670D01*
X108318Y45772D01*
Y45873D01*
X108217D01*
X108115Y45772D01*
X108013Y45873D01*
X107912D01*
Y45772D01*
X108013Y45670D01*
X107912Y45568D01*
Y45467D01*
X106627Y44182D02*
X106728D01*
X106830Y44283D01*
X106932Y44182D01*
X107033D01*
Y44283D01*
X106932Y44385D01*
X107033Y44487D01*
Y44588D01*
X106932D01*
X106830Y44487D01*
X106728Y44588D01*
X106627D01*
Y44487D01*
X106728Y44385D01*
X106627Y44283D01*
Y44182D01*
Y38297D02*
X106728D01*
X106830Y38398D01*
X106932Y38297D01*
X107033D01*
Y38398D01*
X106932Y38500D01*
X107033Y38602D01*
Y38703D01*
X106932D01*
X106830Y38602D01*
X106728Y38703D01*
X106627D01*
Y38602D01*
X106728Y38500D01*
X106627Y38398D01*
Y38297D01*
Y32297D02*
X106728D01*
X106830Y32398D01*
X106932Y32297D01*
X107033D01*
Y32398D01*
X106932Y32500D01*
X107033Y32602D01*
Y32703D01*
X106932D01*
X106830Y32602D01*
X106728Y32703D01*
X106627D01*
Y32602D01*
X106728Y32500D01*
X106627Y32398D01*
Y32297D01*
Y26297D02*
X106728D01*
X106830Y26398D01*
X106932Y26297D01*
X107033D01*
Y26398D01*
X106932Y26500D01*
X107033Y26602D01*
Y26703D01*
X106932D01*
X106830Y26602D01*
X106728Y26703D01*
X106627D01*
Y26602D01*
X106728Y26500D01*
X106627Y26398D01*
Y26297D01*
X23797Y30547D02*
X23898D01*
X24000Y30648D01*
X24102Y30547D01*
X24203D01*
Y30648D01*
X24102Y30750D01*
X24203Y30852D01*
Y30953D01*
X24102D01*
X24000Y30852D01*
X23898Y30953D01*
X23797D01*
Y30852D01*
X23898Y30750D01*
X23797Y30648D01*
Y30547D01*
X36797D02*
X36898D01*
X37000Y30648D01*
X37102Y30547D01*
X37203D01*
Y30648D01*
X37102Y30750D01*
X37203Y30852D01*
Y30953D01*
X37102D01*
X37000Y30852D01*
X36898Y30953D01*
X36797D01*
Y30852D01*
X36898Y30750D01*
X36797Y30648D01*
Y30547D01*
X49797D02*
X49898D01*
X50000Y30648D01*
X50102Y30547D01*
X50203D01*
Y30648D01*
X50102Y30750D01*
X50203Y30852D01*
Y30953D01*
X50102D01*
X50000Y30852D01*
X49898Y30953D01*
X49797D01*
Y30852D01*
X49898Y30750D01*
X49797Y30648D01*
Y30547D01*
X62797D02*
X62898D01*
X63000Y30648D01*
X63102Y30547D01*
X63203D01*
Y30648D01*
X63102Y30750D01*
X63203Y30852D01*
Y30953D01*
X63102D01*
X63000Y30852D01*
X62898Y30953D01*
X62797D01*
Y30852D01*
X62898Y30750D01*
X62797Y30648D01*
Y30547D01*
X78297Y28047D02*
X78398D01*
X78500Y28148D01*
X78602Y28047D01*
X78703D01*
Y28148D01*
X78602Y28250D01*
X78703Y28352D01*
Y28453D01*
X78602D01*
X78500Y28352D01*
X78398Y28453D01*
X78297D01*
Y28352D01*
X78398Y28250D01*
X78297Y28148D01*
Y28047D01*
X80297Y27797D02*
X80398D01*
X80500Y27898D01*
X80602Y27797D01*
X80703D01*
Y27898D01*
X80602Y28000D01*
X80703Y28102D01*
Y28203D01*
X80602D01*
X80500Y28102D01*
X80398Y28203D01*
X80297D01*
Y28102D01*
X80398Y28000D01*
X80297Y27898D01*
Y27797D01*
X77122Y31297D02*
X77223D01*
X77325Y31398D01*
X77427Y31297D01*
X77528D01*
Y31398D01*
X77427Y31500D01*
X77528Y31602D01*
Y31703D01*
X77427D01*
X77325Y31602D01*
X77223Y31703D01*
X77122D01*
Y31602D01*
X77223Y31500D01*
X77122Y31398D01*
Y31297D01*
X121547Y17797D02*
X121648D01*
X121750Y17898D01*
X121852Y17797D01*
X121953D01*
Y17898D01*
X121852Y18000D01*
X121953Y18102D01*
Y18203D01*
X121852D01*
X121750Y18102D01*
X121648Y18203D01*
X121547D01*
Y18102D01*
X121648Y18000D01*
X121547Y17898D01*
Y17797D01*
X117047Y18297D02*
X117148D01*
X117250Y18398D01*
X117352Y18297D01*
X117453D01*
Y18398D01*
X117352Y18500D01*
X117453Y18602D01*
Y18703D01*
X117352D01*
X117250Y18602D01*
X117148Y18703D01*
X117047D01*
Y18602D01*
X117148Y18500D01*
X117047Y18398D01*
Y18297D01*
X118797Y6297D02*
X118898D01*
X119000Y6398D01*
X119102Y6297D01*
X119203D01*
Y6398D01*
X119102Y6500D01*
X119203Y6602D01*
Y6703D01*
X119102D01*
X119000Y6602D01*
X118898Y6703D01*
X118797D01*
Y6602D01*
X118898Y6500D01*
X118797Y6398D01*
Y6297D01*
X110547Y12047D02*
X110648D01*
X110750Y12148D01*
X110852Y12047D01*
X110953D01*
Y12148D01*
X110852Y12250D01*
X110953Y12352D01*
Y12453D01*
X110852D01*
X110750Y12352D01*
X110648Y12453D01*
X110547D01*
Y12352D01*
X110648Y12250D01*
X110547Y12148D01*
Y12047D01*
X111547Y13547D02*
X111648D01*
X111750Y13648D01*
X111852Y13547D01*
X111953D01*
Y13648D01*
X111852Y13750D01*
X111953Y13852D01*
Y13953D01*
X111852D01*
X111750Y13852D01*
X111648Y13953D01*
X111547D01*
Y13852D01*
X111648Y13750D01*
X111547Y13648D01*
Y13547D01*
X111047Y12797D02*
X111148D01*
X111250Y12898D01*
X111352Y12797D01*
X111453D01*
Y12898D01*
X111352Y13000D01*
X111453Y13102D01*
Y13203D01*
X111352D01*
X111250Y13102D01*
X111148Y13203D01*
X111047D01*
Y13102D01*
X111148Y13000D01*
X111047Y12898D01*
Y12797D01*
X113047Y4797D02*
X113148D01*
X113250Y4898D01*
X113352Y4797D01*
X113453D01*
Y4898D01*
X113352Y5000D01*
X113453Y5102D01*
Y5203D01*
X113352D01*
X113250Y5102D01*
X113148Y5203D01*
X113047D01*
Y5102D01*
X113148Y5000D01*
X113047Y4898D01*
Y4797D01*
X116047Y8797D02*
X116148D01*
X116250Y8898D01*
X116352Y8797D01*
X116453D01*
Y8898D01*
X116352Y9000D01*
X116453Y9102D01*
Y9203D01*
X116352D01*
X116250Y9102D01*
X116148Y9203D01*
X116047D01*
Y9102D01*
X116148Y9000D01*
X116047Y8898D01*
Y8797D01*
X55297Y28297D02*
X55398D01*
X55500Y28398D01*
X55602Y28297D01*
X55703D01*
Y28398D01*
X55602Y28500D01*
X55703Y28602D01*
Y28703D01*
X55602D01*
X55500Y28602D01*
X55398Y28703D01*
X55297D01*
Y28602D01*
X55398Y28500D01*
X55297Y28398D01*
Y28297D01*
X124797Y3797D02*
X124898D01*
X125000Y3898D01*
X125102Y3797D01*
X125203D01*
Y3898D01*
X125102Y4000D01*
X125203Y4102D01*
Y4203D01*
X125102D01*
X125000Y4102D01*
X124898Y4203D01*
X124797D01*
Y4102D01*
X124898Y4000D01*
X124797Y3898D01*
Y3797D01*
X82047Y8922D02*
X82148D01*
X82250Y9023D01*
X82352Y8922D01*
X82453D01*
Y9023D01*
X82352Y9125D01*
X82453Y9227D01*
Y9328D01*
X82352D01*
X82250Y9227D01*
X82148Y9328D01*
X82047D01*
Y9227D01*
X82148Y9125D01*
X82047Y9023D01*
Y8922D01*
X76297Y5022D02*
X76398D01*
X76500Y5123D01*
X76602Y5022D01*
X76703D01*
Y5123D01*
X76602Y5225D01*
X76703Y5327D01*
Y5428D01*
X76602D01*
X76500Y5327D01*
X76398Y5428D01*
X76297D01*
Y5327D01*
X76398Y5225D01*
X76297Y5123D01*
Y5022D01*
Y6972D02*
X76398D01*
X76500Y7073D01*
X76602Y6972D01*
X76703D01*
Y7073D01*
X76602Y7175D01*
X76703Y7277D01*
Y7378D01*
X76602D01*
X76500Y7277D01*
X76398Y7378D01*
X76297D01*
Y7277D01*
X76398Y7175D01*
X76297Y7073D01*
Y6972D01*
X81047Y42547D02*
X81148D01*
X81250Y42648D01*
X81352Y42547D01*
X81453D01*
Y42648D01*
X81352Y42750D01*
X81453Y42852D01*
Y42953D01*
X81352D01*
X81250Y42852D01*
X81148Y42953D01*
X81047D01*
Y42852D01*
X81148Y42750D01*
X81047Y42648D01*
Y42547D01*
X79047D02*
X79148D01*
X79250Y42648D01*
X79352Y42547D01*
X79453D01*
Y42648D01*
X79352Y42750D01*
X79453Y42852D01*
Y42953D01*
X79352D01*
X79250Y42852D01*
X79148Y42953D01*
X79047D01*
Y42852D01*
X79148Y42750D01*
X79047Y42648D01*
Y42547D01*
X77047Y37047D02*
X77148D01*
X77250Y37148D01*
X77352Y37047D01*
X77453D01*
Y37148D01*
X77352Y37250D01*
X77453Y37352D01*
Y37453D01*
X77352D01*
X77250Y37352D01*
X77148Y37453D01*
X77047D01*
Y37352D01*
X77148Y37250D01*
X77047Y37148D01*
Y37047D01*
X82047Y36047D02*
X82148D01*
X82250Y36148D01*
X82352Y36047D01*
X82453D01*
Y36148D01*
X82352Y36250D01*
X82453Y36352D01*
Y36453D01*
X82352D01*
X82250Y36352D01*
X82148Y36453D01*
X82047D01*
Y36352D01*
X82148Y36250D01*
X82047Y36148D01*
Y36047D01*
Y37797D02*
X82148D01*
X82250Y37898D01*
X82352Y37797D01*
X82453D01*
Y37898D01*
X82352Y38000D01*
X82453Y38102D01*
Y38203D01*
X82352D01*
X82250Y38102D01*
X82148Y38203D01*
X82047D01*
Y38102D01*
X82148Y38000D01*
X82047Y37898D01*
Y37797D01*
X71547Y28047D02*
X71648D01*
X71750Y28148D01*
X71852Y28047D01*
X71953D01*
Y28148D01*
X71852Y28250D01*
X71953Y28352D01*
Y28453D01*
X71852D01*
X71750Y28352D01*
X71648Y28453D01*
X71547D01*
Y28352D01*
X71648Y28250D01*
X71547Y28148D01*
Y28047D01*
Y29547D02*
X71648D01*
X71750Y29648D01*
X71852Y29547D01*
X71953D01*
Y29648D01*
X71852Y29750D01*
X71953Y29852D01*
Y29953D01*
X71852D01*
X71750Y29852D01*
X71648Y29953D01*
X71547D01*
Y29852D01*
X71648Y29750D01*
X71547Y29648D01*
Y29547D01*
X72297Y22297D02*
X72398D01*
X72500Y22398D01*
X72602Y22297D01*
X72703D01*
Y22398D01*
X72602Y22500D01*
X72703Y22602D01*
Y22703D01*
X72602D01*
X72500Y22602D01*
X72398Y22703D01*
X72297D01*
Y22602D01*
X72398Y22500D01*
X72297Y22398D01*
Y22297D01*
Y25297D02*
X72398D01*
X72500Y25398D01*
X72602Y25297D01*
X72703D01*
Y25398D01*
X72602Y25500D01*
X72703Y25602D01*
Y25703D01*
X72602D01*
X72500Y25602D01*
X72398Y25703D01*
X72297D01*
Y25602D01*
X72398Y25500D01*
X72297Y25398D01*
Y25297D01*
X84047Y20547D02*
X84148D01*
X84250Y20648D01*
X84352Y20547D01*
X84453D01*
Y20648D01*
X84352Y20750D01*
X84453Y20852D01*
Y20953D01*
X84352D01*
X84250Y20852D01*
X84148Y20953D01*
X84047D01*
Y20852D01*
X84148Y20750D01*
X84047Y20648D01*
Y20547D01*
Y19047D02*
X84148D01*
X84250Y19148D01*
X84352Y19047D01*
X84453D01*
Y19148D01*
X84352Y19250D01*
X84453Y19352D01*
Y19453D01*
X84352D01*
X84250Y19352D01*
X84148Y19453D01*
X84047D01*
Y19352D01*
X84148Y19250D01*
X84047Y19148D01*
Y19047D01*
X74797Y15297D02*
X74898D01*
X75000Y15398D01*
X75102Y15297D01*
X75203D01*
Y15398D01*
X75102Y15500D01*
X75203Y15602D01*
Y15703D01*
X75102D01*
X75000Y15602D01*
X74898Y15703D01*
X74797D01*
Y15602D01*
X74898Y15500D01*
X74797Y15398D01*
Y15297D01*
X59297Y9797D02*
X59398D01*
X59500Y9898D01*
X59602Y9797D01*
X59703D01*
Y9898D01*
X59602Y10000D01*
X59703Y10102D01*
Y10203D01*
X59602D01*
X59500Y10102D01*
X59398Y10203D01*
X59297D01*
Y10102D01*
X59398Y10000D01*
X59297Y9898D01*
Y9797D01*
X22547Y10797D02*
X22648D01*
X22750Y10898D01*
X22852Y10797D01*
X22953D01*
Y10898D01*
X22852Y11000D01*
X22953Y11102D01*
Y11203D01*
X22852D01*
X22750Y11102D01*
X22648Y11203D01*
X22547D01*
Y11102D01*
X22648Y11000D01*
X22547Y10898D01*
Y10797D01*
X32547D02*
X32648D01*
X32750Y10898D01*
X32852Y10797D01*
X32953D01*
Y10898D01*
X32852Y11000D01*
X32953Y11102D01*
Y11203D01*
X32852D01*
X32750Y11102D01*
X32648Y11203D01*
X32547D01*
Y11102D01*
X32648Y11000D01*
X32547Y10898D01*
Y10797D01*
X42547D02*
X42648D01*
X42750Y10898D01*
X42852Y10797D01*
X42953D01*
Y10898D01*
X42852Y11000D01*
X42953Y11102D01*
Y11203D01*
X42852D01*
X42750Y11102D01*
X42648Y11203D01*
X42547D01*
Y11102D01*
X42648Y11000D01*
X42547Y10898D01*
Y10797D01*
X52547D02*
X52648D01*
X52750Y10898D01*
X52852Y10797D01*
X52953D01*
Y10898D01*
X52852Y11000D01*
X52953Y11102D01*
Y11203D01*
X52852D01*
X52750Y11102D01*
X52648Y11203D01*
X52547D01*
Y11102D01*
X52648Y11000D01*
X52547Y10898D01*
Y10797D01*
X82047Y6972D02*
X82148D01*
X82250Y7073D01*
X82352Y6972D01*
X82453D01*
Y7073D01*
X82352Y7175D01*
X82453Y7277D01*
Y7378D01*
X82352D01*
X82250Y7277D01*
X82148Y7378D01*
X82047D01*
Y7277D01*
X82148Y7175D01*
X82047Y7073D01*
Y6972D01*
X69797Y5047D02*
X69898D01*
X70000Y5148D01*
X70102Y5047D01*
X70203D01*
Y5148D01*
X70102Y5250D01*
X70203Y5352D01*
Y5453D01*
X70102D01*
X70000Y5352D01*
X69898Y5453D01*
X69797D01*
Y5352D01*
X69898Y5250D01*
X69797Y5148D01*
Y5047D01*
X23547Y14047D02*
X23648D01*
X23750Y14148D01*
X23852Y14047D01*
X23953D01*
Y14148D01*
X23852Y14250D01*
X23953Y14352D01*
Y14453D01*
X23852D01*
X23750Y14352D01*
X23648Y14453D01*
X23547D01*
Y14352D01*
X23648Y14250D01*
X23547Y14148D01*
Y14047D01*
X23297Y26297D02*
X23398D01*
X23500Y26398D01*
X23602Y26297D01*
X23703D01*
Y26398D01*
X23602Y26500D01*
X23703Y26602D01*
Y26703D01*
X23602D01*
X23500Y26602D01*
X23398Y26703D01*
X23297D01*
Y26602D01*
X23398Y26500D01*
X23297Y26398D01*
Y26297D01*
X24797D02*
X24898D01*
X25000Y26398D01*
X25102Y26297D01*
X25203D01*
Y26398D01*
X25102Y26500D01*
X25203Y26602D01*
Y26703D01*
X25102D01*
X25000Y26602D01*
X24898Y26703D01*
X24797D01*
Y26602D01*
X24898Y26500D01*
X24797Y26398D01*
Y26297D01*
X26547Y23547D02*
X26648D01*
X26750Y23648D01*
X26852Y23547D01*
X26953D01*
Y23648D01*
X26852Y23750D01*
X26953Y23852D01*
Y23953D01*
X26852D01*
X26750Y23852D01*
X26648Y23953D01*
X26547D01*
Y23852D01*
X26648Y23750D01*
X26547Y23648D01*
Y23547D01*
X18547Y25047D02*
X18648D01*
X18750Y25148D01*
X18852Y25047D01*
X18953D01*
Y25148D01*
X18852Y25250D01*
X18953Y25352D01*
Y25453D01*
X18852D01*
X18750Y25352D01*
X18648Y25453D01*
X18547D01*
Y25352D01*
X18648Y25250D01*
X18547Y25148D01*
Y25047D01*
X22047Y14047D02*
X22148D01*
X22250Y14148D01*
X22352Y14047D01*
X22453D01*
Y14148D01*
X22352Y14250D01*
X22453Y14352D01*
Y14453D01*
X22352D01*
X22250Y14352D01*
X22148Y14453D01*
X22047D01*
Y14352D01*
X22148Y14250D01*
X22047Y14148D01*
Y14047D01*
X18047Y19797D02*
X18148D01*
X18250Y19898D01*
X18352Y19797D01*
X18453D01*
Y19898D01*
X18352Y20000D01*
X18453Y20102D01*
Y20203D01*
X18352D01*
X18250Y20102D01*
X18148Y20203D01*
X18047D01*
Y20102D01*
X18148Y20000D01*
X18047Y19898D01*
Y19797D01*
X28047Y23547D02*
X28148D01*
X28250Y23648D01*
X28352Y23547D01*
X28453D01*
Y23648D01*
X28352Y23750D01*
X28453Y23852D01*
Y23953D01*
X28352D01*
X28250Y23852D01*
X28148Y23953D01*
X28047D01*
Y23852D01*
X28148Y23750D01*
X28047Y23648D01*
Y23547D01*
X18047Y16797D02*
X18148D01*
X18250Y16898D01*
X18352Y16797D01*
X18453D01*
Y16898D01*
X18352Y17000D01*
X18453Y17102D01*
Y17203D01*
X18352D01*
X18250Y17102D01*
X18148Y17203D01*
X18047D01*
Y17102D01*
X18148Y17000D01*
X18047Y16898D01*
Y16797D01*
X19797D02*
X19898D01*
X20000Y16898D01*
X20102Y16797D01*
X20203D01*
Y16898D01*
X20102Y17000D01*
X20203Y17102D01*
Y17203D01*
X20102D01*
X20000Y17102D01*
X19898Y17203D01*
X19797D01*
Y17102D01*
X19898Y17000D01*
X19797Y16898D01*
Y16797D01*
X12297Y44797D02*
X12398D01*
X12500Y44898D01*
X12602Y44797D01*
X12703D01*
Y44898D01*
X12602Y45000D01*
X12703Y45102D01*
Y45203D01*
X12602D01*
X12500Y45102D01*
X12398Y45203D01*
X12297D01*
Y45102D01*
X12398Y45000D01*
X12297Y44898D01*
Y44797D01*
Y34797D02*
X12398D01*
X12500Y34898D01*
X12602Y34797D01*
X12703D01*
Y34898D01*
X12602Y35000D01*
X12703Y35102D01*
Y35203D01*
X12602D01*
X12500Y35102D01*
X12398Y35203D01*
X12297D01*
Y35102D01*
X12398Y35000D01*
X12297Y34898D01*
Y34797D01*
Y24797D02*
X12398D01*
X12500Y24898D01*
X12602Y24797D01*
X12703D01*
Y24898D01*
X12602Y25000D01*
X12703Y25102D01*
Y25203D01*
X12602D01*
X12500Y25102D01*
X12398Y25203D01*
X12297D01*
Y25102D01*
X12398Y25000D01*
X12297Y24898D01*
Y24797D01*
Y14797D02*
X12398D01*
X12500Y14898D01*
X12602Y14797D01*
X12703D01*
Y14898D01*
X12602Y15000D01*
X12703Y15102D01*
Y15203D01*
X12602D01*
X12500Y15102D01*
X12398Y15203D01*
X12297D01*
Y15102D01*
X12398Y15000D01*
X12297Y14898D01*
Y14797D01*
X64297Y27047D02*
X64398D01*
X64500Y27148D01*
X64602Y27047D01*
X64703D01*
Y27148D01*
X64602Y27250D01*
X64703Y27352D01*
Y27453D01*
X64602D01*
X64500Y27352D01*
X64398Y27453D01*
X64297D01*
Y27352D01*
X64398Y27250D01*
X64297Y27148D01*
Y27047D01*
X51297D02*
X51398D01*
X51500Y27148D01*
X51602Y27047D01*
X51703D01*
Y27148D01*
X51602Y27250D01*
X51703Y27352D01*
Y27453D01*
X51602D01*
X51500Y27352D01*
X51398Y27453D01*
X51297D01*
Y27352D01*
X51398Y27250D01*
X51297Y27148D01*
Y27047D01*
X38297D02*
X38398D01*
X38500Y27148D01*
X38602Y27047D01*
X38703D01*
Y27148D01*
X38602Y27250D01*
X38703Y27352D01*
Y27453D01*
X38602D01*
X38500Y27352D01*
X38398Y27453D01*
X38297D01*
Y27352D01*
X38398Y27250D01*
X38297Y27148D01*
Y27047D01*
X25297D02*
X25398D01*
X25500Y27148D01*
X25602Y27047D01*
X25703D01*
Y27148D01*
X25602Y27250D01*
X25703Y27352D01*
Y27453D01*
X25602D01*
X25500Y27352D01*
X25398Y27453D01*
X25297D01*
Y27352D01*
X25398Y27250D01*
X25297Y27148D01*
Y27047D01*
X67562Y23312D02*
X67663D01*
X67765Y23413D01*
X67866Y23312D01*
X67968D01*
Y23413D01*
X67866Y23515D01*
X67968Y23616D01*
Y23718D01*
X67866D01*
X67765Y23616D01*
X67663Y23718D01*
X67562D01*
Y23616D01*
X67663Y23515D01*
X67562Y23413D01*
Y23312D01*
X78797Y14297D02*
X78898D01*
X79000Y14398D01*
X79102Y14297D01*
X79203D01*
Y14398D01*
X79102Y14500D01*
X79203Y14602D01*
Y14703D01*
X79102D01*
X79000Y14602D01*
X78898Y14703D01*
X78797D01*
Y14602D01*
X78898Y14500D01*
X78797Y14398D01*
Y14297D01*
X80297D02*
X80398D01*
X80500Y14398D01*
X80602Y14297D01*
X80703D01*
Y14398D01*
X80602Y14500D01*
X80703Y14602D01*
Y14703D01*
X80602D01*
X80500Y14602D01*
X80398Y14703D01*
X80297D01*
Y14602D01*
X80398Y14500D01*
X80297Y14398D01*
Y14297D01*
X81797D02*
X81898D01*
X82000Y14398D01*
X82102Y14297D01*
X82203D01*
Y14398D01*
X82102Y14500D01*
X82203Y14602D01*
Y14703D01*
X82102D01*
X82000Y14602D01*
X81898Y14703D01*
X81797D01*
Y14602D01*
X81898Y14500D01*
X81797Y14398D01*
Y14297D01*
X83297D02*
X83398D01*
X83500Y14398D01*
X83602Y14297D01*
X83703D01*
Y14398D01*
X83602Y14500D01*
X83703Y14602D01*
Y14703D01*
X83602D01*
X83500Y14602D01*
X83398Y14703D01*
X83297D01*
Y14602D01*
X83398Y14500D01*
X83297Y14398D01*
Y14297D01*
X61997Y45533D02*
X62098D01*
X62200Y45635D01*
X62302Y45533D01*
X62403D01*
Y45635D01*
X62302Y45737D01*
X62403Y45838D01*
Y45940D01*
X62302D01*
X62200Y45838D01*
X62098Y45940D01*
X61997D01*
Y45838D01*
X62098Y45737D01*
X61997Y45635D01*
Y45533D01*
X48997Y45543D02*
X49098D01*
X49200Y45645D01*
X49302Y45543D01*
X49403D01*
Y45645D01*
X49302Y45746D01*
X49403Y45848D01*
Y45950D01*
X49302D01*
X49200Y45848D01*
X49098Y45950D01*
X48997D01*
Y45848D01*
X49098Y45746D01*
X48997Y45645D01*
Y45543D01*
X35997Y45553D02*
X36098D01*
X36200Y45655D01*
X36302Y45553D01*
X36403D01*
Y45655D01*
X36302Y45756D01*
X36403Y45858D01*
Y45959D01*
X36302D01*
X36200Y45858D01*
X36098Y45959D01*
X35997D01*
Y45858D01*
X36098Y45756D01*
X35997Y45655D01*
Y45553D01*
X22997Y45543D02*
X23098D01*
X23200Y45645D01*
X23302Y45543D01*
X23403D01*
Y45645D01*
X23302Y45746D01*
X23403Y45848D01*
Y45950D01*
X23302D01*
X23200Y45848D01*
X23098Y45950D01*
X22997D01*
Y45848D01*
X23098Y45746D01*
X22997Y45645D01*
Y45543D01*
X67547Y26297D02*
X67648D01*
X67750Y26398D01*
X67852Y26297D01*
X67953D01*
Y26398D01*
X67852Y26500D01*
X67953Y26602D01*
Y26703D01*
X67852D01*
X67750Y26602D01*
X67648Y26703D01*
X67547D01*
Y26602D01*
X67648Y26500D01*
X67547Y26398D01*
Y26297D01*
Y24297D02*
X67648D01*
X67750Y24398D01*
X67852Y24297D01*
X67953D01*
Y24398D01*
X67852Y24500D01*
X67953Y24602D01*
Y24703D01*
X67852D01*
X67750Y24602D01*
X67648Y24703D01*
X67547D01*
Y24602D01*
X67648Y24500D01*
X67547Y24398D01*
Y24297D01*
X62797Y11797D02*
X62898D01*
X63000Y11898D01*
X63102Y11797D01*
X63203D01*
Y11898D01*
X63102Y12000D01*
X63203Y12102D01*
Y12203D01*
X63102D01*
X63000Y12102D01*
X62898Y12203D01*
X62797D01*
Y12102D01*
X62898Y12000D01*
X62797Y11898D01*
Y11797D01*
X109797Y10547D02*
X109898D01*
X110000Y10648D01*
X110102Y10547D01*
X110203D01*
Y10648D01*
X110102Y10750D01*
X110203Y10852D01*
Y10953D01*
X110102D01*
X110000Y10852D01*
X109898Y10953D01*
X109797D01*
Y10852D01*
X109898Y10750D01*
X109797Y10648D01*
Y10547D01*
X106297D02*
X106398D01*
X106500Y10648D01*
X106602Y10547D01*
X106703D01*
Y10648D01*
X106602Y10750D01*
X106703Y10852D01*
Y10953D01*
X106602D01*
X106500Y10852D01*
X106398Y10953D01*
X106297D01*
Y10852D01*
X106398Y10750D01*
X106297Y10648D01*
Y10547D01*
Y16547D02*
X106398D01*
X106500Y16648D01*
X106602Y16547D01*
X106703D01*
Y16648D01*
X106602Y16750D01*
X106703Y16852D01*
Y16953D01*
X106602D01*
X106500Y16852D01*
X106398Y16953D01*
X106297D01*
Y16852D01*
X106398Y16750D01*
X106297Y16648D01*
Y16547D01*
X128297Y3797D02*
X128398D01*
X128500Y3898D01*
X128602Y3797D01*
X128703D01*
Y3898D01*
X128602Y4000D01*
X128703Y4102D01*
Y4203D01*
X128602D01*
X128500Y4102D01*
X128398Y4203D01*
X128297D01*
Y4102D01*
X128398Y4000D01*
X128297Y3898D01*
Y3797D01*
X131797D02*
X131898D01*
X132000Y3898D01*
X132102Y3797D01*
X132203D01*
Y3898D01*
X132102Y4000D01*
X132203Y4102D01*
Y4203D01*
X132102D01*
X132000Y4102D01*
X131898Y4203D01*
X131797D01*
Y4102D01*
X131898Y4000D01*
X131797Y3898D01*
Y3797D01*
X128297Y9797D02*
X128398D01*
X128500Y9898D01*
X128602Y9797D01*
X128703D01*
Y9898D01*
X128602Y10000D01*
X128703Y10102D01*
Y10203D01*
X128602D01*
X128500Y10102D01*
X128398Y10203D01*
X128297D01*
Y10102D01*
X128398Y10000D01*
X128297Y9898D01*
Y9797D01*
X124797D02*
X124898D01*
X125000Y9898D01*
X125102Y9797D01*
X125203D01*
Y9898D01*
X125102Y10000D01*
X125203Y10102D01*
Y10203D01*
X125102D01*
X125000Y10102D01*
X124898Y10203D01*
X124797D01*
Y10102D01*
X124898Y10000D01*
X124797Y9898D01*
Y9797D01*
X116047Y24797D02*
X116148D01*
X116250Y24898D01*
X116352Y24797D01*
X116453D01*
Y24898D01*
X116352Y25000D01*
X116453Y25102D01*
Y25203D01*
X116352D01*
X116250Y25102D01*
X116148Y25203D01*
X116047D01*
Y25102D01*
X116148Y25000D01*
X116047Y24898D01*
Y24797D01*
X117297Y17547D02*
X117398D01*
X117500Y17648D01*
X117602Y17547D01*
X117703D01*
Y17648D01*
X117602Y17750D01*
X117703Y17852D01*
Y17953D01*
X117602D01*
X117500Y17852D01*
X117398Y17953D01*
X117297D01*
Y17852D01*
X117398Y17750D01*
X117297Y17648D01*
Y17547D01*
X70297Y10797D02*
X70398D01*
X70500Y10898D01*
X70602Y10797D01*
X70703D01*
Y10898D01*
X70602Y11000D01*
X70703Y11102D01*
Y11203D01*
X70602D01*
X70500Y11102D01*
X70398Y11203D01*
X70297D01*
Y11102D01*
X70398Y11000D01*
X70297Y10898D01*
Y10797D01*
X74797Y11047D02*
X74898D01*
X75000Y11148D01*
X75102Y11047D01*
X75203D01*
Y11148D01*
X75102Y11250D01*
X75203Y11352D01*
Y11453D01*
X75102D01*
X75000Y11352D01*
X74898Y11453D01*
X74797D01*
Y11352D01*
X74898Y11250D01*
X74797Y11148D01*
Y11047D01*
X71297Y5047D02*
X71398D01*
X71500Y5148D01*
X71602Y5047D01*
X71703D01*
Y5148D01*
X71602Y5250D01*
X71703Y5352D01*
Y5453D01*
X71602D01*
X71500Y5352D01*
X71398Y5453D01*
X71297D01*
Y5352D01*
X71398Y5250D01*
X71297Y5148D01*
Y5047D01*
X79047Y10047D02*
X79148D01*
X79250Y10148D01*
X79352Y10047D01*
X79453D01*
Y10148D01*
X79352Y10250D01*
X79453Y10352D01*
Y10453D01*
X79352D01*
X79250Y10352D01*
X79148Y10453D01*
X79047D01*
Y10352D01*
X79148Y10250D01*
X79047Y10148D01*
Y10047D01*
X70297Y9297D02*
X70398D01*
X70500Y9398D01*
X70602Y9297D01*
X70703D01*
Y9398D01*
X70602Y9500D01*
X70703Y9602D01*
Y9703D01*
X70602D01*
X70500Y9602D01*
X70398Y9703D01*
X70297D01*
Y9602D01*
X70398Y9500D01*
X70297Y9398D01*
Y9297D01*
X81297Y11047D02*
X81398D01*
X81500Y11148D01*
X81602Y11047D01*
X81703D01*
Y11148D01*
X81602Y11250D01*
X81703Y11352D01*
Y11453D01*
X81602D01*
X81500Y11352D01*
X81398Y11453D01*
X81297D01*
Y11352D01*
X81398Y11250D01*
X81297Y11148D01*
Y11047D01*
X119297Y4797D02*
X119398D01*
X119500Y4898D01*
X119602Y4797D01*
X119703D01*
Y4898D01*
X119602Y5000D01*
X119703Y5102D01*
Y5203D01*
X119602D01*
X119500Y5102D01*
X119398Y5203D01*
X119297D01*
Y5102D01*
X119398Y5000D01*
X119297Y4898D01*
Y4797D01*
Y3297D02*
X119398D01*
X119500Y3398D01*
X119602Y3297D01*
X119703D01*
Y3398D01*
X119602Y3500D01*
X119703Y3602D01*
Y3703D01*
X119602D01*
X119500Y3602D01*
X119398Y3703D01*
X119297D01*
Y3602D01*
X119398Y3500D01*
X119297Y3398D01*
Y3297D01*
X116297D02*
X116398D01*
X116500Y3398D01*
X116602Y3297D01*
X116703D01*
Y3398D01*
X116602Y3500D01*
X116703Y3602D01*
Y3703D01*
X116602D01*
X116500Y3602D01*
X116398Y3703D01*
X116297D01*
Y3602D01*
X116398Y3500D01*
X116297Y3398D01*
Y3297D01*
X113047D02*
X113148D01*
X113250Y3398D01*
X113352Y3297D01*
X113453D01*
Y3398D01*
X113352Y3500D01*
X113453Y3602D01*
Y3703D01*
X113352D01*
X113250Y3602D01*
X113148Y3703D01*
X113047D01*
Y3602D01*
X113148Y3500D01*
X113047Y3398D01*
Y3297D01*
X120797Y33297D02*
X120898D01*
X121000Y33398D01*
X121102Y33297D01*
X121203D01*
Y33398D01*
X121102Y33500D01*
X121203Y33602D01*
Y33703D01*
X121102D01*
X121000Y33602D01*
X120898Y33703D01*
X120797D01*
Y33602D01*
X120898Y33500D01*
X120797Y33398D01*
Y33297D01*
X108797Y31297D02*
X108898D01*
X109000Y31398D01*
X109102Y31297D01*
X109203D01*
Y31398D01*
X109102Y31500D01*
X109203Y31602D01*
Y31703D01*
X109102D01*
X109000Y31602D01*
X108898Y31703D01*
X108797D01*
Y31602D01*
X108898Y31500D01*
X108797Y31398D01*
Y31297D01*
X120797Y31797D02*
X120898D01*
X121000Y31898D01*
X121102Y31797D01*
X121203D01*
Y31898D01*
X121102Y32000D01*
X121203Y32102D01*
Y32203D01*
X121102D01*
X121000Y32102D01*
X120898Y32203D01*
X120797D01*
Y32102D01*
X120898Y32000D01*
X120797Y31898D01*
Y31797D01*
X108797Y29797D02*
X108898D01*
X109000Y29898D01*
X109102Y29797D01*
X109203D01*
Y29898D01*
X109102Y30000D01*
X109203Y30102D01*
Y30203D01*
X109102D01*
X109000Y30102D01*
X108898Y30203D01*
X108797D01*
Y30102D01*
X108898Y30000D01*
X108797Y29898D01*
Y29797D01*
X119547Y28297D02*
X119648D01*
X119750Y28398D01*
X119852Y28297D01*
X119953D01*
Y28398D01*
X119852Y28500D01*
X119953Y28602D01*
Y28703D01*
X119852D01*
X119750Y28602D01*
X119648Y28703D01*
X119547D01*
Y28602D01*
X119648Y28500D01*
X119547Y28398D01*
Y28297D01*
X129297Y25547D02*
X129398D01*
X129500Y25648D01*
X129602Y25547D01*
X129703D01*
Y25648D01*
X129602Y25750D01*
X129703Y25852D01*
Y25953D01*
X129602D01*
X129500Y25852D01*
X129398Y25953D01*
X129297D01*
Y25852D01*
X129398Y25750D01*
X129297Y25648D01*
Y25547D01*
X113297Y21797D02*
X113398D01*
X113500Y21898D01*
X113602Y21797D01*
X113703D01*
Y21898D01*
X113602Y22000D01*
X113703Y22102D01*
Y22203D01*
X113602D01*
X113500Y22102D01*
X113398Y22203D01*
X113297D01*
Y22102D01*
X113398Y22000D01*
X113297Y21898D01*
Y21797D01*
X117797Y31797D02*
X117898D01*
X118000Y31898D01*
X118102Y31797D01*
X118203D01*
Y31898D01*
X118102Y32000D01*
X118203Y32102D01*
Y32203D01*
X118102D01*
X118000Y32102D01*
X117898Y32203D01*
X117797D01*
Y32102D01*
X117898Y32000D01*
X117797Y31898D01*
Y31797D01*
X111797Y29797D02*
X111898D01*
X112000Y29898D01*
X112102Y29797D01*
X112203D01*
Y29898D01*
X112102Y30000D01*
X112203Y30102D01*
Y30203D01*
X112102D01*
X112000Y30102D01*
X111898Y30203D01*
X111797D01*
Y30102D01*
X111898Y30000D01*
X111797Y29898D01*
Y29797D01*
X118047Y28297D02*
X118148D01*
X118250Y28398D01*
X118352Y28297D01*
X118453D01*
Y28398D01*
X118352Y28500D01*
X118453Y28602D01*
Y28703D01*
X118352D01*
X118250Y28602D01*
X118148Y28703D01*
X118047D01*
Y28602D01*
X118148Y28500D01*
X118047Y28398D01*
Y28297D01*
X108797Y32797D02*
X108898D01*
X109000Y32898D01*
X109102Y32797D01*
X109203D01*
Y32898D01*
X109102Y33000D01*
X109203Y33102D01*
Y33203D01*
X109102D01*
X109000Y33102D01*
X108898Y33203D01*
X108797D01*
Y33102D01*
X108898Y33000D01*
X108797Y32898D01*
Y32797D01*
X130797Y35797D02*
X130898D01*
X131000Y35898D01*
X131102Y35797D01*
X131203D01*
Y35898D01*
X131102Y36000D01*
X131203Y36102D01*
Y36203D01*
X131102D01*
X131000Y36102D01*
X130898Y36203D01*
X130797D01*
Y36102D01*
X130898Y36000D01*
X130797Y35898D01*
Y35797D01*
X58797Y16797D02*
X58898D01*
X59000Y16898D01*
X59102Y16797D01*
X59203D01*
Y16898D01*
X59102Y17000D01*
X59203Y17102D01*
Y17203D01*
X59102D01*
X59000Y17102D01*
X58898Y17203D01*
X58797D01*
Y17102D01*
X58898Y17000D01*
X58797Y16898D01*
Y16797D01*
X57047D02*
X57148D01*
X57250Y16898D01*
X57352Y16797D01*
X57453D01*
Y16898D01*
X57352Y17000D01*
X57453Y17102D01*
Y17203D01*
X57352D01*
X57250Y17102D01*
X57148Y17203D01*
X57047D01*
Y17102D01*
X57148Y17000D01*
X57047Y16898D01*
Y16797D01*
X32797D02*
X32898D01*
X33000Y16898D01*
X33102Y16797D01*
X33203D01*
Y16898D01*
X33102Y17000D01*
X33203Y17102D01*
Y17203D01*
X33102D01*
X33000Y17102D01*
X32898Y17203D01*
X32797D01*
Y17102D01*
X32898Y17000D01*
X32797Y16898D01*
Y16797D01*
X31047D02*
X31148D01*
X31250Y16898D01*
X31352Y16797D01*
X31453D01*
Y16898D01*
X31352Y17000D01*
X31453Y17102D01*
Y17203D01*
X31352D01*
X31250Y17102D01*
X31148Y17203D01*
X31047D01*
Y17102D01*
X31148Y17000D01*
X31047Y16898D01*
Y16797D01*
X57047Y19797D02*
X57148D01*
X57250Y19898D01*
X57352Y19797D01*
X57453D01*
Y19898D01*
X57352Y20000D01*
X57453Y20102D01*
Y20203D01*
X57352D01*
X57250Y20102D01*
X57148Y20203D01*
X57047D01*
Y20102D01*
X57148Y20000D01*
X57047Y19898D01*
Y19797D01*
X31047D02*
X31148D01*
X31250Y19898D01*
X31352Y19797D01*
X31453D01*
Y19898D01*
X31352Y20000D01*
X31453Y20102D01*
Y20203D01*
X31352D01*
X31250Y20102D01*
X31148Y20203D01*
X31047D01*
Y20102D01*
X31148Y20000D01*
X31047Y19898D01*
Y19797D01*
X52547Y23547D02*
X52648D01*
X52750Y23648D01*
X52852Y23547D01*
X52953D01*
Y23648D01*
X52852Y23750D01*
X52953Y23852D01*
Y23953D01*
X52852D01*
X52750Y23852D01*
X52648Y23953D01*
X52547D01*
Y23852D01*
X52648Y23750D01*
X52547Y23648D01*
Y23547D01*
X41047D02*
X41148D01*
X41250Y23648D01*
X41352Y23547D01*
X41453D01*
Y23648D01*
X41352Y23750D01*
X41453Y23852D01*
Y23953D01*
X41352D01*
X41250Y23852D01*
X41148Y23953D01*
X41047D01*
Y23852D01*
X41148Y23750D01*
X41047Y23648D01*
Y23547D01*
X39547D02*
X39648D01*
X39750Y23648D01*
X39852Y23547D01*
X39953D01*
Y23648D01*
X39852Y23750D01*
X39953Y23852D01*
Y23953D01*
X39852D01*
X39750Y23852D01*
X39648Y23953D01*
X39547D01*
Y23852D01*
X39648Y23750D01*
X39547Y23648D01*
Y23547D01*
X57547Y25047D02*
X57648D01*
X57750Y25148D01*
X57852Y25047D01*
X57953D01*
Y25148D01*
X57852Y25250D01*
X57953Y25352D01*
Y25453D01*
X57852D01*
X57750Y25352D01*
X57648Y25453D01*
X57547D01*
Y25352D01*
X57648Y25250D01*
X57547Y25148D01*
Y25047D01*
X44547D02*
X44648D01*
X44750Y25148D01*
X44852Y25047D01*
X44953D01*
Y25148D01*
X44852Y25250D01*
X44953Y25352D01*
Y25453D01*
X44852D01*
X44750Y25352D01*
X44648Y25453D01*
X44547D01*
Y25352D01*
X44648Y25250D01*
X44547Y25148D01*
Y25047D01*
X43047Y32047D02*
X43148D01*
X43250Y32148D01*
X43352Y32047D01*
X43453D01*
Y32148D01*
X43352Y32250D01*
X43453Y32352D01*
Y32453D01*
X43352D01*
X43250Y32352D01*
X43148Y32453D01*
X43047D01*
Y32352D01*
X43148Y32250D01*
X43047Y32148D01*
Y32047D01*
X17047D02*
X17148D01*
X17250Y32148D01*
X17352Y32047D01*
X17453D01*
Y32148D01*
X17352Y32250D01*
X17453Y32352D01*
Y32453D01*
X17352D01*
X17250Y32352D01*
X17148Y32453D01*
X17047D01*
Y32352D01*
X17148Y32250D01*
X17047Y32148D01*
Y32047D01*
X61622Y33797D02*
X61723D01*
X61825Y33898D01*
X61927Y33797D01*
X62028D01*
Y33898D01*
X61927Y34000D01*
X62028Y34102D01*
Y34203D01*
X61927D01*
X61825Y34102D01*
X61723Y34203D01*
X61622D01*
Y34102D01*
X61723Y34000D01*
X61622Y33898D01*
Y33797D01*
X48622D02*
X48723D01*
X48825Y33898D01*
X48927Y33797D01*
X49028D01*
Y33898D01*
X48927Y34000D01*
X49028Y34102D01*
Y34203D01*
X48927D01*
X48825Y34102D01*
X48723Y34203D01*
X48622D01*
Y34102D01*
X48723Y34000D01*
X48622Y33898D01*
Y33797D01*
X22622D02*
X22723D01*
X22825Y33898D01*
X22927Y33797D01*
X23028D01*
Y33898D01*
X22927Y34000D01*
X23028Y34102D01*
Y34203D01*
X22927D01*
X22825Y34102D01*
X22723Y34203D01*
X22622D01*
Y34102D01*
X22723Y34000D01*
X22622Y33898D01*
Y33797D01*
X43047Y35047D02*
X43148D01*
X43250Y35148D01*
X43352Y35047D01*
X43453D01*
Y35148D01*
X43352Y35250D01*
X43453Y35352D01*
Y35453D01*
X43352D01*
X43250Y35352D01*
X43148Y35453D01*
X43047D01*
Y35352D01*
X43148Y35250D01*
X43047Y35148D01*
Y35047D01*
X17047D02*
X17148D01*
X17250Y35148D01*
X17352Y35047D01*
X17453D01*
Y35148D01*
X17352Y35250D01*
X17453Y35352D01*
Y35453D01*
X17352D01*
X17250Y35352D01*
X17148Y35453D01*
X17047D01*
Y35352D01*
X17148Y35250D01*
X17047Y35148D01*
Y35047D01*
X53297Y38047D02*
X53398D01*
X53500Y38148D01*
X53602Y38047D01*
X53703D01*
Y38148D01*
X53602Y38250D01*
X53703Y38352D01*
Y38453D01*
X53602D01*
X53500Y38352D01*
X53398Y38453D01*
X53297D01*
Y38352D01*
X53398Y38250D01*
X53297Y38148D01*
Y38047D01*
X27297D02*
X27398D01*
X27500Y38148D01*
X27602Y38047D01*
X27703D01*
Y38148D01*
X27602Y38250D01*
X27703Y38352D01*
Y38453D01*
X27602D01*
X27500Y38352D01*
X27398Y38453D01*
X27297D01*
Y38352D01*
X27398Y38250D01*
X27297Y38148D01*
Y38047D01*
X61797Y39797D02*
X61898D01*
X62000Y39898D01*
X62102Y39797D01*
X62203D01*
Y39898D01*
X62102Y40000D01*
X62203Y40102D01*
Y40203D01*
X62102D01*
X62000Y40102D01*
X61898Y40203D01*
X61797D01*
Y40102D01*
X61898Y40000D01*
X61797Y39898D01*
Y39797D01*
X53297D02*
X53398D01*
X53500Y39898D01*
X53602Y39797D01*
X53703D01*
Y39898D01*
X53602Y40000D01*
X53703Y40102D01*
Y40203D01*
X53602D01*
X53500Y40102D01*
X53398Y40203D01*
X53297D01*
Y40102D01*
X53398Y40000D01*
X53297Y39898D01*
Y39797D01*
X48797D02*
X48898D01*
X49000Y39898D01*
X49102Y39797D01*
X49203D01*
Y39898D01*
X49102Y40000D01*
X49203Y40102D01*
Y40203D01*
X49102D01*
X49000Y40102D01*
X48898Y40203D01*
X48797D01*
Y40102D01*
X48898Y40000D01*
X48797Y39898D01*
Y39797D01*
X27297D02*
X27398D01*
X27500Y39898D01*
X27602Y39797D01*
X27703D01*
Y39898D01*
X27602Y40000D01*
X27703Y40102D01*
Y40203D01*
X27602D01*
X27500Y40102D01*
X27398Y40203D01*
X27297D01*
Y40102D01*
X27398Y40000D01*
X27297Y39898D01*
Y39797D01*
X22797D02*
X22898D01*
X23000Y39898D01*
X23102Y39797D01*
X23203D01*
Y39898D01*
X23102Y40000D01*
X23203Y40102D01*
Y40203D01*
X23102D01*
X23000Y40102D01*
X22898Y40203D01*
X22797D01*
Y40102D01*
X22898Y40000D01*
X22797Y39898D01*
Y39797D01*
X61047Y43297D02*
X61148D01*
X61250Y43398D01*
X61352Y43297D01*
X61453D01*
Y43398D01*
X61352Y43500D01*
X61453Y43602D01*
Y43703D01*
X61352D01*
X61250Y43602D01*
X61148Y43703D01*
X61047D01*
Y43602D01*
X61148Y43500D01*
X61047Y43398D01*
Y43297D01*
X35047D02*
X35148D01*
X35250Y43398D01*
X35352Y43297D01*
X35453D01*
Y43398D01*
X35352Y43500D01*
X35453Y43602D01*
Y43703D01*
X35352D01*
X35250Y43602D01*
X35148Y43703D01*
X35047D01*
Y43602D01*
X35148Y43500D01*
X35047Y43398D01*
Y43297D01*
X22047D02*
X22148D01*
X22250Y43398D01*
X22352Y43297D01*
X22453D01*
Y43398D01*
X22352Y43500D01*
X22453Y43602D01*
Y43703D01*
X22352D01*
X22250Y43602D01*
X22148Y43703D01*
X22047D01*
Y43602D01*
X22148Y43500D01*
X22047Y43398D01*
Y43297D01*
X44047Y16797D02*
X44148D01*
X44250Y16898D01*
X44352Y16797D01*
X44453D01*
Y16898D01*
X44352Y17000D01*
X44453Y17102D01*
Y17203D01*
X44352D01*
X44250Y17102D01*
X44148Y17203D01*
X44047D01*
Y17102D01*
X44148Y17000D01*
X44047Y16898D01*
Y16797D01*
X45797D02*
X45898D01*
X46000Y16898D01*
X46102Y16797D01*
X46203D01*
Y16898D01*
X46102Y17000D01*
X46203Y17102D01*
Y17203D01*
X46102D01*
X46000Y17102D01*
X45898Y17203D01*
X45797D01*
Y17102D01*
X45898Y17000D01*
X45797Y16898D01*
Y16797D01*
X44047Y19797D02*
X44148D01*
X44250Y19898D01*
X44352Y19797D01*
X44453D01*
Y19898D01*
X44352Y20000D01*
X44453Y20102D01*
Y20203D01*
X44352D01*
X44250Y20102D01*
X44148Y20203D01*
X44047D01*
Y20102D01*
X44148Y20000D01*
X44047Y19898D01*
Y19797D01*
X54047Y23547D02*
X54148D01*
X54250Y23648D01*
X54352Y23547D01*
X54453D01*
Y23648D01*
X54352Y23750D01*
X54453Y23852D01*
Y23953D01*
X54352D01*
X54250Y23852D01*
X54148Y23953D01*
X54047D01*
Y23852D01*
X54148Y23750D01*
X54047Y23648D01*
Y23547D01*
X31547Y25047D02*
X31648D01*
X31750Y25148D01*
X31852Y25047D01*
X31953D01*
Y25148D01*
X31852Y25250D01*
X31953Y25352D01*
Y25453D01*
X31852D01*
X31750Y25352D01*
X31648Y25453D01*
X31547D01*
Y25352D01*
X31648Y25250D01*
X31547Y25148D01*
Y25047D01*
X56047Y32047D02*
X56148D01*
X56250Y32148D01*
X56352Y32047D01*
X56453D01*
Y32148D01*
X56352Y32250D01*
X56453Y32352D01*
Y32453D01*
X56352D01*
X56250Y32352D01*
X56148Y32453D01*
X56047D01*
Y32352D01*
X56148Y32250D01*
X56047Y32148D01*
Y32047D01*
X30047D02*
X30148D01*
X30250Y32148D01*
X30352Y32047D01*
X30453D01*
Y32148D01*
X30352Y32250D01*
X30453Y32352D01*
Y32453D01*
X30352D01*
X30250Y32352D01*
X30148Y32453D01*
X30047D01*
Y32352D01*
X30148Y32250D01*
X30047Y32148D01*
Y32047D01*
X35622Y33797D02*
X35723D01*
X35825Y33898D01*
X35927Y33797D01*
X36028D01*
Y33898D01*
X35927Y34000D01*
X36028Y34102D01*
Y34203D01*
X35927D01*
X35825Y34102D01*
X35723Y34203D01*
X35622D01*
Y34102D01*
X35723Y34000D01*
X35622Y33898D01*
Y33797D01*
X56047Y35047D02*
X56148D01*
X56250Y35148D01*
X56352Y35047D01*
X56453D01*
Y35148D01*
X56352Y35250D01*
X56453Y35352D01*
Y35453D01*
X56352D01*
X56250Y35352D01*
X56148Y35453D01*
X56047D01*
Y35352D01*
X56148Y35250D01*
X56047Y35148D01*
Y35047D01*
X30047D02*
X30148D01*
X30250Y35148D01*
X30352Y35047D01*
X30453D01*
Y35148D01*
X30352Y35250D01*
X30453Y35352D01*
Y35453D01*
X30352D01*
X30250Y35352D01*
X30148Y35453D01*
X30047D01*
Y35352D01*
X30148Y35250D01*
X30047Y35148D01*
Y35047D01*
X66297Y38047D02*
X66398D01*
X66500Y38148D01*
X66602Y38047D01*
X66703D01*
Y38148D01*
X66602Y38250D01*
X66703Y38352D01*
Y38453D01*
X66602D01*
X66500Y38352D01*
X66398Y38453D01*
X66297D01*
Y38352D01*
X66398Y38250D01*
X66297Y38148D01*
Y38047D01*
X40297D02*
X40398D01*
X40500Y38148D01*
X40602Y38047D01*
X40703D01*
Y38148D01*
X40602Y38250D01*
X40703Y38352D01*
Y38453D01*
X40602D01*
X40500Y38352D01*
X40398Y38453D01*
X40297D01*
Y38352D01*
X40398Y38250D01*
X40297Y38148D01*
Y38047D01*
X66297Y39797D02*
X66398D01*
X66500Y39898D01*
X66602Y39797D01*
X66703D01*
Y39898D01*
X66602Y40000D01*
X66703Y40102D01*
Y40203D01*
X66602D01*
X66500Y40102D01*
X66398Y40203D01*
X66297D01*
Y40102D01*
X66398Y40000D01*
X66297Y39898D01*
Y39797D01*
X40297D02*
X40398D01*
X40500Y39898D01*
X40602Y39797D01*
X40703D01*
Y39898D01*
X40602Y40000D01*
X40703Y40102D01*
Y40203D01*
X40602D01*
X40500Y40102D01*
X40398Y40203D01*
X40297D01*
Y40102D01*
X40398Y40000D01*
X40297Y39898D01*
Y39797D01*
X35797D02*
X35898D01*
X36000Y39898D01*
X36102Y39797D01*
X36203D01*
Y39898D01*
X36102Y40000D01*
X36203Y40102D01*
Y40203D01*
X36102D01*
X36000Y40102D01*
X35898Y40203D01*
X35797D01*
Y40102D01*
X35898Y40000D01*
X35797Y39898D01*
Y39797D01*
X48047Y43297D02*
X48148D01*
X48250Y43398D01*
X48352Y43297D01*
X48453D01*
Y43398D01*
X48352Y43500D01*
X48453Y43602D01*
Y43703D01*
X48352D01*
X48250Y43602D01*
X48148Y43703D01*
X48047D01*
Y43602D01*
X48148Y43500D01*
X48047Y43398D01*
Y43297D01*
X60797Y11797D02*
X60898D01*
X61000Y11898D01*
X61102Y11797D01*
X61203D01*
Y11898D01*
X61102Y12000D01*
X61203Y12102D01*
Y12203D01*
X61102D01*
X61000Y12102D01*
X60898Y12203D01*
X60797D01*
Y12102D01*
X60898Y12000D01*
X60797Y11898D01*
Y11797D01*
X49547Y14047D02*
X49648D01*
X49750Y14148D01*
X49852Y14047D01*
X49953D01*
Y14148D01*
X49852Y14250D01*
X49953Y14352D01*
Y14453D01*
X49852D01*
X49750Y14352D01*
X49648Y14453D01*
X49547D01*
Y14352D01*
X49648Y14250D01*
X49547Y14148D01*
Y14047D01*
X36547D02*
X36648D01*
X36750Y14148D01*
X36852Y14047D01*
X36953D01*
Y14148D01*
X36852Y14250D01*
X36953Y14352D01*
Y14453D01*
X36852D01*
X36750Y14352D01*
X36648Y14453D01*
X36547D01*
Y14352D01*
X36648Y14250D01*
X36547Y14148D01*
Y14047D01*
X35047D02*
X35148D01*
X35250Y14148D01*
X35352Y14047D01*
X35453D01*
Y14148D01*
X35352Y14250D01*
X35453Y14352D01*
Y14453D01*
X35352D01*
X35250Y14352D01*
X35148Y14453D01*
X35047D01*
Y14352D01*
X35148Y14250D01*
X35047Y14148D01*
Y14047D01*
X63797Y26297D02*
X63898D01*
X64000Y26398D01*
X64102Y26297D01*
X64203D01*
Y26398D01*
X64102Y26500D01*
X64203Y26602D01*
Y26703D01*
X64102D01*
X64000Y26602D01*
X63898Y26703D01*
X63797D01*
Y26602D01*
X63898Y26500D01*
X63797Y26398D01*
Y26297D01*
X50797D02*
X50898D01*
X51000Y26398D01*
X51102Y26297D01*
X51203D01*
Y26398D01*
X51102Y26500D01*
X51203Y26602D01*
Y26703D01*
X51102D01*
X51000Y26602D01*
X50898Y26703D01*
X50797D01*
Y26602D01*
X50898Y26500D01*
X50797Y26398D01*
Y26297D01*
X49297D02*
X49398D01*
X49500Y26398D01*
X49602Y26297D01*
X49703D01*
Y26398D01*
X49602Y26500D01*
X49703Y26602D01*
Y26703D01*
X49602D01*
X49500Y26602D01*
X49398Y26703D01*
X49297D01*
Y26602D01*
X49398Y26500D01*
X49297Y26398D01*
Y26297D01*
X36297D02*
X36398D01*
X36500Y26398D01*
X36602Y26297D01*
X36703D01*
Y26398D01*
X36602Y26500D01*
X36703Y26602D01*
Y26703D01*
X36602D01*
X36500Y26602D01*
X36398Y26703D01*
X36297D01*
Y26602D01*
X36398Y26500D01*
X36297Y26398D01*
Y26297D01*
X64797Y30297D02*
X64898D01*
X65000Y30398D01*
X65102Y30297D01*
X65203D01*
Y30398D01*
X65102Y30500D01*
X65203Y30602D01*
Y30703D01*
X65102D01*
X65000Y30602D01*
X64898Y30703D01*
X64797D01*
Y30602D01*
X64898Y30500D01*
X64797Y30398D01*
Y30297D01*
X51797D02*
X51898D01*
X52000Y30398D01*
X52102Y30297D01*
X52203D01*
Y30398D01*
X52102Y30500D01*
X52203Y30602D01*
Y30703D01*
X52102D01*
X52000Y30602D01*
X51898Y30703D01*
X51797D01*
Y30602D01*
X51898Y30500D01*
X51797Y30398D01*
Y30297D01*
X43047Y30547D02*
X43148D01*
X43250Y30648D01*
X43352Y30547D01*
X43453D01*
Y30648D01*
X43352Y30750D01*
X43453Y30852D01*
Y30953D01*
X43352D01*
X43250Y30852D01*
X43148Y30953D01*
X43047D01*
Y30852D01*
X43148Y30750D01*
X43047Y30648D01*
Y30547D01*
X38797Y30297D02*
X38898D01*
X39000Y30398D01*
X39102Y30297D01*
X39203D01*
Y30398D01*
X39102Y30500D01*
X39203Y30602D01*
Y30703D01*
X39102D01*
X39000Y30602D01*
X38898Y30703D01*
X38797D01*
Y30602D01*
X38898Y30500D01*
X38797Y30398D01*
Y30297D01*
X17047Y30547D02*
X17148D01*
X17250Y30648D01*
X17352Y30547D01*
X17453D01*
Y30648D01*
X17352Y30750D01*
X17453Y30852D01*
Y30953D01*
X17352D01*
X17250Y30852D01*
X17148Y30953D01*
X17047D01*
Y30852D01*
X17148Y30750D01*
X17047Y30648D01*
Y30547D01*
X65797Y44547D02*
X65898D01*
X66000Y44648D01*
X66102Y44547D01*
X66203D01*
Y44648D01*
X66102Y44750D01*
X66203Y44852D01*
Y44953D01*
X66102D01*
X66000Y44852D01*
X65898Y44953D01*
X65797D01*
Y44852D01*
X65898Y44750D01*
X65797Y44648D01*
Y44547D01*
X63797D02*
X63898D01*
X64000Y44648D01*
X64102Y44547D01*
X64203D01*
Y44648D01*
X64102Y44750D01*
X64203Y44852D01*
Y44953D01*
X64102D01*
X64000Y44852D01*
X63898Y44953D01*
X63797D01*
Y44852D01*
X63898Y44750D01*
X63797Y44648D01*
Y44547D01*
X52797D02*
X52898D01*
X53000Y44648D01*
X53102Y44547D01*
X53203D01*
Y44648D01*
X53102Y44750D01*
X53203Y44852D01*
Y44953D01*
X53102D01*
X53000Y44852D01*
X52898Y44953D01*
X52797D01*
Y44852D01*
X52898Y44750D01*
X52797Y44648D01*
Y44547D01*
X50797D02*
X50898D01*
X51000Y44648D01*
X51102Y44547D01*
X51203D01*
Y44648D01*
X51102Y44750D01*
X51203Y44852D01*
Y44953D01*
X51102D01*
X51000Y44852D01*
X50898Y44953D01*
X50797D01*
Y44852D01*
X50898Y44750D01*
X50797Y44648D01*
Y44547D01*
X26797D02*
X26898D01*
X27000Y44648D01*
X27102Y44547D01*
X27203D01*
Y44648D01*
X27102Y44750D01*
X27203Y44852D01*
Y44953D01*
X27102D01*
X27000Y44852D01*
X26898Y44953D01*
X26797D01*
Y44852D01*
X26898Y44750D01*
X26797Y44648D01*
Y44547D01*
X24797D02*
X24898D01*
X25000Y44648D01*
X25102Y44547D01*
X25203D01*
Y44648D01*
X25102Y44750D01*
X25203Y44852D01*
Y44953D01*
X25102D01*
X25000Y44852D01*
X24898Y44953D01*
X24797D01*
Y44852D01*
X24898Y44750D01*
X24797Y44648D01*
Y44547D01*
X48047Y14047D02*
X48148D01*
X48250Y14148D01*
X48352Y14047D01*
X48453D01*
Y14148D01*
X48352Y14250D01*
X48453Y14352D01*
Y14453D01*
X48352D01*
X48250Y14352D01*
X48148Y14453D01*
X48047D01*
Y14352D01*
X48148Y14250D01*
X48047Y14148D01*
Y14047D01*
X62297Y26297D02*
X62398D01*
X62500Y26398D01*
X62602Y26297D01*
X62703D01*
Y26398D01*
X62602Y26500D01*
X62703Y26602D01*
Y26703D01*
X62602D01*
X62500Y26602D01*
X62398Y26703D01*
X62297D01*
Y26602D01*
X62398Y26500D01*
X62297Y26398D01*
Y26297D01*
X37797D02*
X37898D01*
X38000Y26398D01*
X38102Y26297D01*
X38203D01*
Y26398D01*
X38102Y26500D01*
X38203Y26602D01*
Y26703D01*
X38102D01*
X38000Y26602D01*
X37898Y26703D01*
X37797D01*
Y26602D01*
X37898Y26500D01*
X37797Y26398D01*
Y26297D01*
X56047Y30547D02*
X56148D01*
X56250Y30648D01*
X56352Y30547D01*
X56453D01*
Y30648D01*
X56352Y30750D01*
X56453Y30852D01*
Y30953D01*
X56352D01*
X56250Y30852D01*
X56148Y30953D01*
X56047D01*
Y30852D01*
X56148Y30750D01*
X56047Y30648D01*
Y30547D01*
X30047D02*
X30148D01*
X30250Y30648D01*
X30352Y30547D01*
X30453D01*
Y30648D01*
X30352Y30750D01*
X30453Y30852D01*
Y30953D01*
X30352D01*
X30250Y30852D01*
X30148Y30953D01*
X30047D01*
Y30852D01*
X30148Y30750D01*
X30047Y30648D01*
Y30547D01*
X25797Y30297D02*
X25898D01*
X26000Y30398D01*
X26102Y30297D01*
X26203D01*
Y30398D01*
X26102Y30500D01*
X26203Y30602D01*
Y30703D01*
X26102D01*
X26000Y30602D01*
X25898Y30703D01*
X25797D01*
Y30602D01*
X25898Y30500D01*
X25797Y30398D01*
Y30297D01*
X39797Y44547D02*
X39898D01*
X40000Y44648D01*
X40102Y44547D01*
X40203D01*
Y44648D01*
X40102Y44750D01*
X40203Y44852D01*
Y44953D01*
X40102D01*
X40000Y44852D01*
X39898Y44953D01*
X39797D01*
Y44852D01*
X39898Y44750D01*
X39797Y44648D01*
Y44547D01*
X37797D02*
X37898D01*
X38000Y44648D01*
X38102Y44547D01*
X38203D01*
Y44648D01*
X38102Y44750D01*
X38203Y44852D01*
Y44953D01*
X38102D01*
X38000Y44852D01*
X37898Y44953D01*
X37797D01*
Y44852D01*
X37898Y44750D01*
X37797Y44648D01*
Y44547D01*
D110*
X140203Y55000D02*
G03*
X140203Y55000I-203J0D01*
G01*
Y5000D02*
G03*
X140203Y5000I-203J0D01*
G01*
X5203D02*
G03*
X5203Y5000I-203J0D01*
G01*
Y55000D02*
G03*
X5203Y55000I-203J0D01*
G01*
M02*
