G04*
G04 #@! TF.GenerationSoftware,Altium Limited,Altium Designer,20.1.14 (287)*
G04*
G04 Layer_Color=15132400*
%FSLAX43Y43*%
%MOMM*%
G71*
G04*
G04 #@! TF.SameCoordinates,785F46E0-C1C1-4AA7-83CD-D68E938E2BB6*
G04*
G04*
G04 #@! TF.FilePolarity,Positive*
G04*
G01*
G75*
%ADD10C,0.500*%
%ADD11C,0.203*%
%ADD12C,0.600*%
%ADD13C,0.250*%
%ADD14C,0.200*%
%ADD15C,0.100*%
%ADD16C,0.254*%
G36*
X142000Y15425D02*
X139950Y14575D01*
Y14825D01*
X139941Y14913D01*
X139874Y15075D01*
X139750Y15199D01*
X139588Y15266D01*
X139500Y15275D01*
X139407Y15266D01*
X139236Y15195D01*
X139105Y15064D01*
X139034Y14893D01*
X139025Y14800D01*
Y14325D01*
X142000D01*
Y13000D01*
X138100D01*
Y15300D01*
X138225Y15750D01*
X138500Y16100D01*
X138875Y16350D01*
X139125Y16425D01*
X139550D01*
X139850Y16350D01*
X140125Y16200D01*
X140275Y16075D01*
X142000Y16800D01*
Y15425D01*
D02*
G37*
G36*
Y26525D02*
X140425D01*
Y25625D01*
X142000D01*
Y24325D01*
X139025D01*
Y23425D01*
X142000D01*
Y22125D01*
X139025D01*
Y21200D01*
X142000D01*
Y19875D01*
X140150Y19100D01*
X142000D01*
Y17750D01*
X138100Y16075D01*
Y17450D01*
X139925Y18225D01*
X138100D01*
Y19575D01*
X139950Y20375D01*
X138100D01*
Y25625D01*
X139500D01*
Y26525D01*
X138100D01*
Y27850D01*
X142000D01*
Y26525D01*
D02*
G37*
D10*
X98094Y4200D02*
G03*
X98094Y4200I-224J0D01*
G01*
Y16200D02*
G03*
X98094Y16200I-224J0D01*
G01*
Y28200D02*
G03*
X98094Y28200I-224J0D01*
G01*
Y40200D02*
G03*
X98094Y40200I-224J0D01*
G01*
D11*
X58668Y38500D02*
G03*
X58668Y38500I-1168J0D01*
G01*
X104168Y42000D02*
G03*
X104168Y42000I-1168J0D01*
G01*
Y37000D02*
G03*
X104168Y37000I-1168J0D01*
G01*
X73668Y43000D02*
G03*
X73668Y43000I-1168J0D01*
G01*
Y36000D02*
G03*
X73668Y36000I-1168J0D01*
G01*
D12*
X77500Y9050D02*
G03*
X77500Y9050I-300J0D01*
G01*
X115700Y9900D02*
G03*
X115700Y9900I-300J0D01*
G01*
X76750Y30350D02*
G03*
X76750Y30350I-300J0D01*
G01*
X61250Y32850D02*
G03*
X61250Y32850I-300J0D01*
G01*
X48250D02*
G03*
X48250Y32850I-300J0D01*
G01*
X35250D02*
G03*
X35250Y32850I-300J0D01*
G01*
X22250D02*
G03*
X22250Y32850I-300J0D01*
G01*
D13*
X75200Y10550D02*
G03*
X75200Y10550I-125J0D01*
G01*
X106975Y12650D02*
G03*
X106975Y12650I-125J0D01*
G01*
X114175Y7775D02*
G03*
X114175Y7775I-125J0D01*
G01*
X75350Y28275D02*
G03*
X75350Y28275I-125J0D01*
G01*
X76220Y20730D02*
G03*
X76220Y20730I-125J0D01*
G01*
X59850Y30775D02*
G03*
X59850Y30775I-125J0D01*
G01*
X46850D02*
G03*
X46850Y30775I-125J0D01*
G01*
X33850D02*
G03*
X33850Y30775I-125J0D01*
G01*
X20850D02*
G03*
X20850Y30775I-125J0D01*
G01*
X64825Y18600D02*
G03*
X64825Y18600I-125J0D01*
G01*
X51825D02*
G03*
X51825Y18600I-125J0D01*
G01*
X38825D02*
G03*
X38825Y18600I-125J0D01*
G01*
X25825D02*
G03*
X25825Y18600I-125J0D01*
G01*
X119175Y40125D02*
G03*
X119175Y40125I-125J0D01*
G01*
X89900Y59000D02*
X106100D01*
Y49000D02*
Y59000D01*
X89900Y49000D02*
X106100D01*
X89900D02*
Y59000D01*
X61100Y28850D02*
Y27650D01*
X61700D01*
X61900Y27850D01*
Y28650D01*
X61700Y28850D01*
X61100D01*
X48900Y28650D02*
X48700Y28850D01*
X48300D01*
X48100Y28650D01*
Y27850D01*
X48300Y27650D01*
X48700D01*
X48900Y27850D01*
X22100Y27650D02*
Y28450D01*
X22500Y28850D01*
X22900Y28450D01*
Y27650D01*
Y28250D01*
X22100D01*
X35100Y28850D02*
Y27650D01*
X35700D01*
X35900Y27850D01*
Y28050D01*
X35700Y28250D01*
X35100D01*
X35700D01*
X35900Y28450D01*
Y28650D01*
X35700Y28850D01*
X35100D01*
D14*
X137500Y12500D02*
Y47000D01*
X142500D01*
Y12500D02*
Y47000D01*
X137500Y12500D02*
X142500D01*
X86890Y5000D02*
X90030D01*
X86890Y10000D02*
X88780D01*
X86890Y5000D02*
Y10000D01*
X99110Y5000D02*
Y10000D01*
X95970D02*
X99110D01*
X97220Y5000D02*
X99110D01*
X86890Y17000D02*
X90030D01*
X86890Y22000D02*
X88780D01*
X86890Y17000D02*
Y22000D01*
X99110Y17000D02*
Y22000D01*
X95970D02*
X99110D01*
X97220Y17000D02*
X99110D01*
X97220Y29000D02*
X99110D01*
X95970Y34000D02*
X99110D01*
Y29000D02*
Y34000D01*
X86890Y29000D02*
Y34000D01*
X88780D01*
X86890Y29000D02*
X90030D01*
X97220Y41000D02*
X99110D01*
X95970Y46000D02*
X99110D01*
Y41000D02*
Y46000D01*
X86890Y41000D02*
Y46000D01*
X88780D01*
X86890Y41000D02*
X90030D01*
X24250Y26750D02*
Y27500D01*
X78200Y37900D02*
Y42100D01*
X74800Y37900D02*
Y42100D01*
X78200D01*
X74800Y37900D02*
X78200D01*
X133105Y40700D02*
Y42300D01*
Y34700D02*
Y36300D01*
Y28700D02*
Y30300D01*
Y22700D02*
Y24300D01*
X128200Y45605D02*
X129800D01*
X122200D02*
X123800D01*
X116200D02*
X117800D01*
X110200D02*
X111800D01*
X106895Y40700D02*
Y42300D01*
Y34700D02*
Y36300D01*
Y28700D02*
Y30300D01*
Y22700D02*
Y24300D01*
X110200Y19395D02*
X111800D01*
X116200D02*
X117800D01*
X122200D02*
X123800D01*
X128200D02*
X129800D01*
X83400Y34600D02*
Y38500D01*
X82200D02*
X83400D01*
X80700Y34600D02*
X81300D01*
X78600D02*
Y38500D01*
X79700D01*
X58500Y3700D02*
Y6300D01*
X53700Y1500D02*
X56300D01*
X51500Y3700D02*
Y6300D01*
X53700Y8500D02*
X56300D01*
X48500Y3700D02*
Y6300D01*
X43700Y1500D02*
X46300D01*
X41500Y3700D02*
Y6300D01*
X43700Y8500D02*
X46300D01*
X38500Y3700D02*
Y6300D01*
X33700Y1500D02*
X36300D01*
X31500Y3700D02*
Y6300D01*
X33700Y8500D02*
X36300D01*
X28500Y3700D02*
Y6300D01*
X23700Y1500D02*
X26300D01*
X21500Y3700D02*
Y6300D01*
X23700Y8500D02*
X26300D01*
X53700Y51500D02*
X56300D01*
X58500Y53700D02*
Y56300D01*
X53700Y58500D02*
X56300D01*
X51500Y53700D02*
Y56300D01*
X43700Y51500D02*
X46300D01*
X48500Y53700D02*
Y56300D01*
X43700Y58500D02*
X46300D01*
X41500Y53700D02*
Y56300D01*
X33700Y51500D02*
X36300D01*
X38500Y53700D02*
Y56300D01*
X33700Y58500D02*
X36300D01*
X31500Y53700D02*
Y56300D01*
X23700Y51500D02*
X26300D01*
X28500Y53700D02*
Y56300D01*
X23700Y58500D02*
X26300D01*
X21500Y53700D02*
Y56300D01*
X76200Y4950D02*
X79800D01*
X76200Y10050D02*
X79800D01*
Y4950D02*
Y10050D01*
X76200Y4950D02*
Y10050D01*
X107175Y13500D02*
Y14000D01*
X109325Y13500D02*
Y14000D01*
X107175Y13500D02*
X109325D01*
X107175Y14000D02*
X109325D01*
X67650Y36600D02*
Y40500D01*
X66450D02*
X67650D01*
X64950Y36600D02*
X65550D01*
X62850D02*
Y40500D01*
X63950D01*
X54650Y36600D02*
Y40500D01*
X53450D02*
X54650D01*
X51950Y36600D02*
X52550D01*
X49850D02*
Y40500D01*
X50950D01*
X41650Y36600D02*
Y40500D01*
X40450D02*
X41650D01*
X38950Y36600D02*
X39550D01*
X36850D02*
Y40500D01*
X37950D01*
X23850D02*
X24950D01*
X23850Y36600D02*
Y40500D01*
X25950Y36600D02*
X26550D01*
X27450Y40500D02*
X28650D01*
Y36600D02*
Y40500D01*
X120600Y8900D02*
Y15100D01*
X114400Y8900D02*
Y15100D01*
X120600D01*
X114400Y8900D02*
X120600D01*
X110300Y24900D02*
Y29100D01*
X113700Y24900D02*
Y29100D01*
X110300Y24900D02*
X113700D01*
X110300Y29100D02*
X113700D01*
X75450Y29350D02*
X78550D01*
X75450Y31650D02*
X78550D01*
X75450Y29350D02*
Y31650D01*
X78550Y29350D02*
Y31650D01*
X75250Y18300D02*
X80750D01*
Y25700D01*
X75250Y18300D02*
Y25700D01*
X80750D01*
X59550Y40900D02*
X62950D01*
X59550Y45100D02*
X62950D01*
X59550Y40900D02*
Y45100D01*
X62950Y40900D02*
Y45100D01*
X46550Y40900D02*
X49950D01*
X46550Y45100D02*
X49950D01*
X46550Y40900D02*
Y45100D01*
X49950Y40900D02*
Y45100D01*
X33550Y40900D02*
X36950D01*
X33550Y45100D02*
X36950D01*
X33550Y40900D02*
Y45100D01*
X36950Y40900D02*
Y45100D01*
X23950Y40900D02*
Y45100D01*
X20550Y40900D02*
Y45100D01*
X23950D01*
X20550Y40900D02*
X23950D01*
X63050Y31850D02*
Y34150D01*
X59950Y31850D02*
Y34150D01*
X63050D01*
X59950Y31850D02*
X63050D01*
X50050D02*
Y34150D01*
X46950Y31850D02*
Y34150D01*
X50050D01*
X46950Y31850D02*
X50050D01*
X37050D02*
Y34150D01*
X33950Y31850D02*
Y34150D01*
X37050D01*
X33950Y31850D02*
X37050D01*
X20950D02*
X24050D01*
X20950Y34150D02*
X24050D01*
X20950Y31850D02*
Y34150D01*
X24050Y31850D02*
Y34150D01*
X59950Y22550D02*
X60425D01*
X59950Y22075D02*
Y22550D01*
X64050Y18450D02*
Y18925D01*
X63575Y18450D02*
X64050D01*
X59950D02*
X60425D01*
X59950D02*
Y18925D01*
X64050Y22075D02*
Y22550D01*
X63575D02*
X64050D01*
X46950D02*
X47425D01*
X46950Y22075D02*
Y22550D01*
X51050Y18450D02*
Y18925D01*
X50575Y18450D02*
X51050D01*
X46950D02*
X47425D01*
X46950D02*
Y18925D01*
X51050Y22075D02*
Y22550D01*
X50575D02*
X51050D01*
X33950D02*
X34425D01*
X33950Y22075D02*
Y22550D01*
X38050Y18450D02*
Y18925D01*
X37575Y18450D02*
X38050D01*
X33950D02*
X34425D01*
X33950D02*
Y18925D01*
X38050Y22075D02*
Y22550D01*
X37575D02*
X38050D01*
X24575D02*
X25050D01*
Y22075D02*
Y22550D01*
X20950Y18450D02*
Y18925D01*
Y18450D02*
X21425D01*
X24575D02*
X25050D01*
Y18925D01*
X20950Y22075D02*
Y22550D01*
X21425D01*
X8500Y43700D02*
Y46300D01*
X3700Y48500D02*
X6300D01*
X1500Y43700D02*
Y46300D01*
X3700Y41500D02*
X6300D01*
X8500Y33700D02*
Y36300D01*
X3700Y38500D02*
X6300D01*
X1500Y33700D02*
Y36300D01*
X3700Y31500D02*
X6300D01*
X8500Y23700D02*
Y26300D01*
X3700Y28500D02*
X6300D01*
X1500Y23700D02*
Y26300D01*
X3700Y21500D02*
X6300D01*
X8500Y13700D02*
Y16300D01*
X3700Y18500D02*
X6300D01*
X1500Y13700D02*
Y16300D01*
X3700Y11500D02*
X6300D01*
X126300Y25000D02*
X129700D01*
X126300D02*
Y29000D01*
X129700D01*
Y25000D02*
Y29000D01*
X120800Y25000D02*
Y29000D01*
Y25000D02*
X124200D01*
Y29000D01*
X120800D02*
X124200D01*
X126500Y36700D02*
X130500D01*
X126500Y33300D02*
Y36700D01*
Y33300D02*
X130500D01*
Y36700D01*
X113850Y50950D02*
X115150D01*
X113850Y57050D02*
X115150D01*
X63875Y33800D02*
X66125D01*
X63875Y30500D02*
Y35500D01*
X66125Y30500D02*
Y35500D01*
X63875Y30500D02*
X66125D01*
X63875Y35500D02*
X66125D01*
X50875Y33800D02*
X53125D01*
X50875Y30500D02*
Y35500D01*
X53125Y30500D02*
Y35500D01*
X50875Y30500D02*
X53125D01*
X50875Y35500D02*
X53125D01*
X37875Y33800D02*
X40125D01*
X37875Y30500D02*
Y35500D01*
X40125Y30500D02*
Y35500D01*
X37875Y30500D02*
X40125D01*
X37875Y35500D02*
X40125D01*
X24875D02*
X27125D01*
X24875Y30500D02*
X27125D01*
Y35500D01*
X24875Y30500D02*
Y35500D01*
Y33800D02*
X27125D01*
X131050Y40050D02*
Y40950D01*
X125950Y40050D02*
Y40950D01*
X101655Y15730D02*
X104345D01*
X101655Y5270D02*
Y15730D01*
Y5270D02*
X104345D01*
Y15730D01*
X101655Y18230D02*
Y33770D01*
X104345D01*
Y18230D02*
Y33770D01*
X101655Y18230D02*
X104345D01*
X66500Y53700D02*
Y56300D01*
X68700Y58500D02*
X71300D01*
X73500Y53700D02*
Y56300D01*
X68700Y51500D02*
X71300D01*
X124300Y36500D02*
Y37025D01*
X119700Y36500D02*
Y37025D01*
X124300Y39975D02*
Y40500D01*
X119700Y39975D02*
Y40500D01*
Y36500D02*
X124300D01*
X119700Y40500D02*
X124300D01*
X79375Y31300D02*
X81625D01*
X79375Y28000D02*
Y33000D01*
X81625Y28000D02*
Y33000D01*
X79375Y28000D02*
X81625D01*
X79375Y33000D02*
X81625D01*
X110525Y53550D02*
Y54450D01*
X107975Y53550D02*
Y54450D01*
X118475Y53550D02*
Y54450D01*
X121025Y53550D02*
Y54450D01*
X74750Y37000D02*
X75000Y36500D01*
X74000Y37500D02*
X75000Y36500D01*
X84750Y15000D02*
X85500Y15250D01*
X84750Y15000D02*
X88500D01*
X20750Y35750D02*
Y36500D01*
X20250Y37250D02*
X20750Y35750D01*
X20000Y22500D02*
X20500Y22250D01*
X17750Y22500D02*
X20500Y22250D01*
X114750Y34500D02*
X115000Y34000D01*
Y36500D01*
X117750D02*
X118000Y36000D01*
Y39500D01*
X10500Y26950D02*
Y26617D01*
X10667Y26450D01*
X11333D01*
X11500Y26617D01*
Y26950D01*
X11333Y27116D01*
X10667D01*
X10500Y26950D01*
Y27450D02*
X11333D01*
X11500Y27616D01*
Y27950D01*
X11333Y28116D01*
X10500D01*
Y28449D02*
Y29116D01*
Y28783D01*
X11500D01*
Y30115D02*
Y29449D01*
X10833Y30115D01*
X10667D01*
X10500Y29949D01*
Y29616D01*
X10667Y29449D01*
X71450Y48500D02*
Y49500D01*
X71783Y49167D01*
X72116Y49500D01*
Y48500D01*
X72450D02*
Y49167D01*
X72783Y49500D01*
X73116Y49167D01*
Y48500D01*
Y49000D01*
X72450D01*
X74116Y49500D02*
X73783D01*
X73949D01*
Y48667D01*
X73783Y48500D01*
X73616D01*
X73449Y48667D01*
X74949Y49500D02*
X74616D01*
X74449Y49333D01*
Y48667D01*
X74616Y48500D01*
X74949D01*
X75115Y48667D01*
Y49333D01*
X74949Y49500D01*
X75449Y48500D02*
Y49500D01*
X75949D01*
X76115Y49333D01*
Y49000D01*
X75949Y48833D01*
X75449D01*
X75782D02*
X76115Y48500D01*
X76448Y49500D02*
X76782D01*
X76615D01*
Y48500D01*
X76448D01*
X76782D01*
X77281Y49500D02*
X77948D01*
X77615D01*
Y48500D01*
X78281Y49500D02*
Y49333D01*
X78614Y49000D01*
X78948Y49333D01*
Y49500D01*
X78614Y49000D02*
Y48500D01*
X36450Y49500D02*
Y48500D01*
X36950D01*
X37116Y48667D01*
Y49333D01*
X36950Y49500D01*
X36450D01*
X37450D02*
X37783D01*
X37616D01*
Y48500D01*
X37450D01*
X37783D01*
X38949Y49333D02*
X38783Y49500D01*
X38449D01*
X38283Y49333D01*
Y49167D01*
X38449Y49000D01*
X38783D01*
X38949Y48833D01*
Y48667D01*
X38783Y48500D01*
X38449D01*
X38283Y48667D01*
X39949Y49333D02*
X39782Y49500D01*
X39449D01*
X39282Y49333D01*
Y48667D01*
X39449Y48500D01*
X39782D01*
X39949Y48667D01*
X40949Y48500D02*
X40282D01*
X40949Y49167D01*
Y49333D01*
X40782Y49500D01*
X40449D01*
X40282Y49333D01*
X85167Y17917D02*
X85000Y17751D01*
Y17417D01*
X85167Y17251D01*
X85333D01*
X85500Y17417D01*
Y17751D01*
X85667Y17917D01*
X85833D01*
X86000Y17751D01*
Y17417D01*
X85833Y17251D01*
X86000Y18250D02*
Y18584D01*
Y18417D01*
X85333D01*
Y18250D01*
X86000Y19083D02*
X85000D01*
Y19583D01*
X85167Y19750D01*
X85500D01*
X85667Y19583D01*
Y19083D01*
X86000Y20083D02*
X85000D01*
X85333Y20416D01*
X85000Y20750D01*
X86000D01*
Y21749D02*
Y21083D01*
X85333Y21749D01*
X85167D01*
X85000Y21583D01*
Y21249D01*
X85167Y21083D01*
X100384Y20602D02*
X100250Y20468D01*
Y20202D01*
X100384Y20069D01*
X100517D01*
X100650Y20202D01*
Y20468D01*
X100783Y20602D01*
X100917D01*
X101050Y20468D01*
Y20202D01*
X100917Y20069D01*
X101050Y21268D02*
Y21002D01*
X100917Y20868D01*
X100650D01*
X100517Y21002D01*
Y21268D01*
X100650Y21402D01*
X100783D01*
Y20868D01*
X100517Y21668D02*
X101050D01*
X100783D01*
X100650Y21801D01*
X100517Y21935D01*
Y22068D01*
X101050Y22468D02*
Y22734D01*
Y22601D01*
X100517D01*
Y22468D01*
Y23268D02*
Y23534D01*
X100650Y23667D01*
X101050D01*
Y23268D01*
X100917Y23134D01*
X100783Y23268D01*
Y23667D01*
X101050Y23934D02*
Y24201D01*
Y24067D01*
X100250D01*
Y23934D01*
Y25400D02*
Y25667D01*
Y25534D01*
X101050D01*
Y25400D01*
Y25667D01*
Y26067D02*
X100517D01*
Y26467D01*
X100650Y26600D01*
X101050D01*
X100384Y27000D02*
X100517D01*
Y26866D01*
Y27133D01*
Y27000D01*
X100917D01*
X101050Y27133D01*
Y27933D02*
Y27666D01*
X100917Y27533D01*
X100650D01*
X100517Y27666D01*
Y27933D01*
X100650Y28066D01*
X100783D01*
Y27533D01*
X100517Y28333D02*
X101050D01*
X100783D01*
X100650Y28466D01*
X100517Y28599D01*
Y28732D01*
X101050Y29266D02*
X100384D01*
X100650D01*
Y29132D01*
Y29399D01*
Y29266D01*
X100384D01*
X100250Y29399D01*
X100517Y29932D02*
Y30199D01*
X100650Y30332D01*
X101050D01*
Y29932D01*
X100917Y29799D01*
X100783Y29932D01*
Y30332D01*
X100517Y31132D02*
Y30732D01*
X100650Y30599D01*
X100917D01*
X101050Y30732D01*
Y31132D01*
Y31798D02*
Y31532D01*
X100917Y31398D01*
X100650D01*
X100517Y31532D01*
Y31798D01*
X100650Y31931D01*
X100783D01*
Y31398D01*
X26200Y11500D02*
X26533D01*
X26367D01*
Y10500D01*
X26200D01*
X26533D01*
X27033D02*
Y11500D01*
X27700Y10500D01*
Y11500D01*
X28033Y10500D02*
X28366D01*
X28199D01*
Y11500D01*
X28033Y11333D01*
X46200Y11500D02*
X46533D01*
X46367D01*
Y10500D01*
X46200D01*
X46533D01*
X47033D02*
Y11500D01*
X47700Y10500D01*
Y11500D01*
X48033Y11333D02*
X48199Y11500D01*
X48533D01*
X48699Y11333D01*
Y11167D01*
X48533Y11000D01*
X48366D01*
X48533D01*
X48699Y10833D01*
Y10667D01*
X48533Y10500D01*
X48199D01*
X48033Y10667D01*
X85167Y6084D02*
X85000Y5917D01*
Y5584D01*
X85167Y5417D01*
X85333D01*
X85500Y5584D01*
Y5917D01*
X85667Y6084D01*
X85833D01*
X86000Y5917D01*
Y5584D01*
X85833Y5417D01*
X86000Y6417D02*
Y6750D01*
Y6584D01*
X85333D01*
Y6417D01*
X86000Y7250D02*
X85000D01*
Y7750D01*
X85167Y7917D01*
X85500D01*
X85667Y7750D01*
Y7250D01*
X86000Y8250D02*
X85000D01*
X85333Y8583D01*
X85000Y8916D01*
X86000D01*
Y9249D02*
Y9583D01*
Y9416D01*
X85000D01*
X85167Y9249D01*
X138160Y29233D02*
X138027Y29100D01*
Y28833D01*
X138160Y28700D01*
X138694D01*
X138827Y28833D01*
Y29100D01*
X138694Y29233D01*
X138827Y29633D02*
Y29900D01*
X138694Y30033D01*
X138427D01*
X138294Y29900D01*
Y29633D01*
X138427Y29500D01*
X138694D01*
X138827Y29633D01*
Y30299D02*
Y30699D01*
X138694Y30833D01*
X138560Y30699D01*
Y30433D01*
X138427Y30299D01*
X138294Y30433D01*
Y30833D01*
X138827Y31099D02*
X138294D01*
Y31233D01*
X138427Y31366D01*
X138827D01*
X138427D01*
X138294Y31499D01*
X138427Y31632D01*
X138827D01*
Y31899D02*
Y32166D01*
Y32032D01*
X138294D01*
Y31899D01*
Y33099D02*
Y32699D01*
X138427Y32565D01*
X138694D01*
X138827Y32699D01*
Y33099D01*
Y34165D02*
X138027D01*
X138294Y34431D01*
X138027Y34698D01*
X138827D01*
X138294Y34965D02*
X138694D01*
X138827Y35098D01*
Y35498D01*
X138294D01*
X138827Y35898D02*
Y36164D01*
X138694Y36298D01*
X138427D01*
X138294Y36164D01*
Y35898D01*
X138427Y35764D01*
X138694D01*
X138827Y35898D01*
Y36564D02*
X138294D01*
Y36964D01*
X138427Y37097D01*
X138827D01*
X138027Y38164D02*
Y38697D01*
Y38430D01*
X138827D01*
Y39363D02*
Y39097D01*
X138694Y38963D01*
X138427D01*
X138294Y39097D01*
Y39363D01*
X138427Y39497D01*
X138560D01*
Y38963D01*
X138827Y39763D02*
Y40163D01*
X138694Y40296D01*
X138560Y40163D01*
Y39896D01*
X138427Y39763D01*
X138294Y39896D01*
Y40296D01*
X138160Y40696D02*
X138294D01*
Y40563D01*
Y40829D01*
Y40696D01*
X138694D01*
X138827Y40829D01*
X138160Y42562D02*
X138027Y42429D01*
Y42162D01*
X138160Y42029D01*
X138294D01*
X138427Y42162D01*
Y42429D01*
X138560Y42562D01*
X138694D01*
X138827Y42429D01*
Y42162D01*
X138694Y42029D01*
X138160Y42962D02*
X138294D01*
Y42829D01*
Y43095D01*
Y42962D01*
X138694D01*
X138827Y43095D01*
X138294Y43629D02*
Y43895D01*
X138427Y44028D01*
X138827D01*
Y43629D01*
X138694Y43495D01*
X138560Y43629D01*
Y44028D01*
X138827Y44295D02*
X138294D01*
Y44695D01*
X138427Y44828D01*
X138827D01*
X138027Y45628D02*
X138827D01*
Y45228D01*
X138694Y45095D01*
X138427D01*
X138294Y45228D01*
Y45628D01*
X139467Y28700D02*
Y29233D01*
Y28967D01*
X140267D01*
X139733Y29500D02*
X140267D01*
X140000D01*
X139867Y29633D01*
X139733Y29766D01*
Y29900D01*
X140267Y30299D02*
Y30566D01*
Y30433D01*
X139733D01*
Y30299D01*
X140533Y31233D02*
Y31366D01*
X140400Y31499D01*
X139733D01*
Y31099D01*
X139867Y30966D01*
X140133D01*
X140267Y31099D01*
Y31499D01*
X140533Y32032D02*
Y32166D01*
X140400Y32299D01*
X139733D01*
Y31899D01*
X139867Y31766D01*
X140133D01*
X140267Y31899D01*
Y32299D01*
Y32965D02*
Y32699D01*
X140133Y32565D01*
X139867D01*
X139733Y32699D01*
Y32965D01*
X139867Y33099D01*
X140000D01*
Y32565D01*
X139733Y33365D02*
X140267D01*
X140000D01*
X139867Y33498D01*
X139733Y33632D01*
Y33765D01*
X140267Y34965D02*
X139467D01*
X139733Y35231D01*
X139467Y35498D01*
X140267D01*
X139733Y35898D02*
Y36164D01*
X139867Y36298D01*
X140267D01*
Y35898D01*
X140133Y35764D01*
X140000Y35898D01*
Y36298D01*
X140267Y36564D02*
Y36831D01*
Y36697D01*
X139733D01*
Y36564D01*
X140267Y37231D02*
X139733D01*
Y37630D01*
X139867Y37764D01*
X140267D01*
X139467Y38030D02*
X140267D01*
Y38430D01*
X140133Y38563D01*
X140000D01*
X139867D01*
X139733Y38430D01*
Y38030D01*
X140267Y38963D02*
Y39230D01*
X140133Y39363D01*
X139867D01*
X139733Y39230D01*
Y38963D01*
X139867Y38830D01*
X140133D01*
X140267Y38963D01*
X139733Y39763D02*
Y40030D01*
X139867Y40163D01*
X140267D01*
Y39763D01*
X140133Y39630D01*
X140000Y39763D01*
Y40163D01*
X139733Y40430D02*
X140267D01*
X140000D01*
X139867Y40563D01*
X139733Y40696D01*
Y40829D01*
X139467Y41762D02*
X140267D01*
Y41363D01*
X140133Y41229D01*
X139867D01*
X139733Y41363D01*
Y41762D01*
X139467Y43362D02*
Y42829D01*
X140267D01*
Y43362D01*
X139867Y42829D02*
Y43095D01*
X139733Y43629D02*
X140267Y43895D01*
X139733Y44162D01*
Y44562D02*
Y44828D01*
X139867Y44961D01*
X140267D01*
Y44562D01*
X140133Y44428D01*
X140000Y44562D01*
Y44961D01*
X140267Y45228D02*
Y45495D01*
Y45361D01*
X139467D01*
Y45228D01*
X141440Y28700D02*
X141973D01*
X141706D01*
X141573Y28833D01*
X141440Y28967D01*
Y29100D01*
X141973Y29900D02*
Y29633D01*
X141840Y29500D01*
X141573D01*
X141440Y29633D01*
Y29900D01*
X141573Y30033D01*
X141706D01*
Y29500D01*
X141440Y30299D02*
X141973Y30566D01*
X141440Y30833D01*
X141306Y31099D02*
X141173Y31233D01*
Y31499D01*
X141306Y31632D01*
X141840D01*
X141973Y31499D01*
Y31233D01*
X141840Y31099D01*
X141306D01*
X141173Y32699D02*
X141973D01*
X141706Y32965D01*
X141973Y33232D01*
X141173D01*
X141973Y33898D02*
Y33632D01*
X141840Y33498D01*
X141573D01*
X141440Y33632D01*
Y33898D01*
X141573Y34032D01*
X141706D01*
Y33498D01*
X141973Y34298D02*
Y34565D01*
Y34431D01*
X141440D01*
Y34298D01*
X141973Y34965D02*
X141440D01*
Y35365D01*
X141573Y35498D01*
X141973D01*
Y35764D02*
Y36164D01*
X141840Y36298D01*
X141706Y36164D01*
Y35898D01*
X141573Y35764D01*
X141440Y35898D01*
Y36298D01*
X141306Y36697D02*
X141440D01*
Y36564D01*
Y36831D01*
Y36697D01*
X141840D01*
X141973Y36831D01*
Y37364D02*
Y37630D01*
X141840Y37764D01*
X141573D01*
X141440Y37630D01*
Y37364D01*
X141573Y37231D01*
X141840D01*
X141973Y37364D01*
X141440Y38563D02*
Y38164D01*
X141573Y38030D01*
X141840D01*
X141973Y38164D01*
Y38563D01*
Y38830D02*
X141173D01*
X141706D02*
X141440Y39230D01*
X141706Y38830D02*
X141973Y39230D01*
X141173Y40963D02*
Y40696D01*
Y40829D01*
X141840D01*
X141973Y40696D01*
Y40563D01*
X141840Y40430D01*
X141440Y41229D02*
X141840D01*
X141973Y41363D01*
Y41762D01*
X141440D01*
X141973Y42029D02*
Y42296D01*
Y42162D01*
X141173D01*
Y42029D01*
X141573Y42695D02*
Y43229D01*
X141973Y44028D02*
Y43495D01*
X141440Y44028D01*
X141306D01*
X141173Y43895D01*
Y43629D01*
X141306Y43495D01*
Y44295D02*
X141173Y44428D01*
Y44695D01*
X141306Y44828D01*
X141840D01*
X141973Y44695D01*
Y44428D01*
X141840Y44295D01*
X141306D01*
X141973Y45628D02*
Y45095D01*
X141440Y45628D01*
X141306D01*
X141173Y45495D01*
Y45228D01*
X141306Y45095D01*
Y45894D02*
X141173Y46028D01*
Y46294D01*
X141306Y46428D01*
X141840D01*
X141973Y46294D01*
Y46028D01*
X141840Y45894D01*
X141306D01*
X56200Y11500D02*
X56533D01*
X56367D01*
Y10500D01*
X56200D01*
X56533D01*
X57033D02*
Y11500D01*
X57700Y10500D01*
Y11500D01*
X58533Y10500D02*
Y11500D01*
X58033Y11000D01*
X58699D01*
X46450Y49500D02*
Y48500D01*
X46950D01*
X47116Y48667D01*
Y49333D01*
X46950Y49500D01*
X46450D01*
X47450D02*
X47783D01*
X47616D01*
Y48500D01*
X47450D01*
X47783D01*
X48949Y49333D02*
X48783Y49500D01*
X48449D01*
X48283Y49333D01*
Y49167D01*
X48449Y49000D01*
X48783D01*
X48949Y48833D01*
Y48667D01*
X48783Y48500D01*
X48449D01*
X48283Y48667D01*
X49949Y49333D02*
X49782Y49500D01*
X49449D01*
X49282Y49333D01*
Y48667D01*
X49449Y48500D01*
X49782D01*
X49949Y48667D01*
X50282Y49333D02*
X50449Y49500D01*
X50782D01*
X50949Y49333D01*
Y49167D01*
X50782Y49000D01*
X50615D01*
X50782D01*
X50949Y48833D01*
Y48667D01*
X50782Y48500D01*
X50449D01*
X50282Y48667D01*
X10500Y16950D02*
Y16617D01*
X10667Y16450D01*
X11333D01*
X11500Y16617D01*
Y16950D01*
X11333Y17116D01*
X10667D01*
X10500Y16950D01*
Y17450D02*
X11333D01*
X11500Y17616D01*
Y17950D01*
X11333Y18116D01*
X10500D01*
Y18449D02*
Y19116D01*
Y18783D01*
X11500D01*
Y19449D02*
Y19782D01*
Y19616D01*
X10500D01*
X10667Y19449D01*
X56450Y49500D02*
Y48500D01*
X56950D01*
X57116Y48667D01*
Y49333D01*
X56950Y49500D01*
X56450D01*
X57450D02*
X57783D01*
X57616D01*
Y48500D01*
X57450D01*
X57783D01*
X58949Y49333D02*
X58783Y49500D01*
X58449D01*
X58283Y49333D01*
Y49167D01*
X58449Y49000D01*
X58783D01*
X58949Y48833D01*
Y48667D01*
X58783Y48500D01*
X58449D01*
X58283Y48667D01*
X59949Y49333D02*
X59782Y49500D01*
X59449D01*
X59282Y49333D01*
Y48667D01*
X59449Y48500D01*
X59782D01*
X59949Y48667D01*
X60782Y48500D02*
Y49500D01*
X60282Y49000D01*
X60949D01*
X36200Y11500D02*
X36533D01*
X36367D01*
Y10500D01*
X36200D01*
X36533D01*
X37033D02*
Y11500D01*
X37700Y10500D01*
Y11500D01*
X38699Y10500D02*
X38033D01*
X38699Y11167D01*
Y11333D01*
X38533Y11500D01*
X38199D01*
X38033Y11333D01*
X26450Y49500D02*
Y48500D01*
X26950D01*
X27116Y48667D01*
Y49333D01*
X26950Y49500D01*
X26450D01*
X27450D02*
X27783D01*
X27616D01*
Y48500D01*
X27450D01*
X27783D01*
X28949Y49333D02*
X28783Y49500D01*
X28449D01*
X28283Y49333D01*
Y49167D01*
X28449Y49000D01*
X28783D01*
X28949Y48833D01*
Y48667D01*
X28783Y48500D01*
X28449D01*
X28283Y48667D01*
X29949Y49333D02*
X29782Y49500D01*
X29449D01*
X29282Y49333D01*
Y48667D01*
X29449Y48500D01*
X29782D01*
X29949Y48667D01*
X30282Y48500D02*
X30615D01*
X30449D01*
Y49500D01*
X30282Y49333D01*
X100117Y6835D02*
X99984Y6701D01*
Y6435D01*
X100117Y6301D01*
X100250D01*
X100384Y6435D01*
Y6701D01*
X100517Y6835D01*
X100650D01*
X100783Y6701D01*
Y6435D01*
X100650Y6301D01*
X101050Y7101D02*
X100250D01*
Y7501D01*
X100384Y7634D01*
X100650D01*
X100783Y7501D01*
Y7101D01*
X100250Y7901D02*
X100650D01*
X100783Y8034D01*
Y8434D01*
X100917D01*
X101050Y8301D01*
Y8167D01*
X100783Y8434D02*
X100250D01*
X100384Y8701D02*
Y9234D01*
X99984Y9500D02*
X100783D01*
Y9900D01*
X100650Y10033D01*
X100517D01*
X100384D01*
X100250Y9900D01*
Y9500D01*
Y10300D02*
X100650D01*
X100783Y10433D01*
Y10833D01*
X100917D01*
X101050Y10700D01*
Y10567D01*
X100783Y10833D02*
X100250D01*
X100384Y11100D02*
Y11633D01*
X99984Y11900D02*
X100783D01*
X100517Y12166D01*
X100783Y12433D01*
X99984D01*
X100783Y12699D02*
Y12966D01*
Y12833D01*
X100250D01*
Y12699D01*
Y13366D02*
X100783D01*
X100517D01*
X100384Y13499D01*
X100250Y13632D01*
Y13766D01*
X100783Y14565D02*
Y14299D01*
X100650Y14165D01*
X100384D01*
X100250Y14299D01*
Y14565D01*
X100384Y14699D01*
X100517D01*
Y14165D01*
X85167Y41917D02*
X85000Y41751D01*
Y41417D01*
X85167Y41251D01*
X85333D01*
X85500Y41417D01*
Y41751D01*
X85667Y41917D01*
X85833D01*
X86000Y41751D01*
Y41417D01*
X85833Y41251D01*
X86000Y42250D02*
Y42584D01*
Y42417D01*
X85333D01*
Y42250D01*
X86000Y43083D02*
X85000D01*
Y43583D01*
X85167Y43750D01*
X85500D01*
X85667Y43583D01*
Y43083D01*
X86000Y44083D02*
X85000D01*
X85333Y44416D01*
X85000Y44750D01*
X86000D01*
Y45583D02*
X85000D01*
X85500Y45083D01*
Y45749D01*
X85167Y29917D02*
X85000Y29751D01*
Y29417D01*
X85167Y29251D01*
X85333D01*
X85500Y29417D01*
Y29751D01*
X85667Y29917D01*
X85833D01*
X86000Y29751D01*
Y29417D01*
X85833Y29251D01*
X86000Y30250D02*
Y30584D01*
Y30417D01*
X85333D01*
Y30250D01*
X86000Y31083D02*
X85000D01*
Y31583D01*
X85167Y31750D01*
X85500D01*
X85667Y31583D01*
Y31083D01*
X86000Y32083D02*
X85000D01*
X85333Y32416D01*
X85000Y32750D01*
X86000D01*
X85167Y33083D02*
X85000Y33249D01*
Y33583D01*
X85167Y33749D01*
X85333D01*
X85500Y33583D01*
Y33416D01*
Y33583D01*
X85667Y33749D01*
X85833D01*
X86000Y33583D01*
Y33249D01*
X85833Y33083D01*
X10500Y46950D02*
Y46617D01*
X10667Y46450D01*
X11333D01*
X11500Y46617D01*
Y46950D01*
X11333Y47116D01*
X10667D01*
X10500Y46950D01*
Y47450D02*
X11333D01*
X11500Y47616D01*
Y47950D01*
X11333Y48116D01*
X10500D01*
Y48449D02*
Y49116D01*
Y48783D01*
X11500D01*
Y49949D02*
X10500D01*
X11000Y49449D01*
Y50115D01*
X10500Y36950D02*
Y36617D01*
X10667Y36450D01*
X11333D01*
X11500Y36617D01*
Y36950D01*
X11333Y37116D01*
X10667D01*
X10500Y36950D01*
Y37450D02*
X11333D01*
X11500Y37616D01*
Y37950D01*
X11333Y38116D01*
X10500D01*
Y38449D02*
Y39116D01*
Y38783D01*
X11500D01*
X10667Y39449D02*
X10500Y39616D01*
Y39949D01*
X10667Y40115D01*
X10833D01*
X11000Y39949D01*
Y39782D01*
Y39949D01*
X11167Y40115D01*
X11333D01*
X11500Y39949D01*
Y39616D01*
X11333Y39449D01*
X102336Y44818D02*
X102170Y44984D01*
X101837D01*
X101670Y44818D01*
Y44151D01*
X101837Y43985D01*
X102170D01*
X102336Y44151D01*
Y44485D01*
X102003D01*
X102670Y43985D02*
Y44984D01*
X103336Y43985D01*
Y44984D01*
X103669D02*
Y43985D01*
X104169D01*
X104336Y44151D01*
Y44818D01*
X104169Y44984D01*
X103669D01*
X102178Y39981D02*
Y39314D01*
X102511Y38981D01*
X102844Y39314D01*
Y39981D01*
X103178D02*
Y38981D01*
X103678D01*
X103844Y39148D01*
Y39314D01*
X103678Y39481D01*
X103178D01*
X103678D01*
X103844Y39647D01*
Y39814D01*
X103678Y39981D01*
X103178D01*
X71831Y45808D02*
X71664Y45975D01*
X71331D01*
X71165Y45808D01*
Y45142D01*
X71331Y44975D01*
X71664D01*
X71831Y45142D01*
Y45475D01*
X71498D01*
X72164Y44975D02*
Y45975D01*
X72831Y44975D01*
Y45975D01*
X73164D02*
Y44975D01*
X73664D01*
X73830Y45142D01*
Y45808D01*
X73664Y45975D01*
X73164D01*
X68193Y36501D02*
X68859D01*
X68526D01*
Y35501D01*
X69192Y36501D02*
Y35501D01*
Y36001D01*
X69859D01*
Y36501D01*
Y35501D01*
X70192D02*
X70525D01*
X70359D01*
Y36501D01*
X70192Y36334D01*
X55667Y41500D02*
X56334D01*
X56000D01*
Y40500D01*
X56667Y41500D02*
Y40500D01*
Y41000D01*
X57333D01*
Y41500D01*
Y40500D01*
X57666Y41333D02*
X57833Y41500D01*
X58166D01*
X58333Y41333D01*
Y40667D01*
X58166Y40500D01*
X57833D01*
X57666Y40667D01*
Y41333D01*
X68100Y5417D02*
Y4884D01*
X68500D01*
Y5151D01*
Y4884D01*
X68900D01*
X68100Y5684D02*
X68900D01*
Y6084D01*
X68767Y6217D01*
X68633D01*
X68500Y6084D01*
Y5684D01*
Y6084D01*
X68367Y6217D01*
X68233D01*
X68100Y6084D01*
Y5684D01*
Y7017D02*
Y6483D01*
X68500D01*
X68367Y6750D01*
Y6883D01*
X68500Y7017D01*
X68767D01*
X68900Y6883D01*
Y6617D01*
X68767Y6483D01*
X68233Y7283D02*
X68100Y7416D01*
Y7683D01*
X68233Y7816D01*
X68767D01*
X68900Y7683D01*
Y7416D01*
X68767Y7283D01*
X68233D01*
X68900Y8616D02*
Y8083D01*
X68367Y8616D01*
X68233D01*
X68100Y8483D01*
Y8216D01*
X68233Y8083D01*
X82550Y56650D02*
X82017D01*
Y56250D01*
X82284D01*
X82017D01*
Y55850D01*
X82817Y56650D02*
Y55850D01*
X83217D01*
X83350Y55983D01*
Y56117D01*
X83217Y56250D01*
X82817D01*
X83217D01*
X83350Y56383D01*
Y56517D01*
X83217Y56650D01*
X82817D01*
X84150D02*
X83617D01*
Y56250D01*
X83883Y56383D01*
X84017D01*
X84150Y56250D01*
Y55983D01*
X84017Y55850D01*
X83750D01*
X83617Y55983D01*
X84416Y56517D02*
X84550Y56650D01*
X84816D01*
X84950Y56517D01*
Y55983D01*
X84816Y55850D01*
X84550D01*
X84416Y55983D01*
Y56517D01*
X85216Y55850D02*
X85483D01*
X85349D01*
Y56650D01*
X85216Y56517D01*
X87067Y48517D02*
X86934Y48650D01*
X86667D01*
X86534Y48517D01*
Y47983D01*
X86667Y47850D01*
X86934D01*
X87067Y47983D01*
X87867Y48650D02*
X87334D01*
Y48250D01*
X87600Y48383D01*
X87733D01*
X87867Y48250D01*
Y47983D01*
X87733Y47850D01*
X87467D01*
X87334Y47983D01*
X88133Y48517D02*
X88267Y48650D01*
X88533D01*
X88666Y48517D01*
Y47983D01*
X88533Y47850D01*
X88267D01*
X88133Y47983D01*
Y48517D01*
X89466Y47850D02*
X88933D01*
X89466Y48383D01*
Y48517D01*
X89333Y48650D01*
X89066D01*
X88933Y48517D01*
X83850Y37966D02*
X84650D01*
Y37566D01*
X84517Y37433D01*
X84250D01*
X84117Y37566D01*
Y37966D01*
Y37700D02*
X83850Y37433D01*
X84517Y37166D02*
X84650Y37033D01*
Y36767D01*
X84517Y36633D01*
X84383D01*
X84250Y36767D01*
Y36900D01*
Y36767D01*
X84117Y36633D01*
X83983D01*
X83850Y36767D01*
Y37033D01*
X83983Y37166D01*
X84517Y36367D02*
X84650Y36233D01*
Y35967D01*
X84517Y35834D01*
X83983D01*
X83850Y35967D01*
Y36233D01*
X83983Y36367D01*
X84517D01*
Y35567D02*
X84650Y35434D01*
Y35167D01*
X84517Y35034D01*
X84383D01*
X84250Y35167D01*
X84117Y35034D01*
X83983D01*
X83850Y35167D01*
Y35434D01*
X83983Y35567D01*
X84117D01*
X84250Y35434D01*
X84383Y35567D01*
X84517D01*
X84250Y35434D02*
Y35167D01*
X82317Y40267D02*
X82184Y40400D01*
X81917D01*
X81784Y40267D01*
Y39733D01*
X81917Y39600D01*
X82184D01*
X82317Y39733D01*
X82584Y40267D02*
X82717Y40400D01*
X82983D01*
X83117Y40267D01*
Y40133D01*
X82983Y40000D01*
X82850D01*
X82983D01*
X83117Y39867D01*
Y39733D01*
X82983Y39600D01*
X82717D01*
X82584Y39733D01*
X83383Y40267D02*
X83517Y40400D01*
X83783D01*
X83916Y40267D01*
Y39733D01*
X83783Y39600D01*
X83517D01*
X83383Y39733D01*
Y40267D01*
X84716Y40400D02*
X84183D01*
Y40000D01*
X84450Y40133D01*
X84583D01*
X84716Y40000D01*
Y39733D01*
X84583Y39600D01*
X84316D01*
X84183Y39733D01*
X79317Y43767D02*
X79184Y43900D01*
X78917D01*
X78784Y43767D01*
Y43233D01*
X78917Y43100D01*
X79184D01*
X79317Y43233D01*
X79584Y43767D02*
X79717Y43900D01*
X79983D01*
X80117Y43767D01*
Y43633D01*
X79983Y43500D01*
X79850D01*
X79983D01*
X80117Y43367D01*
Y43233D01*
X79983Y43100D01*
X79717D01*
X79584Y43233D01*
X80383Y43767D02*
X80517Y43900D01*
X80783D01*
X80916Y43767D01*
Y43233D01*
X80783Y43100D01*
X80517D01*
X80383Y43233D01*
Y43767D01*
X81716Y43100D02*
X81183D01*
X81716Y43633D01*
Y43767D01*
X81583Y43900D01*
X81316D01*
X81183Y43767D01*
X69233Y27700D02*
X69100Y27567D01*
Y27300D01*
X69233Y27167D01*
X69767D01*
X69900Y27300D01*
Y27567D01*
X69767Y27700D01*
X69233Y27967D02*
X69100Y28100D01*
Y28367D01*
X69233Y28500D01*
X69367D01*
X69500Y28367D01*
Y28233D01*
Y28367D01*
X69633Y28500D01*
X69767D01*
X69900Y28367D01*
Y28100D01*
X69767Y27967D01*
X69233Y28767D02*
X69100Y28900D01*
Y29166D01*
X69233Y29300D01*
X69767D01*
X69900Y29166D01*
Y28900D01*
X69767Y28767D01*
X69233D01*
X69900Y29566D02*
Y29833D01*
Y29700D01*
X69100D01*
X69233Y29566D01*
X70733Y27567D02*
X70600Y27434D01*
Y27167D01*
X70733Y27034D01*
X71267D01*
X71400Y27167D01*
Y27434D01*
X71267Y27567D01*
X70733Y27834D02*
X70600Y27967D01*
Y28233D01*
X70733Y28367D01*
X70867D01*
X71000Y28233D01*
Y28100D01*
Y28233D01*
X71133Y28367D01*
X71267D01*
X71400Y28233D01*
Y27967D01*
X71267Y27834D01*
X70733Y28633D02*
X70600Y28767D01*
Y29033D01*
X70733Y29166D01*
X71267D01*
X71400Y29033D01*
Y28767D01*
X71267Y28633D01*
X70733D01*
Y29433D02*
X70600Y29566D01*
Y29833D01*
X70733Y29966D01*
X71267D01*
X71400Y29833D01*
Y29566D01*
X71267Y29433D01*
X70733D01*
X82167Y51150D02*
X81634D01*
Y50750D01*
X81901D01*
X81634D01*
Y50350D01*
X82434Y51150D02*
Y50350D01*
X82834D01*
X82967Y50483D01*
Y50617D01*
X82834Y50750D01*
X82434D01*
X82834D01*
X82967Y50883D01*
Y51017D01*
X82834Y51150D01*
X82434D01*
X83767D02*
X83233D01*
Y50750D01*
X83500Y50883D01*
X83633D01*
X83767Y50750D01*
Y50483D01*
X83633Y50350D01*
X83367D01*
X83233Y50483D01*
X84033Y51017D02*
X84166Y51150D01*
X84433D01*
X84566Y51017D01*
Y50483D01*
X84433Y50350D01*
X84166D01*
X84033Y50483D01*
Y51017D01*
X84833D02*
X84966Y51150D01*
X85233D01*
X85366Y51017D01*
Y50483D01*
X85233Y50350D01*
X84966D01*
X84833Y50483D01*
Y51017D01*
X29350Y40616D02*
X30150D01*
Y40216D01*
X30017Y40083D01*
X29750D01*
X29617Y40216D01*
Y40616D01*
Y40349D02*
X29350Y40083D01*
Y39283D02*
Y39816D01*
X29883Y39283D01*
X30017D01*
X30150Y39416D01*
Y39683D01*
X30017Y39816D01*
Y39017D02*
X30150Y38883D01*
Y38617D01*
X30017Y38483D01*
X29483D01*
X29350Y38617D01*
Y38883D01*
X29483Y39017D01*
X30017D01*
X29350Y37684D02*
Y38217D01*
X29883Y37684D01*
X30017D01*
X30150Y37817D01*
Y38084D01*
X30017Y38217D01*
X29350Y37417D02*
X29883D01*
X30150Y37151D01*
X29883Y36884D01*
X29350D01*
X29750D01*
Y37417D01*
X97611Y11904D02*
X97344D01*
X97478D01*
Y11237D01*
X97344Y11104D01*
X97211D01*
X97078Y11237D01*
X97878Y11104D02*
X98144D01*
X98011D01*
Y11904D01*
X97878Y11770D01*
X98944Y11104D02*
Y11904D01*
X98544Y11504D01*
X99077D01*
X28667Y44017D02*
X28534Y44150D01*
X28267D01*
X28134Y44017D01*
Y43483D01*
X28267Y43350D01*
X28534D01*
X28667Y43483D01*
X29467Y43350D02*
X28934D01*
X29467Y43883D01*
Y44017D01*
X29334Y44150D01*
X29067D01*
X28934Y44017D01*
X29733D02*
X29867Y44150D01*
X30133D01*
X30267Y44017D01*
Y43483D01*
X30133Y43350D01*
X29867D01*
X29733Y43483D01*
Y44017D01*
X30533D02*
X30666Y44150D01*
X30933D01*
X31066Y44017D01*
Y43883D01*
X30933Y43750D01*
X30800D01*
X30933D01*
X31066Y43617D01*
Y43483D01*
X30933Y43350D01*
X30666D01*
X30533Y43483D01*
X31333Y43350D02*
Y43883D01*
X31599Y44150D01*
X31866Y43883D01*
Y43350D01*
Y43750D01*
X31333D01*
X76534Y4400D02*
Y3733D01*
X76667Y3600D01*
X76934D01*
X77067Y3733D01*
Y4400D01*
X77867D02*
X77334D01*
Y4000D01*
X77600Y4133D01*
X77733D01*
X77867Y4000D01*
Y3733D01*
X77733Y3600D01*
X77467D01*
X77334Y3733D01*
X78133Y4267D02*
X78267Y4400D01*
X78533D01*
X78666Y4267D01*
Y3733D01*
X78533Y3600D01*
X78267D01*
X78133Y3733D01*
Y4267D01*
X78933D02*
X79066Y4400D01*
X79333D01*
X79466Y4267D01*
Y4133D01*
X79333Y4000D01*
X79200D01*
X79333D01*
X79466Y3867D01*
Y3733D01*
X79333Y3600D01*
X79066D01*
X78933Y3733D01*
X110100Y12284D02*
X110767D01*
X110900Y12417D01*
Y12684D01*
X110767Y12817D01*
X110100D01*
Y13617D02*
Y13084D01*
X110500D01*
X110367Y13350D01*
Y13483D01*
X110500Y13617D01*
X110767D01*
X110900Y13483D01*
Y13217D01*
X110767Y13084D01*
X110233Y13883D02*
X110100Y14017D01*
Y14283D01*
X110233Y14416D01*
X110767D01*
X110900Y14283D01*
Y14017D01*
X110767Y13883D01*
X110233D01*
X110900Y15216D02*
Y14683D01*
X110367Y15216D01*
X110233D01*
X110100Y15083D01*
Y14816D01*
X110233Y14683D01*
X116173Y18724D02*
Y18058D01*
X116307Y17924D01*
X116573D01*
X116707Y18058D01*
Y18724D01*
X117506D02*
X116973D01*
Y18324D01*
X117240Y18458D01*
X117373D01*
X117506Y18324D01*
Y18058D01*
X117373Y17924D01*
X117106D01*
X116973Y18058D01*
X117773Y18591D02*
X117906Y18724D01*
X118173D01*
X118306Y18591D01*
Y18058D01*
X118173Y17924D01*
X117906D01*
X117773Y18058D01*
Y18591D01*
X118573Y17924D02*
X118839D01*
X118706D01*
Y18724D01*
X118573Y18591D01*
X103034Y48400D02*
Y47733D01*
X103167Y47600D01*
X103434D01*
X103567Y47733D01*
Y48400D01*
X104367D02*
X103834D01*
Y48000D01*
X104100Y48133D01*
X104233D01*
X104367Y48000D01*
Y47733D01*
X104233Y47600D01*
X103967D01*
X103834Y47733D01*
X104633Y48267D02*
X104767Y48400D01*
X105033D01*
X105166Y48267D01*
Y47733D01*
X105033Y47600D01*
X104767D01*
X104633Y47733D01*
Y48267D01*
X105433D02*
X105566Y48400D01*
X105833D01*
X105966Y48267D01*
Y47733D01*
X105833Y47600D01*
X105566D01*
X105433Y47733D01*
Y48267D01*
X109100Y25534D02*
X109767D01*
X109900Y25667D01*
Y25934D01*
X109767Y26067D01*
X109100D01*
X109900Y26733D02*
X109100D01*
X109500Y26334D01*
Y26867D01*
X109233Y27133D02*
X109100Y27267D01*
Y27533D01*
X109233Y27666D01*
X109767D01*
X109900Y27533D01*
Y27267D01*
X109767Y27133D01*
X109233D01*
Y27933D02*
X109100Y28066D01*
Y28333D01*
X109233Y28466D01*
X109767D01*
X109900Y28333D01*
Y28066D01*
X109767Y27933D01*
X109233D01*
X75025Y43718D02*
Y43051D01*
X75159Y42918D01*
X75425D01*
X75559Y43051D01*
Y43718D01*
X75825Y43584D02*
X75958Y43718D01*
X76225D01*
X76358Y43584D01*
Y43451D01*
X76225Y43318D01*
X76092D01*
X76225D01*
X76358Y43185D01*
Y43051D01*
X76225Y42918D01*
X75958D01*
X75825Y43051D01*
X76625Y43584D02*
X76758Y43718D01*
X77025D01*
X77158Y43584D01*
Y43051D01*
X77025Y42918D01*
X76758D01*
X76625Y43051D01*
Y43584D01*
X77958Y42918D02*
X77425D01*
X77958Y43451D01*
Y43584D01*
X77825Y43718D01*
X77558D01*
X77425Y43584D01*
X75667Y27150D02*
Y26483D01*
X75800Y26350D01*
X76067D01*
X76200Y26483D01*
Y27150D01*
X76467Y27017D02*
X76600Y27150D01*
X76867D01*
X77000Y27017D01*
Y26883D01*
X76867Y26750D01*
X76733D01*
X76867D01*
X77000Y26617D01*
Y26483D01*
X76867Y26350D01*
X76600D01*
X76467Y26483D01*
X77267Y27017D02*
X77400Y27150D01*
X77666D01*
X77800Y27017D01*
Y26483D01*
X77666Y26350D01*
X77400D01*
X77267Y26483D01*
Y27017D01*
X78066Y26350D02*
X78333D01*
X78200D01*
Y27150D01*
X78066Y27017D01*
X73850Y19034D02*
X74517D01*
X74650Y19167D01*
Y19434D01*
X74517Y19567D01*
X73850D01*
X73983Y19834D02*
X73850Y19967D01*
Y20233D01*
X73983Y20367D01*
X74117D01*
X74250Y20233D01*
Y20100D01*
Y20233D01*
X74383Y20367D01*
X74517D01*
X74650Y20233D01*
Y19967D01*
X74517Y19834D01*
X73983Y20633D02*
X73850Y20767D01*
Y21033D01*
X73983Y21166D01*
X74517D01*
X74650Y21033D01*
Y20767D01*
X74517Y20633D01*
X73983D01*
Y21433D02*
X73850Y21566D01*
Y21833D01*
X73983Y21966D01*
X74517D01*
X74650Y21833D01*
Y21566D01*
X74517Y21433D01*
X73983D01*
X19350Y41951D02*
X20017D01*
X20150Y42084D01*
Y42350D01*
X20017Y42484D01*
X19350D01*
X20150Y43283D02*
Y42750D01*
X19617Y43283D01*
X19483D01*
X19350Y43150D01*
Y42884D01*
X19483Y42750D01*
Y43550D02*
X19350Y43683D01*
Y43950D01*
X19483Y44083D01*
X20017D01*
X20150Y43950D01*
Y43683D01*
X20017Y43550D01*
X19483D01*
X20150Y44350D02*
Y44616D01*
Y44483D01*
X19350D01*
X19483Y44350D01*
X20150Y45016D02*
X19617D01*
X19350Y45283D01*
X19617Y45549D01*
X20150D01*
X19750D01*
Y45016D01*
X16134Y38400D02*
Y37733D01*
X16267Y37600D01*
X16534D01*
X16667Y37733D01*
Y38400D01*
X17467Y37600D02*
X16934D01*
X17467Y38133D01*
Y38267D01*
X17334Y38400D01*
X17067D01*
X16934Y38267D01*
X17733D02*
X17867Y38400D01*
X18133D01*
X18267Y38267D01*
Y37733D01*
X18133Y37600D01*
X17867D01*
X17733Y37733D01*
Y38267D01*
X18533D02*
X18666Y38400D01*
X18933D01*
X19066Y38267D01*
Y37733D01*
X18933Y37600D01*
X18666D01*
X18533Y37733D01*
Y38267D01*
X19333Y37600D02*
Y38133D01*
X19599Y38400D01*
X19866Y38133D01*
Y37600D01*
Y38000D01*
X19333D01*
X13701Y23400D02*
Y22733D01*
X13834Y22600D01*
X14100D01*
X14234Y22733D01*
Y23400D01*
X14500Y22600D02*
X14767D01*
X14634D01*
Y23400D01*
X14500Y23267D01*
X15167D02*
X15300Y23400D01*
X15567D01*
X15700Y23267D01*
Y22733D01*
X15567Y22600D01*
X15300D01*
X15167Y22733D01*
Y23267D01*
X15967D02*
X16100Y23400D01*
X16366D01*
X16500Y23267D01*
Y22733D01*
X16366Y22600D01*
X16100D01*
X15967Y22733D01*
Y23267D01*
X16766Y22600D02*
Y23133D01*
X17033Y23400D01*
X17299Y23133D01*
Y22600D01*
Y23000D01*
X16766D01*
X114034Y1600D02*
Y2400D01*
X114434D01*
X114567Y2267D01*
Y2000D01*
X114434Y1867D01*
X114034D01*
X114300D02*
X114567Y1600D01*
X115367Y2400D02*
X114834D01*
Y2000D01*
X115100Y2133D01*
X115233D01*
X115367Y2000D01*
Y1733D01*
X115233Y1600D01*
X114967D01*
X114834Y1733D01*
X115633Y2267D02*
X115767Y2400D01*
X116033D01*
X116166Y2267D01*
Y1733D01*
X116033Y1600D01*
X115767D01*
X115633Y1733D01*
Y2267D01*
X116833Y1600D02*
Y2400D01*
X116433Y2000D01*
X116966D01*
X109784Y8350D02*
Y9150D01*
X110184D01*
X110317Y9017D01*
Y8750D01*
X110184Y8617D01*
X109784D01*
X110050D02*
X110317Y8350D01*
X111117Y9150D02*
X110584D01*
Y8750D01*
X110850Y8883D01*
X110983D01*
X111117Y8750D01*
Y8483D01*
X110983Y8350D01*
X110717D01*
X110584Y8483D01*
X111383Y9017D02*
X111517Y9150D01*
X111783D01*
X111916Y9017D01*
Y8483D01*
X111783Y8350D01*
X111517D01*
X111383Y8483D01*
Y9017D01*
X112183D02*
X112316Y9150D01*
X112583D01*
X112716Y9017D01*
Y8883D01*
X112583Y8750D01*
X112450D01*
X112583D01*
X112716Y8617D01*
Y8483D01*
X112583Y8350D01*
X112316D01*
X112183Y8483D01*
X109784Y6850D02*
Y7650D01*
X110184D01*
X110317Y7517D01*
Y7250D01*
X110184Y7117D01*
X109784D01*
X110050D02*
X110317Y6850D01*
X111117Y7650D02*
X110584D01*
Y7250D01*
X110850Y7383D01*
X110983D01*
X111117Y7250D01*
Y6983D01*
X110983Y6850D01*
X110717D01*
X110584Y6983D01*
X111383Y7517D02*
X111517Y7650D01*
X111783D01*
X111916Y7517D01*
Y6983D01*
X111783Y6850D01*
X111517D01*
X111383Y6983D01*
Y7517D01*
X112716Y6850D02*
X112183D01*
X112716Y7383D01*
Y7517D01*
X112583Y7650D01*
X112316D01*
X112183Y7517D01*
X109917Y5350D02*
Y6150D01*
X110317D01*
X110450Y6017D01*
Y5750D01*
X110317Y5617D01*
X109917D01*
X110184D02*
X110450Y5350D01*
X111250Y6150D02*
X110717D01*
Y5750D01*
X110983Y5883D01*
X111117D01*
X111250Y5750D01*
Y5483D01*
X111117Y5350D01*
X110850D01*
X110717Y5483D01*
X111517Y6017D02*
X111650Y6150D01*
X111916D01*
X112050Y6017D01*
Y5483D01*
X111916Y5350D01*
X111650D01*
X111517Y5483D01*
Y6017D01*
X112316Y5350D02*
X112583D01*
X112450D01*
Y6150D01*
X112316Y6017D01*
X109784Y3850D02*
Y4650D01*
X110184D01*
X110317Y4517D01*
Y4250D01*
X110184Y4117D01*
X109784D01*
X110050D02*
X110317Y3850D01*
X111117Y4650D02*
X110584D01*
Y4250D01*
X110850Y4383D01*
X110983D01*
X111117Y4250D01*
Y3983D01*
X110983Y3850D01*
X110717D01*
X110584Y3983D01*
X111383Y4517D02*
X111517Y4650D01*
X111783D01*
X111916Y4517D01*
Y3983D01*
X111783Y3850D01*
X111517D01*
X111383Y3983D01*
Y4517D01*
X112183D02*
X112316Y4650D01*
X112583D01*
X112716Y4517D01*
Y3983D01*
X112583Y3850D01*
X112316D01*
X112183Y3983D01*
Y4517D01*
X108984Y36850D02*
Y37650D01*
X109384D01*
X109517Y37517D01*
Y37250D01*
X109384Y37117D01*
X108984D01*
X109250D02*
X109517Y36850D01*
X110183D02*
Y37650D01*
X109783Y37250D01*
X110317D01*
X110583Y36850D02*
X110850D01*
X110717D01*
Y37650D01*
X110583Y37517D01*
X111250Y36850D02*
X111516D01*
X111383D01*
Y37650D01*
X111250Y37517D01*
X110600Y39350D02*
Y40150D01*
X111000D01*
X111134Y40017D01*
Y39750D01*
X111000Y39617D01*
X110600D01*
X110867D02*
X111134Y39350D01*
X111800D02*
Y40150D01*
X111400Y39750D01*
X111933D01*
X112200Y39350D02*
X112467D01*
X112333D01*
Y40150D01*
X112200Y40017D01*
X112866D02*
X113000Y40150D01*
X113266D01*
X113400Y40017D01*
Y39483D01*
X113266Y39350D01*
X113000D01*
X112866Y39483D01*
Y40017D01*
X112284Y38100D02*
Y38900D01*
X112684D01*
X112817Y38767D01*
Y38500D01*
X112684Y38367D01*
X112284D01*
X112550D02*
X112817Y38100D01*
X113483D02*
Y38900D01*
X113084Y38500D01*
X113617D01*
X113883Y38767D02*
X114017Y38900D01*
X114283D01*
X114416Y38767D01*
Y38233D01*
X114283Y38100D01*
X114017D01*
X113883Y38233D01*
Y38767D01*
X114683Y38233D02*
X114816Y38100D01*
X115083D01*
X115216Y38233D01*
Y38767D01*
X115083Y38900D01*
X114816D01*
X114683Y38767D01*
Y38633D01*
X114816Y38500D01*
X115216D01*
X107534Y23100D02*
Y23900D01*
X107934D01*
X108067Y23767D01*
Y23500D01*
X107934Y23367D01*
X107534D01*
X107800D02*
X108067Y23100D01*
X108733D02*
Y23900D01*
X108334Y23500D01*
X108867D01*
X109133Y23767D02*
X109267Y23900D01*
X109533D01*
X109666Y23767D01*
Y23233D01*
X109533Y23100D01*
X109267D01*
X109133Y23233D01*
Y23767D01*
X109933D02*
X110066Y23900D01*
X110333D01*
X110466Y23767D01*
Y23633D01*
X110333Y23500D01*
X110466Y23367D01*
Y23233D01*
X110333Y23100D01*
X110066D01*
X109933Y23233D01*
Y23367D01*
X110066Y23500D01*
X109933Y23633D01*
Y23767D01*
X110066Y23500D02*
X110333D01*
X116650Y22284D02*
X115850D01*
Y22684D01*
X115983Y22817D01*
X116250D01*
X116383Y22684D01*
Y22284D01*
Y22550D02*
X116650Y22817D01*
Y23483D02*
X115850D01*
X116250Y23084D01*
Y23617D01*
X115983Y23883D02*
X115850Y24017D01*
Y24283D01*
X115983Y24416D01*
X116517D01*
X116650Y24283D01*
Y24017D01*
X116517Y23883D01*
X115983D01*
X115850Y24683D02*
Y25216D01*
X115983D01*
X116517Y24683D01*
X116650D01*
X126534Y30850D02*
Y31650D01*
X126934D01*
X127067Y31517D01*
Y31250D01*
X126934Y31117D01*
X126534D01*
X126800D02*
X127067Y30850D01*
X127733D02*
Y31650D01*
X127334Y31250D01*
X127867D01*
X128133Y31517D02*
X128267Y31650D01*
X128533D01*
X128666Y31517D01*
Y30983D01*
X128533Y30850D01*
X128267D01*
X128133Y30983D01*
Y31517D01*
X129466Y31650D02*
X129200Y31517D01*
X128933Y31250D01*
Y30983D01*
X129066Y30850D01*
X129333D01*
X129466Y30983D01*
Y31117D01*
X129333Y31250D01*
X128933D01*
X125650Y22284D02*
X124850D01*
Y22684D01*
X124983Y22817D01*
X125250D01*
X125383Y22684D01*
Y22284D01*
Y22550D02*
X125650Y22817D01*
Y23483D02*
X124850D01*
X125250Y23084D01*
Y23617D01*
X124983Y23883D02*
X124850Y24017D01*
Y24283D01*
X124983Y24416D01*
X125517D01*
X125650Y24283D01*
Y24017D01*
X125517Y23883D01*
X124983D01*
X124850Y25216D02*
Y24683D01*
X125250D01*
X125117Y24950D01*
Y25083D01*
X125250Y25216D01*
X125517D01*
X125650Y25083D01*
Y24816D01*
X125517Y24683D01*
X126534Y22100D02*
Y22900D01*
X126934D01*
X127067Y22767D01*
Y22500D01*
X126934Y22367D01*
X126534D01*
X126800D02*
X127067Y22100D01*
X127733D02*
Y22900D01*
X127334Y22500D01*
X127867D01*
X128133Y22767D02*
X128267Y22900D01*
X128533D01*
X128666Y22767D01*
Y22233D01*
X128533Y22100D01*
X128267D01*
X128133Y22233D01*
Y22767D01*
X129333Y22100D02*
Y22900D01*
X128933Y22500D01*
X129466D01*
X115284Y40100D02*
Y40900D01*
X115684D01*
X115817Y40767D01*
Y40500D01*
X115684Y40367D01*
X115284D01*
X115550D02*
X115817Y40100D01*
X116483D02*
Y40900D01*
X116084Y40500D01*
X116617D01*
X116883Y40767D02*
X117017Y40900D01*
X117283D01*
X117416Y40767D01*
Y40233D01*
X117283Y40100D01*
X117017D01*
X116883Y40233D01*
Y40767D01*
X117683D02*
X117816Y40900D01*
X118083D01*
X118216Y40767D01*
Y40633D01*
X118083Y40500D01*
X117950D01*
X118083D01*
X118216Y40367D01*
Y40233D01*
X118083Y40100D01*
X117816D01*
X117683Y40233D01*
X111784Y41350D02*
Y42150D01*
X112184D01*
X112317Y42017D01*
Y41750D01*
X112184Y41617D01*
X111784D01*
X112050D02*
X112317Y41350D01*
X112983D02*
Y42150D01*
X112584Y41750D01*
X113117D01*
X113383Y42017D02*
X113517Y42150D01*
X113783D01*
X113916Y42017D01*
Y41483D01*
X113783Y41350D01*
X113517D01*
X113383Y41483D01*
Y42017D01*
X114716Y41350D02*
X114183D01*
X114716Y41883D01*
Y42017D01*
X114583Y42150D01*
X114316D01*
X114183Y42017D01*
X111917Y43850D02*
Y44650D01*
X112317D01*
X112450Y44517D01*
Y44250D01*
X112317Y44117D01*
X111917D01*
X112184D02*
X112450Y43850D01*
X113117D02*
Y44650D01*
X112717Y44250D01*
X113250D01*
X113517Y44517D02*
X113650Y44650D01*
X113916D01*
X114050Y44517D01*
Y43983D01*
X113916Y43850D01*
X113650D01*
X113517Y43983D01*
Y44517D01*
X114316Y43850D02*
X114583D01*
X114450D01*
Y44650D01*
X114316Y44517D01*
X115284Y43850D02*
Y44650D01*
X115684D01*
X115817Y44517D01*
Y44250D01*
X115684Y44117D01*
X115284D01*
X115550D02*
X115817Y43850D01*
X116483D02*
Y44650D01*
X116084Y44250D01*
X116617D01*
X116883Y44517D02*
X117017Y44650D01*
X117283D01*
X117416Y44517D01*
Y43983D01*
X117283Y43850D01*
X117017D01*
X116883Y43983D01*
Y44517D01*
X117683D02*
X117816Y44650D01*
X118083D01*
X118216Y44517D01*
Y43983D01*
X118083Y43850D01*
X117816D01*
X117683Y43983D01*
Y44517D01*
X71284Y39350D02*
Y40150D01*
X71684D01*
X71817Y40017D01*
Y39750D01*
X71684Y39617D01*
X71284D01*
X71550D02*
X71817Y39350D01*
X72084Y40017D02*
X72217Y40150D01*
X72483D01*
X72617Y40017D01*
Y39883D01*
X72483Y39750D01*
X72350D01*
X72483D01*
X72617Y39617D01*
Y39483D01*
X72483Y39350D01*
X72217D01*
X72084Y39483D01*
X72883Y40017D02*
X73017Y40150D01*
X73283D01*
X73416Y40017D01*
Y39483D01*
X73283Y39350D01*
X73017D01*
X72883Y39483D01*
Y40017D01*
X73683Y39483D02*
X73816Y39350D01*
X74083D01*
X74216Y39483D01*
Y40017D01*
X74083Y40150D01*
X73816D01*
X73683Y40017D01*
Y39883D01*
X73816Y39750D01*
X74216D01*
X71400Y31034D02*
X70600D01*
Y31434D01*
X70733Y31567D01*
X71000D01*
X71133Y31434D01*
Y31034D01*
Y31300D02*
X71400Y31567D01*
X70733Y31834D02*
X70600Y31967D01*
Y32233D01*
X70733Y32367D01*
X70867D01*
X71000Y32233D01*
Y32100D01*
Y32233D01*
X71133Y32367D01*
X71267D01*
X71400Y32233D01*
Y31967D01*
X71267Y31834D01*
X70733Y32633D02*
X70600Y32767D01*
Y33033D01*
X70733Y33166D01*
X71267D01*
X71400Y33033D01*
Y32767D01*
X71267Y32633D01*
X70733D01*
X70600Y33433D02*
Y33966D01*
X70733D01*
X71267Y33433D01*
X71400D01*
X69900Y31034D02*
X69100D01*
Y31434D01*
X69233Y31567D01*
X69500D01*
X69633Y31434D01*
Y31034D01*
Y31300D02*
X69900Y31567D01*
X69233Y31834D02*
X69100Y31967D01*
Y32233D01*
X69233Y32367D01*
X69367D01*
X69500Y32233D01*
Y32100D01*
Y32233D01*
X69633Y32367D01*
X69767D01*
X69900Y32233D01*
Y31967D01*
X69767Y31834D01*
X69233Y32633D02*
X69100Y32767D01*
Y33033D01*
X69233Y33166D01*
X69767D01*
X69900Y33033D01*
Y32767D01*
X69767Y32633D01*
X69233D01*
X69100Y33966D02*
X69233Y33700D01*
X69500Y33433D01*
X69767D01*
X69900Y33566D01*
Y33833D01*
X69767Y33966D01*
X69633D01*
X69500Y33833D01*
Y33433D01*
X71784Y15850D02*
Y16650D01*
X72184D01*
X72317Y16517D01*
Y16250D01*
X72184Y16117D01*
X71784D01*
X72050D02*
X72317Y15850D01*
X72584Y16517D02*
X72717Y16650D01*
X72983D01*
X73117Y16517D01*
Y16383D01*
X72983Y16250D01*
X72850D01*
X72983D01*
X73117Y16117D01*
Y15983D01*
X72983Y15850D01*
X72717D01*
X72584Y15983D01*
X73383Y16517D02*
X73517Y16650D01*
X73783D01*
X73916Y16517D01*
Y15983D01*
X73783Y15850D01*
X73517D01*
X73383Y15983D01*
Y16517D01*
X74716Y16650D02*
X74183D01*
Y16250D01*
X74450Y16383D01*
X74583D01*
X74716Y16250D01*
Y15983D01*
X74583Y15850D01*
X74316D01*
X74183Y15983D01*
X71784Y17100D02*
Y17900D01*
X72184D01*
X72317Y17767D01*
Y17500D01*
X72184Y17367D01*
X71784D01*
X72050D02*
X72317Y17100D01*
X72584Y17767D02*
X72717Y17900D01*
X72983D01*
X73117Y17767D01*
Y17633D01*
X72983Y17500D01*
X72850D01*
X72983D01*
X73117Y17367D01*
Y17233D01*
X72983Y17100D01*
X72717D01*
X72584Y17233D01*
X73383Y17767D02*
X73517Y17900D01*
X73783D01*
X73916Y17767D01*
Y17233D01*
X73783Y17100D01*
X73517D01*
X73383Y17233D01*
Y17767D01*
X74583Y17100D02*
Y17900D01*
X74183Y17500D01*
X74716D01*
X83900Y11284D02*
X83100D01*
Y11684D01*
X83233Y11817D01*
X83500D01*
X83633Y11684D01*
Y11284D01*
Y11550D02*
X83900Y11817D01*
X83233Y12084D02*
X83100Y12217D01*
Y12483D01*
X83233Y12617D01*
X83367D01*
X83500Y12483D01*
Y12350D01*
Y12483D01*
X83633Y12617D01*
X83767D01*
X83900Y12483D01*
Y12217D01*
X83767Y12084D01*
X83233Y12883D02*
X83100Y13017D01*
Y13283D01*
X83233Y13416D01*
X83767D01*
X83900Y13283D01*
Y13017D01*
X83767Y12883D01*
X83233D01*
Y13683D02*
X83100Y13816D01*
Y14083D01*
X83233Y14216D01*
X83367D01*
X83500Y14083D01*
Y13950D01*
Y14083D01*
X83633Y14216D01*
X83767D01*
X83900Y14083D01*
Y13816D01*
X83767Y13683D01*
X88400Y11284D02*
X87600D01*
Y11684D01*
X87733Y11817D01*
X88000D01*
X88133Y11684D01*
Y11284D01*
Y11550D02*
X88400Y11817D01*
X87733Y12084D02*
X87600Y12217D01*
Y12483D01*
X87733Y12617D01*
X87867D01*
X88000Y12483D01*
Y12350D01*
Y12483D01*
X88133Y12617D01*
X88267D01*
X88400Y12483D01*
Y12217D01*
X88267Y12084D01*
X87733Y12883D02*
X87600Y13017D01*
Y13283D01*
X87733Y13416D01*
X88267D01*
X88400Y13283D01*
Y13017D01*
X88267Y12883D01*
X87733D01*
X88400Y14216D02*
Y13683D01*
X87867Y14216D01*
X87733D01*
X87600Y14083D01*
Y13816D01*
X87733Y13683D01*
X86900Y11417D02*
X86100D01*
Y11817D01*
X86233Y11950D01*
X86500D01*
X86633Y11817D01*
Y11417D01*
Y11684D02*
X86900Y11950D01*
X86233Y12217D02*
X86100Y12350D01*
Y12617D01*
X86233Y12750D01*
X86367D01*
X86500Y12617D01*
Y12483D01*
Y12617D01*
X86633Y12750D01*
X86767D01*
X86900Y12617D01*
Y12350D01*
X86767Y12217D01*
X86233Y13017D02*
X86100Y13150D01*
Y13416D01*
X86233Y13550D01*
X86767D01*
X86900Y13416D01*
Y13150D01*
X86767Y13017D01*
X86233D01*
X86900Y13816D02*
Y14083D01*
Y13950D01*
X86100D01*
X86233Y13816D01*
X85400Y11284D02*
X84600D01*
Y11684D01*
X84733Y11817D01*
X85000D01*
X85133Y11684D01*
Y11284D01*
Y11550D02*
X85400Y11817D01*
X84733Y12084D02*
X84600Y12217D01*
Y12483D01*
X84733Y12617D01*
X84867D01*
X85000Y12483D01*
Y12350D01*
Y12483D01*
X85133Y12617D01*
X85267D01*
X85400Y12483D01*
Y12217D01*
X85267Y12084D01*
X84733Y12883D02*
X84600Y13017D01*
Y13283D01*
X84733Y13416D01*
X85267D01*
X85400Y13283D01*
Y13017D01*
X85267Y12883D01*
X84733D01*
Y13683D02*
X84600Y13816D01*
Y14083D01*
X84733Y14216D01*
X85267D01*
X85400Y14083D01*
Y13816D01*
X85267Y13683D01*
X84733D01*
X16134Y40600D02*
Y41400D01*
X16534D01*
X16667Y41267D01*
Y41000D01*
X16534Y40867D01*
X16134D01*
X16401D02*
X16667Y40600D01*
X17467D02*
X16934D01*
X17467Y41133D01*
Y41267D01*
X17334Y41400D01*
X17067D01*
X16934Y41267D01*
X17733D02*
X17867Y41400D01*
X18133D01*
X18267Y41267D01*
Y40733D01*
X18133Y40600D01*
X17867D01*
X17733Y40733D01*
Y41267D01*
X18533D02*
X18666Y41400D01*
X18933D01*
X19066Y41267D01*
Y41133D01*
X18933Y41000D01*
X18800D01*
X18933D01*
X19066Y40867D01*
Y40733D01*
X18933Y40600D01*
X18666D01*
X18533Y40733D01*
X19333Y40600D02*
Y41133D01*
X19599Y41400D01*
X19866Y41133D01*
Y40600D01*
Y41000D01*
X19333D01*
X16900Y33451D02*
X16100D01*
Y33850D01*
X16233Y33984D01*
X16500D01*
X16633Y33850D01*
Y33451D01*
Y33717D02*
X16900Y33984D01*
Y34783D02*
Y34250D01*
X16367Y34783D01*
X16233D01*
X16100Y34650D01*
Y34384D01*
X16233Y34250D01*
Y35050D02*
X16100Y35183D01*
Y35450D01*
X16233Y35583D01*
X16767D01*
X16900Y35450D01*
Y35183D01*
X16767Y35050D01*
X16233D01*
X16900Y35850D02*
Y36116D01*
Y35983D01*
X16100D01*
X16233Y35850D01*
X16900Y36516D02*
X16367D01*
X16100Y36783D01*
X16367Y37049D01*
X16900D01*
X16500D01*
Y36516D01*
X15650Y33384D02*
X14850D01*
Y33784D01*
X14983Y33917D01*
X15250D01*
X15383Y33784D01*
Y33384D01*
Y33651D02*
X15650Y33917D01*
Y34717D02*
Y34184D01*
X15117Y34717D01*
X14983D01*
X14850Y34584D01*
Y34317D01*
X14983Y34184D01*
Y34983D02*
X14850Y35117D01*
Y35383D01*
X14983Y35517D01*
X15517D01*
X15650Y35383D01*
Y35117D01*
X15517Y34983D01*
X14983D01*
Y35783D02*
X14850Y35916D01*
Y36183D01*
X14983Y36316D01*
X15517D01*
X15650Y36183D01*
Y35916D01*
X15517Y35783D01*
X14983D01*
X15650Y36583D02*
X15117D01*
X14850Y36849D01*
X15117Y37116D01*
X15650D01*
X15250D01*
Y36583D01*
X15510Y25195D02*
X14945Y25760D01*
X15228Y26043D01*
X15416D01*
X15605Y25855D01*
X15605Y25666D01*
X15322Y25383D01*
X15510Y25572D02*
X15887D01*
X16076Y25760D02*
X16264Y25949D01*
X16170Y25855D01*
X15605Y26420D01*
X15605Y26232D01*
X16076Y26703D02*
X16076Y26891D01*
X16264Y27080D01*
X16453D01*
X16830Y26703D01*
X16830Y26514D01*
X16641Y26326D01*
X16453D01*
X16076Y26703D01*
X17018Y26891D02*
X17207D01*
X17395Y27080D01*
Y27268D01*
X17018Y27645D01*
X16830D01*
X16641Y27457D01*
X16641Y27268D01*
X16736Y27174D01*
X16924D01*
X17207Y27457D01*
X17678Y27363D02*
X17301Y27740D01*
Y28117D01*
X17678D01*
X18055Y27740D01*
X17772Y28022D01*
X17395Y27645D01*
X16510Y24445D02*
X15945Y25010D01*
X16228Y25293D01*
X16416D01*
X16605Y25105D01*
X16605Y24916D01*
X16322Y24633D01*
X16510Y24822D02*
X16887D01*
X17076Y25010D02*
X17264Y25199D01*
X17170Y25105D01*
X16605Y25670D01*
X16605Y25482D01*
X17076Y25953D02*
X17076Y26141D01*
X17264Y26330D01*
X17453D01*
X17830Y25953D01*
X17830Y25764D01*
X17641Y25576D01*
X17453D01*
X17076Y25953D01*
X17641Y26518D02*
X17641Y26707D01*
X17830Y26895D01*
X18018D01*
X18113Y26801D01*
Y26613D01*
X18301D01*
X18395Y26518D01*
Y26330D01*
X18207Y26141D01*
X18018D01*
X17924Y26236D01*
Y26424D01*
X17736D01*
X17641Y26518D01*
X17924Y26424D02*
X18113Y26613D01*
X18678D02*
X18301Y26990D01*
Y27367D01*
X18678D01*
X19055Y26990D01*
X18772Y27272D01*
X18395Y26895D01*
X12951Y21100D02*
Y21900D01*
X13350D01*
X13484Y21767D01*
Y21500D01*
X13350Y21367D01*
X12951D01*
X13217D02*
X13484Y21100D01*
X13750D02*
X14017D01*
X13884D01*
Y21900D01*
X13750Y21767D01*
X14417D02*
X14550Y21900D01*
X14817D01*
X14950Y21767D01*
Y21233D01*
X14817Y21100D01*
X14550D01*
X14417Y21233D01*
Y21767D01*
X15750Y21900D02*
X15483Y21767D01*
X15217Y21500D01*
Y21233D01*
X15350Y21100D01*
X15616D01*
X15750Y21233D01*
Y21367D01*
X15616Y21500D01*
X15217D01*
X16016Y21100D02*
Y21633D01*
X16283Y21900D01*
X16549Y21633D01*
Y21100D01*
Y21500D01*
X16016D01*
X14201Y15100D02*
Y15900D01*
X14600D01*
X14734Y15767D01*
Y15500D01*
X14600Y15367D01*
X14201D01*
X14467D02*
X14734Y15100D01*
X15000D02*
X15267D01*
X15134D01*
Y15900D01*
X15000Y15767D01*
X15667D02*
X15800Y15900D01*
X16067D01*
X16200Y15767D01*
Y15233D01*
X16067Y15100D01*
X15800D01*
X15667Y15233D01*
Y15767D01*
X17000Y15900D02*
X16467D01*
Y15500D01*
X16733Y15633D01*
X16866D01*
X17000Y15500D01*
Y15233D01*
X16866Y15100D01*
X16600D01*
X16467Y15233D01*
X17266Y15100D02*
Y15633D01*
X17533Y15900D01*
X17799Y15633D01*
Y15100D01*
Y15500D01*
X17266D01*
X27010Y13945D02*
X26445Y14510D01*
X26728Y14793D01*
X26916D01*
X27105Y14605D01*
X27105Y14416D01*
X26822Y14133D01*
X27010Y14322D02*
X27387D01*
X27576Y14510D02*
X27764Y14699D01*
X27670Y14605D01*
X27105Y15170D01*
X27105Y14982D01*
X27576Y15453D02*
X27576Y15641D01*
X27764Y15830D01*
X27953D01*
X28330Y15453D01*
X28330Y15264D01*
X28141Y15076D01*
X27953D01*
X27576Y15453D01*
X28990Y15924D02*
X28613Y15547D01*
Y16301D01*
X28518Y16395D01*
X28330D01*
X28141Y16207D01*
X28141Y16018D01*
X29178Y16113D02*
X28801Y16490D01*
Y16867D01*
X29178D01*
X29555Y16490D01*
X29272Y16772D01*
X28895Y16395D01*
X26017Y24100D02*
Y24900D01*
X26417D01*
X26550Y24767D01*
Y24500D01*
X26417Y24367D01*
X26017D01*
X26284D02*
X26550Y24100D01*
X26817D02*
X27084D01*
X26950D01*
Y24900D01*
X26817Y24767D01*
X27483D02*
X27617Y24900D01*
X27883D01*
X28017Y24767D01*
Y24233D01*
X27883Y24100D01*
X27617D01*
X27483Y24233D01*
Y24767D01*
X28283Y24100D02*
X28550D01*
X28416D01*
Y24900D01*
X28283Y24767D01*
X28950Y24100D02*
Y24633D01*
X29216Y24900D01*
X29483Y24633D01*
Y24100D01*
Y24500D01*
X28950D01*
X28010Y12945D02*
X27445Y13510D01*
X27728Y13793D01*
X27916D01*
X28105Y13605D01*
X28105Y13416D01*
X27822Y13133D01*
X28010Y13322D02*
X28387D01*
X28576Y13510D02*
X28764Y13699D01*
X28670Y13605D01*
X28105Y14170D01*
X28105Y13982D01*
X28576Y14453D02*
X28576Y14641D01*
X28764Y14830D01*
X28953D01*
X29330Y14453D01*
X29330Y14264D01*
X29141Y14076D01*
X28953D01*
X28576Y14453D01*
X29141Y15018D02*
X29141Y15207D01*
X29330Y15395D01*
X29518D01*
X29895Y15018D01*
Y14830D01*
X29707Y14641D01*
X29518D01*
X29141Y15018D01*
X30178Y15113D02*
X29801Y15490D01*
Y15867D01*
X30178D01*
X30555Y15490D01*
X30272Y15772D01*
X29895Y15395D01*
X68900Y48000D02*
X68100D01*
Y48400D01*
X68233Y48533D01*
X68500D01*
X68633Y48400D01*
Y48000D01*
Y48267D02*
X68900Y48533D01*
Y48800D02*
Y49067D01*
Y48933D01*
X68100D01*
X68233Y48800D01*
Y49467D02*
X68100Y49600D01*
Y49866D01*
X68233Y50000D01*
X68367D01*
X68500Y49866D01*
Y49733D01*
Y49866D01*
X68633Y50000D01*
X68767D01*
X68900Y49866D01*
Y49600D01*
X68767Y49467D01*
X53900Y48000D02*
X53100D01*
Y48400D01*
X53233Y48533D01*
X53500D01*
X53633Y48400D01*
Y48000D01*
Y48267D02*
X53900Y48533D01*
Y48800D02*
Y49067D01*
Y48933D01*
X53100D01*
X53233Y48800D01*
X53900Y50000D02*
Y49467D01*
X53367Y50000D01*
X53233D01*
X53100Y49866D01*
Y49600D01*
X53233Y49467D01*
X43900Y48134D02*
X43100D01*
Y48533D01*
X43233Y48667D01*
X43500D01*
X43633Y48533D01*
Y48134D01*
Y48400D02*
X43900Y48667D01*
Y48933D02*
Y49200D01*
Y49067D01*
X43100D01*
X43233Y48933D01*
X43900Y49600D02*
Y49866D01*
Y49733D01*
X43100D01*
X43233Y49600D01*
X33900Y48000D02*
X33100D01*
Y48400D01*
X33233Y48533D01*
X33500D01*
X33633Y48400D01*
Y48000D01*
Y48267D02*
X33900Y48533D01*
Y48800D02*
Y49067D01*
Y48933D01*
X33100D01*
X33233Y48800D01*
Y49467D02*
X33100Y49600D01*
Y49866D01*
X33233Y50000D01*
X33767D01*
X33900Y49866D01*
Y49600D01*
X33767Y49467D01*
X33233D01*
X23900Y48334D02*
X23100D01*
Y48733D01*
X23233Y48867D01*
X23500D01*
X23633Y48733D01*
Y48334D01*
Y48600D02*
X23900Y48867D01*
X23767Y49133D02*
X23900Y49267D01*
Y49533D01*
X23767Y49666D01*
X23233D01*
X23100Y49533D01*
Y49267D01*
X23233Y49133D01*
X23367D01*
X23500Y49267D01*
Y49666D01*
X10334Y43100D02*
Y43900D01*
X10733D01*
X10867Y43767D01*
Y43500D01*
X10733Y43367D01*
X10334D01*
X10600D02*
X10867Y43100D01*
X11133Y43767D02*
X11267Y43900D01*
X11533D01*
X11666Y43767D01*
Y43633D01*
X11533Y43500D01*
X11666Y43367D01*
Y43233D01*
X11533Y43100D01*
X11267D01*
X11133Y43233D01*
Y43367D01*
X11267Y43500D01*
X11133Y43633D01*
Y43767D01*
X11267Y43500D02*
X11533D01*
X10334Y33100D02*
Y33900D01*
X10733D01*
X10867Y33767D01*
Y33500D01*
X10733Y33367D01*
X10334D01*
X10600D02*
X10867Y33100D01*
X11133Y33900D02*
X11666D01*
Y33767D01*
X11133Y33233D01*
Y33100D01*
X10334Y23100D02*
Y23900D01*
X10733D01*
X10867Y23767D01*
Y23500D01*
X10733Y23367D01*
X10334D01*
X10600D02*
X10867Y23100D01*
X11666Y23900D02*
X11400Y23767D01*
X11133Y23500D01*
Y23233D01*
X11267Y23100D01*
X11533D01*
X11666Y23233D01*
Y23367D01*
X11533Y23500D01*
X11133D01*
X10334Y13100D02*
Y13900D01*
X10733D01*
X10867Y13767D01*
Y13500D01*
X10733Y13367D01*
X10334D01*
X10600D02*
X10867Y13100D01*
X11666Y13900D02*
X11133D01*
Y13500D01*
X11400Y13633D01*
X11533D01*
X11666Y13500D01*
Y13233D01*
X11533Y13100D01*
X11267D01*
X11133Y13233D01*
X53588Y12387D02*
Y13187D01*
X53988D01*
X54121Y13054D01*
Y12787D01*
X53988Y12654D01*
X53588D01*
X53854D02*
X54121Y12387D01*
X54787D02*
Y13187D01*
X54388Y12787D01*
X54921D01*
X43580Y12387D02*
Y13187D01*
X43980D01*
X44113Y13054D01*
Y12787D01*
X43980Y12654D01*
X43580D01*
X43847D02*
X44113Y12387D01*
X44380Y13054D02*
X44513Y13187D01*
X44780D01*
X44913Y13054D01*
Y12920D01*
X44780Y12787D01*
X44647D01*
X44780D01*
X44913Y12654D01*
Y12520D01*
X44780Y12387D01*
X44513D01*
X44380Y12520D01*
X33573Y12387D02*
Y13187D01*
X33972D01*
X34106Y13054D01*
Y12787D01*
X33972Y12654D01*
X33573D01*
X33839D02*
X34106Y12387D01*
X34905D02*
X34372D01*
X34905Y12920D01*
Y13054D01*
X34772Y13187D01*
X34506D01*
X34372Y13054D01*
X23717Y12387D02*
Y13187D01*
X24117D01*
X24251Y13054D01*
Y12787D01*
X24117Y12654D01*
X23717D01*
X23984D02*
X24251Y12387D01*
X24517D02*
X24784D01*
X24650D01*
Y13187D01*
X24517Y13054D01*
X130233Y27933D02*
X130767D01*
X130900Y28066D01*
Y28333D01*
X130767Y28466D01*
X130233D01*
X130100Y28333D01*
Y28066D01*
X130367Y28200D02*
X130100Y27933D01*
Y28066D02*
X130233Y27933D01*
X130100Y27267D02*
X130900D01*
X130500Y27666D01*
Y27133D01*
X130767Y26867D02*
X130900Y26733D01*
Y26467D01*
X130767Y26334D01*
X130233D01*
X130100Y26467D01*
Y26733D01*
X130233Y26867D01*
X130767D01*
X130100Y25534D02*
Y26067D01*
X130633Y25534D01*
X130767D01*
X130900Y25667D01*
Y25934D01*
X130767Y26067D01*
X121700Y23733D02*
Y24267D01*
X121567Y24400D01*
X121300D01*
X121167Y24267D01*
Y23733D01*
X121300Y23600D01*
X121567D01*
X121434Y23867D02*
X121700Y23600D01*
X121567D02*
X121700Y23733D01*
X122367Y23600D02*
Y24400D01*
X121967Y24000D01*
X122500D01*
X122767Y24267D02*
X122900Y24400D01*
X123166D01*
X123300Y24267D01*
Y23733D01*
X123166Y23600D01*
X122900D01*
X122767Y23733D01*
Y24267D01*
X123566Y23600D02*
X123833D01*
X123700D01*
Y24400D01*
X123566Y24267D01*
X126017Y34067D02*
X125483D01*
X125350Y33934D01*
Y33667D01*
X125483Y33534D01*
X126017D01*
X126150Y33667D01*
Y33934D01*
X125883Y33800D02*
X126150Y34067D01*
Y33934D02*
X126017Y34067D01*
X126150Y34733D02*
X125350D01*
X125750Y34334D01*
Y34867D01*
X125483Y35133D02*
X125350Y35267D01*
Y35533D01*
X125483Y35666D01*
X126017D01*
X126150Y35533D01*
Y35267D01*
X126017Y35133D01*
X125483D01*
Y35933D02*
X125350Y36066D01*
Y36333D01*
X125483Y36466D01*
X126017D01*
X126150Y36333D01*
Y36066D01*
X126017Y35933D01*
X125483D01*
X113024Y58882D02*
Y58082D01*
X113557D01*
X114357Y58882D02*
X113824D01*
Y58482D01*
X114090Y58615D01*
X114223D01*
X114357Y58482D01*
Y58215D01*
X114223Y58082D01*
X113957D01*
X113824Y58215D01*
X114623Y58748D02*
X114757Y58882D01*
X115023D01*
X115156Y58748D01*
Y58215D01*
X115023Y58082D01*
X114757D01*
X114623Y58215D01*
Y58748D01*
X115423D02*
X115556Y58882D01*
X115823D01*
X115956Y58748D01*
Y58215D01*
X115823Y58082D01*
X115556D01*
X115423Y58215D01*
Y58748D01*
X127034Y44400D02*
Y43600D01*
X127567D01*
X128233D02*
Y44400D01*
X127834Y44000D01*
X128367D01*
X128633Y44267D02*
X128767Y44400D01*
X129033D01*
X129166Y44267D01*
Y43733D01*
X129033Y43600D01*
X128767D01*
X128633Y43733D01*
Y44267D01*
X129433D02*
X129566Y44400D01*
X129833D01*
X129966Y44267D01*
Y43733D01*
X129833Y43600D01*
X129566D01*
X129433Y43733D01*
Y44267D01*
X97744Y47896D02*
X97478D01*
X97611D01*
Y47229D01*
X97478Y47096D01*
X97344D01*
X97211Y47229D01*
X98011Y47096D02*
X98277D01*
X98144D01*
Y47896D01*
X98011Y47762D01*
X98677Y47896D02*
X99211D01*
Y47762D01*
X98677Y47229D01*
Y47096D01*
X97744Y35907D02*
X97478D01*
X97611D01*
Y35240D01*
X97478Y35107D01*
X97344D01*
X97211Y35240D01*
X98011Y35107D02*
X98277D01*
X98144D01*
Y35907D01*
X98011Y35773D01*
X99211Y35907D02*
X98944Y35773D01*
X98677Y35507D01*
Y35240D01*
X98811Y35107D01*
X99077D01*
X99211Y35240D01*
Y35374D01*
X99077Y35507D01*
X98677D01*
X97744Y23893D02*
X97478D01*
X97611D01*
Y23226D01*
X97478Y23093D01*
X97344D01*
X97211Y23226D01*
X98011Y23093D02*
X98277D01*
X98144D01*
Y23893D01*
X98011Y23759D01*
X99211Y23893D02*
X98677D01*
Y23493D01*
X98944Y23626D01*
X99077D01*
X99211Y23493D01*
Y23226D01*
X99077Y23093D01*
X98811D01*
X98677Y23226D01*
X120534Y41900D02*
Y41100D01*
X120934D01*
X121067Y41233D01*
Y41767D01*
X120934Y41900D01*
X120534D01*
X121733Y41100D02*
Y41900D01*
X121334Y41500D01*
X121867D01*
X122133Y41767D02*
X122267Y41900D01*
X122533D01*
X122666Y41767D01*
Y41233D01*
X122533Y41100D01*
X122267D01*
X122133Y41233D01*
Y41767D01*
X122933D02*
X123066Y41900D01*
X123333D01*
X123466Y41767D01*
Y41233D01*
X123333Y41100D01*
X123066D01*
X122933Y41233D01*
Y41767D01*
X82900Y31966D02*
X82100D01*
Y31566D01*
X82233Y31433D01*
X82767D01*
X82900Y31566D01*
Y31966D01*
X82767Y31166D02*
X82900Y31033D01*
Y30767D01*
X82767Y30633D01*
X82633D01*
X82500Y30767D01*
Y30900D01*
Y30767D01*
X82367Y30633D01*
X82233D01*
X82100Y30767D01*
Y31033D01*
X82233Y31166D01*
X82767Y30367D02*
X82900Y30233D01*
Y29967D01*
X82767Y29834D01*
X82233D01*
X82100Y29967D01*
Y30233D01*
X82233Y30367D01*
X82767D01*
Y29567D02*
X82900Y29434D01*
Y29167D01*
X82767Y29034D01*
X82233D01*
X82100Y29167D01*
Y29434D01*
X82233Y29567D01*
X82767D01*
X27600Y31134D02*
X28400D01*
Y31534D01*
X28267Y31667D01*
X27733D01*
X27600Y31534D01*
Y31134D01*
X28400Y32467D02*
Y31934D01*
X27867Y32467D01*
X27733D01*
X27600Y32334D01*
Y32067D01*
X27733Y31934D01*
Y32733D02*
X27600Y32867D01*
Y33133D01*
X27733Y33267D01*
X28267D01*
X28400Y33133D01*
Y32867D01*
X28267Y32733D01*
X27733D01*
Y33533D02*
X27600Y33666D01*
Y33933D01*
X27733Y34066D01*
X28267D01*
X28400Y33933D01*
Y33666D01*
X28267Y33533D01*
X27733D01*
X28400Y34333D02*
X27867D01*
X27600Y34599D01*
X27867Y34866D01*
X28400D01*
X28000D01*
Y34333D01*
X71235Y2456D02*
X71101Y2322D01*
Y2056D01*
X71235Y1922D01*
X71768D01*
X71901Y2056D01*
Y2322D01*
X71768Y2456D01*
X71101Y3255D02*
Y2722D01*
X71501D01*
X71368Y2989D01*
Y3122D01*
X71501Y3255D01*
X71768D01*
X71901Y3122D01*
Y2855D01*
X71768Y2722D01*
X71901Y3522D02*
Y3788D01*
Y3655D01*
X71101D01*
X71235Y3522D01*
X71101Y4188D02*
Y4721D01*
X71235D01*
X71768Y4188D01*
X71901D01*
X72733Y2456D02*
X72600Y2322D01*
Y2056D01*
X72733Y1922D01*
X73267D01*
X73400Y2056D01*
Y2322D01*
X73267Y2456D01*
X72600Y3255D02*
Y2722D01*
X73000D01*
X72867Y2989D01*
Y3122D01*
X73000Y3255D01*
X73267D01*
X73400Y3122D01*
Y2855D01*
X73267Y2722D01*
X73400Y3522D02*
Y3788D01*
Y3655D01*
X72600D01*
X72733Y3522D01*
X72600Y4721D02*
X72733Y4455D01*
X73000Y4188D01*
X73267D01*
X73400Y4322D01*
Y4588D01*
X73267Y4721D01*
X73133D01*
X73000Y4588D01*
Y4188D01*
X79134Y13017D02*
X79000Y13150D01*
X78734D01*
X78600Y13017D01*
Y12483D01*
X78734Y12350D01*
X79000D01*
X79134Y12483D01*
X79933Y13150D02*
X79400D01*
Y12750D01*
X79667Y12883D01*
X79800D01*
X79933Y12750D01*
Y12483D01*
X79800Y12350D01*
X79533D01*
X79400Y12483D01*
X80200Y12350D02*
X80467D01*
X80333D01*
Y13150D01*
X80200Y13017D01*
X81266Y12350D02*
Y13150D01*
X80866Y12750D01*
X81400D01*
X71235Y12819D02*
X71101Y12685D01*
Y12419D01*
X71235Y12286D01*
X71768D01*
X71901Y12419D01*
Y12685D01*
X71768Y12819D01*
X71101Y13618D02*
Y13085D01*
X71501D01*
X71368Y13352D01*
Y13485D01*
X71501Y13618D01*
X71768D01*
X71901Y13485D01*
Y13219D01*
X71768Y13085D01*
X71901Y13885D02*
Y14152D01*
Y14018D01*
X71101D01*
X71235Y13885D01*
Y14552D02*
X71101Y14685D01*
Y14951D01*
X71235Y15085D01*
X71368D01*
X71501Y14951D01*
Y14818D01*
Y14951D01*
X71635Y15085D01*
X71768D01*
X71901Y14951D01*
Y14685D01*
X71768Y14552D01*
X110884Y2267D02*
X110750Y2400D01*
X110484D01*
X110350Y2267D01*
Y1733D01*
X110484Y1600D01*
X110750D01*
X110884Y1733D01*
X111683Y2400D02*
X111150D01*
Y2000D01*
X111417Y2133D01*
X111550D01*
X111683Y2000D01*
Y1733D01*
X111550Y1600D01*
X111283D01*
X111150Y1733D01*
X111950Y1600D02*
X112217D01*
X112083D01*
Y2400D01*
X111950Y2267D01*
X113150Y1600D02*
X112616D01*
X113150Y2133D01*
Y2267D01*
X113016Y2400D01*
X112750D01*
X112616Y2267D01*
X120517Y5267D02*
X120384Y5400D01*
X120117D01*
X119984Y5267D01*
Y4733D01*
X120117Y4600D01*
X120384D01*
X120517Y4733D01*
X121317Y5400D02*
X120783D01*
Y5000D01*
X121050Y5133D01*
X121183D01*
X121317Y5000D01*
Y4733D01*
X121183Y4600D01*
X120917D01*
X120783Y4733D01*
X121583Y4600D02*
X121850D01*
X121717D01*
Y5400D01*
X121583Y5267D01*
X122250Y4600D02*
X122516D01*
X122383D01*
Y5400D01*
X122250Y5267D01*
X72733Y12819D02*
X72600Y12685D01*
Y12419D01*
X72733Y12286D01*
X73267D01*
X73400Y12419D01*
Y12685D01*
X73267Y12819D01*
X72600Y13618D02*
Y13085D01*
X73000D01*
X72867Y13352D01*
Y13485D01*
X73000Y13618D01*
X73267D01*
X73400Y13485D01*
Y13219D01*
X73267Y13085D01*
X73400Y13885D02*
Y14152D01*
Y14018D01*
X72600D01*
X72733Y13885D01*
Y14552D02*
X72600Y14685D01*
Y14951D01*
X72733Y15085D01*
X73267D01*
X73400Y14951D01*
Y14685D01*
X73267Y14552D01*
X72733D01*
X120317Y3767D02*
X120184Y3900D01*
X119917D01*
X119784Y3767D01*
Y3233D01*
X119917Y3100D01*
X120184D01*
X120317Y3233D01*
X121117Y3900D02*
X120584D01*
Y3500D01*
X120850Y3633D01*
X120983D01*
X121117Y3500D01*
Y3233D01*
X120983Y3100D01*
X120717D01*
X120584Y3233D01*
X121383Y3767D02*
X121517Y3900D01*
X121783D01*
X121916Y3767D01*
Y3233D01*
X121783Y3100D01*
X121517D01*
X121383Y3233D01*
Y3767D01*
X122183Y3233D02*
X122316Y3100D01*
X122583D01*
X122716Y3233D01*
Y3767D01*
X122583Y3900D01*
X122316D01*
X122183Y3767D01*
Y3633D01*
X122316Y3500D01*
X122716D01*
X105483Y15817D02*
X105350Y15684D01*
Y15417D01*
X105483Y15284D01*
X106017D01*
X106150Y15417D01*
Y15684D01*
X106017Y15817D01*
X105350Y16617D02*
Y16084D01*
X105750D01*
X105617Y16350D01*
Y16483D01*
X105750Y16617D01*
X106017D01*
X106150Y16483D01*
Y16217D01*
X106017Y16084D01*
X105483Y16883D02*
X105350Y17017D01*
Y17283D01*
X105483Y17416D01*
X106017D01*
X106150Y17283D01*
Y17017D01*
X106017Y16883D01*
X105483D01*
Y17683D02*
X105350Y17816D01*
Y18083D01*
X105483Y18216D01*
X105617D01*
X105750Y18083D01*
X105883Y18216D01*
X106017D01*
X106150Y18083D01*
Y17816D01*
X106017Y17683D01*
X105883D01*
X105750Y17816D01*
X105617Y17683D01*
X105483D01*
X105750Y17816D02*
Y18083D01*
X105483Y9067D02*
X105350Y8934D01*
Y8667D01*
X105483Y8534D01*
X106017D01*
X106150Y8667D01*
Y8934D01*
X106017Y9067D01*
X105350Y9867D02*
Y9334D01*
X105750D01*
X105617Y9600D01*
Y9733D01*
X105750Y9867D01*
X106017D01*
X106150Y9733D01*
Y9467D01*
X106017Y9334D01*
X105483Y10133D02*
X105350Y10267D01*
Y10533D01*
X105483Y10666D01*
X106017D01*
X106150Y10533D01*
Y10267D01*
X106017Y10133D01*
X105483D01*
X105350Y10933D02*
Y11466D01*
X105483D01*
X106017Y10933D01*
X106150D01*
X83317Y55017D02*
X83184Y55150D01*
X82917D01*
X82784Y55017D01*
Y54483D01*
X82917Y54350D01*
X83184D01*
X83317Y54483D01*
X84117Y55150D02*
X83584D01*
Y54750D01*
X83850Y54883D01*
X83983D01*
X84117Y54750D01*
Y54483D01*
X83983Y54350D01*
X83717D01*
X83584Y54483D01*
X84383Y55017D02*
X84517Y55150D01*
X84783D01*
X84916Y55017D01*
Y54483D01*
X84783Y54350D01*
X84517D01*
X84383Y54483D01*
Y55017D01*
X85716Y55150D02*
X85450Y55017D01*
X85183Y54750D01*
Y54483D01*
X85316Y54350D01*
X85583D01*
X85716Y54483D01*
Y54617D01*
X85583Y54750D01*
X85183D01*
X84567Y49767D02*
X84434Y49900D01*
X84167D01*
X84034Y49767D01*
Y49233D01*
X84167Y49100D01*
X84434D01*
X84567Y49233D01*
X85367Y49900D02*
X84834D01*
Y49500D01*
X85100Y49633D01*
X85233D01*
X85367Y49500D01*
Y49233D01*
X85233Y49100D01*
X84967D01*
X84834Y49233D01*
X85633Y49767D02*
X85767Y49900D01*
X86033D01*
X86166Y49767D01*
Y49233D01*
X86033Y49100D01*
X85767D01*
X85633Y49233D01*
Y49767D01*
X86966Y49900D02*
X86433D01*
Y49500D01*
X86700Y49633D01*
X86833D01*
X86966Y49500D01*
Y49233D01*
X86833Y49100D01*
X86566D01*
X86433Y49233D01*
X86817Y54267D02*
X86684Y54400D01*
X86417D01*
X86284Y54267D01*
Y53733D01*
X86417Y53600D01*
X86684D01*
X86817Y53733D01*
X87617Y54400D02*
X87084D01*
Y54000D01*
X87350Y54133D01*
X87483D01*
X87617Y54000D01*
Y53733D01*
X87483Y53600D01*
X87217D01*
X87084Y53733D01*
X87883Y54267D02*
X88017Y54400D01*
X88283D01*
X88416Y54267D01*
Y53733D01*
X88283Y53600D01*
X88017D01*
X87883Y53733D01*
Y54267D01*
X88683D02*
X88816Y54400D01*
X89083D01*
X89216Y54267D01*
Y54133D01*
X89083Y54000D01*
X88950D01*
X89083D01*
X89216Y53867D01*
Y53733D01*
X89083Y53600D01*
X88816D01*
X88683Y53733D01*
X108452Y57758D02*
X108318Y57891D01*
X108052D01*
X107918Y57758D01*
Y57224D01*
X108052Y57091D01*
X108318D01*
X108452Y57224D01*
X109251Y57891D02*
X108718D01*
Y57491D01*
X108985Y57624D01*
X109118D01*
X109251Y57491D01*
Y57224D01*
X109118Y57091D01*
X108851D01*
X108718Y57224D01*
X109518Y57758D02*
X109651Y57891D01*
X109918D01*
X110051Y57758D01*
Y57224D01*
X109918Y57091D01*
X109651D01*
X109518Y57224D01*
Y57758D01*
X110318Y57091D02*
X110584D01*
X110451D01*
Y57891D01*
X110318Y57758D01*
X118815D02*
X118681Y57891D01*
X118415D01*
X118282Y57758D01*
Y57224D01*
X118415Y57091D01*
X118681D01*
X118815Y57224D01*
X119615Y57891D02*
X119081D01*
Y57491D01*
X119348Y57624D01*
X119481D01*
X119615Y57491D01*
Y57224D01*
X119481Y57091D01*
X119215D01*
X119081Y57224D01*
X119881Y57758D02*
X120014Y57891D01*
X120281D01*
X120414Y57758D01*
Y57224D01*
X120281Y57091D01*
X120014D01*
X119881Y57224D01*
Y57758D01*
X120681D02*
X120814Y57891D01*
X121081D01*
X121214Y57758D01*
Y57224D01*
X121081Y57091D01*
X120814D01*
X120681Y57224D01*
Y57758D01*
X109317Y38767D02*
X109184Y38900D01*
X108917D01*
X108784Y38767D01*
Y38233D01*
X108917Y38100D01*
X109184D01*
X109317Y38233D01*
X109983Y38100D02*
Y38900D01*
X109584Y38500D01*
X110117D01*
X110383Y38767D02*
X110517Y38900D01*
X110783D01*
X110916Y38767D01*
Y38233D01*
X110783Y38100D01*
X110517D01*
X110383Y38233D01*
Y38767D01*
X111183Y38233D02*
X111316Y38100D01*
X111583D01*
X111716Y38233D01*
Y38767D01*
X111583Y38900D01*
X111316D01*
X111183Y38767D01*
Y38633D01*
X111316Y38500D01*
X111716D01*
X112817Y37517D02*
X112684Y37650D01*
X112417D01*
X112284Y37517D01*
Y36983D01*
X112417Y36850D01*
X112684D01*
X112817Y36983D01*
X113483Y36850D02*
Y37650D01*
X113084Y37250D01*
X113617D01*
X113883Y37517D02*
X114017Y37650D01*
X114283D01*
X114416Y37517D01*
Y36983D01*
X114283Y36850D01*
X114017D01*
X113883Y36983D01*
Y37517D01*
X114683D02*
X114816Y37650D01*
X115083D01*
X115216Y37517D01*
Y37383D01*
X115083Y37250D01*
X115216Y37117D01*
Y36983D01*
X115083Y36850D01*
X114816D01*
X114683Y36983D01*
Y37117D01*
X114816Y37250D01*
X114683Y37383D01*
Y37517D01*
X114816Y37250D02*
X115083D01*
X108067Y22267D02*
X107934Y22400D01*
X107667D01*
X107534Y22267D01*
Y21733D01*
X107667Y21600D01*
X107934D01*
X108067Y21733D01*
X108733Y21600D02*
Y22400D01*
X108334Y22000D01*
X108867D01*
X109133Y22267D02*
X109267Y22400D01*
X109533D01*
X109666Y22267D01*
Y21733D01*
X109533Y21600D01*
X109267D01*
X109133Y21733D01*
Y22267D01*
X109933Y22400D02*
X110466D01*
Y22267D01*
X109933Y21733D01*
Y21600D01*
X114483Y22817D02*
X114350Y22684D01*
Y22417D01*
X114483Y22284D01*
X115017D01*
X115150Y22417D01*
Y22684D01*
X115017Y22817D01*
X115150Y23483D02*
X114350D01*
X114750Y23084D01*
Y23617D01*
X114483Y23883D02*
X114350Y24017D01*
Y24283D01*
X114483Y24416D01*
X115017D01*
X115150Y24283D01*
Y24017D01*
X115017Y23883D01*
X114483D01*
X114350Y25216D02*
X114483Y24950D01*
X114750Y24683D01*
X115017D01*
X115150Y24816D01*
Y25083D01*
X115017Y25216D01*
X114883D01*
X114750Y25083D01*
Y24683D01*
X117983Y22817D02*
X117850Y22684D01*
Y22417D01*
X117983Y22284D01*
X118517D01*
X118650Y22417D01*
Y22684D01*
X118517Y22817D01*
X118650Y23483D02*
X117850D01*
X118250Y23084D01*
Y23617D01*
X117983Y23883D02*
X117850Y24017D01*
Y24283D01*
X117983Y24416D01*
X118517D01*
X118650Y24283D01*
Y24017D01*
X118517Y23883D01*
X117983D01*
X117850Y25216D02*
Y24683D01*
X118250D01*
X118117Y24950D01*
Y25083D01*
X118250Y25216D01*
X118517D01*
X118650Y25083D01*
Y24816D01*
X118517Y24683D01*
X109317Y36267D02*
X109184Y36400D01*
X108917D01*
X108784Y36267D01*
Y35733D01*
X108917Y35600D01*
X109184D01*
X109317Y35733D01*
X109983Y35600D02*
Y36400D01*
X109584Y36000D01*
X110117D01*
X110383Y36267D02*
X110517Y36400D01*
X110783D01*
X110916Y36267D01*
Y35733D01*
X110783Y35600D01*
X110517D01*
X110383Y35733D01*
Y36267D01*
X111583Y35600D02*
Y36400D01*
X111183Y36000D01*
X111716D01*
X119483Y22817D02*
X119350Y22684D01*
Y22417D01*
X119483Y22284D01*
X120017D01*
X120150Y22417D01*
Y22684D01*
X120017Y22817D01*
X120150Y23483D02*
X119350D01*
X119750Y23084D01*
Y23617D01*
X119483Y23883D02*
X119350Y24017D01*
Y24283D01*
X119483Y24416D01*
X120017D01*
X120150Y24283D01*
Y24017D01*
X120017Y23883D01*
X119483D01*
Y24683D02*
X119350Y24816D01*
Y25083D01*
X119483Y25216D01*
X119617D01*
X119750Y25083D01*
Y24950D01*
Y25083D01*
X119883Y25216D01*
X120017D01*
X120150Y25083D01*
Y24816D01*
X120017Y24683D01*
X115817Y42017D02*
X115684Y42150D01*
X115417D01*
X115284Y42017D01*
Y41483D01*
X115417Y41350D01*
X115684D01*
X115817Y41483D01*
X116483Y41350D02*
Y42150D01*
X116084Y41750D01*
X116617D01*
X116883Y42017D02*
X117017Y42150D01*
X117283D01*
X117416Y42017D01*
Y41483D01*
X117283Y41350D01*
X117017D01*
X116883Y41483D01*
Y42017D01*
X118216Y41350D02*
X117683D01*
X118216Y41883D01*
Y42017D01*
X118083Y42150D01*
X117816D01*
X117683Y42017D01*
X115950Y43267D02*
X115817Y43400D01*
X115550D01*
X115417Y43267D01*
Y42733D01*
X115550Y42600D01*
X115817D01*
X115950Y42733D01*
X116617Y42600D02*
Y43400D01*
X116217Y43000D01*
X116750D01*
X117017Y43267D02*
X117150Y43400D01*
X117416D01*
X117550Y43267D01*
Y42733D01*
X117416Y42600D01*
X117150D01*
X117017Y42733D01*
Y43267D01*
X117816Y42600D02*
X118083D01*
X117950D01*
Y43400D01*
X117816Y43267D01*
X112317D02*
X112184Y43400D01*
X111917D01*
X111784Y43267D01*
Y42733D01*
X111917Y42600D01*
X112184D01*
X112317Y42733D01*
X112983Y42600D02*
Y43400D01*
X112584Y43000D01*
X113117D01*
X113383Y43267D02*
X113517Y43400D01*
X113783D01*
X113916Y43267D01*
Y42733D01*
X113783Y42600D01*
X113517D01*
X113383Y42733D01*
Y43267D01*
X114183D02*
X114316Y43400D01*
X114583D01*
X114716Y43267D01*
Y42733D01*
X114583Y42600D01*
X114316D01*
X114183Y42733D01*
Y43267D01*
X71817Y38767D02*
X71684Y38900D01*
X71417D01*
X71284Y38767D01*
Y38233D01*
X71417Y38100D01*
X71684D01*
X71817Y38233D01*
X72084Y38767D02*
X72217Y38900D01*
X72483D01*
X72617Y38767D01*
Y38633D01*
X72483Y38500D01*
X72350D01*
X72483D01*
X72617Y38367D01*
Y38233D01*
X72483Y38100D01*
X72217D01*
X72084Y38233D01*
X72883Y38767D02*
X73017Y38900D01*
X73283D01*
X73416Y38767D01*
Y38233D01*
X73283Y38100D01*
X73017D01*
X72883Y38233D01*
Y38767D01*
X73683D02*
X73816Y38900D01*
X74083D01*
X74216Y38767D01*
Y38633D01*
X74083Y38500D01*
X74216Y38367D01*
Y38233D01*
X74083Y38100D01*
X73816D01*
X73683Y38233D01*
Y38367D01*
X73816Y38500D01*
X73683Y38633D01*
Y38767D01*
X73816Y38500D02*
X74083D01*
X83233Y22317D02*
X83100Y22184D01*
Y21917D01*
X83233Y21784D01*
X83767D01*
X83900Y21917D01*
Y22184D01*
X83767Y22317D01*
X83233Y22584D02*
X83100Y22717D01*
Y22983D01*
X83233Y23117D01*
X83367D01*
X83500Y22983D01*
Y22850D01*
Y22983D01*
X83633Y23117D01*
X83767D01*
X83900Y22983D01*
Y22717D01*
X83767Y22584D01*
X83233Y23383D02*
X83100Y23517D01*
Y23783D01*
X83233Y23916D01*
X83767D01*
X83900Y23783D01*
Y23517D01*
X83767Y23383D01*
X83233D01*
X83100Y24183D02*
Y24716D01*
X83233D01*
X83767Y24183D01*
X83900D01*
X81733Y22317D02*
X81600Y22184D01*
Y21917D01*
X81733Y21784D01*
X82267D01*
X82400Y21917D01*
Y22184D01*
X82267Y22317D01*
X81733Y22584D02*
X81600Y22717D01*
Y22983D01*
X81733Y23117D01*
X81867D01*
X82000Y22983D01*
Y22850D01*
Y22983D01*
X82133Y23117D01*
X82267D01*
X82400Y22983D01*
Y22717D01*
X82267Y22584D01*
X81733Y23383D02*
X81600Y23517D01*
Y23783D01*
X81733Y23916D01*
X82267D01*
X82400Y23783D01*
Y23517D01*
X82267Y23383D01*
X81733D01*
X81600Y24716D02*
X81733Y24450D01*
X82000Y24183D01*
X82267D01*
X82400Y24316D01*
Y24583D01*
X82267Y24716D01*
X82133D01*
X82000Y24583D01*
Y24183D01*
X69233Y23067D02*
X69100Y22934D01*
Y22667D01*
X69233Y22534D01*
X69767D01*
X69900Y22667D01*
Y22934D01*
X69767Y23067D01*
X69233Y23334D02*
X69100Y23467D01*
Y23733D01*
X69233Y23867D01*
X69367D01*
X69500Y23733D01*
Y23600D01*
Y23733D01*
X69633Y23867D01*
X69767D01*
X69900Y23733D01*
Y23467D01*
X69767Y23334D01*
X69233Y24133D02*
X69100Y24267D01*
Y24533D01*
X69233Y24666D01*
X69767D01*
X69900Y24533D01*
Y24267D01*
X69767Y24133D01*
X69233D01*
X69900Y25333D02*
X69100D01*
X69500Y24933D01*
Y25466D01*
X70733Y23067D02*
X70600Y22934D01*
Y22667D01*
X70733Y22534D01*
X71267D01*
X71400Y22667D01*
Y22934D01*
X71267Y23067D01*
X70733Y23334D02*
X70600Y23467D01*
Y23733D01*
X70733Y23867D01*
X70867D01*
X71000Y23733D01*
Y23600D01*
Y23733D01*
X71133Y23867D01*
X71267D01*
X71400Y23733D01*
Y23467D01*
X71267Y23334D01*
X70733Y24133D02*
X70600Y24267D01*
Y24533D01*
X70733Y24666D01*
X71267D01*
X71400Y24533D01*
Y24267D01*
X71267Y24133D01*
X70733D01*
Y24933D02*
X70600Y25066D01*
Y25333D01*
X70733Y25466D01*
X70867D01*
X71000Y25333D01*
Y25200D01*
Y25333D01*
X71133Y25466D01*
X71267D01*
X71400Y25333D01*
Y25066D01*
X71267Y24933D01*
X28667Y42267D02*
X28534Y42400D01*
X28267D01*
X28134Y42267D01*
Y41733D01*
X28267Y41600D01*
X28534D01*
X28667Y41733D01*
X29467Y41600D02*
X28934D01*
X29467Y42133D01*
Y42267D01*
X29334Y42400D01*
X29067D01*
X28934Y42267D01*
X29733D02*
X29867Y42400D01*
X30133D01*
X30267Y42267D01*
Y41733D01*
X30133Y41600D01*
X29867D01*
X29733Y41733D01*
Y42267D01*
X31066Y42400D02*
X30533D01*
Y42000D01*
X30800Y42133D01*
X30933D01*
X31066Y42000D01*
Y41733D01*
X30933Y41600D01*
X30666D01*
X30533Y41733D01*
X31333Y41600D02*
Y42133D01*
X31599Y42400D01*
X31866Y42133D01*
Y41600D01*
Y42000D01*
X31333D01*
X16667Y40017D02*
X16534Y40150D01*
X16267D01*
X16134Y40017D01*
Y39483D01*
X16267Y39350D01*
X16534D01*
X16667Y39483D01*
X17467Y39350D02*
X16934D01*
X17467Y39883D01*
Y40017D01*
X17334Y40150D01*
X17067D01*
X16934Y40017D01*
X17733D02*
X17867Y40150D01*
X18133D01*
X18267Y40017D01*
Y39483D01*
X18133Y39350D01*
X17867D01*
X17733Y39483D01*
Y40017D01*
X18933Y39350D02*
Y40150D01*
X18533Y39750D01*
X19066D01*
X19333Y39350D02*
Y39883D01*
X19599Y40150D01*
X19866Y39883D01*
Y39350D01*
Y39750D01*
X19333D01*
X16233Y29417D02*
X16100Y29284D01*
Y29017D01*
X16233Y28884D01*
X16767D01*
X16900Y29017D01*
Y29284D01*
X16767Y29417D01*
X16900Y30217D02*
Y29684D01*
X16367Y30217D01*
X16233D01*
X16100Y30084D01*
Y29817D01*
X16233Y29684D01*
Y30483D02*
X16100Y30617D01*
Y30883D01*
X16233Y31017D01*
X16767D01*
X16900Y30883D01*
Y30617D01*
X16767Y30483D01*
X16233D01*
X16900Y31816D02*
Y31283D01*
X16367Y31816D01*
X16233D01*
X16100Y31683D01*
Y31416D01*
X16233Y31283D01*
X16900Y32083D02*
X16367D01*
X16100Y32349D01*
X16367Y32616D01*
X16900D01*
X16500D01*
Y32083D01*
X14983Y29484D02*
X14850Y29350D01*
Y29084D01*
X14983Y28951D01*
X15517D01*
X15650Y29084D01*
Y29350D01*
X15517Y29484D01*
X15650Y30283D02*
Y29750D01*
X15117Y30283D01*
X14983D01*
X14850Y30150D01*
Y29884D01*
X14983Y29750D01*
Y30550D02*
X14850Y30683D01*
Y30950D01*
X14983Y31083D01*
X15517D01*
X15650Y30950D01*
Y30683D01*
X15517Y30550D01*
X14983D01*
X15650Y31350D02*
Y31616D01*
Y31483D01*
X14850D01*
X14983Y31350D01*
X15650Y32016D02*
X15117D01*
X14850Y32283D01*
X15117Y32549D01*
X15650D01*
X15250D01*
Y32016D01*
X20233Y26550D02*
X20100Y26417D01*
Y26151D01*
X20233Y26017D01*
X20767D01*
X20900Y26151D01*
Y26417D01*
X20767Y26550D01*
X20900Y26817D02*
Y27084D01*
Y26950D01*
X20100D01*
X20233Y26817D01*
X20900Y27483D02*
Y27750D01*
Y27617D01*
X20100D01*
X20233Y27483D01*
Y28150D02*
X20100Y28283D01*
Y28550D01*
X20233Y28683D01*
X20367D01*
X20500Y28550D01*
Y28416D01*
Y28550D01*
X20633Y28683D01*
X20767D01*
X20900Y28550D01*
Y28283D01*
X20767Y28150D01*
X20900Y28950D02*
X20367D01*
X20100Y29216D01*
X20367Y29483D01*
X20900D01*
X20500D01*
Y28950D01*
X13550Y20267D02*
X13417Y20400D01*
X13151D01*
X13017Y20267D01*
Y19733D01*
X13151Y19600D01*
X13417D01*
X13550Y19733D01*
X13817Y19600D02*
X14084D01*
X13950D01*
Y20400D01*
X13817Y20267D01*
X14483Y19600D02*
X14750D01*
X14617D01*
Y20400D01*
X14483Y20267D01*
X15683Y19600D02*
X15150D01*
X15683Y20133D01*
Y20267D01*
X15550Y20400D01*
X15283D01*
X15150Y20267D01*
X15950Y19600D02*
Y20133D01*
X16216Y20400D01*
X16483Y20133D01*
Y19600D01*
Y20000D01*
X15950D01*
X26617Y26017D02*
X26484Y26150D01*
X26217D01*
X26084Y26017D01*
Y25483D01*
X26217Y25350D01*
X26484D01*
X26617Y25483D01*
X26884Y25350D02*
X27150D01*
X27017D01*
Y26150D01*
X26884Y26017D01*
X27550Y25350D02*
X27817D01*
X27683D01*
Y26150D01*
X27550Y26017D01*
X28217Y25350D02*
X28483D01*
X28350D01*
Y26150D01*
X28217Y26017D01*
X28883Y25350D02*
Y25883D01*
X29150Y26150D01*
X29416Y25883D01*
Y25350D01*
Y25750D01*
X28883D01*
X24550Y28517D02*
X24417Y28650D01*
X24151D01*
X24017Y28517D01*
Y27983D01*
X24151Y27850D01*
X24417D01*
X24550Y27983D01*
X24817Y27850D02*
X25084D01*
X24950D01*
Y28650D01*
X24817Y28517D01*
X25483Y27850D02*
X25750D01*
X25617D01*
Y28650D01*
X25483Y28517D01*
X26150D02*
X26283Y28650D01*
X26550D01*
X26683Y28517D01*
Y27983D01*
X26550Y27850D01*
X26283D01*
X26150Y27983D01*
Y28517D01*
X26950Y27850D02*
Y28383D01*
X27216Y28650D01*
X27483Y28383D01*
Y27850D01*
Y28250D01*
X26950D01*
X26484Y27267D02*
X26350Y27400D01*
X26084D01*
X25951Y27267D01*
Y26733D01*
X26084Y26600D01*
X26350D01*
X26484Y26733D01*
X26750Y26600D02*
X27017D01*
X26884D01*
Y27400D01*
X26750Y27267D01*
X27417D02*
X27550Y27400D01*
X27817D01*
X27950Y27267D01*
Y26733D01*
X27817Y26600D01*
X27550D01*
X27417Y26733D01*
Y27267D01*
X28217Y26733D02*
X28350Y26600D01*
X28616D01*
X28750Y26733D01*
Y27267D01*
X28616Y27400D01*
X28350D01*
X28217Y27267D01*
Y27133D01*
X28350Y27000D01*
X28750D01*
X29016Y26600D02*
Y27133D01*
X29283Y27400D01*
X29549Y27133D01*
Y26600D01*
Y27000D01*
X29016D01*
X24484Y29767D02*
X24350Y29900D01*
X24084D01*
X23951Y29767D01*
Y29233D01*
X24084Y29100D01*
X24350D01*
X24484Y29233D01*
X24750Y29100D02*
X25017D01*
X24884D01*
Y29900D01*
X24750Y29767D01*
X25417D02*
X25550Y29900D01*
X25817D01*
X25950Y29767D01*
Y29233D01*
X25817Y29100D01*
X25550D01*
X25417Y29233D01*
Y29767D01*
X26217D02*
X26350Y29900D01*
X26616D01*
X26750Y29767D01*
Y29633D01*
X26616Y29500D01*
X26750Y29367D01*
Y29233D01*
X26616Y29100D01*
X26350D01*
X26217Y29233D01*
Y29367D01*
X26350Y29500D01*
X26217Y29633D01*
Y29767D01*
X26350Y29500D02*
X26616D01*
X27016Y29100D02*
Y29633D01*
X27283Y29900D01*
X27549Y29633D01*
Y29100D01*
Y29500D01*
X27016D01*
X13484Y18767D02*
X13350Y18900D01*
X13084D01*
X12951Y18767D01*
Y18233D01*
X13084Y18100D01*
X13350D01*
X13484Y18233D01*
X13750Y18100D02*
X14017D01*
X13884D01*
Y18900D01*
X13750Y18767D01*
X14417D02*
X14550Y18900D01*
X14817D01*
X14950Y18767D01*
Y18233D01*
X14817Y18100D01*
X14550D01*
X14417Y18233D01*
Y18767D01*
X15217Y18900D02*
X15750D01*
Y18767D01*
X15217Y18233D01*
Y18100D01*
X16016D02*
Y18633D01*
X16283Y18900D01*
X16549Y18633D01*
Y18100D01*
Y18500D01*
X16016D01*
X18234Y13017D02*
X18100Y13150D01*
X17834D01*
X17701Y13017D01*
Y12483D01*
X17834Y12350D01*
X18100D01*
X18234Y12483D01*
X18500Y12350D02*
X18767D01*
X18634D01*
Y13150D01*
X18500Y13017D01*
X19167D02*
X19300Y13150D01*
X19567D01*
X19700Y13017D01*
Y12483D01*
X19567Y12350D01*
X19300D01*
X19167Y12483D01*
Y13017D01*
X20500Y13150D02*
X20233Y13017D01*
X19967Y12750D01*
Y12483D01*
X20100Y12350D01*
X20366D01*
X20500Y12483D01*
Y12617D01*
X20366Y12750D01*
X19967D01*
X20766Y12350D02*
Y12883D01*
X21033Y13150D01*
X21299Y12883D01*
Y12350D01*
Y12750D01*
X20766D01*
X13484Y17267D02*
X13350Y17400D01*
X13084D01*
X12951Y17267D01*
Y16733D01*
X13084Y16600D01*
X13350D01*
X13484Y16733D01*
X13750Y16600D02*
X14017D01*
X13884D01*
Y17400D01*
X13750Y17267D01*
X14417D02*
X14550Y17400D01*
X14817D01*
X14950Y17267D01*
Y16733D01*
X14817Y16600D01*
X14550D01*
X14417Y16733D01*
Y17267D01*
X15750Y17400D02*
X15217D01*
Y17000D01*
X15483Y17133D01*
X15616D01*
X15750Y17000D01*
Y16733D01*
X15616Y16600D01*
X15350D01*
X15217Y16733D01*
X16016Y16600D02*
Y17133D01*
X16283Y17400D01*
X16549Y17133D01*
Y16600D01*
Y17000D01*
X16016D01*
X18234Y14267D02*
X18100Y14400D01*
X17834D01*
X17701Y14267D01*
Y13733D01*
X17834Y13600D01*
X18100D01*
X18234Y13733D01*
X18500Y13600D02*
X18767D01*
X18634D01*
Y14400D01*
X18500Y14267D01*
X19167D02*
X19300Y14400D01*
X19567D01*
X19700Y14267D01*
Y13733D01*
X19567Y13600D01*
X19300D01*
X19167Y13733D01*
Y14267D01*
X20366Y13600D02*
Y14400D01*
X19967Y14000D01*
X20500D01*
X20766Y13600D02*
Y14133D01*
X21033Y14400D01*
X21299Y14133D01*
Y13600D01*
Y14000D01*
X20766D01*
D15*
X9730Y44365D02*
Y45635D01*
X12270D01*
Y44365D02*
Y45635D01*
X9730Y44365D02*
X12270D01*
X9730Y34365D02*
Y35635D01*
X12270D01*
Y34365D02*
Y35635D01*
X9730Y34365D02*
X12270D01*
X9730Y24365D02*
Y25635D01*
X12270D01*
Y24365D02*
Y25635D01*
X9730Y24365D02*
X12270D01*
X9730Y14365D02*
Y15635D01*
X12270D01*
Y14365D02*
Y15635D01*
X9730Y14365D02*
X12270D01*
X69365Y47730D02*
Y50270D01*
Y47730D02*
X70635D01*
Y50270D01*
X69365D02*
X70635D01*
X54365D02*
X55635D01*
Y47730D02*
Y50270D01*
X54365Y47730D02*
X55635D01*
X54365D02*
Y50270D01*
X44365D02*
X45635D01*
Y47730D02*
Y50270D01*
X44365Y47730D02*
X45635D01*
X44365D02*
Y50270D01*
X34365D02*
X35635D01*
Y47730D02*
Y50270D01*
X34365Y47730D02*
X35635D01*
X34365D02*
Y50270D01*
X24365D02*
X25635D01*
Y47730D02*
Y50270D01*
X24365Y47730D02*
X25635D01*
X24365D02*
Y50270D01*
X69365Y5480D02*
X70635D01*
X69365D02*
Y8020D01*
X70635D01*
Y5480D02*
Y8020D01*
X85600Y57100D02*
Y58900D01*
X82400Y57100D02*
X85600D01*
X82400D02*
Y58900D01*
X85600D01*
X89500Y49150D02*
Y53350D01*
X87500D02*
X89500D01*
X87500Y49150D02*
Y53350D01*
Y49150D02*
X89500D01*
X78730Y40635D02*
X81270D01*
X78730Y39365D02*
Y40635D01*
Y39365D02*
X81270D01*
Y40635D01*
X81850Y40850D02*
Y42650D01*
X78650Y40850D02*
X81850D01*
X78650D02*
Y42650D01*
X81850D01*
X71865Y27730D02*
Y30270D01*
Y27730D02*
X73135D01*
Y30270D01*
X71865D02*
X73135D01*
X73365Y27730D02*
Y30270D01*
Y27730D02*
X74635D01*
Y30270D01*
X73365D02*
X74635D01*
X85600Y51600D02*
Y53400D01*
X82400Y51600D02*
X85600D01*
X82400D02*
Y53400D01*
X85600D01*
X24400Y44650D02*
X27600D01*
X24400Y42850D02*
Y44650D01*
Y42850D02*
X27600D01*
Y44650D01*
X65600Y23900D02*
Y27100D01*
Y23900D02*
X67400D01*
Y27100D01*
X65600D02*
X67400D01*
X60400Y14150D02*
X63600D01*
X60400Y12350D02*
Y14150D01*
Y12350D02*
X63600D01*
Y14150D01*
X66600Y42850D02*
Y44650D01*
X63400Y42850D02*
X66600D01*
X63400D02*
Y44650D01*
X66600D01*
X53600Y42850D02*
Y44650D01*
X50400Y42850D02*
X53600D01*
X50400D02*
Y44650D01*
X53600D01*
X40600Y42850D02*
Y44650D01*
X37400Y42850D02*
X40600D01*
X37400D02*
Y44650D01*
X40600D01*
X114865Y2980D02*
X116135D01*
X114865D02*
Y5520D01*
X116135D01*
Y2980D02*
Y5520D01*
X106980Y9385D02*
X109520D01*
X106980Y8115D02*
Y9385D01*
Y8115D02*
X109520D01*
Y9385D01*
X106980Y7885D02*
X109520D01*
X106980Y6615D02*
Y7885D01*
Y6615D02*
X109520D01*
Y7885D01*
X106980Y6385D02*
X109520D01*
X106980Y5115D02*
Y6385D01*
Y5115D02*
X109520D01*
Y6385D01*
X106980Y4885D02*
X109520D01*
X106980Y3615D02*
Y4885D01*
Y3615D02*
X109520D01*
Y4885D01*
X109230Y32135D02*
X111770D01*
X109230Y30865D02*
Y32135D01*
Y30865D02*
X111770D01*
Y32135D01*
X110730Y35135D02*
X113270D01*
X110730Y33865D02*
Y35135D01*
Y33865D02*
X113270D01*
Y35135D01*
X112230Y33635D02*
X114770D01*
X112230Y32365D02*
Y33635D01*
Y32365D02*
X114770D01*
Y33635D01*
X110730Y22865D02*
X113270D01*
Y24135D01*
X110730D02*
X113270D01*
X110730Y22865D02*
Y24135D01*
X115615Y25730D02*
Y28270D01*
Y25730D02*
X116885D01*
Y28270D01*
X115615D02*
X116885D01*
X126730Y29365D02*
Y30635D01*
X129270D01*
Y29365D02*
Y30635D01*
X126730Y29365D02*
X129270D01*
X124615Y25730D02*
Y28270D01*
Y25730D02*
X125885D01*
Y28270D01*
X124615D02*
X125885D01*
X126730Y23365D02*
Y24635D01*
X129270D01*
Y23365D02*
Y24635D01*
X126730Y23365D02*
X129270D01*
X121230Y29365D02*
X123770D01*
Y30635D01*
X121230D02*
X123770D01*
X121230Y29365D02*
Y30635D01*
X118230Y31365D02*
X120770D01*
Y32635D01*
X118230D02*
X120770D01*
X118230Y31365D02*
Y32635D01*
Y35635D02*
X120770D01*
X118230Y34365D02*
Y35635D01*
Y34365D02*
X120770D01*
Y35635D01*
X121230D02*
X123770D01*
X121230Y34365D02*
Y35635D01*
Y34365D02*
X123770D01*
Y35635D01*
X75230Y35865D02*
X77770D01*
Y37135D01*
X75230D02*
X77770D01*
X75230Y35865D02*
Y37135D01*
X73365Y30730D02*
Y33270D01*
Y30730D02*
X74635D01*
Y33270D01*
X73365D02*
X74635D01*
X73135Y30730D02*
Y33270D01*
X71865D02*
X73135D01*
X71865Y30730D02*
Y33270D01*
Y30730D02*
X73135D01*
X75230Y16135D02*
X77770D01*
X75230Y14865D02*
Y16135D01*
Y14865D02*
X77770D01*
Y16135D01*
X75230Y16365D02*
X77770D01*
Y17635D01*
X75230D02*
X77770D01*
X75230Y16365D02*
Y17635D01*
X82865Y14730D02*
Y17270D01*
Y14730D02*
X84135D01*
Y17270D01*
X82865D02*
X84135D01*
X81365Y14730D02*
Y17270D01*
Y14730D02*
X82635D01*
Y17270D01*
X81365D02*
X82635D01*
X79865Y14730D02*
Y17270D01*
Y14730D02*
X81135D01*
Y17270D01*
X79865D02*
X81135D01*
X78365Y14730D02*
Y17270D01*
Y14730D02*
X79635D01*
Y17270D01*
X78365D02*
X79635D01*
X59980Y38615D02*
Y39885D01*
X62520D01*
Y38615D02*
Y39885D01*
X59980Y38615D02*
X62520D01*
X46980D02*
Y39885D01*
X49520D01*
Y38615D02*
Y39885D01*
X46980Y38615D02*
X49520D01*
X33980D02*
Y39885D01*
X36520D01*
Y38615D02*
Y39885D01*
X33980Y38615D02*
X36520D01*
X20980D02*
X23520D01*
Y39885D01*
X20980D02*
X23520D01*
X20980Y38615D02*
Y39885D01*
X57865Y35770D02*
X59135D01*
Y33230D02*
Y35770D01*
X57865Y33230D02*
X59135D01*
X57865D02*
Y35770D01*
X44865D02*
X46135D01*
Y33230D02*
Y35770D01*
X44865Y33230D02*
X46135D01*
X44865D02*
Y35770D01*
X31865D02*
X33135D01*
Y33230D02*
Y35770D01*
X31865Y33230D02*
X33135D01*
X31865D02*
Y35770D01*
X18865Y33230D02*
Y35770D01*
Y33230D02*
X20135D01*
Y35770D01*
X18865D02*
X20135D01*
X56365Y33230D02*
X57635D01*
X56365D02*
Y35770D01*
X57635D01*
Y33230D02*
Y35770D01*
X43365Y33230D02*
X44635D01*
X43365D02*
Y35770D01*
X44635D01*
Y33230D02*
Y35770D01*
X30365Y33230D02*
X31635D01*
X30365D02*
Y35770D01*
X31635D01*
Y33230D02*
Y35770D01*
X18635Y33230D02*
Y35770D01*
X17365D02*
X18635D01*
X17365Y33230D02*
Y35770D01*
Y33230D02*
X18635D01*
X56153Y24551D02*
X57051Y23653D01*
X56153Y24551D02*
X57949Y26347D01*
X58847Y25449D01*
X57051Y23653D02*
X58847Y25449D01*
X43153Y24551D02*
X44051Y23653D01*
X43153Y24551D02*
X44949Y26347D01*
X45847Y25449D01*
X44051Y23653D02*
X45847Y25449D01*
X30153Y24551D02*
X31051Y23653D01*
X30153Y24551D02*
X31949Y26347D01*
X32847Y25449D01*
X31051Y23653D02*
X32847Y25449D01*
X44230Y14865D02*
Y16135D01*
X46770D01*
Y14865D02*
Y16135D01*
X44230Y14865D02*
X46770D01*
X31230D02*
Y16135D01*
X33770D01*
Y14865D02*
Y16135D01*
X31230Y14865D02*
X33770D01*
X18230D02*
X20770D01*
Y16135D01*
X18230D02*
X20770D01*
X18230Y14865D02*
Y16135D01*
X63653Y17051D02*
X64551Y16153D01*
X63653Y17051D02*
X65449Y18847D01*
X66347Y17949D01*
X64551Y16153D02*
X66347Y17949D01*
X50653Y17051D02*
X51551Y16153D01*
X50653Y17051D02*
X52449Y18847D01*
X53347Y17949D01*
X51551Y16153D02*
X53347Y17949D01*
X37653Y17051D02*
X38551Y16153D01*
X37653Y17051D02*
X39449Y18847D01*
X40347Y17949D01*
X38551Y16153D02*
X40347Y17949D01*
X25551Y16153D02*
X27347Y17949D01*
X26449Y18847D02*
X27347Y17949D01*
X24653Y17051D02*
X26449Y18847D01*
X24653Y17051D02*
X25551Y16153D01*
X65230Y19365D02*
Y20635D01*
X67770D01*
Y19365D02*
Y20635D01*
X65230Y19365D02*
X67770D01*
X52230D02*
Y20635D01*
X54770D01*
Y19365D02*
Y20635D01*
X52230Y19365D02*
X54770D01*
X39230D02*
Y20635D01*
X41770D01*
Y19365D02*
Y20635D01*
X39230Y19365D02*
X41770D01*
X26230D02*
X28770D01*
Y20635D01*
X26230D02*
X28770D01*
X26230Y19365D02*
Y20635D01*
X18051Y23653D02*
X19847Y25449D01*
X18949Y26347D02*
X19847Y25449D01*
X17153Y24551D02*
X18949Y26347D01*
X17153Y24551D02*
X18051Y23653D01*
X58949Y25347D02*
X59847Y24449D01*
X58051Y22653D02*
X59847Y24449D01*
X57153Y23551D02*
X58051Y22653D01*
X57153Y23551D02*
X58949Y25347D01*
X45949D02*
X46847Y24449D01*
X45051Y22653D02*
X46847Y24449D01*
X44153Y23551D02*
X45051Y22653D01*
X44153Y23551D02*
X45949Y25347D01*
X32949D02*
X33847Y24449D01*
X32051Y22653D02*
X33847Y24449D01*
X31153Y23551D02*
X32051Y22653D01*
X31153Y23551D02*
X32949Y25347D01*
X18153Y23551D02*
X19949Y25347D01*
X18153Y23551D02*
X19051Y22653D01*
X20847Y24449D01*
X19949Y25347D02*
X20847Y24449D01*
X58770Y20865D02*
Y22135D01*
X56230Y20865D02*
X58770D01*
X56230D02*
Y22135D01*
X58770D01*
X45770Y20865D02*
Y22135D01*
X43230Y20865D02*
X45770D01*
X43230D02*
Y22135D01*
X45770D01*
X32770Y20865D02*
Y22135D01*
X30230Y20865D02*
X32770D01*
X30230D02*
Y22135D01*
X32770D01*
X17230D02*
X19770D01*
X17230Y20865D02*
Y22135D01*
Y20865D02*
X19770D01*
Y22135D01*
X57230Y14865D02*
Y16135D01*
X59770D01*
Y14865D02*
Y16135D01*
X57230Y14865D02*
X59770D01*
X66449Y17847D02*
X67347Y16949D01*
X65551Y15153D02*
X67347Y16949D01*
X64653Y16051D02*
X65551Y15153D01*
X64653Y16051D02*
X66449Y17847D01*
X53449D02*
X54347Y16949D01*
X52551Y15153D02*
X54347Y16949D01*
X51653Y16051D02*
X52551Y15153D01*
X51653Y16051D02*
X53449Y17847D01*
X40449D02*
X41347Y16949D01*
X39551Y15153D02*
X41347Y16949D01*
X38653Y16051D02*
X39551Y15153D01*
X38653Y16051D02*
X40449Y17847D01*
X25653Y16051D02*
X27449Y17847D01*
X25653Y16051D02*
X26551Y15153D01*
X28347Y16949D01*
X27449Y17847D02*
X28347Y16949D01*
X55520Y10365D02*
Y11635D01*
X52980Y10365D02*
X55520D01*
X52980D02*
Y11635D01*
X55520D01*
X45520Y10365D02*
Y11635D01*
X42980Y10365D02*
X45520D01*
X42980D02*
Y11635D01*
X45520D01*
X35520Y10365D02*
Y11635D01*
X32980Y10365D02*
X35520D01*
X32980D02*
Y11635D01*
X35520D01*
X22980D02*
X25520D01*
X22980Y10365D02*
Y11635D01*
Y10365D02*
X25520D01*
Y11635D01*
X72135Y5480D02*
Y8020D01*
X70865D02*
X72135D01*
X70865Y5480D02*
Y8020D01*
Y5480D02*
X72135D01*
X73635D02*
Y8020D01*
X72365D02*
X73635D01*
X72365Y5480D02*
Y8020D01*
Y5480D02*
X73635D01*
X78730Y10615D02*
X81270D01*
Y11885D01*
X78730D02*
X81270D01*
X78730Y10615D02*
Y11885D01*
X70865Y8980D02*
Y11520D01*
Y8980D02*
X72135D01*
Y11520D01*
X70865D02*
X72135D01*
X114635Y2980D02*
Y5520D01*
X113365D02*
X114635D01*
X113365Y2980D02*
Y5520D01*
Y2980D02*
X114635D01*
X116730Y5635D02*
X119270D01*
X116730Y4365D02*
Y5635D01*
Y4365D02*
X119270D01*
Y5635D01*
X72365Y8980D02*
Y11520D01*
Y8980D02*
X73635D01*
Y11520D01*
X72365D02*
X73635D01*
X116730Y4135D02*
X119270D01*
X116730Y2865D02*
Y4135D01*
Y2865D02*
X119270D01*
Y4135D01*
X106650Y17650D02*
X109850D01*
X106650Y15850D02*
Y17650D01*
Y15850D02*
X109850D01*
Y17650D01*
X106650Y11650D02*
X109850D01*
X106650Y9850D02*
Y11650D01*
Y9850D02*
X109850D01*
Y11650D01*
X85865Y55980D02*
X87135D01*
X85865D02*
Y58520D01*
X87135D01*
Y55980D02*
Y58520D01*
X85865Y50480D02*
X87135D01*
X85865D02*
Y53020D01*
X87135D01*
Y50480D02*
Y53020D01*
X89500Y54650D02*
Y58850D01*
X87500D02*
X89500D01*
X87500Y54650D02*
Y58850D01*
Y54650D02*
X89500D01*
X109230Y32365D02*
Y33635D01*
X111770D01*
Y32365D02*
Y33635D01*
X109230Y32365D02*
X111770D01*
X112230Y30865D02*
Y32135D01*
X114770D01*
Y30865D02*
Y32135D01*
X112230Y30865D02*
X114770D01*
X113270Y21365D02*
Y22635D01*
X110730Y21365D02*
X113270D01*
X110730D02*
Y22635D01*
X113270D01*
X114115Y25730D02*
X115385D01*
X114115D02*
Y28270D01*
X115385D01*
Y25730D02*
Y28270D01*
X117615Y25730D02*
Y28270D01*
Y25730D02*
X118885D01*
Y28270D01*
X117615D02*
X118885D01*
X109230Y29365D02*
Y30635D01*
X111770D01*
Y29365D02*
Y30635D01*
X109230Y29365D02*
X111770D01*
X119115Y25730D02*
Y28270D01*
Y25730D02*
X120385D01*
Y28270D01*
X119115D02*
X120385D01*
X121230Y31365D02*
Y32635D01*
X123770D01*
Y31365D02*
Y32635D01*
X121230Y31365D02*
X123770D01*
X121230Y32865D02*
Y34135D01*
X123770D01*
Y32865D02*
Y34135D01*
X121230Y32865D02*
X123770D01*
X120770D02*
Y34135D01*
X118230Y32865D02*
X120770D01*
X118230D02*
Y34135D01*
X120770D01*
X77770Y34365D02*
Y35635D01*
X75230Y34365D02*
X77770D01*
X75230D02*
Y35635D01*
X77770D01*
X82865Y21270D02*
X84135D01*
Y18730D02*
Y21270D01*
X82865Y18730D02*
X84135D01*
X82865D02*
Y21270D01*
X81365D02*
X82635D01*
Y18730D02*
Y21270D01*
X81365Y18730D02*
X82635D01*
X81365D02*
Y21270D01*
X71865Y22730D02*
X73135D01*
X71865D02*
Y25270D01*
X73135D01*
Y22730D02*
Y25270D01*
X73365Y22730D02*
X74635D01*
X73365D02*
Y25270D01*
X74635D01*
Y22730D02*
Y25270D01*
X63480Y42635D02*
X66020D01*
X63480Y41365D02*
Y42635D01*
Y41365D02*
X66020D01*
Y42635D01*
X50480D02*
X53020D01*
X50480Y41365D02*
Y42635D01*
Y41365D02*
X53020D01*
Y42635D01*
X37480D02*
X40020D01*
X37480Y41365D02*
Y42635D01*
Y41365D02*
X40020D01*
Y42635D01*
X27020Y41365D02*
Y42635D01*
X24480Y41365D02*
X27020D01*
X24480D02*
Y42635D01*
X27020D01*
X59980Y38385D02*
X62520D01*
X59980Y37115D02*
Y38385D01*
Y37115D02*
X62520D01*
Y38385D01*
X46980D02*
X49520D01*
X46980Y37115D02*
Y38385D01*
Y37115D02*
X49520D01*
Y38385D01*
X33980D02*
X36520D01*
X33980Y37115D02*
Y38385D01*
Y37115D02*
X36520D01*
Y38385D01*
X23520Y37115D02*
Y38385D01*
X20980Y37115D02*
X23520D01*
X20980D02*
Y38385D01*
X23520D01*
X57865Y30230D02*
Y32770D01*
Y30230D02*
X59135D01*
Y32770D01*
X57865D02*
X59135D01*
X44865Y30230D02*
Y32770D01*
Y30230D02*
X46135D01*
Y32770D01*
X44865D02*
X46135D01*
X31865Y30230D02*
Y32770D01*
Y30230D02*
X33135D01*
Y32770D01*
X31865D02*
X33135D01*
X18865D02*
X20135D01*
Y30230D02*
Y32770D01*
X18865Y30230D02*
X20135D01*
X18865D02*
Y32770D01*
X56365Y30230D02*
Y32770D01*
Y30230D02*
X57635D01*
Y32770D01*
X56365D02*
X57635D01*
X43365Y30230D02*
Y32770D01*
Y30230D02*
X44635D01*
Y32770D01*
X43365D02*
X44635D01*
X30365Y30230D02*
Y32770D01*
Y30230D02*
X31635D01*
Y32770D01*
X30365D02*
X31635D01*
X17365D02*
X18635D01*
Y30230D02*
Y32770D01*
X17365Y30230D02*
X18635D01*
X17365D02*
Y32770D01*
X60365Y23730D02*
Y26270D01*
Y23730D02*
X61635D01*
Y26270D01*
X60365D02*
X61635D01*
X47365Y23730D02*
Y26270D01*
Y23730D02*
X48635D01*
Y26270D01*
X47365D02*
X48635D01*
X34365Y23730D02*
Y26270D01*
Y23730D02*
X35635D01*
Y26270D01*
X34365D02*
X35635D01*
X21365D02*
X22635D01*
Y23730D02*
Y26270D01*
X21365Y23730D02*
X22635D01*
X21365D02*
Y26270D01*
X56230Y19365D02*
X58770D01*
Y20635D01*
X56230D02*
X58770D01*
X56230Y19365D02*
Y20635D01*
X43230Y19365D02*
X45770D01*
Y20635D01*
X43230D02*
X45770D01*
X43230Y19365D02*
Y20635D01*
X30230Y19365D02*
X32770D01*
Y20635D01*
X30230D02*
X32770D01*
X30230Y19365D02*
Y20635D01*
X17230Y19365D02*
Y20635D01*
X19770D01*
Y19365D02*
Y20635D01*
X17230Y19365D02*
X19770D01*
X65230Y22135D02*
X67770D01*
X65230Y20865D02*
Y22135D01*
Y20865D02*
X67770D01*
Y22135D01*
X52230D02*
X54770D01*
X52230Y20865D02*
Y22135D01*
Y20865D02*
X54770D01*
Y22135D01*
X39230D02*
X41770D01*
X39230Y20865D02*
Y22135D01*
Y20865D02*
X41770D01*
Y22135D01*
X28770Y20865D02*
Y22135D01*
X26230Y20865D02*
X28770D01*
X26230D02*
Y22135D01*
X28770D01*
X61980Y24885D02*
X64520D01*
X61980Y23615D02*
Y24885D01*
Y23615D02*
X64520D01*
Y24885D01*
X48980D02*
X51520D01*
X48980Y23615D02*
Y24885D01*
Y23615D02*
X51520D01*
Y24885D01*
X35980D02*
X38520D01*
X35980Y23615D02*
Y24885D01*
Y23615D02*
X38520D01*
Y24885D01*
X25520Y23615D02*
Y24885D01*
X22980Y23615D02*
X25520D01*
X22980D02*
Y24885D01*
X25520D01*
X65230Y23635D02*
X67770D01*
X65230Y22365D02*
Y23635D01*
Y22365D02*
X67770D01*
Y23635D01*
X52230D02*
X54770D01*
X52230Y22365D02*
Y23635D01*
Y22365D02*
X54770D01*
Y23635D01*
X39230D02*
X41770D01*
X39230Y22365D02*
Y23635D01*
Y22365D02*
X41770D01*
Y23635D01*
X28770Y22365D02*
Y23635D01*
X26230Y22365D02*
X28770D01*
X26230D02*
Y23635D01*
X28770D01*
X61980Y26385D02*
X64520D01*
X61980Y25115D02*
Y26385D01*
Y25115D02*
X64520D01*
Y26385D01*
X48980D02*
X51520D01*
X48980Y25115D02*
Y26385D01*
Y25115D02*
X51520D01*
Y26385D01*
X35980D02*
X38520D01*
X35980Y25115D02*
Y26385D01*
Y25115D02*
X38520D01*
Y26385D01*
X25520Y25115D02*
Y26385D01*
X22980Y25115D02*
X25520D01*
X22980D02*
Y26385D01*
X25520D01*
X56230Y17865D02*
X58770D01*
Y19135D01*
X56230D02*
X58770D01*
X56230Y17865D02*
Y19135D01*
X43230Y17865D02*
X45770D01*
Y19135D01*
X43230D02*
X45770D01*
X43230Y17865D02*
Y19135D01*
X30230Y17865D02*
X32770D01*
Y19135D01*
X30230D02*
X32770D01*
X30230Y17865D02*
Y19135D01*
X17230Y17865D02*
Y19135D01*
X19770D01*
Y17865D02*
Y19135D01*
X17230Y17865D02*
X19770D01*
X60730Y15635D02*
X63270D01*
X60730Y14365D02*
Y15635D01*
Y14365D02*
X63270D01*
Y15635D01*
X47730D02*
X50270D01*
X47730Y14365D02*
Y15635D01*
Y14365D02*
X50270D01*
Y15635D01*
X34730D02*
X37270D01*
X34730Y14365D02*
Y15635D01*
Y14365D02*
X37270D01*
Y15635D01*
X24270Y14365D02*
Y15635D01*
X21730Y14365D02*
X24270D01*
X21730D02*
Y15635D01*
X24270D01*
X56230Y16365D02*
X58770D01*
Y17635D01*
X56230D02*
X58770D01*
X56230Y16365D02*
Y17635D01*
X43230Y16365D02*
X45770D01*
Y17635D01*
X43230D02*
X45770D01*
X43230Y16365D02*
Y17635D01*
X30230Y16365D02*
X32770D01*
Y17635D01*
X30230D02*
X32770D01*
X30230Y16365D02*
Y17635D01*
X17230Y16365D02*
Y17635D01*
X19770D01*
Y16365D02*
Y17635D01*
X17230Y16365D02*
X19770D01*
X60730Y17135D02*
X63270D01*
X60730Y15865D02*
Y17135D01*
Y15865D02*
X63270D01*
Y17135D01*
X47730D02*
X50270D01*
X47730Y15865D02*
Y17135D01*
Y15865D02*
X50270D01*
Y17135D01*
X34730D02*
X37270D01*
X34730Y15865D02*
Y17135D01*
Y15865D02*
X37270D01*
Y17135D01*
X24270Y15865D02*
Y17135D01*
X21730Y15865D02*
X24270D01*
X21730D02*
Y17135D01*
X24270D01*
D16*
X122900Y49500D02*
X133100D01*
X122900Y58500D02*
X133100D01*
X133600Y55775D02*
Y56575D01*
X133100Y56500D02*
X133600Y56575D01*
X133100Y55850D02*
X133600Y55775D01*
X122400Y51225D02*
X122900Y51150D01*
X122400Y50425D02*
X122900Y50500D01*
X122400Y50425D02*
Y51225D01*
X133100Y56500D02*
Y58500D01*
Y49500D02*
Y55850D01*
X122900Y49500D02*
Y50500D01*
Y51150D02*
Y58500D01*
M02*
