G04*
G04 #@! TF.GenerationSoftware,Altium Limited,Altium Designer,20.1.14 (287)*
G04*
G04 Layer_Physical_Order=2*
G04 Layer_Color=11993160*
%FSLAX43Y43*%
%MOMM*%
G71*
G04*
G04 #@! TF.SameCoordinates,785F46E0-C1C1-4AA7-83CD-D68E938E2BB6*
G04*
G04*
G04 #@! TF.FilePolarity,Negative*
G04*
G01*
G75*
%ADD98C,1.016*%
%ADD99C,2.036*%
%ADD100C,2.516*%
%ADD101C,2.316*%
%ADD102C,2.116*%
%ADD103C,1.266*%
D98*
X5000Y60000D02*
G03*
X-0Y55000I0J-5000D01*
G01*
X145000Y55000D02*
G03*
X140000Y60000I-5000J0D01*
G01*
X140000Y-0D02*
G03*
X145000Y5000I0J5000D01*
G01*
X-0Y5000D02*
G03*
X5000Y-0I5000J-0D01*
G01*
X140000Y-0D01*
X145000Y5000D02*
X145000Y55000D01*
X5000Y60000D02*
X140000Y60000D01*
X-0Y5000D02*
Y55000D01*
D99*
X57500Y38500D02*
D03*
X103000Y37000D02*
D03*
X72500Y36000D02*
D03*
D100*
X55000Y5000D02*
D03*
X45000D02*
D03*
X35000D02*
D03*
X25000D02*
D03*
X55000Y55000D02*
D03*
X45000D02*
D03*
X35000D02*
D03*
X25000D02*
D03*
X5000Y45000D02*
D03*
Y35000D02*
D03*
Y25000D02*
D03*
Y15000D02*
D03*
X70000Y55000D02*
D03*
D101*
X125500Y54500D02*
D03*
D102*
X103000Y11770D02*
D03*
Y6690D02*
D03*
Y9230D02*
D03*
X103000Y24730D02*
D03*
Y29810D02*
D03*
Y27270D02*
D03*
Y22190D02*
D03*
Y19650D02*
D03*
D103*
X100750Y38500D02*
D03*
Y36500D02*
D03*
X85750Y4250D02*
D03*
X85500Y3500D02*
D03*
X92365Y11500D02*
D03*
Y23500D02*
D03*
Y35500D02*
D03*
Y47500D02*
D03*
X87000Y53500D02*
D03*
X86000D02*
D03*
X82250Y58250D02*
D03*
Y52250D02*
D03*
Y57750D02*
D03*
Y52750D02*
D03*
X121750Y18000D02*
D03*
X117250Y18500D02*
D03*
X119000Y6500D02*
D03*
X110750Y12250D02*
D03*
X111750Y13750D02*
D03*
X111250Y13000D02*
D03*
X113250Y5000D02*
D03*
X116250Y9000D02*
D03*
X55500Y28500D02*
D03*
X125000Y4000D02*
D03*
X76500Y5225D02*
D03*
Y7175D02*
D03*
X79250Y42750D02*
D03*
X71750Y28250D02*
D03*
X72500Y25500D02*
D03*
X84250Y19250D02*
D03*
X59500Y10000D02*
D03*
X82250Y7175D02*
D03*
X70000Y5250D02*
D03*
X23500Y26500D02*
D03*
X26750Y23750D02*
D03*
X22250Y14250D02*
D03*
X20000Y17000D02*
D03*
X12500Y45000D02*
D03*
Y35000D02*
D03*
Y25000D02*
D03*
Y15000D02*
D03*
X64500Y27250D02*
D03*
X51500D02*
D03*
X38500D02*
D03*
X25500D02*
D03*
X79000Y14500D02*
D03*
X80500D02*
D03*
X82000D02*
D03*
X83500D02*
D03*
X62200Y45737D02*
D03*
X49200Y45746D02*
D03*
X36200Y45756D02*
D03*
X23200Y45746D02*
D03*
X67750Y24500D02*
D03*
X106500Y10750D02*
D03*
Y16750D02*
D03*
X128500Y4000D02*
D03*
X132000D02*
D03*
X128500Y10000D02*
D03*
X116250Y25000D02*
D03*
X117500Y17750D02*
D03*
X75000Y11250D02*
D03*
X70500Y9500D02*
D03*
X81500Y11250D02*
D03*
X116500Y3500D02*
D03*
X118000Y32000D02*
D03*
X112000Y30000D02*
D03*
X59000Y17000D02*
D03*
X33000D02*
D03*
X52750Y23750D02*
D03*
X39750D02*
D03*
X43250Y35250D02*
D03*
X17250D02*
D03*
X46000Y17000D02*
D03*
X56250Y35250D02*
D03*
X30250D02*
D03*
X61000Y12000D02*
D03*
X35250Y14250D02*
D03*
X49500Y26500D02*
D03*
X36500D02*
D03*
X43250Y30750D02*
D03*
X17250D02*
D03*
X64000Y44750D02*
D03*
X51000D02*
D03*
X25000D02*
D03*
X48250Y14250D02*
D03*
X62500Y26500D02*
D03*
X56250Y30750D02*
D03*
X30250D02*
D03*
X38000Y44750D02*
D03*
M02*
