G04*
G04 #@! TF.GenerationSoftware,Altium Limited,Altium Designer,20.1.14 (287)*
G04*
G04 Layer_Color=8150272*
%FSLAX43Y43*%
%MOMM*%
G71*
G04*
G04 #@! TF.SameCoordinates,785F46E0-C1C1-4AA7-83CD-D68E938E2BB6*
G04*
G04*
G04 #@! TF.FilePolarity,Negative*
G04*
G01*
G75*
%ADD77C,1.803*%
%ADD78C,6.500*%
%ADD79C,2.453*%
%ADD80C,2.753*%
%ADD81R,2.153X2.153*%
%ADD82C,2.153*%
%ADD83R,1.803X1.803*%
%ADD84C,0.703*%
D77*
X57500Y38500D02*
D03*
X103000Y42000D02*
D03*
Y37000D02*
D03*
X72500Y43000D02*
D03*
Y36000D02*
D03*
X103000Y14310D02*
D03*
Y11770D02*
D03*
Y9230D02*
D03*
X103000Y24730D02*
D03*
Y29810D02*
D03*
Y27270D02*
D03*
Y22190D02*
D03*
Y19650D02*
D03*
D78*
X140000Y55000D02*
D03*
Y5000D02*
D03*
X5000D02*
D03*
Y55000D02*
D03*
D79*
X55000Y5000D02*
D03*
X45000D02*
D03*
X35000D02*
D03*
X25000D02*
D03*
X55000Y55000D02*
D03*
X45000D02*
D03*
X35000D02*
D03*
X25000D02*
D03*
X5000Y45000D02*
D03*
Y35000D02*
D03*
Y25000D02*
D03*
Y15000D02*
D03*
X70000Y55000D02*
D03*
D80*
X52460Y2460D02*
D03*
X57540D02*
D03*
Y7540D02*
D03*
X52460D02*
D03*
X42460Y2460D02*
D03*
X47540D02*
D03*
Y7540D02*
D03*
X42460D02*
D03*
X32460Y2460D02*
D03*
X37540D02*
D03*
Y7540D02*
D03*
X32460D02*
D03*
X22460Y2460D02*
D03*
X27540D02*
D03*
Y7540D02*
D03*
X22460D02*
D03*
X57540Y52460D02*
D03*
X52460D02*
D03*
Y57540D02*
D03*
X57540D02*
D03*
X47540Y52460D02*
D03*
X42460D02*
D03*
Y57540D02*
D03*
X47540D02*
D03*
X37540Y52460D02*
D03*
X32460D02*
D03*
Y57540D02*
D03*
X37540D02*
D03*
X27540Y52460D02*
D03*
X22460D02*
D03*
Y57540D02*
D03*
X27540D02*
D03*
X7540Y47540D02*
D03*
Y42460D02*
D03*
X2460D02*
D03*
Y47540D02*
D03*
X7540Y37540D02*
D03*
Y32460D02*
D03*
X2460D02*
D03*
Y37540D02*
D03*
X7540Y27540D02*
D03*
Y22460D02*
D03*
X2460D02*
D03*
Y27540D02*
D03*
X7540Y17540D02*
D03*
Y12460D02*
D03*
X2460D02*
D03*
Y17540D02*
D03*
X72540Y57540D02*
D03*
X67460D02*
D03*
Y52460D02*
D03*
X72540D02*
D03*
D81*
X130500Y54500D02*
D03*
D82*
X125500D02*
D03*
D83*
X103000Y6690D02*
D03*
X103000Y32350D02*
D03*
D84*
X100750Y38500D02*
D03*
Y36500D02*
D03*
X85750Y4250D02*
D03*
X85500Y3500D02*
D03*
X92365Y11500D02*
D03*
Y23500D02*
D03*
Y35500D02*
D03*
Y47500D02*
D03*
X87000Y53500D02*
D03*
X86000D02*
D03*
X82250Y58250D02*
D03*
Y52250D02*
D03*
Y57750D02*
D03*
Y52750D02*
D03*
X121750Y18000D02*
D03*
X117250Y18500D02*
D03*
X119000Y6500D02*
D03*
X110750Y12250D02*
D03*
X111750Y13750D02*
D03*
X111250Y13000D02*
D03*
X113250Y5000D02*
D03*
X116250Y9000D02*
D03*
X55500Y28500D02*
D03*
X125000Y4000D02*
D03*
X76500Y5225D02*
D03*
Y7175D02*
D03*
X79250Y42750D02*
D03*
X71750Y28250D02*
D03*
X72500Y25500D02*
D03*
X84250Y19250D02*
D03*
X59500Y10000D02*
D03*
X82250Y7175D02*
D03*
X70000Y5250D02*
D03*
X23500Y26500D02*
D03*
X26750Y23750D02*
D03*
X22250Y14250D02*
D03*
X20000Y17000D02*
D03*
X12500Y45000D02*
D03*
Y35000D02*
D03*
Y25000D02*
D03*
Y15000D02*
D03*
X64500Y27250D02*
D03*
X51500D02*
D03*
X38500D02*
D03*
X25500D02*
D03*
X79000Y14500D02*
D03*
X80500D02*
D03*
X82000D02*
D03*
X83500D02*
D03*
X62200Y45737D02*
D03*
X49200Y45746D02*
D03*
X36200Y45756D02*
D03*
X23200Y45746D02*
D03*
X67750Y24500D02*
D03*
X106500Y10750D02*
D03*
Y16750D02*
D03*
X128500Y4000D02*
D03*
X132000D02*
D03*
X128500Y10000D02*
D03*
X116250Y25000D02*
D03*
X117500Y17750D02*
D03*
X75000Y11250D02*
D03*
X70500Y9500D02*
D03*
X81500Y11250D02*
D03*
X116500Y3500D02*
D03*
X118000Y32000D02*
D03*
X112000Y30000D02*
D03*
X59000Y17000D02*
D03*
X33000D02*
D03*
X52750Y23750D02*
D03*
X39750D02*
D03*
X43250Y35250D02*
D03*
X17250D02*
D03*
X46000Y17000D02*
D03*
X56250Y35250D02*
D03*
X30250D02*
D03*
X61000Y12000D02*
D03*
X35250Y14250D02*
D03*
X49500Y26500D02*
D03*
X36500D02*
D03*
X43250Y30750D02*
D03*
X17250D02*
D03*
X64000Y44750D02*
D03*
X51000D02*
D03*
X25000D02*
D03*
X48250Y14250D02*
D03*
X62500Y26500D02*
D03*
X56250Y30750D02*
D03*
X30250D02*
D03*
X38000Y44750D02*
D03*
M02*
