G04*
G04 #@! TF.GenerationSoftware,Altium Limited,Altium Designer,20.1.14 (287)*
G04*
G04 Layer_Physical_Order=1*
G04 Layer_Color=25308*
%FSLAX43Y43*%
%MOMM*%
G71*
G04*
G04 #@! TF.SameCoordinates,785F46E0-C1C1-4AA7-83CD-D68E938E2BB6*
G04*
G04*
G04 #@! TF.FilePolarity,Positive*
G04*
G01*
G75*
%ADD10C,0.500*%
%ADD12C,0.600*%
%ADD13C,0.250*%
%ADD17R,1.500X3.000*%
G04:AMPARAMS|DCode=18|XSize=0.9mm|YSize=0.7mm|CornerRadius=0.105mm|HoleSize=0mm|Usage=FLASHONLY|Rotation=90.000|XOffset=0mm|YOffset=0mm|HoleType=Round|Shape=RoundedRectangle|*
%AMROUNDEDRECTD18*
21,1,0.900,0.490,0,0,90.0*
21,1,0.690,0.700,0,0,90.0*
1,1,0.210,0.245,0.345*
1,1,0.210,0.245,-0.345*
1,1,0.210,-0.245,-0.345*
1,1,0.210,-0.245,0.345*
%
%ADD18ROUNDEDRECTD18*%
G04:AMPARAMS|DCode=19|XSize=0.9mm|YSize=0.7mm|CornerRadius=0.105mm|HoleSize=0mm|Usage=FLASHONLY|Rotation=0.000|XOffset=0mm|YOffset=0mm|HoleType=Round|Shape=RoundedRectangle|*
%AMROUNDEDRECTD19*
21,1,0.900,0.490,0,0,0.0*
21,1,0.690,0.700,0,0,0.0*
1,1,0.210,0.345,-0.245*
1,1,0.210,-0.345,-0.245*
1,1,0.210,-0.345,0.245*
1,1,0.210,0.345,0.245*
%
%ADD19ROUNDEDRECTD19*%
%ADD20R,0.600X1.000*%
G04:AMPARAMS|DCode=21|XSize=3.8mm|YSize=2.1mm|CornerRadius=0.21mm|HoleSize=0mm|Usage=FLASHONLY|Rotation=270.000|XOffset=0mm|YOffset=0mm|HoleType=Round|Shape=RoundedRectangle|*
%AMROUNDEDRECTD21*
21,1,3.800,1.680,0,0,270.0*
21,1,3.380,2.100,0,0,270.0*
1,1,0.420,-0.840,-1.690*
1,1,0.420,-0.840,1.690*
1,1,0.420,0.840,1.690*
1,1,0.420,0.840,-1.690*
%
%ADD21ROUNDEDRECTD21*%
G04:AMPARAMS|DCode=22|XSize=1.4mm|YSize=1mm|CornerRadius=0.15mm|HoleSize=0mm|Usage=FLASHONLY|Rotation=270.000|XOffset=0mm|YOffset=0mm|HoleType=Round|Shape=RoundedRectangle|*
%AMROUNDEDRECTD22*
21,1,1.400,0.700,0,0,270.0*
21,1,1.100,1.000,0,0,270.0*
1,1,0.300,-0.350,-0.550*
1,1,0.300,-0.350,0.550*
1,1,0.300,0.350,0.550*
1,1,0.300,0.350,-0.550*
%
%ADD22ROUNDEDRECTD22*%
G04:AMPARAMS|DCode=23|XSize=1.6mm|YSize=1.1mm|CornerRadius=0.165mm|HoleSize=0mm|Usage=FLASHONLY|Rotation=180.000|XOffset=0mm|YOffset=0mm|HoleType=Round|Shape=RoundedRectangle|*
%AMROUNDEDRECTD23*
21,1,1.600,0.770,0,0,180.0*
21,1,1.270,1.100,0,0,180.0*
1,1,0.330,-0.635,0.385*
1,1,0.330,0.635,0.385*
1,1,0.330,0.635,-0.385*
1,1,0.330,-0.635,-0.385*
%
%ADD23ROUNDEDRECTD23*%
%ADD24R,1.000X3.800*%
%ADD25R,1.000X3.570*%
%ADD26R,3.570X1.000*%
%ADD27R,3.800X1.000*%
G04:AMPARAMS|DCode=28|XSize=1.6mm|YSize=1.3mm|CornerRadius=0.13mm|HoleSize=0mm|Usage=FLASHONLY|Rotation=270.000|XOffset=0mm|YOffset=0mm|HoleType=Round|Shape=RoundedRectangle|*
%AMROUNDEDRECTD28*
21,1,1.600,1.040,0,0,270.0*
21,1,1.340,1.300,0,0,270.0*
1,1,0.260,-0.520,-0.670*
1,1,0.260,-0.520,0.670*
1,1,0.260,0.520,0.670*
1,1,0.260,0.520,-0.670*
%
%ADD28ROUNDEDRECTD28*%
G04:AMPARAMS|DCode=29|XSize=1.6mm|YSize=2mm|CornerRadius=0.16mm|HoleSize=0mm|Usage=FLASHONLY|Rotation=270.000|XOffset=0mm|YOffset=0mm|HoleType=Round|Shape=RoundedRectangle|*
%AMROUNDEDRECTD29*
21,1,1.600,1.680,0,0,270.0*
21,1,1.280,2.000,0,0,270.0*
1,1,0.320,-0.840,-0.640*
1,1,0.320,-0.840,0.640*
1,1,0.320,0.840,0.640*
1,1,0.320,0.840,-0.640*
%
%ADD29ROUNDEDRECTD29*%
%ADD30O,1.450X0.450*%
%ADD31R,0.400X0.900*%
G04:AMPARAMS|DCode=32|XSize=1.4mm|YSize=1mm|CornerRadius=0.15mm|HoleSize=0mm|Usage=FLASHONLY|Rotation=0.000|XOffset=0mm|YOffset=0mm|HoleType=Round|Shape=RoundedRectangle|*
%AMROUNDEDRECTD32*
21,1,1.400,0.700,0,0,0.0*
21,1,1.100,1.000,0,0,0.0*
1,1,0.300,0.550,-0.350*
1,1,0.300,-0.550,-0.350*
1,1,0.300,-0.550,0.350*
1,1,0.300,0.550,0.350*
%
%ADD32ROUNDEDRECTD32*%
%ADD33O,1.450X0.300*%
%ADD34O,0.300X1.450*%
G04:AMPARAMS|DCode=35|XSize=5.7mm|YSize=1.4mm|CornerRadius=0.14mm|HoleSize=0mm|Usage=FLASHONLY|Rotation=0.000|XOffset=0mm|YOffset=0mm|HoleType=Round|Shape=RoundedRectangle|*
%AMROUNDEDRECTD35*
21,1,5.700,1.120,0,0,0.0*
21,1,5.420,1.400,0,0,0.0*
1,1,0.280,2.710,-0.560*
1,1,0.280,-2.710,-0.560*
1,1,0.280,-2.710,0.560*
1,1,0.280,2.710,0.560*
%
%ADD35ROUNDEDRECTD35*%
%ADD36O,0.450X1.350*%
%ADD37O,0.500X1.450*%
G04:AMPARAMS|DCode=38|XSize=0.3mm|YSize=0.8mm|CornerRadius=0.075mm|HoleSize=0mm|Usage=FLASHONLY|Rotation=270.000|XOffset=0mm|YOffset=0mm|HoleType=Round|Shape=RoundedRectangle|*
%AMROUNDEDRECTD38*
21,1,0.300,0.650,0,0,270.0*
21,1,0.150,0.800,0,0,270.0*
1,1,0.150,-0.325,-0.075*
1,1,0.150,-0.325,0.075*
1,1,0.150,0.325,0.075*
1,1,0.150,0.325,-0.075*
%
%ADD38ROUNDEDRECTD38*%
G04:AMPARAMS|DCode=39|XSize=0.3mm|YSize=0.8mm|CornerRadius=0.075mm|HoleSize=0mm|Usage=FLASHONLY|Rotation=180.000|XOffset=0mm|YOffset=0mm|HoleType=Round|Shape=RoundedRectangle|*
%AMROUNDEDRECTD39*
21,1,0.300,0.650,0,0,180.0*
21,1,0.150,0.800,0,0,180.0*
1,1,0.150,-0.075,0.325*
1,1,0.150,0.075,0.325*
1,1,0.150,0.075,-0.325*
1,1,0.150,-0.075,-0.325*
%
%ADD39ROUNDEDRECTD39*%
%ADD40R,2.350X2.350*%
G04:AMPARAMS|DCode=41|XSize=0.9mm|YSize=0.7mm|CornerRadius=0.105mm|HoleSize=0mm|Usage=FLASHONLY|Rotation=135.000|XOffset=0mm|YOffset=0mm|HoleType=Round|Shape=RoundedRectangle|*
%AMROUNDEDRECTD41*
21,1,0.900,0.490,0,0,135.0*
21,1,0.690,0.700,0,0,135.0*
1,1,0.210,-0.071,0.417*
1,1,0.210,0.417,-0.071*
1,1,0.210,0.071,-0.417*
1,1,0.210,-0.417,0.071*
%
%ADD41ROUNDEDRECTD41*%
%ADD42R,1.000X0.600*%
%ADD43R,1.750X1.200*%
%ADD44R,5.300X2.000*%
%ADD45R,1.950X2.150*%
G04:AMPARAMS|DCode=46|XSize=2.75mm|YSize=1.25mm|CornerRadius=0.188mm|HoleSize=0mm|Usage=FLASHONLY|Rotation=180.000|XOffset=0mm|YOffset=0mm|HoleType=Round|Shape=RoundedRectangle|*
%AMROUNDEDRECTD46*
21,1,2.750,0.875,0,0,180.0*
21,1,2.375,1.250,0,0,180.0*
1,1,0.375,-1.188,0.438*
1,1,0.375,1.188,0.438*
1,1,0.375,1.188,-0.438*
1,1,0.375,-1.188,-0.438*
%
%ADD46ROUNDEDRECTD46*%
%ADD85C,0.300*%
%ADD86R,0.900X6.300*%
%ADD87C,0.400*%
%ADD88C,0.800*%
%ADD89C,1.000*%
%ADD90C,1.600*%
%ADD91C,4.500*%
%ADD92C,2.250*%
%ADD93C,2.550*%
%ADD94R,1.950X1.950*%
%ADD95C,1.950*%
%ADD96R,1.600X1.600*%
%ADD97C,0.500*%
G36*
X83000Y58610D02*
Y57300D01*
X82200Y57300D01*
X82110Y57300D01*
X81945Y57368D01*
X81819Y57495D01*
X81750Y57660D01*
Y57750D01*
X81750Y57750D01*
X81750Y58250D01*
X81750Y58340D01*
X81818Y58505D01*
X81945Y58631D01*
X82110Y58700D01*
X82200D01*
X82200Y58700D01*
X82910Y58700D01*
X83000Y58610D01*
D02*
G37*
G36*
X87501Y55950D02*
X88522Y55950D01*
Y54850D01*
X86650D01*
X86050Y55450D01*
Y56500D01*
X86500D01*
X86951Y56500D01*
X87501Y55950D01*
D02*
G37*
G36*
X88111Y53139D02*
X88111Y52500D01*
X84936D01*
X84936Y53186D01*
X85750Y54000D01*
X87250Y54000D01*
X88111Y53139D01*
D02*
G37*
G36*
X83000Y53110D02*
Y51800D01*
X82200Y51800D01*
X82110Y51800D01*
X81945Y51868D01*
X81819Y51995D01*
X81750Y52160D01*
Y52250D01*
X81750Y52250D01*
X81750Y52750D01*
X81750Y52840D01*
X81818Y53005D01*
X81945Y53131D01*
X82110Y53200D01*
X82200D01*
X82200Y53200D01*
X82910Y53200D01*
X83000Y53110D01*
D02*
G37*
G36*
X121000Y51910D02*
X121000Y51401D01*
X120924Y51217D01*
X120783Y51076D01*
X120623Y51010D01*
X120500Y51000D01*
X120500Y51000D01*
X120500Y51000D01*
X119000Y51000D01*
X118901Y51000D01*
X118717Y51076D01*
X118576Y51217D01*
X118500Y51401D01*
X118500Y51500D01*
X118500Y51910D01*
X118590Y52000D01*
X120910D01*
X121000Y51910D01*
D02*
G37*
G36*
X110500D02*
X110500Y51401D01*
X110424Y51217D01*
X110283Y51076D01*
X110123Y51010D01*
X110000Y51000D01*
X110000Y51000D01*
X110000Y51000D01*
X108500Y51000D01*
X108401Y51000D01*
X108217Y51076D01*
X108076Y51217D01*
X108000Y51401D01*
X108000Y51500D01*
X108000Y51910D01*
X108090Y52000D01*
X110410D01*
X110500Y51910D01*
D02*
G37*
G36*
X117650Y50850D02*
X115450D01*
X115450Y50850D01*
Y52016D01*
X115450D01*
X115632Y52113D01*
X115963Y52357D01*
X116244Y52658D01*
X116463Y53007D01*
X116614Y53390D01*
X116690Y53794D01*
X116690Y54206D01*
X116614Y54610D01*
X116463Y54993D01*
X116244Y55342D01*
X115963Y55643D01*
X115631Y55887D01*
X115450Y55984D01*
X115450Y55984D01*
Y57150D01*
X117650D01*
Y50850D01*
D02*
G37*
G36*
X113550Y57150D02*
Y55984D01*
Y55984D01*
X113368Y55887D01*
X113037Y55643D01*
X112756Y55342D01*
X112537Y54993D01*
X112386Y54610D01*
X112310Y54206D01*
X112310Y53794D01*
X112386Y53390D01*
X112537Y53007D01*
X112756Y52658D01*
X113037Y52357D01*
X113369Y52113D01*
X113550Y52016D01*
X113550Y52016D01*
Y50850D01*
X111350D01*
Y57150D01*
X113550D01*
X113550Y57150D01*
D02*
G37*
G36*
X87501Y50450D02*
X88522Y50450D01*
Y49350D01*
X86650D01*
X86050Y49950D01*
Y51000D01*
X86500D01*
X86951Y51000D01*
X87501Y50450D01*
D02*
G37*
D10*
X114250Y33000D02*
Y35500D01*
X89556Y37500D02*
X102500D01*
X114250Y31500D02*
Y33000D01*
X102500Y37500D02*
X103000Y37000D01*
X89500Y37500D02*
Y38250D01*
Y38500D01*
Y38250D02*
X90250Y37500D01*
X89500D02*
X90250D01*
X89500Y45750D02*
X89825D01*
X89500Y36750D02*
Y37500D01*
Y36750D02*
X90250Y37500D01*
X92365Y9750D02*
Y11500D01*
Y33750D02*
Y35500D01*
X89500Y38250D02*
Y45750D01*
X92365Y21750D02*
Y23500D01*
Y45750D02*
Y47500D01*
X89500Y10750D02*
Y36750D01*
X89250Y9750D02*
X89825D01*
X103000Y37000D02*
X104500Y35500D01*
X107750D01*
X108500Y36250D01*
X113500D01*
X114250Y35500D01*
Y29385D02*
Y31500D01*
X120175Y37075D02*
Y38500D01*
X120750Y36500D02*
X122750D01*
X120175Y37075D02*
X120750Y36500D01*
X122750D02*
X123250Y36000D01*
Y35000D02*
Y36000D01*
X123825Y38500D02*
X127300D01*
Y35000D02*
Y38500D01*
X121750Y29311D02*
Y30000D01*
X114750Y27750D02*
X114750Y27750D01*
X120881Y26250D02*
X121331Y25800D01*
X122500D01*
X114750Y27750D02*
X116250D01*
X114750Y26250D02*
X120881D01*
X123250Y35000D02*
X123250Y35000D01*
X114750Y27750D02*
Y28885D01*
X121550Y28200D02*
Y29111D01*
X121750Y29311D01*
X123250Y30000D02*
Y32000D01*
Y33500D01*
X114250Y29385D02*
X114750Y28885D01*
X123250Y33500D02*
Y35000D01*
D12*
X86500Y52500D02*
X88500D01*
X88350Y58000D02*
Y58250D01*
X84900Y58000D02*
X88350D01*
X86500Y52500D02*
X86500Y52500D01*
X84900Y52500D02*
X86500D01*
D13*
X79250Y39000D02*
Y42750D01*
X30970Y24470D02*
X33964Y21475D01*
X62200Y44375D02*
Y45737D01*
X111250Y22000D02*
Y23500D01*
X111050Y23700D02*
X111250Y23500D01*
Y23500D02*
Y23500D01*
X111050Y23700D02*
Y25625D01*
X57000Y38000D02*
X57500Y38500D01*
X57000Y35250D02*
Y38000D01*
X11750Y25000D02*
X11750Y25000D01*
X12500D01*
X52750Y11000D02*
X52750Y11000D01*
X53500D01*
X117750Y6750D02*
X118000Y6500D01*
X117750Y6750D02*
Y7775D01*
X108900Y12650D02*
Y13350D01*
X108750Y13500D02*
X108900Y13350D01*
X107750Y13500D02*
X108750D01*
X107600Y13350D02*
X107750Y13500D01*
X107600Y12650D02*
Y13350D01*
X71500Y5250D02*
X71500Y5250D01*
X71500Y5250D02*
Y6000D01*
X73000D02*
X73750D01*
X71500D02*
X73000D01*
X73750D02*
X73875Y5875D01*
X75075D01*
X80925Y9125D02*
X82250D01*
X79250Y10250D02*
X79250Y10250D01*
Y11250D01*
X75000Y9850D02*
X75075Y9775D01*
X75000Y9850D02*
Y11250D01*
X120500Y3000D02*
Y5500D01*
X112000Y2500D02*
X120000D01*
X120500Y3000D01*
X119750Y6250D02*
X120500Y5500D01*
X80925Y7175D02*
X82250D01*
X115500Y3500D02*
X117250D01*
X115500Y3500D02*
X115500Y3500D01*
X82125Y5875D02*
X86250Y1750D01*
X82025Y5225D02*
X86000Y1250D01*
X80925Y5225D02*
X82025D01*
X109250Y2750D02*
X110250Y3750D01*
X85750Y4250D02*
X87250Y2750D01*
X109250D01*
X85500Y3500D02*
X86750Y2250D01*
X109500D02*
X110750Y3500D01*
X86750Y2250D02*
X109500D01*
X109750Y1750D02*
X111250Y3250D01*
X86250Y1750D02*
X109750D01*
X86000Y1250D02*
X110000Y1250D01*
X111750Y3000D01*
X110250Y750D02*
X112000Y2500D01*
X79750Y4750D02*
X83750Y750D01*
X110250D01*
X78875Y38625D02*
X79250Y39000D01*
X77450Y38625D02*
X78875D01*
X79650Y35000D02*
X79750Y35100D01*
X77250Y35000D02*
X79650D01*
X75550Y36500D02*
Y38625D01*
Y35200D02*
Y36500D01*
X75750Y34750D02*
X76675Y33825D01*
X75750Y34750D02*
Y35000D01*
X76675Y32725D02*
Y33825D01*
X77250Y34500D02*
Y35000D01*
X77975Y32725D02*
Y33775D01*
X77250Y34500D02*
X77975Y33775D01*
Y32725D02*
X78525D01*
X79100Y32150D01*
X80500D01*
X123500Y13750D02*
X129000D01*
X132000Y10000D02*
Y10750D01*
X129000Y13750D02*
X132000Y10750D01*
X111250Y31500D02*
Y34500D01*
X118250Y17500D02*
X118750Y18000D01*
X121750D02*
X122500Y18750D01*
X118750Y18000D02*
X121750D01*
X118250Y16225D02*
Y17500D01*
X123000Y13750D02*
X123500D01*
X123250Y14000D02*
X123500Y13750D01*
X123250Y14000D02*
Y21000D01*
X123000Y13750D02*
X123250Y14000D01*
Y21000D02*
X124250Y22000D01*
X116750Y16225D02*
Y18000D01*
X117250Y18500D01*
X119000Y6500D02*
X119250Y6750D01*
X119750Y6250D02*
Y7775D01*
X119250Y6750D02*
Y7775D01*
X111500Y14000D02*
X111750Y13750D01*
X111000Y13250D02*
X111250Y13000D01*
X110500Y12500D02*
Y24250D01*
Y12500D02*
X110750Y12250D01*
X111750Y13750D02*
X112250Y13250D01*
X113275D01*
X111250Y13000D02*
X111500Y12750D01*
X113275D01*
X110750Y12250D02*
X110750Y12250D01*
X113275D01*
X111000Y13250D02*
Y21750D01*
X111500Y14000D02*
Y19750D01*
X116250Y9000D02*
X116250Y9000D01*
X116250Y7775D02*
Y9000D01*
X116750Y6250D02*
Y7775D01*
X115500Y5000D02*
X116750Y6250D01*
X117250Y5000D02*
X117250Y5000D01*
Y7775D01*
X112500Y6000D02*
X115250D01*
X111750Y5250D02*
X112500Y6000D01*
X111750Y3000D02*
Y5250D01*
X112250Y6500D02*
X115000D01*
X111250Y3250D02*
Y5500D01*
X112250Y6500D01*
X110750Y3500D02*
Y5750D01*
X112250Y7250D02*
X114750D01*
X110750Y5750D02*
X112250Y7250D01*
X112750Y8500D02*
Y9250D01*
X110250Y3750D02*
Y6000D01*
X112750Y8500D01*
X113250Y5000D02*
X114000D01*
X115500D01*
X75075Y5225D02*
X76500D01*
X75075Y7175D02*
X76500D01*
X80925Y5875D02*
X82125D01*
X79750Y4750D02*
Y6250D01*
X80025Y6525D01*
X80925D01*
X24500Y27250D02*
X25500D01*
X22175Y29575D02*
Y30775D01*
Y29575D02*
X24500Y27250D01*
X37500D02*
X38500D01*
X35175Y29575D02*
X37500Y27250D01*
X35175Y29575D02*
Y30775D01*
X63500Y27250D02*
X64500D01*
X61175Y29575D02*
Y30775D01*
Y29575D02*
X63500Y27250D01*
X50500D02*
X51500D01*
X48175Y29575D02*
Y30775D01*
Y29575D02*
X50500Y27250D01*
X75550Y35200D02*
X75750Y35000D01*
X71750Y28250D02*
X72500D01*
X61175Y35225D02*
Y36232D01*
X60500Y36907D02*
X61175Y36232D01*
X60500Y36907D02*
Y39250D01*
X62475Y35225D02*
Y36318D01*
X62000Y36793D02*
Y37750D01*
Y36793D02*
X62475Y36318D01*
X74000Y32750D02*
X74025Y32725D01*
X76025D01*
X74000Y28250D02*
X76000D01*
X72500D02*
X74000D01*
X76000D02*
X76025Y28275D01*
X72500Y31250D02*
X76000D01*
X77325Y28275D02*
Y29925D01*
X76000Y31250D02*
X77325Y29925D01*
X72500Y24725D02*
X76095D01*
Y25595D02*
X76250Y25750D01*
X77250D02*
X77365Y25635D01*
X76250Y25750D02*
X77250D01*
X78000Y26750D02*
X78635Y26115D01*
Y24725D02*
Y26115D01*
X77250Y26750D02*
X78000D01*
X76675Y27325D02*
Y28275D01*
Y27325D02*
X77250Y26750D01*
X77365Y24725D02*
Y25635D01*
X76095Y24725D02*
Y25595D01*
X72500Y24725D02*
Y25500D01*
X76095Y18345D02*
Y19275D01*
X75750Y18000D02*
X76095Y18345D01*
X75750Y17000D02*
Y18000D01*
X77365Y15615D02*
Y19275D01*
X77250Y15500D02*
X77365Y15615D01*
X79000Y16750D02*
Y17750D01*
X78635Y18115D02*
X79000Y17750D01*
X78635Y18115D02*
Y19275D01*
X82000Y16750D02*
X83500D01*
X80500D02*
X82000D01*
X79000D02*
X80500D01*
X83500Y14500D02*
Y15250D01*
X83500Y14500D02*
X83500Y14500D01*
X82000Y15250D02*
X82000Y15250D01*
X82000Y14500D02*
Y15250D01*
X80500D02*
X80500Y15250D01*
X80500Y14500D02*
Y15250D01*
X79000Y15250D02*
X79000Y15250D01*
X79000Y14500D02*
Y15250D01*
X70000Y48250D02*
X72500D01*
X72500Y48250D01*
X77450Y43300D01*
Y41375D02*
Y43300D01*
X56000Y24750D02*
X57750Y26500D01*
X56000Y24250D02*
Y24750D01*
X73000Y9500D02*
X73750D01*
X74125Y9125D01*
X75075D01*
X73000Y7500D02*
X73750D01*
X74075Y7825D01*
X75075D01*
X71500Y9500D02*
X73000D01*
X70500D02*
X71500D01*
X75075Y7825D02*
X80925D01*
X71500Y7500D02*
X73000D01*
X70000D02*
X71500D01*
X112750Y9250D02*
X113275D01*
X114750Y7250D02*
Y7775D01*
X115250Y6000D02*
X115750Y6500D01*
Y7775D01*
X115000Y6500D02*
X115250Y6750D01*
Y7775D01*
X112250Y11250D02*
X113275D01*
X109750Y8750D02*
X112250Y11250D01*
X109000Y8750D02*
X109750D01*
X109000Y7250D02*
Y8750D01*
Y5750D02*
Y7250D01*
Y4250D02*
Y5750D01*
X55000Y48250D02*
X59687D01*
X62200Y45737D01*
X25000Y47546D02*
Y48250D01*
X23200Y45746D02*
X25000Y47546D01*
X23200Y44375D02*
Y45746D01*
X17750Y17000D02*
X17750Y17000D01*
X17000Y16000D02*
X17500Y15500D01*
X17000Y24250D02*
X17750Y23500D01*
X17000Y24250D02*
Y24750D01*
X18250Y20000D02*
X18250Y20000D01*
X19250Y21500D02*
X19250Y21500D01*
X19250Y21500D02*
X19750D01*
X18750Y25250D02*
Y25250D01*
X19250Y26500D02*
X20000Y25750D01*
X18750Y26500D02*
X19250D01*
X20750Y16000D02*
Y17000D01*
X22025Y18275D02*
Y18625D01*
X20425Y20825D02*
X21125D01*
X22000Y22400D02*
X22025Y22375D01*
X20964Y21475D02*
X21125D01*
X20311Y24250D02*
X22000D01*
X23975Y18464D02*
Y18625D01*
Y22375D02*
Y22975D01*
X25651Y20175D02*
X25826Y20000D01*
X24875Y19525D02*
X25036D01*
X24875Y20175D02*
X25651D01*
X17750Y17000D02*
Y18500D01*
X17000Y20750D02*
X17750Y21500D01*
X17000Y16000D02*
Y20750D01*
X19250Y20000D02*
Y21500D01*
X18750Y25250D02*
X19030Y25530D01*
X20750Y17000D02*
X22025Y18275D01*
X25500Y23250D02*
X26000Y23750D01*
Y26750D01*
X26530Y18030D02*
X27530Y17030D01*
X17750Y21500D02*
Y23500D01*
X22000Y22400D02*
Y24250D01*
X17500Y15500D02*
X18750D01*
X17750Y17000D02*
X18250D01*
X20250Y15500D02*
X20750Y16000D01*
X17750Y20000D02*
X18250D01*
X20030Y24530D02*
X20311Y24250D01*
X20000Y25750D02*
X22000D01*
X25826Y20000D02*
X26750D01*
X28250Y23750D02*
X28250Y23750D01*
X19750Y21500D02*
X20425Y20825D01*
X23975Y22975D02*
X24250Y23250D01*
X17970Y24470D02*
X20964Y21475D01*
X28250Y20000D02*
Y23750D01*
X23975Y18464D02*
X25470Y16970D01*
X25036Y19525D02*
X26530Y18030D01*
X17000Y24750D02*
X18750Y26500D01*
X24250Y23250D02*
X25500D01*
X12500Y25000D02*
X12500Y25000D01*
X11750Y25000D02*
X12500D01*
X11750Y35000D02*
X12500D01*
X12500Y45000D02*
X12500Y45000D01*
X11750Y45000D02*
X12500D01*
X25500Y27250D02*
X26000Y26750D01*
X64500Y27250D02*
X65000Y26750D01*
X51500Y27250D02*
X52000Y26750D01*
X38500Y27250D02*
X39000Y26750D01*
X117250Y17500D02*
X117500Y17750D01*
X117250Y16225D02*
Y17500D01*
X108250Y26500D02*
X110500Y24250D01*
X111500Y19750D02*
X112750Y21000D01*
X111000Y21750D02*
X111250Y22000D01*
X113275Y10750D02*
X114265D01*
X116250Y23250D02*
Y25000D01*
X114324Y11750D02*
X114533Y11541D01*
X112750Y21000D02*
X114000D01*
X114533Y10496D02*
Y11019D01*
X113275Y11750D02*
X114324D01*
X114265Y10750D02*
X114533Y11019D01*
X114010Y10250D02*
X114287D01*
X114000Y21000D02*
X116250Y23250D01*
X114533Y11019D02*
Y11541D01*
X114287Y10250D02*
X114533Y10496D01*
X124250Y22000D02*
X129000D01*
X130250Y23250D01*
Y33500D01*
X122500Y18750D02*
Y21750D01*
X123750Y23000D02*
X127750D01*
X122500Y21750D02*
X123750Y23000D01*
X129700Y34050D02*
X130250Y33500D01*
X121725Y13750D02*
X123000D01*
X127750Y23000D02*
X128750Y24000D01*
X108250Y26500D02*
Y33750D01*
X111250Y34500D02*
X111250Y34500D01*
X109000Y34500D02*
X111250D01*
X108250Y33750D02*
X109000Y34500D01*
X117250Y3500D02*
Y5000D01*
X111250Y31500D02*
X111250Y31500D01*
X112750D01*
X59250Y15500D02*
X59750Y16000D01*
X43000Y16000D02*
X43500Y15500D01*
X33250D02*
X33750Y16000D01*
X30500Y15500D02*
X31750D01*
X56750Y17000D02*
X57250D01*
X56750Y17000D02*
X56750Y17000D01*
X52530Y18030D02*
X53530Y17030D01*
X46750Y17000D02*
X48025Y18275D01*
X43750Y17000D02*
X43750Y17000D01*
X30750D02*
X31250D01*
X30750Y17000D02*
X30750Y17000D01*
X64826Y20000D02*
X65750D01*
X63875Y19525D02*
X64036D01*
X56750Y20000D02*
X57250D01*
X57250Y20000D01*
X50875Y20175D02*
X51651D01*
X51826Y20000D01*
X50875Y19525D02*
X51036D01*
X38651Y20175D02*
X38826Y20000D01*
X39750D01*
X30750D02*
X31250D01*
X31250Y20000D01*
X58750Y21500D02*
X59425Y20825D01*
X60125D01*
X59964Y21475D02*
X60125D01*
X58250Y21500D02*
X58250Y21500D01*
X46425Y20825D02*
X47125D01*
X46964Y21475D02*
X47125D01*
X45250Y21500D02*
X45250Y21500D01*
X45250Y21500D02*
X45750D01*
X43000Y20750D02*
X43750Y21500D01*
X32250D02*
X32250Y21500D01*
X32750Y21500D02*
X33425Y20825D01*
X32250Y21500D02*
X32750D01*
X62975Y22975D02*
X63250Y23250D01*
X54250Y23750D02*
X54250Y23750D01*
X51500Y23250D02*
X52000Y23750D01*
X43000Y24250D02*
X43750Y23500D01*
X41250Y23750D02*
X41250Y23750D01*
X38500Y23250D02*
X39000Y23750D01*
X36975Y22975D02*
X37250Y23250D01*
X57750Y25250D02*
Y25250D01*
X58030Y25530D01*
X44750Y25250D02*
Y25250D01*
X45030Y25530D01*
X31750Y25250D02*
Y25250D01*
X61825Y30775D02*
Y31990D01*
X48825Y30775D02*
Y31990D01*
X35825Y30775D02*
Y31990D01*
X22825Y30775D02*
Y31990D01*
X45500Y33750D02*
Y33750D01*
X32500Y33750D02*
Y33750D01*
X18000D02*
X19500D01*
Y33750D02*
Y33750D01*
X49475Y35225D02*
Y36318D01*
Y35225D02*
X50044D01*
X47500Y35250D02*
X47525Y35225D01*
X44000Y35250D02*
X44000Y35250D01*
X43250Y35250D02*
X44000D01*
X36475Y35225D02*
Y36318D01*
Y35225D02*
X37044D01*
X35175D02*
Y36232D01*
X34500Y35250D02*
X34525Y35225D01*
X31000Y35250D02*
X31000Y35250D01*
X30250Y35250D02*
X31000D01*
X23475Y35225D02*
Y36318D01*
X22175Y35225D02*
Y36232D01*
X21500Y35250D02*
X21525Y35225D01*
X18000Y35250D02*
X18000Y35250D01*
X64000Y37100D02*
Y37750D01*
X51000Y37100D02*
Y37750D01*
X38000Y37100D02*
Y37750D01*
X25000Y37100D02*
Y37750D01*
X47300Y40385D02*
X47500Y40185D01*
Y39250D02*
Y40185D01*
X34300Y40385D02*
X34500Y40185D01*
Y39250D02*
Y40185D01*
X21300Y40385D02*
X21500Y40185D01*
Y39250D02*
Y40185D01*
X56000Y16000D02*
X56500Y15500D01*
X57750D01*
X43500D02*
X44750D01*
X46250D02*
X46750Y16000D01*
X30000Y16000D02*
X30500Y15500D01*
X65530Y18030D02*
X66530Y17030D01*
X59750Y17000D02*
X61025Y18275D01*
X39530Y18030D02*
X40530Y17030D01*
X43750Y17000D02*
X44250D01*
X33750Y17000D02*
X35025Y18275D01*
X63875Y20175D02*
X64651D01*
X64826Y20000D01*
X51826D02*
X52750D01*
X43750D02*
X44250D01*
X44250Y20000D01*
X37875Y20175D02*
X38651D01*
X37875Y19525D02*
X38036D01*
X56000Y20750D02*
X56750Y21500D01*
X58250D02*
X58750D01*
X45750D02*
X46425Y20825D01*
X33425D02*
X34125D01*
X33964Y21475D02*
X34125D01*
X30000Y20750D02*
X30750Y21500D01*
X64500Y23250D02*
X65000Y23750D01*
X56000Y24250D02*
X56750Y23500D01*
X59311Y24250D02*
X61000D01*
X49975Y22975D02*
X50250Y23250D01*
X51500D01*
X33311Y24250D02*
X35000D01*
X37250Y23250D02*
X38500D01*
X30000Y24250D02*
X30750Y23500D01*
X59000Y25750D02*
X61000D01*
X33000D02*
X35000D01*
X31750Y25250D02*
X32030Y25530D01*
X57000Y33750D02*
X58500D01*
Y33750D02*
Y33750D01*
Y33750D02*
X60065D01*
X44000Y33750D02*
X45500D01*
Y33750D02*
X47065D01*
X32500D02*
X34065D01*
X19500D02*
X21065D01*
X58500Y35250D02*
X60500D01*
X60525Y35225D01*
X62475D02*
X63044D01*
X48175D02*
Y36232D01*
X32500Y35250D02*
X34500D01*
X23475Y35225D02*
X24044D01*
X17250Y35250D02*
X18000D01*
X19500D02*
X21500D01*
X49000Y37750D02*
X51000D01*
X36000D02*
X38000D01*
X60300Y40385D02*
X60500Y40185D01*
Y39250D02*
Y40185D01*
X63250Y23250D02*
X64500D01*
X46311Y24250D02*
X48000D01*
X46000Y25750D02*
X48000D01*
X31000Y33750D02*
X32500D01*
X45500Y35250D02*
X47500D01*
X62000Y37750D02*
X64000D01*
X23000D02*
X25000D01*
X62975Y18464D02*
Y18625D01*
X61025Y18275D02*
Y18625D01*
X59750Y16000D02*
Y17000D01*
X56750Y17000D02*
Y18500D01*
X49975Y18464D02*
Y18625D01*
X48025Y18275D02*
Y18625D01*
X46750Y16000D02*
Y17000D01*
X43750Y17000D02*
Y18500D01*
X36975Y18464D02*
Y18625D01*
X35025Y18275D02*
Y18625D01*
X33750Y16000D02*
Y17000D01*
X30750Y17000D02*
Y18500D01*
X65000Y23750D02*
Y26750D01*
X62975Y22375D02*
Y22975D01*
X61000Y22400D02*
Y24250D01*
Y22400D02*
X61025Y22375D01*
X59030Y24530D02*
X59311Y24250D01*
X57750Y26500D02*
X58250D01*
X56750Y21500D02*
Y23500D01*
X58250Y20000D02*
Y21500D01*
X54250Y20000D02*
Y23750D01*
X52000Y23750D02*
Y26750D01*
X49975Y22375D02*
Y22975D01*
X48000Y22400D02*
Y24250D01*
Y22400D02*
X48025Y22375D01*
X44750Y26500D02*
X45250D01*
X46000Y25750D01*
X45250Y20000D02*
Y21500D01*
X43000Y24250D02*
Y24750D01*
X43750Y21500D02*
Y23500D01*
X41250Y20000D02*
Y23750D01*
X39000Y23750D02*
Y26750D01*
X36975Y22375D02*
Y22975D01*
X35000Y22400D02*
Y24250D01*
Y22400D02*
X35025Y22375D01*
X32250Y26500D02*
X33000Y25750D01*
X32250Y20000D02*
Y21500D01*
X33030Y24530D02*
X33311Y24250D01*
X30750Y21500D02*
Y23500D01*
X63044Y35225D02*
X63619Y34650D01*
X50619D02*
X52000D01*
X49000Y36793D02*
X49475Y36318D01*
X37044Y35225D02*
X37619Y34650D01*
X34500Y36907D02*
X35175Y36232D01*
X24044Y35225D02*
X24619Y34650D01*
X23000Y36793D02*
X23475Y36318D01*
X60300Y40385D02*
Y41625D01*
X47300Y40385D02*
Y41625D01*
X34300Y40385D02*
Y41625D01*
X21300Y40385D02*
Y41625D01*
X49975Y18464D02*
X51470Y16970D01*
X36975Y18464D02*
X38470Y16970D01*
X58250Y26500D02*
X59000Y25750D01*
X56970Y24470D02*
X59964Y21475D01*
X43000Y24750D02*
X44750Y26500D01*
X46030Y24530D02*
X46311Y24250D01*
X43970Y24470D02*
X46964Y21475D01*
X31750Y26500D02*
X32250D01*
X30000Y24250D02*
Y24750D01*
X60065Y33750D02*
X61825Y31990D01*
X50044Y35225D02*
X50619Y34650D01*
X47500Y36907D02*
X48175Y36232D01*
X36000Y36793D02*
X36475Y36318D01*
X37619Y34650D02*
X39000D01*
X34065Y33750D02*
X35825Y31990D01*
X24619Y34650D02*
X26000D01*
X21500Y36907D02*
X22175Y36232D01*
X62975Y18464D02*
X64470Y16970D01*
X30000Y24750D02*
X31750Y26500D01*
X63619Y34650D02*
X65000D01*
X47065Y33750D02*
X48825Y31990D01*
X21065Y33750D02*
X22825Y31990D01*
X56000Y16000D02*
Y20750D01*
X43000Y16000D02*
Y20750D01*
X49000Y36793D02*
Y37750D01*
X47500Y36907D02*
Y39250D01*
X34500Y36907D02*
Y39250D01*
X23000Y36793D02*
Y37750D01*
X21500Y36907D02*
Y39250D01*
X64036Y19525D02*
X65530Y18030D01*
X51036Y19525D02*
X52530Y18030D01*
X30000Y16000D02*
Y20750D01*
X36000Y36793D02*
Y37750D01*
X38036Y19525D02*
X39530Y18030D01*
D17*
X89825Y9750D02*
D03*
X92365D02*
D03*
X91095Y5250D02*
D03*
X93635D02*
D03*
X96175D02*
D03*
X94905Y9750D02*
D03*
X89825Y21750D02*
D03*
X92365D02*
D03*
X91095Y17250D02*
D03*
X93635D02*
D03*
X96175D02*
D03*
X94905Y21750D02*
D03*
Y33750D02*
D03*
X96175Y29250D02*
D03*
X93635D02*
D03*
X91095D02*
D03*
X92365Y33750D02*
D03*
X89825D02*
D03*
X94905Y45750D02*
D03*
X96175Y41250D02*
D03*
X93635D02*
D03*
X91095D02*
D03*
X92365Y45750D02*
D03*
X89825D02*
D03*
D18*
X10250Y45000D02*
D03*
X11750D02*
D03*
X10250Y35000D02*
D03*
X11750D02*
D03*
X10250Y25000D02*
D03*
X11750D02*
D03*
X10250Y15000D02*
D03*
X11750D02*
D03*
X79250Y40000D02*
D03*
X80750D02*
D03*
X107500Y8750D02*
D03*
X109000D02*
D03*
X107500Y7250D02*
D03*
X109000D02*
D03*
X107500Y5750D02*
D03*
X109000D02*
D03*
X107500Y4250D02*
D03*
X109000D02*
D03*
X109750Y31500D02*
D03*
X111250D02*
D03*
Y34500D02*
D03*
X112750D02*
D03*
Y33000D02*
D03*
X114250D02*
D03*
X112750Y23500D02*
D03*
X111250D02*
D03*
X127250Y30000D02*
D03*
X128750D02*
D03*
X127250Y24000D02*
D03*
X128750D02*
D03*
X123250Y30000D02*
D03*
X121750D02*
D03*
X120250Y32000D02*
D03*
X118750D02*
D03*
X118750Y35000D02*
D03*
X120250D02*
D03*
X121750D02*
D03*
X123250D02*
D03*
X77250Y36500D02*
D03*
X75750D02*
D03*
X75750Y15500D02*
D03*
X77250D02*
D03*
X77250Y17000D02*
D03*
X75750D02*
D03*
X60500Y39250D02*
D03*
X62000D02*
D03*
X47500D02*
D03*
X49000D02*
D03*
X34500D02*
D03*
X36000D02*
D03*
X23000D02*
D03*
X21500D02*
D03*
X44750Y15500D02*
D03*
X46250D02*
D03*
X31750D02*
D03*
X33250D02*
D03*
X20250D02*
D03*
X18750D02*
D03*
X65750Y20000D02*
D03*
X67250D02*
D03*
X52750D02*
D03*
X54250D02*
D03*
X39750D02*
D03*
X41250D02*
D03*
X28250D02*
D03*
X26750D02*
D03*
X58250Y21500D02*
D03*
X56750D02*
D03*
X45250D02*
D03*
X43750D02*
D03*
X32250D02*
D03*
X30750D02*
D03*
X17750D02*
D03*
X19250D02*
D03*
X57750Y15500D02*
D03*
X59250D02*
D03*
X55000Y11000D02*
D03*
X53500D02*
D03*
X45000D02*
D03*
X43500D02*
D03*
X35000D02*
D03*
X33500D02*
D03*
X23500D02*
D03*
X25000D02*
D03*
X80750Y11250D02*
D03*
X79250D02*
D03*
X117250Y5000D02*
D03*
X118750D02*
D03*
X117250Y3500D02*
D03*
X118750D02*
D03*
X109750Y33000D02*
D03*
X111250D02*
D03*
X112750Y31500D02*
D03*
X114250D02*
D03*
X112750Y22000D02*
D03*
X111250D02*
D03*
X109750Y30000D02*
D03*
X111250D02*
D03*
X121750Y32000D02*
D03*
X123250D02*
D03*
X121750Y33500D02*
D03*
X123250D02*
D03*
X120250Y33500D02*
D03*
X118750D02*
D03*
X77250Y35000D02*
D03*
X75750D02*
D03*
X64000Y42000D02*
D03*
X65500D02*
D03*
X51000D02*
D03*
X52500D02*
D03*
X38000D02*
D03*
X39500D02*
D03*
X26500D02*
D03*
X25000D02*
D03*
X60500Y37750D02*
D03*
X62000D02*
D03*
X47500D02*
D03*
X49000D02*
D03*
X34500D02*
D03*
X36000D02*
D03*
X23000D02*
D03*
X21500D02*
D03*
X58250Y20000D02*
D03*
X56750D02*
D03*
X45250D02*
D03*
X43750D02*
D03*
X32250D02*
D03*
X30750D02*
D03*
X17750D02*
D03*
X19250D02*
D03*
X65750Y21500D02*
D03*
X67250D02*
D03*
X52750D02*
D03*
X54250D02*
D03*
X39750D02*
D03*
X41250D02*
D03*
X28250D02*
D03*
X26750D02*
D03*
X62500Y24250D02*
D03*
X64000D02*
D03*
X49500D02*
D03*
X51000D02*
D03*
X36500D02*
D03*
X38000D02*
D03*
X25000D02*
D03*
X23500D02*
D03*
X65750Y23000D02*
D03*
X67250D02*
D03*
X52750D02*
D03*
X54250D02*
D03*
X39750D02*
D03*
X41250D02*
D03*
X28250D02*
D03*
X26750D02*
D03*
X62500Y25750D02*
D03*
X64000D02*
D03*
X49500D02*
D03*
X51000D02*
D03*
X36500D02*
D03*
X38000D02*
D03*
X25000D02*
D03*
X23500D02*
D03*
X58250Y18500D02*
D03*
X56750D02*
D03*
X45250D02*
D03*
X43750D02*
D03*
X32250D02*
D03*
X30750D02*
D03*
X17750D02*
D03*
X19250D02*
D03*
X61250Y15000D02*
D03*
X62750D02*
D03*
X48250D02*
D03*
X49750D02*
D03*
X35250D02*
D03*
X36750D02*
D03*
X23750D02*
D03*
X22250D02*
D03*
X58250Y17000D02*
D03*
X56750D02*
D03*
X45250D02*
D03*
X43750D02*
D03*
X32250D02*
D03*
X30750D02*
D03*
X17750D02*
D03*
X19250D02*
D03*
X61250Y16500D02*
D03*
X62750D02*
D03*
X48250D02*
D03*
X49750D02*
D03*
X35250D02*
D03*
X36750D02*
D03*
X23750D02*
D03*
X22250D02*
D03*
D19*
X70000Y48250D02*
D03*
Y49750D02*
D03*
X55000D02*
D03*
Y48250D02*
D03*
X45000Y49750D02*
D03*
Y48250D02*
D03*
X35000Y49750D02*
D03*
Y48250D02*
D03*
X25000Y49750D02*
D03*
Y48250D02*
D03*
X70000Y6000D02*
D03*
Y7500D02*
D03*
X72500Y28250D02*
D03*
Y29750D02*
D03*
X74000Y28250D02*
D03*
Y29750D02*
D03*
X115500Y3500D02*
D03*
Y5000D02*
D03*
X116250Y26250D02*
D03*
Y27750D02*
D03*
X125250Y26250D02*
D03*
Y27750D02*
D03*
X74000Y31250D02*
D03*
Y32750D02*
D03*
X72500Y32750D02*
D03*
Y31250D02*
D03*
X83500Y15250D02*
D03*
Y16750D02*
D03*
X82000Y15250D02*
D03*
Y16750D02*
D03*
X80500Y15250D02*
D03*
Y16750D02*
D03*
X79000Y15250D02*
D03*
Y16750D02*
D03*
X58500Y35250D02*
D03*
Y33750D02*
D03*
X45500Y35250D02*
D03*
Y33750D02*
D03*
X32500Y35250D02*
D03*
Y33750D02*
D03*
X19500D02*
D03*
Y35250D02*
D03*
X57000Y33750D02*
D03*
Y35250D02*
D03*
X44000Y33750D02*
D03*
Y35250D02*
D03*
X31000Y33750D02*
D03*
Y35250D02*
D03*
X18000D02*
D03*
Y33750D02*
D03*
X71500Y7500D02*
D03*
Y6000D02*
D03*
X73000Y7500D02*
D03*
Y6000D02*
D03*
X71500Y9500D02*
D03*
Y11000D02*
D03*
X114000Y5000D02*
D03*
Y3500D02*
D03*
X73000Y9500D02*
D03*
Y11000D02*
D03*
X86500Y56500D02*
D03*
Y58000D02*
D03*
Y51000D02*
D03*
Y52500D02*
D03*
X114750Y26250D02*
D03*
Y27750D02*
D03*
X118250Y26250D02*
D03*
Y27750D02*
D03*
X119750Y26250D02*
D03*
Y27750D02*
D03*
X83500Y20750D02*
D03*
Y19250D02*
D03*
X82000Y20750D02*
D03*
Y19250D02*
D03*
X72500Y23250D02*
D03*
Y24750D02*
D03*
X74000Y23250D02*
D03*
Y24750D02*
D03*
X58500Y30750D02*
D03*
Y32250D02*
D03*
X45500Y30750D02*
D03*
Y32250D02*
D03*
X32500Y30750D02*
D03*
Y32250D02*
D03*
X19500D02*
D03*
Y30750D02*
D03*
X57000D02*
D03*
Y32250D02*
D03*
X44000Y30750D02*
D03*
Y32250D02*
D03*
X31000Y30750D02*
D03*
Y32250D02*
D03*
X18000D02*
D03*
Y30750D02*
D03*
X61000Y24250D02*
D03*
Y25750D02*
D03*
X48000Y24250D02*
D03*
Y25750D02*
D03*
X35000Y24250D02*
D03*
Y25750D02*
D03*
X22000D02*
D03*
Y24250D02*
D03*
D20*
X77450Y41375D02*
D03*
X76500D02*
D03*
X75550D02*
D03*
Y38625D02*
D03*
X77450D02*
D03*
X111050Y25625D02*
D03*
X112000D02*
D03*
X112950D02*
D03*
Y28375D02*
D03*
X111050D02*
D03*
X62200Y41625D02*
D03*
X60300D02*
D03*
Y44375D02*
D03*
X61250D02*
D03*
X62200D02*
D03*
X49200Y41625D02*
D03*
X47300D02*
D03*
Y44375D02*
D03*
X48250D02*
D03*
X49200D02*
D03*
X36200Y41625D02*
D03*
X34300D02*
D03*
Y44375D02*
D03*
X35250D02*
D03*
X36200D02*
D03*
X23200D02*
D03*
X22250D02*
D03*
X21300D02*
D03*
Y41625D02*
D03*
X23200D02*
D03*
X128000Y28200D02*
D03*
X128950Y25800D02*
D03*
X127050D02*
D03*
X123450Y28200D02*
D03*
X121550D02*
D03*
X122500Y25800D02*
D03*
D21*
X125000Y10000D02*
D03*
X132000D02*
D03*
Y4000D02*
D03*
X125000D02*
D03*
X128500Y10000D02*
D03*
Y4000D02*
D03*
D22*
X84900Y58000D02*
D03*
X83100D02*
D03*
X81150Y41750D02*
D03*
X79350D02*
D03*
X84900Y52500D02*
D03*
X83100D02*
D03*
X25100Y43750D02*
D03*
X26900D02*
D03*
X61100Y13250D02*
D03*
X62900D02*
D03*
X65900Y43750D02*
D03*
X64100D02*
D03*
X52900D02*
D03*
X51100D02*
D03*
X39900D02*
D03*
X38100D02*
D03*
X107350Y16750D02*
D03*
X109150D02*
D03*
X107350Y10750D02*
D03*
X109150D02*
D03*
D23*
X88500Y52600D02*
D03*
Y49900D02*
D03*
Y58100D02*
D03*
Y55400D02*
D03*
D24*
X133170Y32500D02*
D03*
Y38500D02*
D03*
Y26500D02*
D03*
X106830Y38500D02*
D03*
Y26500D02*
D03*
Y32500D02*
D03*
D25*
X133170Y44385D02*
D03*
Y20615D02*
D03*
X106830Y44385D02*
D03*
Y20615D02*
D03*
D26*
X131885Y45670D02*
D03*
X108115D02*
D03*
Y19330D02*
D03*
X131885D02*
D03*
D27*
X126000Y45670D02*
D03*
X114000D02*
D03*
X120000D02*
D03*
X114000Y19330D02*
D03*
X126000D02*
D03*
X120000D02*
D03*
D28*
X79750Y35100D02*
D03*
X82250D02*
D03*
X64000Y37100D02*
D03*
X66500D02*
D03*
X51000D02*
D03*
X53500D02*
D03*
X38000D02*
D03*
X40500D02*
D03*
X27500D02*
D03*
X25000D02*
D03*
D29*
X81000Y38000D02*
D03*
X65250Y40000D02*
D03*
X52250D02*
D03*
X39250D02*
D03*
X26250D02*
D03*
D30*
X80925Y5225D02*
D03*
Y5875D02*
D03*
Y6525D02*
D03*
Y7175D02*
D03*
Y7825D02*
D03*
Y8475D02*
D03*
Y9125D02*
D03*
Y9775D02*
D03*
X75075Y5225D02*
D03*
Y5875D02*
D03*
Y6525D02*
D03*
Y7175D02*
D03*
Y7825D02*
D03*
Y8475D02*
D03*
Y9125D02*
D03*
Y9775D02*
D03*
D31*
X107600Y12650D02*
D03*
X108250D02*
D03*
X108900D02*
D03*
Y14850D02*
D03*
X107600D02*
D03*
D32*
X66500Y24600D02*
D03*
Y26400D02*
D03*
D33*
X113275Y9250D02*
D03*
Y9750D02*
D03*
Y10250D02*
D03*
Y10750D02*
D03*
Y11250D02*
D03*
Y11750D02*
D03*
Y12250D02*
D03*
Y12750D02*
D03*
Y13250D02*
D03*
Y13750D02*
D03*
Y14250D02*
D03*
Y14750D02*
D03*
X121725D02*
D03*
Y14250D02*
D03*
Y13750D02*
D03*
Y13250D02*
D03*
Y12750D02*
D03*
Y12250D02*
D03*
Y11750D02*
D03*
Y11250D02*
D03*
Y10750D02*
D03*
Y10250D02*
D03*
Y9750D02*
D03*
Y9250D02*
D03*
D34*
X114750Y16225D02*
D03*
X115250D02*
D03*
X115750D02*
D03*
X116250D02*
D03*
X116750D02*
D03*
X117250D02*
D03*
X117750D02*
D03*
X118250D02*
D03*
X118750D02*
D03*
X119250D02*
D03*
X119750D02*
D03*
X120250D02*
D03*
Y7775D02*
D03*
X119750D02*
D03*
X119250D02*
D03*
X118750D02*
D03*
X118250D02*
D03*
X117750D02*
D03*
X117250D02*
D03*
X116750D02*
D03*
X116250D02*
D03*
X115750D02*
D03*
X115250D02*
D03*
X114750D02*
D03*
D35*
X102750Y57000D02*
D03*
Y55000D02*
D03*
Y51000D02*
D03*
X93250Y57000D02*
D03*
Y55000D02*
D03*
Y53000D02*
D03*
D36*
X76025Y28275D02*
D03*
X76675D02*
D03*
X77325D02*
D03*
X77975D02*
D03*
X76025Y32725D02*
D03*
X76675D02*
D03*
X77325D02*
D03*
X77975D02*
D03*
X62475Y35225D02*
D03*
X61825D02*
D03*
X61175D02*
D03*
X60525D02*
D03*
X62475Y30775D02*
D03*
X61825D02*
D03*
X61175D02*
D03*
X60525D02*
D03*
X49475Y35225D02*
D03*
X48825D02*
D03*
X48175D02*
D03*
X47525D02*
D03*
X49475Y30775D02*
D03*
X48825D02*
D03*
X48175D02*
D03*
X47525D02*
D03*
X36475Y35225D02*
D03*
X35825D02*
D03*
X35175D02*
D03*
X34525D02*
D03*
X36475Y30775D02*
D03*
X35825D02*
D03*
X35175D02*
D03*
X34525D02*
D03*
X21525D02*
D03*
X22175D02*
D03*
X22825D02*
D03*
X23475D02*
D03*
X21525Y35225D02*
D03*
X22175D02*
D03*
X22825D02*
D03*
X23475D02*
D03*
D37*
X79905Y24725D02*
D03*
X78635D02*
D03*
X77365D02*
D03*
X76095D02*
D03*
X79905Y19275D02*
D03*
X78635D02*
D03*
X77365D02*
D03*
X76095D02*
D03*
D38*
X60125Y21475D02*
D03*
Y20825D02*
D03*
Y20175D02*
D03*
Y19525D02*
D03*
X63875Y21475D02*
D03*
Y19525D02*
D03*
Y20175D02*
D03*
Y20825D02*
D03*
X47125Y21475D02*
D03*
Y20825D02*
D03*
Y20175D02*
D03*
Y19525D02*
D03*
X50875Y21475D02*
D03*
Y19525D02*
D03*
Y20175D02*
D03*
Y20825D02*
D03*
X34125Y21475D02*
D03*
Y20825D02*
D03*
Y20175D02*
D03*
Y19525D02*
D03*
X37875Y21475D02*
D03*
Y19525D02*
D03*
Y20175D02*
D03*
Y20825D02*
D03*
X24875D02*
D03*
Y20175D02*
D03*
Y19525D02*
D03*
Y21475D02*
D03*
X21125Y19525D02*
D03*
Y20175D02*
D03*
Y20825D02*
D03*
Y21475D02*
D03*
D39*
X62975Y22375D02*
D03*
X62325D02*
D03*
X61675D02*
D03*
X61025D02*
D03*
Y18625D02*
D03*
X61675D02*
D03*
X62325D02*
D03*
X62975D02*
D03*
X49975Y22375D02*
D03*
X49325D02*
D03*
X48675D02*
D03*
X48025D02*
D03*
Y18625D02*
D03*
X48675D02*
D03*
X49325D02*
D03*
X49975D02*
D03*
X36975Y22375D02*
D03*
X36325D02*
D03*
X35675D02*
D03*
X35025D02*
D03*
Y18625D02*
D03*
X35675D02*
D03*
X36325D02*
D03*
X36975D02*
D03*
X23975D02*
D03*
X23325D02*
D03*
X22675D02*
D03*
X22025D02*
D03*
Y22375D02*
D03*
X22675D02*
D03*
X23325D02*
D03*
X23975D02*
D03*
D40*
X62000Y20500D02*
D03*
X49000D02*
D03*
X36000D02*
D03*
X23000D02*
D03*
D41*
X56970Y24470D02*
D03*
X58030Y25530D02*
D03*
X43970Y24470D02*
D03*
X45030Y25530D02*
D03*
X30970Y24470D02*
D03*
X32030Y25530D02*
D03*
X64470Y16970D02*
D03*
X65530Y18030D02*
D03*
X51470Y16970D02*
D03*
X52530Y18030D02*
D03*
X38470Y16970D02*
D03*
X39530Y18030D02*
D03*
X26530D02*
D03*
X25470Y16970D02*
D03*
X19030Y25530D02*
D03*
X17970Y24470D02*
D03*
X59030Y24530D02*
D03*
X57970Y23470D02*
D03*
X46030Y24530D02*
D03*
X44970Y23470D02*
D03*
X33030Y24530D02*
D03*
X31970Y23470D02*
D03*
X18970D02*
D03*
X20030Y24530D02*
D03*
X66530Y17030D02*
D03*
X65470Y15970D02*
D03*
X53530Y17030D02*
D03*
X52470Y15970D02*
D03*
X40530Y17030D02*
D03*
X39470Y15970D02*
D03*
X26470D02*
D03*
X27530Y17030D02*
D03*
D42*
X129700Y34050D02*
D03*
Y35950D02*
D03*
X127300Y35000D02*
D03*
D43*
X65000Y31350D02*
D03*
Y34650D02*
D03*
X52000Y31350D02*
D03*
Y34650D02*
D03*
X39000Y31350D02*
D03*
Y34650D02*
D03*
X26000D02*
D03*
Y31350D02*
D03*
X80500Y28850D02*
D03*
Y32150D02*
D03*
D44*
X128500Y38750D02*
D03*
Y42250D02*
D03*
D45*
X123825Y38500D02*
D03*
X120175D02*
D03*
D46*
X109250Y55475D02*
D03*
Y52525D02*
D03*
X119750D02*
D03*
Y55475D02*
D03*
D85*
X66600Y26500D02*
G03*
X66500Y26400I0J-100D01*
G01*
X72540Y52460D02*
Y57540D01*
X67460D02*
X72540D01*
X67460Y52460D02*
Y57540D01*
X57540Y52460D02*
Y57540D01*
X52460D02*
X57540D01*
X52460Y52460D02*
Y57540D01*
X47540Y52460D02*
Y57540D01*
X42460D02*
X47540D01*
X42460Y52460D02*
Y57540D01*
X37540Y52460D02*
Y57540D01*
X32460D02*
X37540D01*
X32460Y52460D02*
Y57540D01*
X27540Y52460D02*
Y57540D01*
X22460D02*
X27540D01*
X22460Y52460D02*
Y57540D01*
X2460Y47540D02*
X7540D01*
X2460Y42460D02*
Y47540D01*
Y42460D02*
X7540D01*
X2460Y37540D02*
X7540D01*
X2460Y32460D02*
Y37540D01*
Y32460D02*
X7540D01*
X2460Y27540D02*
X7540D01*
X2460Y22460D02*
Y27540D01*
Y22460D02*
X7540D01*
X2460Y17540D02*
X7540D01*
X2460Y12460D02*
Y17540D01*
Y12460D02*
X7540D01*
X57540Y2460D02*
Y7540D01*
X52460Y2460D02*
X57540D01*
X52460D02*
Y7540D01*
X47540Y2460D02*
Y7540D01*
X42460Y2460D02*
X47540D01*
X42460D02*
Y7540D01*
X37540Y2460D02*
Y7540D01*
X32460Y2460D02*
X37540D01*
X32460D02*
Y7540D01*
X27540Y2460D02*
Y7540D01*
X22460Y2460D02*
X27540D01*
X22460D02*
Y7540D01*
X76500Y40500D02*
X76500Y40500D01*
X76500Y40500D02*
Y41375D01*
X32750Y11000D02*
X32750Y11000D01*
X33500D01*
X36175Y17925D02*
X36325Y18075D01*
X35675Y22375D02*
Y22850D01*
X36325Y22375D02*
Y23075D01*
Y18075D02*
Y18625D01*
X35675Y17925D02*
X36175D01*
X35675D02*
Y18625D01*
Y22850D02*
X35900Y23075D01*
X36325D01*
X42750Y11000D02*
X42750Y11000D01*
X43500D01*
X77250Y37250D02*
X77250Y37250D01*
X77250Y36500D02*
Y37250D01*
X22750Y11000D02*
X22750Y11000D01*
X23500D01*
X71500D02*
X73000D01*
X70500D02*
X71500D01*
X70500Y11000D02*
X70500Y11000D01*
X112000Y24250D02*
Y25625D01*
Y24250D02*
X112750Y23500D01*
X112750Y22000D02*
Y23500D01*
Y22000D02*
X112750Y22000D01*
X113500D01*
X109000Y33000D02*
X109000Y33000D01*
X109750D01*
X109000Y31500D02*
X109000Y31500D01*
X109750D01*
X109000Y30000D02*
X109000Y30000D01*
X109750D01*
X130950Y35950D02*
X131000Y36000D01*
X129700Y35950D02*
X130950D01*
X129450Y25800D02*
X129500Y25750D01*
X128950Y25800D02*
X129450D01*
X119750Y28500D02*
X119750Y28500D01*
Y27750D02*
Y28500D01*
X118250Y28500D02*
X118250Y28500D01*
Y27750D02*
Y28500D01*
X120250Y33500D02*
X121750D01*
X121750Y33500D01*
X121000Y32000D02*
X121750D01*
X120250D02*
X121000D01*
X72500Y29750D02*
X74000D01*
X71750D02*
X72500D01*
X62500Y25750D02*
X62500Y25750D01*
Y26500D01*
X49500Y25750D02*
X49500Y25750D01*
Y26500D01*
X36500Y25750D02*
X36500Y25750D01*
Y26500D01*
X23500Y25750D02*
X23500Y25750D01*
Y26500D01*
X11750Y15000D02*
X11750Y15000D01*
X12500D01*
X61100Y13250D02*
X61250Y13400D01*
Y15000D01*
X61000Y13150D02*
X61100Y13250D01*
X61000Y12000D02*
Y13150D01*
X48250Y15000D02*
X48250Y15000D01*
Y14250D02*
Y15000D01*
X35250Y15000D02*
X35250Y15000D01*
Y14250D02*
Y15000D01*
X22250Y15000D02*
X22250Y15000D01*
Y14250D02*
Y15000D01*
X71000Y16750D02*
Y32000D01*
X71750Y32750D02*
X72500D01*
X71000Y32000D02*
X71750Y32750D01*
X71000Y16750D02*
X79275Y8475D01*
X80925D01*
X119500Y5000D02*
X119500Y5000D01*
X118750Y5000D02*
X119500D01*
Y3500D02*
X119500Y3500D01*
X118750Y3500D02*
X119500D01*
X113250Y3500D02*
X113250Y3500D01*
X114000D01*
X100750Y38500D02*
Y41000D01*
Y18500D02*
Y36500D01*
X94905Y9750D02*
X96000D01*
X101500Y4250D02*
X107500D01*
X96000Y9750D02*
X101500Y4250D01*
X95250Y21750D02*
X96000D01*
X101250Y16500D01*
X104000D01*
X94905Y21750D02*
X95250D01*
X100250Y18250D02*
Y29500D01*
X101500Y17000D02*
X104250D01*
X100250Y18250D02*
X101500Y17000D01*
X100750Y18500D02*
X101750Y17500D01*
X104457D01*
X96000Y33750D02*
X100250Y29500D01*
X94905Y33750D02*
X96000D01*
X94905Y45750D02*
X96000D01*
X100750Y41000D01*
X91095Y3500D02*
Y5250D01*
Y15500D02*
Y17250D01*
Y27500D02*
Y29250D01*
Y39500D02*
Y41250D01*
X93635Y3500D02*
Y5250D01*
Y15500D02*
Y17250D01*
Y27500D02*
Y29250D01*
Y39500D02*
Y41250D01*
X96175Y3500D02*
Y5250D01*
Y15500D02*
Y17250D01*
Y27500D02*
Y29250D01*
Y39500D02*
Y41250D01*
X81250Y40500D02*
Y42750D01*
X80750Y40000D02*
X81250Y40500D01*
X77325Y31500D02*
Y32725D01*
X80500Y28000D02*
Y28850D01*
X77975Y28275D02*
X78000Y28250D01*
X78500D01*
X23500Y30750D02*
X24000D01*
X23475Y30775D02*
X23500Y30750D01*
X36500D02*
X37000D01*
X49500D02*
X50000D01*
X62500D02*
X63000D01*
X81000Y38000D02*
X82250D01*
X82250Y36250D02*
X82250Y36250D01*
X82250Y35100D02*
Y36250D01*
X62000Y40000D02*
X62000Y40000D01*
Y39250D02*
Y40000D01*
X49000Y40000D02*
X49000Y40000D01*
Y39250D02*
Y40000D01*
X36000Y40000D02*
X36000Y40000D01*
Y39250D02*
Y40000D01*
X23000Y40000D02*
X23000Y40000D01*
Y39250D02*
Y40000D01*
X26250Y40000D02*
X27500D01*
X39250D02*
X40500D01*
X52250D02*
X53500D01*
X65250D02*
X66500D01*
X55500Y28500D02*
Y34500D01*
X72500Y36000D02*
X72500Y36000D01*
X72500Y32750D02*
Y36000D01*
X80750Y9950D02*
X80925Y9775D01*
X80750Y9950D02*
Y11250D01*
X80750Y11250D01*
X81500D01*
X72500Y22500D02*
Y23250D01*
X74000D01*
X83500Y20750D02*
X84250D01*
X82000D02*
X83500D01*
X84250D02*
X84250Y20750D01*
X79905Y19275D02*
X84225D01*
X84250Y19250D01*
X75000Y15500D02*
X75000Y15500D01*
X75750D01*
X70000Y55000D02*
X70000Y55000D01*
Y49750D02*
Y55000D01*
X59500Y10000D02*
Y10000D01*
Y10000D02*
X61025Y8475D01*
X55500Y34500D02*
X56250Y35250D01*
X56250Y35250D01*
X57000D01*
X61025Y8475D02*
X75075D01*
X65470Y13470D02*
Y15970D01*
X55000Y11000D02*
X63000D01*
X65470Y13470D01*
X55000Y5000D02*
Y11000D01*
X47500D02*
X52470Y15970D01*
X45000Y11000D02*
X47500D01*
X45000D02*
X45000Y11000D01*
Y5000D02*
Y11000D01*
X35000Y11500D02*
X39470Y15970D01*
X35000Y11000D02*
Y11500D01*
Y5000D02*
Y11000D01*
X25000Y14500D02*
X26470Y15970D01*
X25000Y11000D02*
Y14500D01*
Y5000D02*
Y11000D01*
X104457Y17500D02*
X105750Y16207D01*
X104250Y17000D02*
X105250Y16000D01*
Y12750D02*
Y16000D01*
X104000Y16500D02*
X104750Y15750D01*
Y7750D02*
Y15750D01*
X105750Y9750D02*
Y13000D01*
X105750Y13000D02*
X105750Y13000D01*
X105750Y13000D02*
Y16207D01*
X105250Y8750D02*
Y12750D01*
X105250Y12750D02*
X105250Y12750D01*
X104750Y7750D02*
X106750Y5750D01*
X107500D01*
X105250Y8750D02*
X106750Y7250D01*
X107500D01*
X106750Y8750D02*
X107500D01*
X105750Y9750D02*
X106750Y8750D01*
X45000Y48250D02*
X46696D01*
X49200Y45746D01*
Y44375D02*
Y45746D01*
X35000Y46956D02*
Y48250D01*
Y46956D02*
X36200Y45756D01*
Y44375D02*
Y45756D01*
X23750Y14250D02*
Y15000D01*
Y14250D02*
X23750Y14250D01*
X22675Y17925D02*
Y18625D01*
X23325Y18075D02*
Y18625D01*
X23175Y17925D02*
X23325Y18075D01*
X22675Y17925D02*
X23175D01*
X22675Y22850D02*
X22900Y23075D01*
X22675Y22375D02*
Y22850D01*
X23325Y22375D02*
Y23075D01*
X22900D02*
X23325D01*
X25000Y24250D02*
X25000Y24250D01*
X26750Y21500D02*
Y23000D01*
X19250Y17000D02*
Y18500D01*
X23750Y15000D02*
Y16500D01*
X23500Y23250D02*
Y24250D01*
X23325Y23075D02*
X23500Y23250D01*
Y24250D02*
Y25750D01*
X25000Y24250D02*
Y26500D01*
X26750Y21475D02*
Y21500D01*
Y23000D02*
Y23750D01*
X20000Y17000D02*
X20000Y17000D01*
X19250Y17000D02*
X20000D01*
X22250Y17500D02*
X22675Y17925D01*
X20275Y19525D02*
X21125D01*
X19250Y18500D02*
X20275Y19525D01*
X22250Y15000D02*
Y16500D01*
Y17500D01*
X24875Y21475D02*
X26750D01*
X5000Y45000D02*
X5000Y45000D01*
X10250D01*
X5000Y35000D02*
X5000Y35000D01*
X10250D01*
X5000Y25000D02*
X5000Y25000D01*
X10250D01*
X5000Y15000D02*
X5000Y15000D01*
X10250D01*
X67250Y23000D02*
X67765Y23515D01*
X55000Y55000D02*
X55000Y55000D01*
Y49750D02*
Y55000D01*
X45000Y55000D02*
X45000Y55000D01*
Y49750D02*
Y55000D01*
X35000Y55000D02*
X35000Y55000D01*
Y49750D02*
Y55000D01*
X25000Y49750D02*
Y55000D01*
Y49750D02*
X25000Y49750D01*
X66600Y26500D02*
X67750D01*
X67250Y20000D02*
Y23000D01*
X66500Y24600D02*
X66600Y24500D01*
X67750D01*
X65750Y23850D02*
X66500Y24600D01*
X65750Y23000D02*
Y23850D01*
X63000Y12000D02*
Y14000D01*
X62750Y14250D02*
X63000Y14000D01*
X118750Y32000D02*
X118750Y32000D01*
X112000Y30000D02*
X112000Y30000D01*
X111250Y30000D02*
X112000D01*
X111050Y29800D02*
X111250Y30000D01*
X128750Y29144D02*
Y30000D01*
X112950Y28375D02*
X113575Y27750D01*
X121500Y28150D02*
X121550Y28200D01*
X121500Y27500D02*
Y28150D01*
X123450Y28200D02*
X124007D01*
X125250Y27750D02*
Y28738D01*
X128000Y28200D02*
Y28394D01*
X112950Y25625D02*
X113575Y26250D01*
X118000Y32000D02*
X118750D01*
X126512Y30000D02*
X127250D01*
X113575Y27750D02*
X114750D01*
X124457Y27750D02*
X125250D01*
X124007Y28200D02*
X124457Y27750D01*
X113575Y26250D02*
X114750D01*
X123750Y26250D02*
X125250D01*
X111050Y28375D02*
Y29800D01*
X118750Y32000D02*
Y33500D01*
X121500Y27500D02*
X122000Y27000D01*
X123000D02*
X123750Y26250D01*
X127250Y24000D02*
Y24791D01*
X127050Y24991D02*
X127250Y24791D01*
X120250Y35000D02*
X121750D01*
X122000Y27000D02*
X123000D01*
X125250Y28738D02*
X126512Y30000D01*
X128000Y28394D02*
X128750Y29144D01*
X112750Y33000D02*
Y34500D01*
X118750Y33500D02*
Y35000D01*
X127050Y24991D02*
Y25800D01*
X61250Y17500D02*
X61675Y17925D01*
X62175D01*
X62325Y18075D01*
X59000Y17000D02*
X59000Y17000D01*
X48675Y17925D02*
X49175D01*
X49325Y18075D01*
X45250Y17000D02*
X46000D01*
X46000Y17000D01*
X35250Y17500D02*
X35675Y17925D01*
X32250Y17000D02*
X33000D01*
X33000Y17000D01*
X59275Y19525D02*
X60125D01*
X65750Y21475D02*
Y21500D01*
X52750Y21475D02*
Y21500D01*
X39750Y21475D02*
Y21500D01*
X64000Y24250D02*
X64000Y24250D01*
X61900Y23075D02*
X62325D01*
X61675Y22850D02*
X61900Y23075D01*
X52750Y23000D02*
Y23750D01*
X51000Y24250D02*
X51000Y24250D01*
X48675Y22850D02*
X48900Y23075D01*
X49325D01*
X49500Y23250D02*
Y24250D01*
X49325Y23075D02*
X49500Y23250D01*
X39750Y23000D02*
Y23750D01*
X36500Y23250D02*
Y24250D01*
X36325Y23075D02*
X36500Y23250D01*
X45500Y32250D02*
X45500Y32250D01*
X32500Y32250D02*
X32500Y32250D01*
X19500Y32250D02*
X19500Y32250D01*
X53500Y37100D02*
Y38250D01*
X40500Y37100D02*
Y38250D01*
X27500Y37100D02*
Y38250D01*
X65500Y42000D02*
Y42489D01*
X64000Y42000D02*
X64000D01*
X51000D02*
X51000D01*
X49200Y41625D02*
X49575Y42000D01*
X39500D02*
Y42489D01*
X26500Y42000D02*
Y42489D01*
X25000Y42000D02*
X25000D01*
X23200Y41625D02*
X23575Y42000D01*
X61250Y43500D02*
Y44375D01*
X40000Y42989D02*
Y44750D01*
X35250Y43500D02*
Y44375D01*
X22250Y43500D02*
Y44375D01*
X58250Y17000D02*
X59000D01*
X48250Y17500D02*
X48675Y17925D01*
X33275Y19525D02*
X34125D01*
X63875Y21475D02*
X65750D01*
X50875D02*
X52750D01*
X62325Y23075D02*
X62500Y23250D01*
Y24250D01*
X38000D02*
X38000Y24250D01*
X56250Y32250D02*
X58500D01*
X58500Y32250D01*
X57000Y30775D02*
X60525D01*
X43250Y32250D02*
X45500D01*
X17250D02*
X19500D01*
X18000Y30775D02*
X21525D01*
X66500Y37100D02*
Y38250D01*
X62200Y41625D02*
X62575Y42000D01*
X49575D02*
X51000D01*
X52500D02*
Y42489D01*
X36200Y41625D02*
X36575Y42000D01*
X38000D01*
X38000D01*
X23575D02*
X25000D01*
X48250Y43500D02*
Y44375D01*
X46275Y19525D02*
X47125D01*
X37875Y21475D02*
X39750D01*
X44000Y30775D02*
X47525D01*
X30250Y32250D02*
X32500D01*
X31000Y30775D02*
X34525D01*
X62575Y42000D02*
X64000D01*
X62750Y15000D02*
Y16500D01*
Y14250D02*
Y15000D01*
X61250D02*
Y16500D01*
Y17500D01*
X62325Y18075D02*
Y18625D01*
X61675Y17925D02*
Y18625D01*
X58250Y17000D02*
Y18500D01*
X49750Y15000D02*
Y16500D01*
Y14250D02*
Y15000D01*
Y14250D02*
X49750Y14250D01*
X49325Y18075D02*
Y18625D01*
X48675Y17925D02*
Y18625D01*
X45250Y17000D02*
Y18500D01*
X36750Y15000D02*
Y16500D01*
Y14250D02*
Y15000D01*
Y14250D02*
X36750Y14250D01*
X35250Y15000D02*
Y16500D01*
Y17500D01*
X32250Y17000D02*
Y18500D01*
X65750Y21500D02*
Y23000D01*
X64000Y24250D02*
Y26500D01*
X61675Y22375D02*
Y22850D01*
X62325Y22375D02*
Y23075D01*
X52750Y21500D02*
Y23000D01*
X51000Y24250D02*
Y26500D01*
X49500Y24250D02*
Y25750D01*
X48675Y22375D02*
Y22850D01*
X49325Y22375D02*
Y23075D01*
X39750Y21500D02*
Y23000D01*
X36500Y24250D02*
Y25750D01*
X65000Y30500D02*
Y31350D01*
X61825Y34000D02*
Y35225D01*
X57000Y30750D02*
X57000Y30750D01*
Y30775D01*
X52000Y30500D02*
Y31350D01*
X48825Y34000D02*
Y35225D01*
X49475Y30775D02*
X49500Y30750D01*
X43250D02*
X44000D01*
X44000Y30750D02*
Y30775D01*
X44000Y30750D02*
X44000Y30750D01*
X39000Y30500D02*
Y31350D01*
X36475Y30775D02*
X36500Y30750D01*
X35825Y34000D02*
Y35225D01*
X30250Y30750D02*
X31000D01*
X31000Y30750D02*
Y30775D01*
X31000Y30750D02*
X31000Y30750D01*
X22825Y34000D02*
Y35225D01*
X18000Y30750D02*
X18000Y30750D01*
Y30775D01*
X66000Y42989D02*
Y44750D01*
X65500Y42489D02*
X66000Y42989D01*
X64000Y42000D02*
Y44750D01*
X53000Y42989D02*
Y44750D01*
X51000Y42000D02*
Y44750D01*
X39500Y42489D02*
X40000Y42989D01*
X27000D02*
Y44750D01*
X26500Y42489D02*
X27000Y42989D01*
X25000Y42000D02*
Y44750D01*
X48250Y15000D02*
Y16500D01*
Y17500D01*
X62500Y24250D02*
Y25750D01*
X38000Y24250D02*
Y26500D01*
X56250Y30750D02*
X57000D01*
X62475Y30775D02*
X62500Y30750D01*
X26000Y30500D02*
Y31350D01*
X17250Y30750D02*
X18000D01*
X52500Y42489D02*
X53000Y42989D01*
X38000Y42000D02*
Y44750D01*
X32250Y18500D02*
X33275Y19525D01*
X58250Y18500D02*
X59275Y19525D01*
X45250Y18500D02*
X46275Y19525D01*
D86*
X111800Y54000D02*
D03*
X117200D02*
D03*
D87*
X109250Y16850D02*
Y17750D01*
X70000Y5250D02*
X70000Y5250D01*
X70000Y5250D02*
Y6000D01*
X109150Y16750D02*
X109250Y16850D01*
X110000Y10750D02*
X110000Y10750D01*
X109150Y10750D02*
X110000D01*
X108250Y11650D02*
X109150Y10750D01*
X108250Y11650D02*
Y12650D01*
X106500Y16750D02*
X106500Y16750D01*
X107350D01*
X107600Y16500D01*
Y14850D02*
Y16500D01*
X106500Y10750D02*
X106500Y10750D01*
X107350D01*
X107600Y11000D01*
Y12650D01*
D88*
X113750Y47250D02*
X116250D01*
X113000Y48000D02*
Y51513D01*
Y48000D02*
X113750Y47250D01*
X116250D02*
X117000Y46500D01*
Y44750D02*
Y46500D01*
X111800Y51513D02*
X113000D01*
X111800D02*
Y54000D01*
X119500Y42250D02*
X128500D01*
X117000Y44750D02*
X119500Y42250D01*
X117200Y55475D02*
X119750D01*
X124525D02*
X125500Y54500D01*
X119750Y55475D02*
X124525D01*
X117200Y54000D02*
Y55475D01*
X109250D02*
X111800D01*
Y54000D02*
Y55475D01*
X88500Y52600D02*
X89600D01*
X90000Y53000D02*
X93250D01*
X89600Y52600D02*
X90000Y53000D01*
X88350Y58250D02*
X88500Y58100D01*
X90051D01*
X91151Y57000D02*
X93250D01*
X90051Y58100D02*
X91151Y57000D01*
X102750D02*
X106000D01*
X107525Y55475D02*
X109250D01*
X106000Y57000D02*
X107525Y55475D01*
D89*
X107475Y52525D02*
X109250D01*
X102750Y55000D02*
X105000D01*
X107475Y52525D01*
X88500Y55400D02*
X89600D01*
X90000Y55000D02*
X93250D01*
X89600Y55400D02*
X90000Y55000D01*
D90*
X57500Y38500D02*
D03*
X103000Y42000D02*
D03*
Y37000D02*
D03*
X72500Y43000D02*
D03*
Y36000D02*
D03*
X103000Y14310D02*
D03*
Y11770D02*
D03*
Y9230D02*
D03*
X103000Y24730D02*
D03*
Y29810D02*
D03*
Y27270D02*
D03*
Y22190D02*
D03*
Y19650D02*
D03*
D91*
X140000Y55000D02*
D03*
Y5000D02*
D03*
X5000D02*
D03*
Y55000D02*
D03*
D92*
X55000Y5000D02*
D03*
X45000D02*
D03*
X35000D02*
D03*
X25000D02*
D03*
X55000Y55000D02*
D03*
X45000D02*
D03*
X35000D02*
D03*
X25000D02*
D03*
X5000Y45000D02*
D03*
Y35000D02*
D03*
Y25000D02*
D03*
Y15000D02*
D03*
X70000Y55000D02*
D03*
D93*
X52460Y2460D02*
D03*
X57540D02*
D03*
Y7540D02*
D03*
X52460D02*
D03*
X42460Y2460D02*
D03*
X47540D02*
D03*
Y7540D02*
D03*
X42460D02*
D03*
X32460Y2460D02*
D03*
X37540D02*
D03*
Y7540D02*
D03*
X32460D02*
D03*
X22460Y2460D02*
D03*
X27540D02*
D03*
Y7540D02*
D03*
X22460D02*
D03*
X57540Y52460D02*
D03*
X52460D02*
D03*
Y57540D02*
D03*
X57540D02*
D03*
X47540Y52460D02*
D03*
X42460D02*
D03*
Y57540D02*
D03*
X47540D02*
D03*
X37540Y52460D02*
D03*
X32460D02*
D03*
Y57540D02*
D03*
X37540D02*
D03*
X27540Y52460D02*
D03*
X22460D02*
D03*
Y57540D02*
D03*
X27540D02*
D03*
X7540Y47540D02*
D03*
Y42460D02*
D03*
X2460D02*
D03*
Y47540D02*
D03*
X7540Y37540D02*
D03*
Y32460D02*
D03*
X2460D02*
D03*
Y37540D02*
D03*
X7540Y27540D02*
D03*
Y22460D02*
D03*
X2460D02*
D03*
Y27540D02*
D03*
X7540Y17540D02*
D03*
Y12460D02*
D03*
X2460D02*
D03*
Y17540D02*
D03*
X72540Y57540D02*
D03*
X67460D02*
D03*
Y52460D02*
D03*
X72540D02*
D03*
D94*
X130500Y54500D02*
D03*
D95*
X125500D02*
D03*
D96*
X103000Y6690D02*
D03*
X103000Y32350D02*
D03*
D97*
X76500Y40500D02*
D03*
X62550Y19950D02*
D03*
X61450D02*
D03*
X62550Y21050D02*
D03*
X61450D02*
D03*
X49550Y19950D02*
D03*
X48450D02*
D03*
X49550Y21050D02*
D03*
X48450D02*
D03*
X36550Y19950D02*
D03*
X35450D02*
D03*
X36550Y21050D02*
D03*
X35450D02*
D03*
X22450D02*
D03*
X23550D02*
D03*
X22450Y19950D02*
D03*
X23550D02*
D03*
X109250Y17750D02*
D03*
X118000Y6500D02*
D03*
X86500Y50250D02*
D03*
Y55750D02*
D03*
X100750Y38500D02*
D03*
Y36500D02*
D03*
X85750Y4250D02*
D03*
X85500Y3500D02*
D03*
X92365Y11500D02*
D03*
Y23500D02*
D03*
Y35500D02*
D03*
X96175Y3500D02*
D03*
Y15500D02*
D03*
Y27500D02*
D03*
Y39500D02*
D03*
X92365Y47500D02*
D03*
X93635Y3500D02*
D03*
X91095D02*
D03*
Y15500D02*
D03*
X93635D02*
D03*
Y27500D02*
D03*
X91095D02*
D03*
X93635Y39500D02*
D03*
X91095D02*
D03*
X87000Y53500D02*
D03*
X86000D02*
D03*
X87250Y49900D02*
D03*
X120500Y51500D02*
D03*
X119000D02*
D03*
X110000D02*
D03*
X108500D02*
D03*
X87250Y55400D02*
D03*
X82250Y58250D02*
D03*
Y52250D02*
D03*
Y57750D02*
D03*
X119750Y51500D02*
D03*
X109250D02*
D03*
X82250Y52750D02*
D03*
X106830Y20615D02*
D03*
X108115Y19330D02*
D03*
X114000D02*
D03*
X120000D02*
D03*
X126000D02*
D03*
X131885D02*
D03*
X133170Y20615D02*
D03*
Y26500D02*
D03*
Y32500D02*
D03*
Y38500D02*
D03*
Y44385D02*
D03*
X131885Y45670D02*
D03*
X126000D02*
D03*
X120000D02*
D03*
X114000D02*
D03*
X108115D02*
D03*
X106830Y44385D02*
D03*
Y38500D02*
D03*
Y32500D02*
D03*
Y26500D02*
D03*
X24000Y30750D02*
D03*
X37000D02*
D03*
X50000D02*
D03*
X63000D02*
D03*
X78500Y28250D02*
D03*
X80500Y28000D02*
D03*
X77325Y31500D02*
D03*
X121750Y18000D02*
D03*
X117250Y18500D02*
D03*
X119000Y6500D02*
D03*
X110750Y12250D02*
D03*
X111750Y13750D02*
D03*
X111250Y13000D02*
D03*
X113250Y5000D02*
D03*
X116250Y9000D02*
D03*
X55500Y28500D02*
D03*
X125000Y4000D02*
D03*
X82250Y9125D02*
D03*
X76500Y5225D02*
D03*
Y7175D02*
D03*
X81250Y42750D02*
D03*
X79250D02*
D03*
X77250Y37250D02*
D03*
X82250Y36250D02*
D03*
Y38000D02*
D03*
X71750Y28250D02*
D03*
Y29750D02*
D03*
X72500Y22500D02*
D03*
Y25500D02*
D03*
X84250Y20750D02*
D03*
Y19250D02*
D03*
X75000Y15500D02*
D03*
X59500Y10000D02*
D03*
X22750Y11000D02*
D03*
X32750D02*
D03*
X42750D02*
D03*
X52750D02*
D03*
X82250Y7175D02*
D03*
X70000Y5250D02*
D03*
X23750Y14250D02*
D03*
X23500Y26500D02*
D03*
X25000D02*
D03*
X26750Y23750D02*
D03*
X18750Y25250D02*
D03*
X22250Y14250D02*
D03*
X18250Y20000D02*
D03*
X28250Y23750D02*
D03*
X18250Y17000D02*
D03*
X20000D02*
D03*
X12500Y45000D02*
D03*
Y35000D02*
D03*
Y25000D02*
D03*
Y15000D02*
D03*
X64500Y27250D02*
D03*
X51500D02*
D03*
X38500D02*
D03*
X25500D02*
D03*
X67765Y23515D02*
D03*
X79000Y14500D02*
D03*
X80500D02*
D03*
X82000D02*
D03*
X83500D02*
D03*
X62200Y45737D02*
D03*
X49200Y45746D02*
D03*
X36200Y45756D02*
D03*
X23200Y45746D02*
D03*
X67750Y26500D02*
D03*
Y24500D02*
D03*
X63000Y12000D02*
D03*
X110000Y10750D02*
D03*
X106500D02*
D03*
Y16750D02*
D03*
X128500Y4000D02*
D03*
X132000D02*
D03*
X128500Y10000D02*
D03*
X125000D02*
D03*
X116250Y25000D02*
D03*
X117500Y17750D02*
D03*
X70500Y11000D02*
D03*
X75000Y11250D02*
D03*
X71500Y5250D02*
D03*
X79250Y10250D02*
D03*
X70500Y9500D02*
D03*
X81500Y11250D02*
D03*
X119500Y5000D02*
D03*
Y3500D02*
D03*
X116500D02*
D03*
X113250D02*
D03*
X121000Y33500D02*
D03*
X109000Y31500D02*
D03*
X121000Y32000D02*
D03*
X109000Y30000D02*
D03*
X119750Y28500D02*
D03*
X129500Y25750D02*
D03*
X113500Y22000D02*
D03*
X118000Y32000D02*
D03*
X112000Y30000D02*
D03*
X118250Y28500D02*
D03*
X109000Y33000D02*
D03*
X131000Y36000D02*
D03*
X59000Y17000D02*
D03*
X57250D02*
D03*
X33000D02*
D03*
X31250D02*
D03*
X57250Y20000D02*
D03*
X31250D02*
D03*
X52750Y23750D02*
D03*
X41250D02*
D03*
X39750D02*
D03*
X57750Y25250D02*
D03*
X44750D02*
D03*
X43250Y32250D02*
D03*
X17250D02*
D03*
X61825Y34000D02*
D03*
X48825D02*
D03*
X22825D02*
D03*
X43250Y35250D02*
D03*
X17250D02*
D03*
X53500Y38250D02*
D03*
X27500D02*
D03*
X62000Y40000D02*
D03*
X53500D02*
D03*
X49000D02*
D03*
X27500D02*
D03*
X23000D02*
D03*
X61250Y43500D02*
D03*
X35250D02*
D03*
X22250D02*
D03*
X44250Y17000D02*
D03*
X46000D02*
D03*
X44250Y20000D02*
D03*
X54250Y23750D02*
D03*
X31750Y25250D02*
D03*
X56250Y32250D02*
D03*
X30250D02*
D03*
X35825Y34000D02*
D03*
X56250Y35250D02*
D03*
X30250D02*
D03*
X66500Y38250D02*
D03*
X40500D02*
D03*
X66500Y40000D02*
D03*
X40500D02*
D03*
X36000D02*
D03*
X48250Y43500D02*
D03*
X61000Y12000D02*
D03*
X49750Y14250D02*
D03*
X36750D02*
D03*
X35250D02*
D03*
X64000Y26500D02*
D03*
X51000D02*
D03*
X49500D02*
D03*
X36500D02*
D03*
X65000Y30500D02*
D03*
X52000D02*
D03*
X43250Y30750D02*
D03*
X39000Y30500D02*
D03*
X17250Y30750D02*
D03*
X66000Y44750D02*
D03*
X64000D02*
D03*
X53000D02*
D03*
X51000D02*
D03*
X27000D02*
D03*
X25000D02*
D03*
X48250Y14250D02*
D03*
X62500Y26500D02*
D03*
X38000D02*
D03*
X56250Y30750D02*
D03*
X30250D02*
D03*
X26000Y30500D02*
D03*
X40000Y44750D02*
D03*
X38000D02*
D03*
M02*
