M48
;Layer_Color=6321
;FILE_FORMAT=2:5
INCH,LZ
;TYPE=PLATED
T1F00S00C0.00787
T2F00S00C0.00984
T3F00S00C0.04016
T4F00S00C0.04331
T5F00S00C0.05118
T6F00S00C0.05906
T7F00S00C0.06693
T8F00S00C0.10630
%
T01
X0088386Y0078543
Y0082874
X0092716
Y0078543
X0139567
X0143898
Y0082874
X0139567
X0190748
Y0078543
X0195079
Y0082874
X0241929
Y0078543
X024626
Y0082874
T02
X0445866Y001378
X0445866Y0019685
X0458661Y001378
X0470472
Y0019685
X0468504Y0025591
X0464567
X0457677Y0035433
X0433071Y0042323
X0419291
X0492126Y003937
X0505905
Y0015748
X0492126
X0519685
X0378642Y001378
X0368642
X0358642
X0336614
X0337598Y0016732
X0323819Y0028248
Y0035925
X0320866Y0044291
X0312008Y0040354
X0295276Y0044291
X0277559Y0043307
Y0037402
X027559Y0020669
X0281496
X0301181Y0020571
Y0028248
X0234252Y003937
X0207677Y0043307
X0168307
X0128937
X0089567
X0087598Y0056102
X007874Y0066929
X007185
Y007874
X0073819Y0099409
X0049213Y0098425
Y0137795
X0067913Y0138779
Y0126969
Y0121063
X0087598Y017126
X0049213Y0177165
Y0059055
X0093504Y0056102
X0123031Y0066929
X0129921
X0123031Y007874
X0125Y0099409
X0111221Y0093504
X0105315
X0098425Y0104331
X0100394Y0107283
X009252Y0104331
X0094488Y0121063
X0102362Y0120079
X0119095Y0121063
Y0126969
Y0138779
X0108268Y0150591
Y015748
X0090551
X0091339Y0180104
X0098425Y0176181
X0106299
X0138779Y017126
X014252Y0180142
X0149606Y0176181
X015748
X0159449Y015748
Y0150591
X0170276Y0138779
Y0126969
Y0121063
X0153543Y0120079
X0145669Y0121063
X0141043Y0133858
X0141732Y015748
X0192913
X0189961Y017126
X0193701Y0180104
X0200787Y0176181
X0208661
X021063Y015748
Y0150591
X0221457Y0138779
Y0126969
Y0121063
X0218504Y0112205
X0202756Y0107283
X0200787Y0104331
X0194882
X019685Y0121063
X0204724Y0120079
X0192224Y0133858
X0176181Y0099409
X0162402Y0093504
X0156496
X0149606Y0104331
X0151575Y0107283
X0143701Y0104331
X0144685Y0056102
X0138779
X0174213Y0066929
X0181102
X0174213Y007874
X0189961Y0056102
X0195866
X0225394Y0066929
X0232283
X0225394Y007874
X0227362Y0099409
X0213583Y0093504
X0207677
X0243406Y0133858
X0241142Y017126
X0240158Y0047244
X0089862Y0133858
X0248031Y0121063
X0255906Y0120079
X0253937Y0107283
X0251969Y0104331
X0246063
X0266732Y0104331
Y0096457
X0266791Y0092578
X0285433Y0088583
Y0100394
X028248Y0111221
Y0117126
X0304429Y0124016
X0309055Y0111221
X0316929Y0110236
X0323819Y0142717
Y0149606
X0319882Y0168307
X0312008
X0301181Y0159449
X0304134Y0146653
X0261811Y0150591
Y015748
X0244094
X0244882Y0180065
X0251969Y0176181
X0259842
X0340551Y0197835
X0343504Y0196457
X0363642Y0187008
X0368642Y0155512
X0378642
X0358642
X0363642Y0139764
X0368642Y0108268
X0378642
X0358642
X0363642Y009252
X0358642Y0061024
X0368642
X0378642
X0363642Y0045276
X032874Y0057087
X0322835
X0316929
X0311024
X0295276Y0061024
X0331693Y0075787
Y0081693
X0248031Y0047244
X0396654Y0143701
Y0151575
X042059
Y0174744
X042565Y0179803
X0448819
X0472441
X0496063
X0519232
X0524291Y0174744
Y0151575
X0515748Y0141732
X0524291Y0127953
Y0104331
X0509842Y0101378
X0519232Y0076102
X0524291Y0081161
X0496063Y0076102
X0479331Y0070866
X0472441Y0076102
X0461614Y0072835
X0462598Y0069882
X0448819Y0076102
X044685Y0086614
X0457677Y0098425
X0465551Y0112205
X0471457
X0476378Y0125984
Y013189
X0464567Y0125984
X0440945Y011811
X0429134
Y0124016
Y0129921
X042059Y0127953
Y0104331
Y0081161
X042565Y0076102
X0430118Y0069882
X0419291Y0065945
X0439961Y0054134
X0437992Y0051181
X0436024Y0048228
X0433071Y0202756
X0430118Y0202756
X0427165Y0202756
X0468504
X0471457Y0202756
X0474409Y0202756
X034252Y021063
X0338583
X0340551Y0219488
X0343504Y021811
X0323819Y0227362
Y0229331
Y0207677
Y0205709
T03
X0226378Y0151575
X0285433Y0141732
Y0169291
X0405512Y0165354
Y0145669
T04
X0405512Y0026339
Y0036339
Y0046339
Y0056339
X0405512Y0077362
Y0087362
Y0097362
Y0107362
Y0117362
Y0127362
T05
X0494095Y0214567
X0513779
T06
X0098425Y0019685
X0137795
X0177165
X0216535
X0019685Y0059055
Y0098425
Y0137795
Y0177165
X027559Y0216535
X0216535
X0177165
X0137795
X0098425
T07
X0088425Y0009685
X0108425
X0127795
X0147795
X0167165
X0187165
X0206535
X0226535
Y0029685
X0206535
X0187165
X0167165
X0147795
X0127795
X0108425
X0088425
X0029685Y0049055
Y0069055
Y0088425
Y0108425
Y0127795
Y0147795
Y0167165
Y0187165
X0009685
Y0167165
Y0147795
Y0127795
Y0108425
Y0088425
Y0069055
Y0049055
X0265591Y0206535
Y0226535
X0285591
Y0206535
X0226535
X0206535
X0187165
X0167165
X0147795
X0127795
X0108425
X0088425
Y0226535
X0108425
X0127795
X0147795
X0167165
X0187165
X0206535
X0226535
T08
X0551181Y0019685
X0019685
X0551181Y0216535
X0019685
M30
