M48
;Layer_Color=6321
;FILE_FORMAT=2:5
INCH,LZ
;TYPE=PLATED
T1F00S00C0.00984
%
T01
X-0075787Y-0020669
X-0069882Y-0026575
X-0061024
X-0052165
X-0043307
X-0034449
X-0025591
X-0016732
X-0027559Y-0012795
Y-0010827
X-0021654Y-0004921
X-0009843Y0
X-000689Y-0010827
X000696Y-0010687
X0024606Y-0015748
X0018701Y-0026575
X0045276
X0054134
X0045276Y0009843
Y0026575
X0054134
X0036417
X0027559
Y0020669
X0018701Y0026575
X0009843
X0007874Y0020669
X0003937Y001378
X0000984Y0026575
X-0007874
X-0016732
X-0017717Y0015748
X-0027559Y0012795
Y0010827
X-0043024Y0004
Y0001
X-0043307Y-0010827
Y-0012795
Y0026575
X-0052165
X-0061024
X-0069882
X-0075787Y0020669
X0015748Y0009843
X0021654
X0062992Y0026575
X007185
X0075787Y0019685
Y-0019685
X007185Y-0026575
X0062992
M30
