G04*
G04 #@! TF.GenerationSoftware,Altium Limited,Altium Designer,20.1.14 (287)*
G04*
G04 Layer_Physical_Order=2*
G04 Layer_Color=11993160*
%FSLAX43Y43*%
%MOMM*%
G71*
G04*
G04 #@! TF.SameCoordinates,8E6D0AED-6584-4932-AFB8-F401DEA6884B*
G04*
G04*
G04 #@! TF.FilePolarity,Negative*
G04*
G01*
G75*
%ADD26C,1.016*%
%ADD27C,1.266*%
D26*
X-18000Y7500D02*
G03*
X-20000Y5500I-0J-2000D01*
G01*
X-8850Y6850D02*
G03*
X-6150Y6850I1350J-0D01*
G01*
X20000Y5500D02*
G03*
X18000Y7500I-2000J0D01*
G01*
X18000Y-7500D02*
G03*
X20000Y-5500I0J2000D01*
G01*
X8850Y-6850D02*
G03*
X6150Y-6850I-1350J0D01*
G01*
X-20000Y-5500D02*
G03*
X-18000Y-7500I2000J0D01*
G01*
X20000Y5500D02*
X20000Y-5500D01*
X-6150Y7500D02*
X18000D01*
X-8850Y6850D02*
Y7500D01*
X-20000Y-5500D02*
X-20000Y5500D01*
X-18000Y-7500D02*
X6150Y-7500D01*
Y-6850D01*
X-6150Y6850D02*
Y7500D01*
X-18000D02*
X-8850D01*
X8850Y-7500D02*
Y-6850D01*
Y-7500D02*
X18000Y-7500D01*
D27*
X-5500Y-1250D02*
D03*
X-10928Y254D02*
D03*
Y1016D02*
D03*
X-11000Y-3250D02*
D03*
Y-2750D02*
D03*
X1768Y-2714D02*
D03*
X2000Y5250D02*
D03*
M02*
