G04*
G04 #@! TF.GenerationSoftware,Altium Limited,Altium Designer,20.1.14 (287)*
G04*
G04 Layer_Physical_Order=1*
G04 Layer_Color=25308*
%FSLAX43Y43*%
%MOMM*%
G71*
G04*
G04 #@! TF.SameCoordinates,8E6D0AED-6584-4932-AFB8-F401DEA6884B*
G04*
G04*
G04 #@! TF.FilePolarity,Positive*
G04*
G01*
G75*
%ADD11C,0.300*%
%ADD14R,4.100X1.250*%
%ADD15R,1.250X4.100*%
%ADD16R,3.000X1.500*%
%ADD17R,0.850X0.400*%
%ADD18R,0.700X0.900*%
%ADD25C,0.500*%
G36*
X18583Y7423D02*
X18947Y7272D01*
X19275Y7054D01*
X19553Y6775D01*
X19772Y6447D01*
X19923Y6083D01*
X20000Y5697D01*
X20000Y5500D01*
X20000D01*
X20000Y5500D01*
X20000Y2500D01*
X18500D01*
X18500Y5000D01*
X18495Y5098D01*
X18457Y5290D01*
X18382Y5471D01*
X18273Y5634D01*
X18134Y5773D01*
X17971Y5882D01*
X17790Y5957D01*
X17627Y5990D01*
X17617Y5991D01*
X17617D01*
X17598Y5995D01*
X17500Y6000D01*
X17500Y6000D01*
X17500Y6000D01*
X17375Y6000D01*
X-5208Y6000D01*
X-5285Y5816D01*
X-5558Y5406D01*
X-5906Y5058D01*
X-6316Y4785D01*
X-6771Y4596D01*
X-7254Y4500D01*
X-7500Y4500D01*
X-7746Y4500D01*
X-8229Y4596D01*
X-8684Y4785D01*
X-9094Y5058D01*
X-9442Y5406D01*
X-9715Y5816D01*
X-9792Y6000D01*
X-17500D01*
X-17598Y5995D01*
X-17790Y5957D01*
X-17971Y5882D01*
X-18134Y5773D01*
X-18273Y5634D01*
X-18382Y5471D01*
X-18457Y5290D01*
X-18495Y5098D01*
X-18500Y5000D01*
Y-5000D01*
X-18495Y-5098D01*
X-18457Y-5290D01*
X-18382Y-5471D01*
X-18273Y-5634D01*
X-18134Y-5773D01*
X-17971Y-5882D01*
X-17790Y-5957D01*
X-17598Y-5995D01*
X-17500Y-6000D01*
X-17500Y-6000D01*
X-2500Y-6000D01*
Y-7500D01*
X-18000Y-7500D01*
X-18197Y-7500D01*
X-18583Y-7423D01*
X-18947Y-7272D01*
X-19275Y-7054D01*
X-19554Y-6775D01*
X-19772Y-6447D01*
X-19923Y-6083D01*
X-20000Y-5697D01*
X-20000Y-5500D01*
X-20000Y-5500D01*
Y5500D01*
X-20000Y5697D01*
X-19923Y6083D01*
X-19772Y6447D01*
X-19554Y6775D01*
X-19275Y7053D01*
X-18947Y7272D01*
X-18583Y7423D01*
X-18197Y7500D01*
X-18000Y7500D01*
X-18000Y7500D01*
X-9105D01*
X-9105Y7000D01*
D01*
X-9105Y6850D01*
X-9105Y6775D01*
Y6717D01*
X-9100Y6692D01*
Y6667D01*
X-9048Y6406D01*
X-9039Y6383D01*
X-9034Y6359D01*
X-8938Y6127D01*
X-8932Y6113D01*
X-8918Y6092D01*
X-8908Y6069D01*
X-8761Y5848D01*
X-8743Y5830D01*
X-8729Y5809D01*
X-8541Y5621D01*
X-8520Y5607D01*
X-8502Y5589D01*
X-8281Y5442D01*
X-8258Y5432D01*
X-8237Y5418D01*
X-7991Y5316D01*
X-7967Y5311D01*
X-7944Y5302D01*
X-7683Y5250D01*
X-7658D01*
X-7633Y5245D01*
X-7500Y5245D01*
X-7367Y5245D01*
X-7342Y5250D01*
X-7317D01*
X-7056Y5302D01*
X-7033Y5311D01*
X-7009Y5316D01*
X-6763Y5418D01*
X-6742Y5432D01*
X-6719Y5442D01*
X-6498Y5589D01*
X-6480Y5607D01*
X-6459Y5621D01*
X-6271Y5809D01*
X-6257Y5830D01*
X-6239Y5848D01*
X-6092Y6069D01*
X-6082Y6092D01*
X-6068Y6113D01*
X-5966Y6359D01*
X-5961Y6383D01*
X-5952Y6406D01*
X-5900Y6667D01*
Y6692D01*
D01*
X-5895Y6717D01*
X-5895Y6850D01*
Y7000D01*
D01*
X-5895Y7500D01*
X18000Y7500D01*
X18197Y7500D01*
X18583Y7423D01*
D02*
G37*
G36*
X-10930Y1385D02*
X-10930Y1385D01*
Y1385D01*
X-10930D01*
X-10814Y1368D01*
X-10716Y1328D01*
X-10610Y1221D01*
X-10553Y1083D01*
X-10552Y256D01*
X-10553Y256D01*
X-10553Y182D01*
X-10609Y46D01*
X-10713Y-58D01*
X-10850Y-115D01*
X-10924Y-115D01*
X-14750Y-115D01*
Y1385D01*
X-10930Y1385D01*
D02*
G37*
G36*
X20000Y-5500D02*
Y-5697D01*
X19923Y-6083D01*
X19772Y-6447D01*
X19553Y-6775D01*
X19275Y-7054D01*
X18947Y-7272D01*
X18583Y-7423D01*
X18197Y-7500D01*
X18000Y-7500D01*
X9105Y-7500D01*
X9105Y-6850D01*
X9105Y-6850D01*
X9105Y-6717D01*
X9100Y-6692D01*
Y-6667D01*
X9048Y-6406D01*
X9038Y-6383D01*
X9034Y-6359D01*
X8938Y-6127D01*
X8932Y-6113D01*
X8918Y-6092D01*
X8908Y-6069D01*
X8761Y-5848D01*
X8743Y-5830D01*
X8729Y-5809D01*
X8541Y-5621D01*
X8520Y-5607D01*
X8502Y-5589D01*
X8281Y-5442D01*
X8258Y-5432D01*
X8237Y-5418D01*
X7991Y-5316D01*
X7967Y-5312D01*
X7944Y-5302D01*
X7683Y-5250D01*
X7658D01*
X7633Y-5245D01*
X7500Y-5245D01*
X7367Y-5245D01*
X7342Y-5250D01*
X7317D01*
X7056Y-5302D01*
X7033Y-5311D01*
X7009Y-5316D01*
X6763Y-5418D01*
X6742Y-5432D01*
X6719Y-5442D01*
X6498Y-5589D01*
X6480Y-5607D01*
X6459Y-5621D01*
X6271Y-5809D01*
X6257Y-5830D01*
X6239Y-5848D01*
X6092Y-6069D01*
X6082Y-6092D01*
X6068Y-6113D01*
X6062Y-6127D01*
X5966Y-6359D01*
X5961Y-6383D01*
X5952Y-6406D01*
X5900Y-6667D01*
Y-6692D01*
X5895Y-6717D01*
X5895Y-6850D01*
Y-7500D01*
X2500D01*
Y-6000D01*
X5208D01*
X5285Y-5816D01*
X5558Y-5406D01*
X5906Y-5058D01*
X6316Y-4785D01*
X6771Y-4596D01*
X7254Y-4500D01*
X7500Y-4500D01*
X7746Y-4500D01*
X8229Y-4596D01*
X8684Y-4785D01*
X9094Y-5058D01*
X9442Y-5406D01*
X9715Y-5816D01*
X9792Y-6000D01*
X17500D01*
X17598Y-5995D01*
X17790Y-5957D01*
X17971Y-5882D01*
X18134Y-5773D01*
X18273Y-5634D01*
X18382Y-5471D01*
X18457Y-5290D01*
X18495Y-5098D01*
X18500Y-5000D01*
X18500Y-5000D01*
X18500Y-2500D01*
X20000D01*
X20000Y-5500D01*
D02*
G37*
D11*
X-3150Y-650D02*
X-1125D01*
X-11500Y-4000D02*
X-6500D01*
X-3150Y-650D01*
X-13250Y3175D02*
X-9925D01*
X-5500Y-1250D02*
X-5500D01*
X-9925Y3175D02*
X-5500Y-1250D01*
X-13250Y-2250D02*
Y-1905D01*
Y-2250D02*
X-11500Y-4000D01*
X-1750Y-2750D02*
X-1500Y-2500D01*
X-750D01*
X-2500Y0D02*
X-1125D01*
X1554Y-2500D02*
X1768Y-2714D01*
X750Y-2500D02*
X1554D01*
X750D02*
X785Y-2465D01*
Y-1565D01*
X1125Y-1225D01*
Y-650D01*
Y650D01*
X-1125D02*
X1125D01*
D14*
X17950Y2775D02*
D03*
Y-2775D02*
D03*
D15*
X2775Y-5450D02*
D03*
X-2775D02*
D03*
D16*
X-13250Y-1905D02*
D03*
X-17750Y-3175D02*
D03*
Y-635D02*
D03*
Y1905D02*
D03*
X-13250Y635D02*
D03*
Y3175D02*
D03*
D17*
X-1125Y650D02*
D03*
Y0D02*
D03*
Y-650D02*
D03*
X1125D02*
D03*
Y650D02*
D03*
D18*
X-750Y-2500D02*
D03*
X750D02*
D03*
D25*
X1000Y3500D02*
D03*
X-5500Y-1250D02*
D03*
X-11000Y6750D02*
D03*
X-4250D02*
D03*
X-4500Y4000D02*
D03*
X7000Y5250D02*
D03*
X-19250Y-5250D02*
D03*
Y5250D02*
D03*
X19250Y5000D02*
D03*
Y-5000D02*
D03*
X18250Y-6750D02*
D03*
X16000D02*
D03*
X13750D02*
D03*
X11500D02*
D03*
X4750D02*
D03*
X18250Y6750D02*
D03*
X16000D02*
D03*
X13750D02*
D03*
X11500D02*
D03*
X9250D02*
D03*
X7000D02*
D03*
X4750D02*
D03*
X2500D02*
D03*
X250D02*
D03*
X-2000D02*
D03*
X-13250D02*
D03*
X-15500D02*
D03*
X-17750D02*
D03*
Y-6750D02*
D03*
X-15500D02*
D03*
X-13250D02*
D03*
X-11000D02*
D03*
X-8750D02*
D03*
X-6500D02*
D03*
X-4250D02*
D03*
X-10928Y254D02*
D03*
Y1016D02*
D03*
X-1750Y-2750D02*
D03*
X-11000Y-3250D02*
D03*
Y-2750D02*
D03*
X-7000Y-3250D02*
D03*
Y-2750D02*
D03*
X6250Y-4000D02*
D03*
X-7000Y3250D02*
D03*
Y2750D02*
D03*
X-2500Y0D02*
D03*
X1768Y-2714D02*
D03*
X11500Y2500D02*
D03*
X2000Y5250D02*
D03*
X5500Y2500D02*
D03*
X4000D02*
D03*
M02*
