G04*
G04 #@! TF.GenerationSoftware,Altium Limited,Altium Designer,20.1.14 (287)*
G04*
G04 Layer_Color=2752767*
%FSLAX43Y43*%
%MOMM*%
G71*
G04*
G04 #@! TF.SameCoordinates,8E6D0AED-6584-4932-AFB8-F401DEA6884B*
G04*
G04*
G04 #@! TF.FilePolarity,Positive*
G04*
G01*
G75*
%ADD44C,0.051*%
D44*
X797Y3297D02*
Y3703D01*
X1203D01*
Y3297D01*
X797D01*
X-5703Y-1453D02*
Y-1047D01*
X-5297D01*
Y-1453D01*
X-5703D01*
X-11203Y6547D02*
Y6953D01*
X-10797D01*
Y6547D01*
X-11203D01*
X-4453D02*
Y6953D01*
X-4047D01*
Y6547D01*
X-4453D01*
X-4703Y3797D02*
Y4203D01*
X-4297D01*
Y3797D01*
X-4703D01*
X6797Y5047D02*
Y5453D01*
X7203D01*
Y5047D01*
X6797D01*
X-19453Y-5453D02*
Y-5047D01*
X-19047D01*
Y-5453D01*
X-19453D01*
Y5047D02*
Y5453D01*
X-19047D01*
Y5047D01*
X-19453D01*
X19047Y4797D02*
Y5203D01*
X19453D01*
Y4797D01*
X19047D01*
Y-5203D02*
Y-4797D01*
X19453D01*
Y-5203D01*
X19047D01*
X18047Y-6953D02*
Y-6547D01*
X18453D01*
Y-6953D01*
X18047D01*
X15797D02*
Y-6547D01*
X16203D01*
Y-6953D01*
X15797D01*
X13547D02*
Y-6547D01*
X13953D01*
Y-6953D01*
X13547D01*
X11297D02*
Y-6547D01*
X11703D01*
Y-6953D01*
X11297D01*
X4547D02*
Y-6547D01*
X4953D01*
Y-6953D01*
X4547D01*
X18047Y6547D02*
Y6953D01*
X18453D01*
Y6547D01*
X18047D01*
X15797D02*
Y6953D01*
X16203D01*
Y6547D01*
X15797D01*
X13547D02*
Y6953D01*
X13953D01*
Y6547D01*
X13547D01*
X11297D02*
Y6953D01*
X11703D01*
Y6547D01*
X11297D01*
X9047D02*
Y6953D01*
X9453D01*
Y6547D01*
X9047D01*
X6797D02*
Y6953D01*
X7203D01*
Y6547D01*
X6797D01*
X4547D02*
Y6953D01*
X4953D01*
Y6547D01*
X4547D01*
X2297D02*
Y6953D01*
X2703D01*
Y6547D01*
X2297D01*
X47D02*
Y6953D01*
X453D01*
Y6547D01*
X47D01*
X-2203D02*
Y6953D01*
X-1797D01*
Y6547D01*
X-2203D01*
X-13453D02*
Y6953D01*
X-13047D01*
Y6547D01*
X-13453D01*
X-15703D02*
Y6953D01*
X-15297D01*
Y6547D01*
X-15703D01*
X-17953D02*
Y6953D01*
X-17547D01*
Y6547D01*
X-17953D01*
Y-6953D02*
Y-6547D01*
X-17547D01*
Y-6953D01*
X-17953D01*
X-15703D02*
Y-6547D01*
X-15297D01*
Y-6953D01*
X-15703D01*
X-13453D02*
Y-6547D01*
X-13047D01*
Y-6953D01*
X-13453D01*
X-11203D02*
Y-6547D01*
X-10797D01*
Y-6953D01*
X-11203D01*
X-8953D02*
Y-6547D01*
X-8547D01*
Y-6953D01*
X-8953D01*
X-6703D02*
Y-6547D01*
X-6297D01*
Y-6953D01*
X-6703D01*
X-4453D02*
Y-6547D01*
X-4047D01*
Y-6953D01*
X-4453D01*
X-11131Y51D02*
Y457D01*
X-10725D01*
Y51D01*
X-11131D01*
Y813D02*
Y1219D01*
X-10725D01*
Y813D01*
X-11131D01*
X-1953Y-2953D02*
Y-2547D01*
X-1547D01*
Y-2953D01*
X-1953D01*
X-11203Y-3453D02*
Y-3047D01*
X-10797D01*
Y-3453D01*
X-11203D01*
Y-2953D02*
Y-2547D01*
X-10797D01*
Y-2953D01*
X-11203D01*
X-7203Y-3453D02*
Y-3047D01*
X-6797D01*
Y-3453D01*
X-7203D01*
Y-2953D02*
Y-2547D01*
X-6797D01*
Y-2953D01*
X-7203D01*
X6047Y-4203D02*
Y-3797D01*
X6453D01*
Y-4203D01*
X6047D01*
X-7203Y3047D02*
Y3453D01*
X-6797D01*
Y3047D01*
X-7203D01*
Y2547D02*
Y2953D01*
X-6797D01*
Y2547D01*
X-7203D01*
X-2703Y-203D02*
Y203D01*
X-2297D01*
Y-203D01*
X-2703D01*
X1565Y-2918D02*
Y-2511D01*
X1971D01*
Y-2918D01*
X1565D01*
X11297Y2297D02*
Y2703D01*
X11703D01*
Y2297D01*
X11297D01*
X1797Y5047D02*
Y5453D01*
X2203D01*
Y5047D01*
X1797D01*
X5297Y2297D02*
Y2703D01*
X5703D01*
Y2297D01*
X5297D01*
X3797D02*
Y2703D01*
X4203D01*
Y2297D01*
X3797D01*
M02*
