G04*
G04 #@! TF.GenerationSoftware,Altium Limited,Altium Designer,20.1.14 (287)*
G04*
G04 Layer_Color=15132400*
%FSLAX43Y43*%
%MOMM*%
G71*
G04*
G04 #@! TF.SameCoordinates,8E6D0AED-6584-4932-AFB8-F401DEA6884B*
G04*
G04*
G04 #@! TF.FilePolarity,Positive*
G04*
G01*
G75*
%ADD10C,0.500*%
%ADD11C,0.300*%
%ADD12C,0.200*%
%ADD13C,0.100*%
G36*
X15000Y2500D02*
Y655D01*
X2500D01*
Y2500D01*
X15000D01*
D02*
G37*
G36*
Y655D02*
Y-497D01*
X14999D01*
Y-2800D01*
X2499D01*
Y-497D01*
X2500D01*
Y655D01*
X15000D01*
D02*
G37*
%LPC*%
G36*
X4040Y1631D02*
X3922D01*
Y1497D01*
X4040D01*
Y1368D01*
X3922D01*
Y1371D01*
Y1368D01*
Y672D01*
X4040D01*
Y1631D01*
D02*
G37*
G36*
X3391Y1648D02*
X3373D01*
X3337Y1647D01*
X3305Y1642D01*
X3275Y1637D01*
X3248Y1631D01*
X3227Y1626D01*
X3218Y1623D01*
X3211Y1620D01*
X3205Y1617D01*
X3201Y1616D01*
X3198Y1615D01*
X3197D01*
X3169Y1601D01*
X3144Y1586D01*
X3123Y1569D01*
X3107Y1554D01*
X3094Y1540D01*
X3085Y1529D01*
X3078Y1520D01*
X3076Y1519D01*
Y1518D01*
X3062Y1494D01*
X3053Y1470D01*
X3046Y1447D01*
X3042Y1426D01*
X3039Y1408D01*
X3036Y1394D01*
Y1389D01*
Y1384D01*
Y1383D01*
Y1382D01*
X3037Y1358D01*
X3042Y1336D01*
X3047Y1315D01*
X3053Y1297D01*
X3058Y1283D01*
X3064Y1272D01*
X3068Y1265D01*
X3069Y1262D01*
X3083Y1243D01*
X3100Y1225D01*
X3116Y1210D01*
X3133Y1197D01*
X3147Y1186D01*
X3159Y1179D01*
X3168Y1174D01*
X3169Y1172D01*
X3171D01*
X3182Y1167D01*
X3194Y1161D01*
X3222Y1151D01*
X3254Y1142D01*
X3284Y1132D01*
X3312Y1124D01*
X3325Y1121D01*
X3336Y1118D01*
X3344Y1115D01*
X3351Y1114D01*
X3355Y1113D01*
X3356D01*
X3380Y1107D01*
X3402Y1102D01*
X3422Y1096D01*
X3438Y1092D01*
X3455Y1088D01*
X3469Y1083D01*
X3481Y1081D01*
X3491Y1077D01*
X3501Y1074D01*
X3508Y1072D01*
X3519Y1068D01*
X3526Y1067D01*
X3527Y1065D01*
X3548Y1057D01*
X3566Y1047D01*
X3581Y1038D01*
X3592Y1029D01*
X3602Y1021D01*
X3607Y1016D01*
X3612Y1011D01*
X3613Y1010D01*
X3623Y997D01*
X3630Y984D01*
X3634Y970D01*
X3638Y959D01*
X3639Y948D01*
X3641Y939D01*
Y932D01*
Y931D01*
X3639Y914D01*
X3637Y899D01*
X3632Y885D01*
X3627Y874D01*
X3621Y863D01*
X3617Y856D01*
X3614Y850D01*
X3613Y849D01*
X3602Y835D01*
X3588Y824D01*
X3574Y814D01*
X3562Y805D01*
X3549Y799D01*
X3539Y794D01*
X3533Y791D01*
X3530Y789D01*
X3509Y783D01*
X3487Y777D01*
X3465Y774D01*
X3445Y771D01*
X3429Y770D01*
X3415Y769D01*
X3402D01*
X3372Y770D01*
X3344Y773D01*
X3319Y777D01*
X3297Y783D01*
X3279Y788D01*
X3265Y792D01*
X3261Y794D01*
X3257Y795D01*
X3255Y796D01*
X3254D01*
X3232Y807D01*
X3211Y820D01*
X3196Y832D01*
X3182Y845D01*
X3171Y855D01*
X3164Y864D01*
X3159Y870D01*
X3158Y871D01*
X3148Y889D01*
X3139Y909D01*
X3133Y930D01*
X3128Y948D01*
X3123Y966D01*
X3121Y978D01*
Y984D01*
X3119Y988D01*
Y989D01*
Y991D01*
X3000Y979D01*
X3003Y945D01*
X3008Y911D01*
X3017Y882D01*
X3026Y856D01*
X3036Y835D01*
X3040Y827D01*
X3043Y820D01*
X3047Y814D01*
X3049Y810D01*
X3051Y807D01*
Y806D01*
X3072Y780D01*
X3094Y756D01*
X3118Y737D01*
X3140Y720D01*
X3159Y708D01*
X3176Y699D01*
X3182Y697D01*
X3186Y694D01*
X3189Y692D01*
X3190D01*
X3225Y680D01*
X3261Y670D01*
X3297Y665D01*
X3331Y659D01*
X3348Y658D01*
X3362Y656D01*
X3374D01*
X3386Y655D01*
X3000D01*
X3763D01*
X3408D01*
X3445Y656D01*
X3480Y660D01*
X3512Y667D01*
X3538Y674D01*
X3560Y680D01*
X3570Y684D01*
X3578Y687D01*
X3584Y690D01*
X3588Y691D01*
X3591Y692D01*
X3592D01*
X3621Y708D01*
X3646Y724D01*
X3668Y742D01*
X3686Y759D01*
X3700Y773D01*
X3710Y785D01*
X3717Y794D01*
X3718Y795D01*
Y796D01*
X3734Y823D01*
X3745Y848D01*
X3752Y871D01*
X3757Y893D01*
X3760Y913D01*
X3763Y928D01*
Y942D01*
Y941D01*
X3761Y968D01*
X3757Y995D01*
X3750Y1018D01*
X3743Y1038D01*
X3735Y1054D01*
X3729Y1067D01*
X3724Y1074D01*
X3723Y1077D01*
X3706Y1097D01*
X3686Y1117D01*
X3666Y1133D01*
X3645Y1149D01*
X3627Y1160D01*
X3612Y1168D01*
X3606Y1171D01*
X3602Y1174D01*
X3599Y1175D01*
X3598D01*
X3587Y1181D01*
X3573Y1185D01*
X3558Y1190D01*
X3541Y1196D01*
X3506Y1206D01*
X3470Y1215D01*
X3454Y1219D01*
X3438Y1224D01*
X3423Y1228D01*
X3411Y1230D01*
X3401Y1233D01*
X3392Y1235D01*
X3387Y1236D01*
X3386D01*
X3358Y1243D01*
X3333Y1248D01*
X3311Y1255D01*
X3291Y1261D01*
X3273Y1268D01*
X3258Y1273D01*
X3244Y1279D01*
X3232Y1283D01*
X3222Y1289D01*
X3214Y1293D01*
X3208Y1296D01*
X3202Y1300D01*
X3196Y1304D01*
X3194Y1305D01*
X3182Y1319D01*
X3173Y1333D01*
X3166Y1347D01*
X3162Y1361D01*
X3159Y1372D01*
X3158Y1382D01*
Y1387D01*
Y1390D01*
X3161Y1412D01*
X3166Y1432D01*
X3175Y1448D01*
X3184Y1463D01*
X3193Y1475D01*
X3201Y1484D01*
X3207Y1490D01*
X3209Y1491D01*
X3221Y1498D01*
X3232Y1505D01*
X3258Y1516D01*
X3286Y1523D01*
X3313Y1529D01*
X3338Y1531D01*
X3349Y1533D01*
X3358Y1534D01*
X3377D01*
X3416Y1533D01*
X3451Y1527D01*
X3478Y1519D01*
X3502Y1511D01*
X3520Y1502D01*
X3534Y1494D01*
X3541Y1488D01*
X3544Y1487D01*
X3563Y1468D01*
X3578Y1447D01*
X3591Y1425D01*
X3599Y1402D01*
X3605Y1382D01*
X3609Y1366D01*
X3610Y1359D01*
X3612Y1355D01*
Y1353D01*
Y1351D01*
X3734Y1361D01*
X3731Y1391D01*
X3724Y1419D01*
X3717Y1445D01*
X3707Y1468D01*
X3699Y1486D01*
X3692Y1500D01*
X3689Y1504D01*
X3686Y1508D01*
X3685Y1509D01*
Y1511D01*
X3667Y1534D01*
X3648Y1555D01*
X3627Y1573D01*
X3606Y1587D01*
X3588Y1599D01*
X3574Y1606D01*
X3569Y1609D01*
X3564Y1612D01*
X3562Y1613D01*
X3560D01*
X3530Y1624D01*
X3496Y1633D01*
X3466Y1640D01*
X3437Y1644D01*
X3411Y1647D01*
X3401D01*
X3391Y1648D01*
D02*
G37*
G36*
X8859Y1368D02*
X8725D01*
Y1233D01*
X8859D01*
Y1368D01*
D02*
G37*
G36*
X7375Y1631D02*
X7253D01*
Y877D01*
X6750Y1631D01*
X7040D01*
X6620D01*
Y672D01*
X6742D01*
Y1425D01*
X7244Y672D01*
X7375D01*
Y1631D01*
D02*
G37*
G36*
X6041D02*
X5871D01*
X5641Y963D01*
X5628Y927D01*
X5618Y896D01*
X5609Y870D01*
X5602Y848D01*
X5596Y831D01*
X5592Y819D01*
X5591Y812D01*
X5589Y809D01*
X5584Y828D01*
X5577Y850D01*
X5568Y874D01*
X5561Y898D01*
X5555Y918D01*
X5549Y935D01*
X5546Y942D01*
X5545Y946D01*
X5543Y949D01*
Y950D01*
X5316Y1631D01*
X5126D01*
Y672D01*
X6041D01*
Y1631D01*
D02*
G37*
G36*
X4630D02*
X4236D01*
Y672D01*
X4363D01*
Y1061D01*
X4609D01*
X4645Y1063D01*
X4679Y1065D01*
X4710Y1070D01*
X4738Y1075D01*
X4764Y1081D01*
X4786Y1088D01*
X4807Y1096D01*
X4825Y1104D01*
X4840Y1111D01*
X4854Y1120D01*
X4865Y1126D01*
X4874Y1133D01*
X4881Y1138D01*
X4885Y1142D01*
X4887Y1144D01*
X4889Y1146D01*
X4903Y1163D01*
X4915Y1179D01*
X4925Y1196D01*
X4935Y1214D01*
X4943Y1232D01*
X4949Y1248D01*
X4958Y1280D01*
X4961Y1296D01*
X4964Y1310D01*
X4965Y1322D01*
X4967Y1332D01*
X4968Y1341D01*
Y724D01*
Y1353D01*
X4967Y1379D01*
X4964Y1404D01*
X4958Y1426D01*
X4954Y1445D01*
X4949Y1462D01*
X4943Y1475D01*
X4940Y1481D01*
X4939Y1484D01*
X4928Y1505D01*
X4914Y1523D01*
X4901Y1540D01*
X4889Y1552D01*
X4878Y1562D01*
X4869Y1570D01*
X4864Y1574D01*
X4861Y1576D01*
X4843Y1587D01*
X4822Y1597D01*
X4803Y1605D01*
X4785Y1612D01*
X4768Y1616D01*
X4756Y1619D01*
X4746Y1622D01*
X4743D01*
X4722Y1624D01*
X4699Y1627D01*
X4674Y1628D01*
X4650Y1630D01*
X4630Y1631D01*
D02*
G37*
G36*
X8859Y1185D02*
Y806D01*
X8725D01*
Y672D01*
X8859D01*
Y1185D01*
D02*
G37*
G36*
X8488Y806D02*
X8353D01*
Y672D01*
X8488D01*
Y806D01*
D02*
G37*
G36*
X8181Y1383D02*
X7869D01*
D01*
X7855D01*
X7832Y1382D01*
X7810Y1380D01*
X7767Y1371D01*
X7729Y1358D01*
X7712Y1351D01*
X7697Y1344D01*
X7683Y1337D01*
X7672Y1330D01*
X7661Y1323D01*
X7653Y1318D01*
X7646Y1312D01*
X7640Y1308D01*
X7638Y1307D01*
X7636Y1305D01*
X7617Y1287D01*
X7602Y1267D01*
X7586Y1244D01*
X7575Y1222D01*
X7564Y1199D01*
X7556Y1174D01*
X7549Y1150D01*
X7543Y1128D01*
X7538Y1106D01*
X7535Y1086D01*
X7532Y1067D01*
X7531Y1052D01*
Y1038D01*
X7529Y1028D01*
Y1020D01*
X7531Y988D01*
X7534Y957D01*
X7538Y930D01*
X7543Y903D01*
X7550Y880D01*
X7557Y857D01*
X7565Y837D01*
X7574Y819D01*
X7582Y802D01*
X7590Y788D01*
X7597Y777D01*
X7604Y767D01*
X7610Y759D01*
X7614Y753D01*
X7617Y751D01*
X7618Y749D01*
X7636Y733D01*
X7654Y719D01*
X7674Y706D01*
X7693Y695D01*
X7712Y687D01*
X7733Y679D01*
X7771Y667D01*
X7787Y665D01*
X7804Y662D01*
X7818Y659D01*
X7830Y658D01*
X7841Y656D01*
X7529D01*
X8181D01*
X7855D01*
X7889Y658D01*
X7919Y663D01*
X7948Y670D01*
X7972Y677D01*
X7993Y685D01*
X8001Y688D01*
X8008Y691D01*
X8015Y694D01*
X8019Y697D01*
X8020Y698D01*
X8022D01*
X8049Y716D01*
X8073Y735D01*
X8094Y755D01*
X8111Y774D01*
X8123Y791D01*
X8133Y805D01*
X8135Y810D01*
X8138Y814D01*
X8140Y816D01*
Y817D01*
X8153Y849D01*
X8163Y884D01*
X8172Y918D01*
X8176Y953D01*
X8178Y968D01*
Y982D01*
X8180Y996D01*
X8181Y1007D01*
Y1029D01*
X8180Y1060D01*
X8177Y1088D01*
X8173Y1114D01*
X8167Y1139D01*
X8160Y1163D01*
X8152Y1183D01*
X8144Y1204D01*
X8135Y1221D01*
X8127Y1236D01*
X8119Y1250D01*
X8111Y1262D01*
X8104Y1272D01*
X8098Y1279D01*
X8094Y1285D01*
X8091Y1287D01*
X8090Y1289D01*
X8072Y1305D01*
X8054Y1319D01*
X8034Y1333D01*
X8015Y1343D01*
X7995Y1353D01*
X7976Y1359D01*
X7939Y1372D01*
X7921Y1375D01*
X7905Y1377D01*
X7891Y1380D01*
X7879Y1382D01*
X7869Y1383D01*
X8181D01*
D02*
G37*
%LPD*%
G36*
X5919Y672D02*
X5639D01*
X5919Y1475D01*
Y672D01*
D02*
G37*
G36*
X5525D02*
X5248D01*
Y1488D01*
X5525Y672D01*
D02*
G37*
G36*
X4663Y1516D02*
X4684Y1515D01*
X4700Y1513D01*
X4711Y1511D01*
X4720Y1509D01*
X4725Y1508D01*
X4727D01*
X4745Y1501D01*
X4760Y1493D01*
X4774Y1484D01*
X4786Y1475D01*
X4795Y1465D01*
X4801Y1458D01*
X4806Y1452D01*
X4807Y1451D01*
X4817Y1434D01*
X4825Y1418D01*
X4831Y1400D01*
X4833Y1384D01*
X4836Y1371D01*
X4838Y1358D01*
Y1351D01*
Y1350D01*
Y1348D01*
X4835Y1319D01*
X4829Y1294D01*
X4821Y1272D01*
X4811Y1254D01*
X4801Y1240D01*
X4793Y1229D01*
X4788Y1224D01*
X4785Y1221D01*
X4775Y1212D01*
X4763Y1206D01*
X4736Y1194D01*
X4707Y1186D01*
X4678Y1181D01*
X4652Y1178D01*
X4641Y1176D01*
X4631D01*
X4621Y1175D01*
X4363D01*
Y1518D01*
X4638D01*
X4663Y1516D01*
D02*
G37*
G36*
X7872Y1285D02*
X7887Y1283D01*
X7915Y1276D01*
X7940Y1265D01*
X7961Y1253D01*
X7977Y1240D01*
X7990Y1230D01*
X7998Y1222D01*
X8001Y1221D01*
Y1219D01*
X8012Y1207D01*
X8020Y1192D01*
X8036Y1161D01*
X8047Y1128D01*
X8054Y1097D01*
X8058Y1068D01*
X8059Y1056D01*
Y1045D01*
X8061Y1036D01*
Y1029D01*
Y1025D01*
Y1024D01*
Y999D01*
X8058Y975D01*
X8055Y954D01*
X8051Y934D01*
X8047Y916D01*
X8041Y899D01*
X8037Y884D01*
X8031Y870D01*
X8026Y859D01*
X8020Y848D01*
X8015Y839D01*
X8011Y832D01*
X8006Y827D01*
X8004Y823D01*
X8002Y821D01*
X8001Y820D01*
X7990Y809D01*
X7977Y798D01*
X7954Y781D01*
X7929Y770D01*
X7907Y762D01*
X7886Y758D01*
X7871Y755D01*
X7864Y753D01*
X7855D01*
X7839Y755D01*
X7823Y756D01*
X7794Y763D01*
X7769Y774D01*
X7749Y787D01*
X7732Y798D01*
X7719Y809D01*
X7711Y816D01*
X7710Y819D01*
X7708D01*
X7699Y832D01*
X7689Y846D01*
X7675Y878D01*
X7664Y911D01*
X7657Y945D01*
X7653Y974D01*
X7651Y986D01*
Y997D01*
X7650Y1007D01*
Y1014D01*
Y1018D01*
Y1020D01*
X7651Y1043D01*
X7653Y1067D01*
X7656Y1088D01*
X7660Y1107D01*
X7664Y1125D01*
X7668Y1142D01*
X7674Y1156D01*
X7679Y1169D01*
X7685Y1181D01*
X7690Y1192D01*
X7694Y1200D01*
X7699Y1207D01*
X7703Y1212D01*
X7706Y1217D01*
X7708Y1218D01*
Y1219D01*
X7719Y1230D01*
X7732Y1242D01*
X7755Y1258D01*
X7780Y1269D01*
X7804Y1278D01*
X7825Y1283D01*
X7840Y1285D01*
X7847Y1286D01*
X7855D01*
X7872Y1285D01*
D02*
G37*
%LPC*%
G36*
X8573Y-689D02*
X8092D01*
X8545D01*
X8499Y-691D01*
X8454Y-698D01*
X8416Y-707D01*
X8398Y-712D01*
X8381Y-718D01*
X8366Y-723D01*
X8352Y-729D01*
X8341Y-733D01*
X8330Y-737D01*
X8323Y-741D01*
X8317Y-744D01*
X8313Y-745D01*
X8312Y-747D01*
X8274Y-770D01*
X8242Y-798D01*
X8215Y-826D01*
X8191Y-854D01*
X8173Y-879D01*
X8166Y-890D01*
X8160Y-899D01*
X8155Y-906D01*
X8152Y-912D01*
X8151Y-916D01*
X8149Y-917D01*
X8130Y-960D01*
X8116Y-1005D01*
X8106Y-1049D01*
X8099Y-1089D01*
X8097Y-1107D01*
X8095Y-1125D01*
X8094Y-1139D01*
Y-1153D01*
X8092Y-1163D01*
Y-1178D01*
X8095Y-1228D01*
X8101Y-1277D01*
X8108Y-1320D01*
X8113Y-1340D01*
X8117Y-1358D01*
X8122Y-1375D01*
X8127Y-1390D01*
X8131Y-1404D01*
X8134Y-1415D01*
X8138Y-1424D01*
X8140Y-1431D01*
X8142Y-1435D01*
Y-1436D01*
X8163Y-1478D01*
X8187Y-1515D01*
X8212Y-1547D01*
X8224Y-1560D01*
X8235Y-1572D01*
X8246Y-1583D01*
X8258Y-1593D01*
X8267Y-1601D01*
X8276Y-1607D01*
X8281Y-1612D01*
X8287Y-1616D01*
X8289Y-1618D01*
X8291Y-1619D01*
X8310Y-1630D01*
X8330Y-1640D01*
X8371Y-1655D01*
X8413Y-1666D01*
X8453Y-1673D01*
X8472Y-1676D01*
X8489Y-1679D01*
X8504Y-1680D01*
X8517D01*
X8528Y-1682D01*
X8092D01*
X8543D01*
X8571Y-1680D01*
X8597Y-1677D01*
X8622Y-1675D01*
X8646Y-1669D01*
X8668Y-1662D01*
X8689Y-1655D01*
X8708Y-1648D01*
X8726Y-1640D01*
X8742Y-1633D01*
X8757Y-1626D01*
X8768Y-1619D01*
X8779Y-1612D01*
X8786Y-1607D01*
X8793Y-1604D01*
X8796Y-1601D01*
X8797Y-1600D01*
X8816Y-1583D01*
X8833Y-1566D01*
X8848Y-1547D01*
X8864Y-1528D01*
X8889Y-1489D01*
X8908Y-1450D01*
X8916Y-1432D01*
X8923Y-1415D01*
X8929Y-1400D01*
X8933Y-1388D01*
X8937Y-1377D01*
X8940Y-1368D01*
X8941Y-1363D01*
Y-1361D01*
X8814Y-1329D01*
X8808Y-1352D01*
X8801Y-1372D01*
X8794Y-1392D01*
X8787Y-1410D01*
X8779Y-1426D01*
X8771Y-1440D01*
X8761Y-1454D01*
X8753Y-1467D01*
X8746Y-1478D01*
X8737Y-1486D01*
X8730Y-1494D01*
X8725Y-1501D01*
X8719Y-1505D01*
X8715Y-1510D01*
X8714Y-1511D01*
X8712Y-1512D01*
X8699Y-1524D01*
X8683Y-1532D01*
X8653Y-1547D01*
X8624Y-1558D01*
X8595Y-1565D01*
X8570Y-1571D01*
X8560Y-1572D01*
X8550D01*
X8542Y-1573D01*
X8532D01*
X8500Y-1572D01*
X8470Y-1566D01*
X8442Y-1560D01*
X8417Y-1551D01*
X8398Y-1543D01*
X8389Y-1539D01*
X8382Y-1536D01*
X8377Y-1533D01*
X8373Y-1530D01*
X8370Y-1529D01*
X8368D01*
X8342Y-1510D01*
X8320Y-1489D01*
X8300Y-1465D01*
X8285Y-1443D01*
X8273Y-1424D01*
X8264Y-1407D01*
X8262Y-1400D01*
X8259Y-1396D01*
X8258Y-1393D01*
Y-1392D01*
X8246Y-1356D01*
X8238Y-1320D01*
X8231Y-1284D01*
X8227Y-1250D01*
X8226Y-1235D01*
X8224Y-1221D01*
Y-1209D01*
X8223Y-1199D01*
Y-1191D01*
Y-1184D01*
Y-1180D01*
Y-1178D01*
X8224Y-1142D01*
X8227Y-1109D01*
X8233Y-1078D01*
X8238Y-1051D01*
X8242Y-1027D01*
X8245Y-1017D01*
X8248Y-1009D01*
X8249Y-1002D01*
X8251Y-998D01*
X8252Y-995D01*
Y-994D01*
X8266Y-962D01*
X8281Y-933D01*
X8298Y-909D01*
X8316Y-888D01*
X8331Y-872D01*
X8343Y-861D01*
X8353Y-854D01*
X8355Y-851D01*
X8356D01*
X8385Y-833D01*
X8417Y-819D01*
X8448Y-809D01*
X8477Y-804D01*
X8503Y-800D01*
X8514Y-798D01*
X8524D01*
X8531Y-797D01*
X8542D01*
X8576Y-798D01*
X8608Y-804D01*
X8635Y-812D01*
X8658Y-820D01*
X8676Y-830D01*
X8690Y-837D01*
X8699Y-843D01*
X8701Y-845D01*
X8723Y-866D01*
X8744Y-890D01*
X8761Y-915D01*
X8775Y-940D01*
X8786Y-962D01*
X8790Y-973D01*
X8793Y-981D01*
X8796Y-988D01*
X8798Y-994D01*
X8800Y-997D01*
Y-998D01*
X8925Y-969D01*
X8916Y-944D01*
X8908Y-922D01*
X8897Y-901D01*
X8887Y-880D01*
X8876Y-862D01*
X8864Y-845D01*
X8852Y-829D01*
X8841Y-815D01*
X8830Y-804D01*
X8821Y-793D01*
X8811Y-783D01*
X8804Y-776D01*
X8797Y-769D01*
X8791Y-765D01*
X8789Y-764D01*
X8787Y-762D01*
X8768Y-750D01*
X8748Y-737D01*
X8729Y-727D01*
X8708Y-719D01*
X8667Y-707D01*
X8629Y-698D01*
X8611Y-694D01*
X8596Y-693D01*
X8581Y-691D01*
X8568Y-690D01*
X8558Y-689D01*
X8573D01*
D02*
G37*
G36*
X7936D02*
X7572D01*
X7753D01*
X7726Y-691D01*
X7701Y-697D01*
X7679Y-705D01*
X7661Y-715D01*
X7646Y-726D01*
X7635Y-734D01*
X7628Y-740D01*
X7625Y-743D01*
X7607Y-764D01*
X7595Y-784D01*
X7585Y-807D01*
X7579Y-826D01*
X7575Y-844D01*
X7574Y-858D01*
X7572Y-863D01*
Y-1052D01*
Y-870D01*
X7575Y-898D01*
X7581Y-923D01*
X7589Y-945D01*
X7599Y-963D01*
X7608Y-978D01*
X7617Y-990D01*
X7622Y-997D01*
X7625Y-999D01*
X7646Y-1017D01*
X7667Y-1030D01*
X7689Y-1039D01*
X7708Y-1045D01*
X7726Y-1049D01*
X7740Y-1051D01*
X7746Y-1052D01*
X7753D01*
X7780Y-1049D01*
X7805Y-1044D01*
X7828Y-1035D01*
X7846Y-1026D01*
X7861Y-1016D01*
X7872Y-1008D01*
X7879Y-1002D01*
X7882Y-999D01*
X7900Y-978D01*
X7914Y-956D01*
X7923Y-935D01*
X7929Y-915D01*
X7933Y-897D01*
X7934Y-883D01*
X7936Y-877D01*
Y-870D01*
X7933Y-844D01*
X7927Y-819D01*
X7919Y-797D01*
X7909Y-779D01*
X7898Y-764D01*
X7890Y-752D01*
X7884Y-745D01*
X7882Y-743D01*
X7861Y-725D01*
X7839Y-711D01*
X7818Y-701D01*
X7797Y-696D01*
X7779Y-691D01*
X7765Y-690D01*
X7760Y-689D01*
X7936D01*
D02*
G37*
G36*
X9249Y-969D02*
X9115D01*
Y-1103D01*
X9249D01*
Y-969D01*
D02*
G37*
G36*
X5373Y-689D02*
X5358D01*
X5319Y-690D01*
X5283Y-693D01*
X5247Y-697D01*
X5213Y-704D01*
X5181Y-711D01*
X5152Y-718D01*
X5125Y-727D01*
X5100Y-736D01*
X5077Y-744D01*
X5058Y-752D01*
X5040Y-761D01*
X5026Y-768D01*
X5015Y-775D01*
X5007Y-779D01*
X5001Y-782D01*
X5000Y-783D01*
X4973Y-801D01*
X4949Y-822D01*
X4925Y-843D01*
X4903Y-865D01*
X4882Y-888D01*
X4864Y-911D01*
X4847Y-933D01*
X4832Y-954D01*
X4818Y-974D01*
X4807Y-994D01*
X4796Y-1010D01*
X4789Y-1026D01*
X4782Y-1038D01*
X4778Y-1046D01*
X4775Y-1053D01*
X4774Y-1055D01*
X4763Y-1082D01*
X4753Y-1110D01*
X4736Y-1164D01*
X4725Y-1216D01*
X4720Y-1239D01*
X4717Y-1261D01*
X4714Y-1282D01*
X4713Y-1302D01*
X4710Y-1318D01*
Y-1332D01*
X4709Y-1345D01*
Y-1340D01*
Y-1360D01*
X4711Y-1413D01*
X4717Y-1461D01*
X4725Y-1507D01*
X4731Y-1528D01*
X4736Y-1547D01*
X4740Y-1564D01*
X4746Y-1579D01*
X4750Y-1593D01*
X4754Y-1604D01*
X4757Y-1614D01*
X4760Y-1621D01*
X4763Y-1625D01*
Y-1626D01*
X4781Y-1661D01*
X4801Y-1694D01*
X4824Y-1723D01*
X4845Y-1748D01*
X4864Y-1769D01*
X4872Y-1777D01*
X4879Y-1784D01*
X4885Y-1791D01*
X4889Y-1795D01*
X4892Y-1797D01*
X4893Y-1798D01*
X4926Y-1824D01*
X4962Y-1847D01*
X4997Y-1866D01*
X5029Y-1883D01*
X5044Y-1888D01*
X5058Y-1895D01*
X5071Y-1899D01*
X5080Y-1903D01*
X5090Y-1906D01*
X5096Y-1909D01*
X5100Y-1910D01*
X5101D01*
X5148Y-1923D01*
X5195Y-1933D01*
X5241Y-1938D01*
X5262Y-1941D01*
X5281Y-1944D01*
X5301Y-1945D01*
X5317Y-1946D01*
X5333D01*
X5345Y-1948D01*
X5370D01*
X5427Y-1946D01*
X5453Y-1944D01*
X5478Y-1941D01*
X5503Y-1938D01*
X5525Y-1934D01*
X5545Y-1931D01*
X5564Y-1927D01*
X5581Y-1923D01*
X5596Y-1919D01*
X5609Y-1916D01*
X5620Y-1913D01*
X5628Y-1910D01*
X5634Y-1908D01*
X5638Y-1906D01*
X5639D01*
X5679Y-1890D01*
X5717Y-1870D01*
X5750Y-1852D01*
X5778Y-1834D01*
X5790Y-1826D01*
X5800Y-1818D01*
X5810Y-1811D01*
X5818Y-1805D01*
X5824Y-1799D01*
X5828Y-1795D01*
X5831Y-1794D01*
X5832Y-1793D01*
X5861Y-1766D01*
X5885Y-1741D01*
X5905Y-1718D01*
X5921Y-1697D01*
X5933Y-1679D01*
X5941Y-1665D01*
X5944Y-1661D01*
X5947Y-1657D01*
X5948Y-1655D01*
Y-1654D01*
X5831D01*
X5807Y-1683D01*
X5779Y-1709D01*
X5750Y-1734D01*
X5721Y-1754D01*
X5696Y-1770D01*
X5685Y-1777D01*
X5675Y-1783D01*
X5667Y-1787D01*
X5661Y-1790D01*
X5657Y-1791D01*
X5656Y-1793D01*
X5610Y-1812D01*
X5563Y-1826D01*
X5514Y-1837D01*
X5469Y-1844D01*
X5448Y-1845D01*
X5430Y-1848D01*
X5412Y-1849D01*
X5398D01*
X5385Y-1851D01*
X5369D01*
X5310Y-1848D01*
X5255Y-1842D01*
X5230Y-1838D01*
X5205Y-1833D01*
X5183Y-1829D01*
X5162Y-1823D01*
X5143Y-1818D01*
X5126Y-1813D01*
X5112Y-1808D01*
X5100Y-1804D01*
X5090Y-1801D01*
X5082Y-1798D01*
X5077Y-1795D01*
X5076D01*
X5053Y-1784D01*
X5030Y-1772D01*
X5008Y-1759D01*
X4989Y-1745D01*
X4971Y-1732D01*
X4954Y-1716D01*
X4940Y-1702D01*
X4926Y-1689D01*
X4914Y-1676D01*
X4904Y-1664D01*
X4896Y-1652D01*
X4887Y-1644D01*
X4882Y-1636D01*
X4878Y-1630D01*
X4876Y-1626D01*
X4875Y-1625D01*
X4863Y-1603D01*
X4853Y-1580D01*
X4843Y-1557D01*
X4835Y-1533D01*
X4822Y-1487D01*
X4814Y-1443D01*
X4811Y-1424D01*
X4810Y-1406D01*
X4808Y-1389D01*
X4807Y-1375D01*
X4806Y-1364D01*
Y-1356D01*
Y-1350D01*
Y-1349D01*
X4807Y-1321D01*
X4808Y-1293D01*
X4817Y-1239D01*
X4822Y-1214D01*
X4828Y-1191D01*
X4833Y-1168D01*
X4840Y-1149D01*
X4847Y-1130D01*
X4853Y-1113D01*
X4858Y-1099D01*
X4864Y-1087D01*
X4868Y-1077D01*
X4872Y-1069D01*
X4874Y-1064D01*
X4875Y-1063D01*
X4889Y-1038D01*
X4903Y-1016D01*
X4919Y-994D01*
X4935Y-974D01*
X4951Y-955D01*
X4968Y-938D01*
X4983Y-923D01*
X4998Y-909D01*
X5014Y-897D01*
X5028Y-887D01*
X5039Y-877D01*
X5050Y-870D01*
X5058Y-863D01*
X5065Y-859D01*
X5069Y-858D01*
X5071Y-856D01*
X5094Y-844D01*
X5119Y-833D01*
X5144Y-823D01*
X5169Y-815D01*
X5216Y-802D01*
X5238Y-797D01*
X5259Y-793D01*
X5279Y-790D01*
X5297Y-788D01*
X5312Y-787D01*
X5326Y-786D01*
X5337Y-784D01*
X5352D01*
X5401Y-787D01*
X5448Y-793D01*
X5489Y-802D01*
X5507Y-808D01*
X5525Y-812D01*
X5541Y-818D01*
X5556Y-823D01*
X5568Y-827D01*
X5578Y-833D01*
X5586Y-836D01*
X5592Y-838D01*
X5596Y-841D01*
X5598D01*
X5636Y-863D01*
X5671Y-888D01*
X5699Y-915D01*
X5722Y-938D01*
X5740Y-960D01*
X5747Y-970D01*
X5754Y-978D01*
X5758Y-984D01*
X5761Y-990D01*
X5764Y-992D01*
Y-994D01*
X5783Y-1030D01*
X5797Y-1066D01*
X5807Y-1099D01*
X5814Y-1131D01*
X5817Y-1145D01*
X5818Y-1157D01*
X5819Y-1170D01*
Y-1180D01*
X5821Y-1187D01*
Y-1192D01*
Y-1196D01*
Y-1198D01*
X5819Y-1232D01*
X5814Y-1266D01*
X5807Y-1296D01*
X5799Y-1324D01*
X5790Y-1346D01*
X5786Y-1356D01*
X5783Y-1364D01*
X5781Y-1371D01*
X5778Y-1375D01*
X5776Y-1378D01*
Y-1379D01*
X5758Y-1410D01*
X5740Y-1438D01*
X5721Y-1462D01*
X5702Y-1482D01*
X5685Y-1499D01*
X5671Y-1510D01*
X5666Y-1514D01*
X5661Y-1517D01*
X5660Y-1519D01*
X5659D01*
X5639Y-1532D01*
X5621Y-1542D01*
X5606Y-1548D01*
X5593Y-1553D01*
X5582Y-1555D01*
X5575Y-1558D01*
X5568D01*
X5555Y-1557D01*
X5545Y-1551D01*
X5538Y-1547D01*
X5535Y-1546D01*
X5528Y-1536D01*
X5524Y-1526D01*
X5523Y-1518D01*
Y-1517D01*
Y-1515D01*
Y-1512D01*
X5524Y-1508D01*
Y-1503D01*
X5525Y-1496D01*
X5528Y-1479D01*
X5532Y-1461D01*
X5537Y-1443D01*
X5539Y-1428D01*
X5541Y-1422D01*
Y-1418D01*
X5542Y-1415D01*
Y-1414D01*
X5636Y-973D01*
X5518D01*
X5496Y-1074D01*
X5482Y-1053D01*
X5467Y-1035D01*
X5452Y-1020D01*
X5438Y-1006D01*
X5426Y-997D01*
X5416Y-990D01*
X5410Y-985D01*
X5408Y-984D01*
X5388Y-974D01*
X5369Y-966D01*
X5351Y-960D01*
X5334Y-958D01*
X5320Y-955D01*
X5309Y-954D01*
X5299D01*
X5272Y-956D01*
X5244Y-962D01*
X5218Y-970D01*
X5194Y-980D01*
X5175Y-990D01*
X5159Y-998D01*
X5154Y-1001D01*
X5150Y-1003D01*
X5147Y-1006D01*
X5145D01*
X5118Y-1028D01*
X5091Y-1053D01*
X5069Y-1080D01*
X5050Y-1105D01*
X5033Y-1128D01*
X5028Y-1138D01*
X5022Y-1146D01*
X5018Y-1155D01*
X5015Y-1160D01*
X5012Y-1163D01*
Y-1164D01*
X4994Y-1203D01*
X4982Y-1241D01*
X4972Y-1275D01*
X4967Y-1307D01*
X4964Y-1321D01*
X4962Y-1334D01*
X4961Y-1345D01*
Y-1354D01*
X4960Y-1363D01*
Y-1368D01*
Y-1371D01*
Y-1372D01*
X4961Y-1403D01*
X4965Y-1432D01*
X4971Y-1458D01*
X4976Y-1482D01*
X4982Y-1501D01*
X4987Y-1515D01*
X4990Y-1521D01*
X4991Y-1525D01*
X4993Y-1526D01*
Y-1528D01*
X5007Y-1553D01*
X5022Y-1573D01*
X5036Y-1591D01*
X5050Y-1607D01*
X5062Y-1618D01*
X5073Y-1626D01*
X5079Y-1632D01*
X5082Y-1633D01*
X5102Y-1644D01*
X5123Y-1652D01*
X5143Y-1658D01*
X5159Y-1662D01*
X5175Y-1665D01*
X5186Y-1666D01*
X5195D01*
X5216Y-1665D01*
X5236Y-1662D01*
X5254Y-1657D01*
X5269Y-1651D01*
X5283Y-1647D01*
X5292Y-1641D01*
X5299Y-1639D01*
X5302Y-1637D01*
X5322Y-1625D01*
X5340Y-1612D01*
X5356Y-1598D01*
X5370Y-1586D01*
X5381Y-1575D01*
X5391Y-1566D01*
X5396Y-1561D01*
X5398Y-1558D01*
X5399Y-1572D01*
X5401Y-1585D01*
X5402Y-1594D01*
X5405Y-1601D01*
X5406Y-1608D01*
X5408Y-1612D01*
X5409Y-1614D01*
Y-1615D01*
X5421Y-1632D01*
X5435Y-1644D01*
X5441Y-1648D01*
X5446Y-1651D01*
X5449Y-1654D01*
X5451D01*
X5462Y-1658D01*
X5474Y-1662D01*
X5498Y-1666D01*
X5509D01*
X5517Y-1668D01*
X5524D01*
X5550Y-1666D01*
X5575Y-1662D01*
X5600Y-1655D01*
X5624Y-1647D01*
X5646Y-1637D01*
X5668Y-1626D01*
X5688Y-1614D01*
X5706Y-1601D01*
X5724Y-1590D01*
X5738Y-1578D01*
X5751Y-1566D01*
X5763Y-1557D01*
X5771Y-1548D01*
X5778Y-1542D01*
X5782Y-1537D01*
X5783Y-1536D01*
X5807Y-1508D01*
X5828Y-1479D01*
X5846Y-1450D01*
X5861Y-1421D01*
X5875Y-1393D01*
X5885Y-1364D01*
X5894Y-1338D01*
X5901Y-1313D01*
X5907Y-1289D01*
X5911Y-1267D01*
X5914Y-1248D01*
X5917Y-1231D01*
Y-1217D01*
X5918Y-1207D01*
Y-1202D01*
Y-1199D01*
Y-1174D01*
X5915Y-1150D01*
X5908Y-1105D01*
X5897Y-1063D01*
X5892Y-1045D01*
X5886Y-1027D01*
X5880Y-1010D01*
X5875Y-997D01*
X5869Y-984D01*
X5864Y-973D01*
X5860Y-965D01*
X5857Y-959D01*
X5856Y-955D01*
X5854Y-954D01*
X5839Y-930D01*
X5824Y-908D01*
X5807Y-886D01*
X5790Y-868D01*
X5774Y-850D01*
X5756Y-833D01*
X5739Y-818D01*
X5724Y-805D01*
X5708Y-793D01*
X5695Y-783D01*
X5681Y-775D01*
X5671Y-768D01*
X5661Y-762D01*
X5654Y-758D01*
X5650Y-757D01*
X5649Y-755D01*
X5624Y-744D01*
X5599Y-733D01*
X5549Y-716D01*
X5500Y-705D01*
X5477Y-701D01*
X5455Y-697D01*
X5434Y-694D01*
X5416Y-691D01*
X5399Y-690D01*
X5385D01*
X5373Y-689D01*
D02*
G37*
G36*
X3878Y-705D02*
X3749D01*
X3488Y-1403D01*
X3477Y-1432D01*
X3467Y-1460D01*
X3459Y-1486D01*
X3452Y-1510D01*
X3445Y-1530D01*
X3441Y-1546D01*
X3440Y-1551D01*
X3438Y-1555D01*
X3437Y-1558D01*
Y-1560D01*
X3420Y-1504D01*
X3412Y-1478D01*
X3404Y-1454D01*
X3397Y-1433D01*
X3394Y-1425D01*
X3392Y-1417D01*
X3390Y-1411D01*
X3388Y-1407D01*
X3387Y-1404D01*
Y-1403D01*
X3137Y-705D01*
X2999D01*
X3370Y-1665D01*
X2999D01*
Y-705D01*
D01*
Y-1665D01*
X3878D01*
X3503D01*
X3878Y-705D01*
D01*
D02*
G37*
G36*
X7389Y-718D02*
X6912D01*
X6819Y-1211D01*
X6930Y-1227D01*
X6940Y-1211D01*
X6952Y-1199D01*
X6964Y-1187D01*
X6975Y-1177D01*
X6986Y-1170D01*
X6994Y-1163D01*
X7000Y-1160D01*
X7001Y-1159D01*
X7019Y-1150D01*
X7037Y-1144D01*
X7054Y-1139D01*
X7070Y-1135D01*
X7084Y-1134D01*
X7095Y-1132D01*
X7122D01*
X7138Y-1135D01*
X7167Y-1142D01*
X7192Y-1152D01*
X7215Y-1162D01*
X7231Y-1173D01*
X7244Y-1182D01*
X7251Y-1189D01*
X7253Y-1191D01*
Y-1192D01*
X7273Y-1216D01*
X7287Y-1241D01*
X7296Y-1267D01*
X7303Y-1293D01*
X7308Y-1315D01*
X7309Y-1325D01*
Y-1334D01*
X7310Y-1340D01*
Y-1346D01*
Y-1349D01*
Y-1350D01*
Y-1370D01*
X7308Y-1388D01*
X7301Y-1422D01*
X7291Y-1451D01*
X7281Y-1475D01*
X7270Y-1494D01*
X7260Y-1510D01*
X7256Y-1514D01*
X7253Y-1518D01*
X7252Y-1519D01*
X7251Y-1521D01*
X7240Y-1532D01*
X7228Y-1542D01*
X7204Y-1558D01*
X7180Y-1569D01*
X7156Y-1576D01*
X7137Y-1582D01*
X7120Y-1583D01*
X7115Y-1585D01*
X7106D01*
X7080Y-1583D01*
X7057Y-1578D01*
X7036Y-1571D01*
X7019Y-1562D01*
X7004Y-1554D01*
X6993Y-1547D01*
X6987Y-1542D01*
X6984Y-1540D01*
X6968Y-1521D01*
X6954Y-1500D01*
X6943Y-1476D01*
X6934Y-1456D01*
X6929Y-1435D01*
X6925Y-1419D01*
X6923Y-1413D01*
X6922Y-1408D01*
Y-1406D01*
Y-1404D01*
X6799Y-1414D01*
X6801Y-1436D01*
X6805Y-1457D01*
X6818Y-1496D01*
X6833Y-1529D01*
X6842Y-1544D01*
X6850Y-1557D01*
X6857Y-1569D01*
X6865Y-1580D01*
X6872Y-1589D01*
X6879Y-1596D01*
X6885Y-1601D01*
X6887Y-1607D01*
X6890Y-1608D01*
X6891Y-1609D01*
X6908Y-1622D01*
X6925Y-1633D01*
X6943Y-1643D01*
X6961Y-1651D01*
X6995Y-1664D01*
X7030Y-1672D01*
X7045Y-1676D01*
X7061Y-1677D01*
X7073Y-1679D01*
X7084Y-1680D01*
X7094Y-1682D01*
X6799D01*
X7435D01*
D01*
X7106D01*
X7136Y-1680D01*
X7163Y-1676D01*
X7190Y-1671D01*
X7213Y-1664D01*
X7235Y-1654D01*
X7256Y-1644D01*
X7276Y-1634D01*
X7292Y-1623D01*
X7308Y-1612D01*
X7321Y-1603D01*
X7332Y-1591D01*
X7342Y-1583D01*
X7349Y-1576D01*
X7355Y-1571D01*
X7357Y-1566D01*
X7359Y-1565D01*
X7373Y-1547D01*
X7384Y-1528D01*
X7395Y-1510D01*
X7403Y-1490D01*
X7417Y-1453D01*
X7425Y-1417D01*
X7428Y-1401D01*
X7431Y-1386D01*
X7432Y-1374D01*
X7434Y-1363D01*
X7435Y-1353D01*
Y-1340D01*
X7434Y-1315D01*
X7431Y-1292D01*
X7427Y-1268D01*
X7421Y-1248D01*
X7414Y-1228D01*
X7407Y-1209D01*
X7399Y-1192D01*
X7392Y-1177D01*
X7384Y-1163D01*
X7375Y-1150D01*
X7369Y-1141D01*
X7362Y-1131D01*
X7356Y-1124D01*
X7352Y-1120D01*
X7349Y-1117D01*
X7348Y-1116D01*
X7331Y-1101D01*
X7314Y-1087D01*
X7296Y-1076D01*
X7278Y-1066D01*
X7260Y-1056D01*
X7242Y-1049D01*
X7209Y-1039D01*
X7194Y-1035D01*
X7180Y-1033D01*
X7167Y-1031D01*
X7156Y-1030D01*
X7148Y-1028D01*
X7118D01*
X7101Y-1031D01*
X7068Y-1038D01*
X7037Y-1048D01*
X7009Y-1059D01*
X6987Y-1070D01*
X6977Y-1076D01*
X6969Y-1080D01*
X6962Y-1084D01*
X6958Y-1087D01*
X6955Y-1088D01*
X6954Y-1089D01*
X7005Y-830D01*
X7389D01*
Y-718D01*
D02*
G37*
G36*
X9249Y-1177D02*
Y-1530D01*
X9115D01*
Y-1665D01*
X9249D01*
Y-1177D01*
D02*
G37*
G36*
X6384Y-701D02*
X6370D01*
X6345Y-702D01*
X6321Y-704D01*
X6299Y-708D01*
X6278Y-712D01*
X6259Y-718D01*
X6241Y-723D01*
X6224Y-730D01*
X6209Y-737D01*
X6195Y-744D01*
X6184Y-751D01*
X6174Y-757D01*
X6166Y-762D01*
X6159Y-766D01*
X6155Y-770D01*
X6152Y-772D01*
X6151Y-773D01*
X6137Y-787D01*
X6125Y-802D01*
X6112Y-819D01*
X6102Y-836D01*
X6086Y-869D01*
X6075Y-902D01*
X6070Y-917D01*
X6066Y-933D01*
X6064Y-945D01*
X6061Y-956D01*
X6059Y-966D01*
Y-973D01*
X6058Y-977D01*
Y-978D01*
X6179Y-991D01*
X6181Y-959D01*
X6187Y-931D01*
X6195Y-906D01*
X6205Y-887D01*
X6213Y-870D01*
X6222Y-859D01*
X6227Y-852D01*
X6230Y-850D01*
X6251Y-833D01*
X6273Y-820D01*
X6297Y-811D01*
X6317Y-805D01*
X6337Y-801D01*
X6353Y-800D01*
X6359Y-798D01*
X6367D01*
X6396Y-800D01*
X6423Y-805D01*
X6445Y-813D01*
X6464Y-822D01*
X6480Y-831D01*
X6489Y-838D01*
X6496Y-844D01*
X6499Y-847D01*
X6516Y-866D01*
X6528Y-886D01*
X6538Y-905D01*
X6543Y-924D01*
X6548Y-940D01*
X6549Y-954D01*
X6550Y-962D01*
Y-963D01*
Y-965D01*
X6548Y-990D01*
X6542Y-1016D01*
X6532Y-1039D01*
X6523Y-1062D01*
X6511Y-1080D01*
X6502Y-1095D01*
X6499Y-1101D01*
X6496Y-1105D01*
X6493Y-1106D01*
Y-1107D01*
X6482Y-1123D01*
X6468Y-1138D01*
X6453Y-1155D01*
X6437Y-1171D01*
X6402Y-1205D01*
X6367Y-1238D01*
X6349Y-1253D01*
X6334Y-1267D01*
X6319Y-1279D01*
X6306Y-1291D01*
X6297Y-1299D01*
X6288Y-1306D01*
X6283Y-1310D01*
X6281Y-1311D01*
X6247Y-1340D01*
X6215Y-1368D01*
X6188Y-1393D01*
X6168Y-1414D01*
X6150Y-1432D01*
X6137Y-1444D01*
X6130Y-1453D01*
X6127Y-1454D01*
Y-1456D01*
X6108Y-1479D01*
X6093Y-1501D01*
X6079Y-1524D01*
X6068Y-1543D01*
X6059Y-1560D01*
X6054Y-1572D01*
X6051Y-1580D01*
X6050Y-1582D01*
Y-1583D01*
X6044Y-1598D01*
X6041Y-1612D01*
X6039Y-1626D01*
X6037Y-1639D01*
X6036Y-1650D01*
Y-1665D01*
X6672D01*
Y-1548D01*
Y-1551D01*
X6199D01*
X6216Y-1528D01*
X6224Y-1518D01*
X6231Y-1508D01*
X6238Y-1500D01*
X6244Y-1494D01*
X6248Y-1490D01*
X6249Y-1489D01*
X6256Y-1482D01*
X6265Y-1475D01*
X6284Y-1457D01*
X6306Y-1436D01*
X6330Y-1415D01*
X6352Y-1397D01*
X6362Y-1389D01*
X6370Y-1381D01*
X6377Y-1375D01*
X6383Y-1371D01*
X6385Y-1368D01*
X6387Y-1367D01*
X6409Y-1347D01*
X6431Y-1329D01*
X6450Y-1311D01*
X6468Y-1296D01*
X6485Y-1281D01*
X6499Y-1267D01*
X6513Y-1254D01*
X6524Y-1243D01*
X6535Y-1232D01*
X6543Y-1224D01*
X6550Y-1217D01*
X6557Y-1210D01*
X6564Y-1202D01*
X6567Y-1199D01*
X6586Y-1175D01*
X6603Y-1155D01*
X6617Y-1134D01*
X6628Y-1117D01*
X6636Y-1102D01*
X6642Y-1091D01*
X6645Y-1084D01*
X6646Y-1081D01*
X6654Y-1060D01*
X6660Y-1039D01*
X6665Y-1020D01*
X6668Y-1003D01*
X6670Y-988D01*
X6671Y-977D01*
Y-970D01*
Y-967D01*
X6670Y-947D01*
X6667Y-927D01*
X6664Y-908D01*
X6658Y-891D01*
X6645Y-858D01*
X6631Y-831D01*
X6622Y-819D01*
X6615Y-809D01*
X6609Y-800D01*
X6602Y-793D01*
X6596Y-787D01*
X6593Y-782D01*
X6591Y-780D01*
X6589Y-779D01*
X6574Y-765D01*
X6557Y-752D01*
X6539Y-743D01*
X6521Y-734D01*
X6485Y-721D01*
X6449Y-711D01*
X6434Y-708D01*
X6419Y-705D01*
X6405Y-704D01*
X6394Y-702D01*
X6384Y-701D01*
D02*
G37*
G36*
X4093Y-705D02*
X3975D01*
Y-1680D01*
X4578D01*
Y-1307D01*
X4577Y-1279D01*
X4575Y-1253D01*
X4571Y-1230D01*
X4567Y-1209D01*
X4563Y-1191D01*
X4560Y-1177D01*
X4559Y-1173D01*
X4557Y-1168D01*
X4556Y-1167D01*
Y-1166D01*
X4548Y-1142D01*
X4538Y-1120D01*
X4528Y-1101D01*
X4519Y-1084D01*
X4510Y-1071D01*
X4503Y-1062D01*
X4499Y-1055D01*
X4498Y-1053D01*
X4484Y-1037D01*
X4467Y-1021D01*
X4452Y-1009D01*
X4437Y-999D01*
X4424Y-991D01*
X4413Y-984D01*
X4406Y-981D01*
X4403Y-980D01*
X4383Y-972D01*
X4360Y-965D01*
X4340Y-960D01*
X4322Y-956D01*
X4306Y-955D01*
X4294Y-954D01*
X4283D01*
X4262Y-955D01*
X4241Y-958D01*
X4222Y-962D01*
X4204Y-969D01*
X4172Y-983D01*
X4144Y-1001D01*
X4133Y-1009D01*
X4122Y-1017D01*
X4114Y-1026D01*
X4107Y-1033D01*
X4100Y-1039D01*
X4096Y-1044D01*
X4094Y-1046D01*
X4093Y-1048D01*
Y-705D01*
D02*
G37*
%LPD*%
G36*
X7771Y-761D02*
X7786Y-765D01*
X7798Y-770D01*
X7810Y-776D01*
X7819Y-782D01*
X7826Y-787D01*
X7830Y-791D01*
X7832Y-793D01*
X7843Y-805D01*
X7851Y-818D01*
X7857Y-831D01*
X7861Y-844D01*
X7864Y-854D01*
X7865Y-862D01*
Y-869D01*
Y-870D01*
X7864Y-887D01*
X7859Y-902D01*
X7854Y-916D01*
X7848Y-927D01*
X7843Y-937D01*
X7837Y-944D01*
X7833Y-948D01*
X7832Y-949D01*
X7819Y-960D01*
X7807Y-967D01*
X7793Y-973D01*
X7780Y-977D01*
X7771Y-980D01*
X7762Y-981D01*
X7754D01*
X7737Y-980D01*
X7722Y-976D01*
X7708Y-972D01*
X7697Y-965D01*
X7688Y-959D01*
X7681Y-955D01*
X7676Y-951D01*
X7675Y-949D01*
X7664Y-937D01*
X7657Y-923D01*
X7651Y-911D01*
X7647Y-898D01*
X7645Y-887D01*
X7643Y-879D01*
Y-872D01*
Y-870D01*
X7645Y-854D01*
X7649Y-838D01*
X7653Y-826D01*
X7660Y-815D01*
X7665Y-805D01*
X7669Y-798D01*
X7674Y-794D01*
X7675Y-793D01*
X7688Y-782D01*
X7701Y-773D01*
X7715Y-768D01*
X7728Y-764D01*
X7737Y-761D01*
X7747Y-759D01*
X7754D01*
X7771Y-761D01*
D02*
G37*
G36*
X5331Y-1053D02*
X5352Y-1059D01*
X5370Y-1066D01*
X5385Y-1076D01*
X5398Y-1085D01*
X5408Y-1092D01*
X5414Y-1098D01*
X5416Y-1101D01*
X5431Y-1121D01*
X5442Y-1144D01*
X5449Y-1166D01*
X5455Y-1188D01*
X5457Y-1209D01*
X5460Y-1224D01*
Y-1231D01*
Y-1235D01*
Y-1238D01*
Y-1239D01*
X5459Y-1264D01*
X5456Y-1288D01*
X5452Y-1310D01*
X5448Y-1331D01*
X5444Y-1347D01*
X5439Y-1361D01*
X5437Y-1370D01*
X5435Y-1371D01*
Y-1372D01*
X5426Y-1396D01*
X5416Y-1418D01*
X5406Y-1436D01*
X5396Y-1453D01*
X5387Y-1465D01*
X5381Y-1475D01*
X5376Y-1481D01*
X5374Y-1483D01*
X5360Y-1499D01*
X5347Y-1511D01*
X5334Y-1522D01*
X5322Y-1532D01*
X5312Y-1539D01*
X5304Y-1544D01*
X5298Y-1547D01*
X5297Y-1548D01*
X5281Y-1555D01*
X5267Y-1561D01*
X5255Y-1564D01*
X5244Y-1566D01*
X5234Y-1568D01*
X5227Y-1569D01*
X5220D01*
X5200Y-1566D01*
X5181Y-1561D01*
X5165Y-1554D01*
X5151Y-1544D01*
X5139Y-1536D01*
X5130Y-1528D01*
X5123Y-1522D01*
X5122Y-1521D01*
X5108Y-1500D01*
X5098Y-1478D01*
X5090Y-1454D01*
X5086Y-1432D01*
X5083Y-1411D01*
X5082Y-1396D01*
X5080Y-1389D01*
Y-1385D01*
Y-1382D01*
Y-1381D01*
X5082Y-1358D01*
X5083Y-1338D01*
X5087Y-1315D01*
X5091Y-1297D01*
X5094Y-1281D01*
X5098Y-1267D01*
X5100Y-1259D01*
X5101Y-1257D01*
Y-1256D01*
X5109Y-1231D01*
X5119Y-1209D01*
X5127Y-1189D01*
X5137Y-1173D01*
X5144Y-1159D01*
X5151Y-1149D01*
X5155Y-1144D01*
X5157Y-1141D01*
X5169Y-1124D01*
X5183Y-1110D01*
X5194Y-1099D01*
X5205Y-1089D01*
X5213Y-1082D01*
X5222Y-1077D01*
X5226Y-1074D01*
X5227Y-1073D01*
X5241Y-1066D01*
X5255Y-1060D01*
X5269Y-1056D01*
X5281Y-1053D01*
X5292Y-1052D01*
X5301Y-1051D01*
X5308D01*
X5331Y-1053D01*
D02*
G37*
G36*
X4299D02*
X4326Y-1060D01*
X4348Y-1071D01*
X4367Y-1082D01*
X4383Y-1095D01*
X4394Y-1106D01*
X4401Y-1113D01*
X4403Y-1114D01*
Y-1116D01*
X4413Y-1128D01*
X4422Y-1144D01*
X4435Y-1174D01*
X4445Y-1209D01*
X4451Y-1241D01*
X4455Y-1270D01*
X4456Y-1284D01*
Y-1295D01*
X4458Y-1304D01*
Y-1311D01*
Y-1315D01*
Y-1317D01*
Y-1340D01*
X4455Y-1364D01*
X4452Y-1385D01*
X4449Y-1404D01*
X4445Y-1422D01*
X4440Y-1439D01*
X4434Y-1453D01*
X4430Y-1467D01*
X4424Y-1478D01*
X4419Y-1489D01*
X4415Y-1497D01*
X4409Y-1504D01*
X4406Y-1510D01*
X4403Y-1514D01*
X4401Y-1515D01*
Y-1517D01*
X4390Y-1528D01*
X4379Y-1539D01*
X4356Y-1555D01*
X4334Y-1566D01*
X4313Y-1575D01*
X4295Y-1579D01*
X4280Y-1582D01*
X4275Y-1583D01*
X4268D01*
X4250Y-1582D01*
X4234Y-1579D01*
X4218Y-1575D01*
X4204Y-1569D01*
X4177Y-1554D01*
X4157Y-1537D01*
X4139Y-1522D01*
X4126Y-1507D01*
X4122Y-1501D01*
X4119Y-1497D01*
X4116Y-1494D01*
Y-1493D01*
X4111Y-1482D01*
X4105Y-1469D01*
X4097Y-1442D01*
X4091Y-1411D01*
X4087Y-1382D01*
X4085Y-1356D01*
Y-1343D01*
X4083Y-1334D01*
Y-1325D01*
Y-1318D01*
Y-1314D01*
Y-1313D01*
Y-1289D01*
X4086Y-1268D01*
X4089Y-1248D01*
X4091Y-1228D01*
X4096Y-1211D01*
X4101Y-1195D01*
X4105Y-1181D01*
X4111Y-1167D01*
X4116Y-1156D01*
X4121Y-1146D01*
X4126Y-1138D01*
X4130Y-1131D01*
X4133Y-1125D01*
X4136Y-1121D01*
X4139Y-1120D01*
Y-1119D01*
X4150Y-1106D01*
X4161Y-1096D01*
X4172Y-1087D01*
X4183Y-1080D01*
X4205Y-1067D01*
X4226Y-1059D01*
X4244Y-1055D01*
X4259Y-1052D01*
X4265Y-1051D01*
X4286D01*
X4299Y-1053D01*
D02*
G37*
G36*
X4578Y-1680D02*
X4277D01*
X4299Y-1679D01*
X4322Y-1676D01*
X4342Y-1672D01*
X4362Y-1665D01*
X4399Y-1650D01*
X4415Y-1640D01*
X4430Y-1632D01*
X4444Y-1622D01*
X4455Y-1614D01*
X4464Y-1605D01*
X4474Y-1598D01*
X4481Y-1591D01*
X4485Y-1587D01*
X4488Y-1585D01*
X4489Y-1583D01*
X4505Y-1564D01*
X4519Y-1543D01*
X4531Y-1522D01*
X4541Y-1499D01*
X4549Y-1476D01*
X4556Y-1453D01*
X4567Y-1408D01*
X4571Y-1388D01*
X4574Y-1368D01*
X4575Y-1352D01*
X4577Y-1336D01*
X4578Y-1324D01*
Y-1680D01*
D02*
G37*
G36*
X4098Y-1596D02*
X4112Y-1611D01*
X4128Y-1625D01*
X4144Y-1637D01*
X4159Y-1647D01*
X4176Y-1655D01*
X4191Y-1662D01*
X4207Y-1668D01*
X4234Y-1675D01*
X4247Y-1677D01*
X4256Y-1679D01*
X4265D01*
X4272Y-1680D01*
X3975D01*
Y-1665D01*
X4085D01*
Y-1578D01*
X4098Y-1596D01*
D02*
G37*
D10*
X-18576Y-4870D02*
G03*
X-18576Y-4870I-224J0D01*
G01*
D11*
X-6000Y3000D02*
Y5500D01*
X15000D01*
Y3000D02*
Y5500D01*
X-6000Y3000D02*
X15000D01*
D12*
X-18000Y-6110D02*
Y-4220D01*
X-13000Y-6110D02*
Y-2970D01*
X-18000Y-6110D02*
X-13000D01*
X-18000Y6110D02*
X-13000D01*
Y4220D02*
Y6110D01*
X-18000Y2970D02*
Y6110D01*
X-1800Y1350D02*
X1800D01*
X-1800Y-1350D02*
X1800D01*
X-1800D02*
Y1350D01*
X1800Y-1350D02*
Y1350D01*
X-4521Y4650D02*
X-4635Y4764D01*
X-4807Y4821D01*
X-5035D01*
X-5206Y4764D01*
X-5321Y4650D01*
Y4536D01*
X-5264Y4421D01*
X-5206Y4364D01*
X-5092Y4307D01*
X-4749Y4193D01*
X-4635Y4136D01*
X-4578Y4079D01*
X-4521Y3964D01*
Y3793D01*
X-4635Y3679D01*
X-4807Y3622D01*
X-5035D01*
X-5206Y3679D01*
X-5321Y3793D01*
X-4138Y4821D02*
X-4081Y4764D01*
X-4024Y4821D01*
X-4081Y4878D01*
X-4138Y4821D01*
X-4081Y4421D02*
Y3622D01*
X-3812Y4193D02*
X-3298D01*
X-3127Y4250D01*
X-3070Y4307D01*
X-3013Y4421D01*
Y4593D01*
X-3070Y4707D01*
X-3127Y4764D01*
X-3298Y4821D01*
X-3812D01*
Y3622D01*
X-2744Y4821D02*
Y3622D01*
Y4821D02*
X-2287Y3622D01*
X-1830Y4821D02*
X-2287Y3622D01*
X-1830Y4821D02*
Y3622D01*
X312Y4536D02*
X255Y4650D01*
X141Y4764D01*
X27Y4821D01*
X-202D01*
X-316Y4764D01*
X-430Y4650D01*
X-488Y4536D01*
X-545Y4364D01*
Y4079D01*
X-488Y3907D01*
X-430Y3793D01*
X-316Y3679D01*
X-202Y3622D01*
X27D01*
X141Y3679D01*
X255Y3793D01*
X312Y3907D01*
X1335Y4421D02*
Y3622D01*
Y4250D02*
X1221Y4364D01*
X1106Y4421D01*
X935D01*
X821Y4364D01*
X707Y4250D01*
X649Y4079D01*
Y3964D01*
X707Y3793D01*
X821Y3679D01*
X935Y3622D01*
X1106D01*
X1221Y3679D01*
X1335Y3793D01*
X1655Y4421D02*
Y3622D01*
Y4079D02*
X1712Y4250D01*
X1826Y4364D01*
X1941Y4421D01*
X2112D01*
X2220D02*
Y3622D01*
Y4079D02*
X2278Y4250D01*
X2392Y4364D01*
X2506Y4421D01*
X2678D01*
X2900Y4821D02*
X2957Y4764D01*
X3015Y4821D01*
X2957Y4878D01*
X2900Y4821D01*
X2957Y4421D02*
Y3622D01*
X3226Y4079D02*
X3912D01*
Y4193D01*
X3854Y4307D01*
X3797Y4364D01*
X3683Y4421D01*
X3512D01*
X3397Y4364D01*
X3283Y4250D01*
X3226Y4079D01*
Y3964D01*
X3283Y3793D01*
X3397Y3679D01*
X3512Y3622D01*
X3683D01*
X3797Y3679D01*
X3912Y3793D01*
X4169Y4421D02*
Y3622D01*
Y4079D02*
X4226Y4250D01*
X4340Y4364D01*
X4454Y4421D01*
X4626D01*
X5677Y4821D02*
Y3622D01*
Y4821D02*
X6191D01*
X6362Y4764D01*
X6420Y4707D01*
X6477Y4593D01*
Y4479D01*
X6420Y4364D01*
X6362Y4307D01*
X6191Y4250D01*
X5677D02*
X6191D01*
X6362Y4193D01*
X6420Y4136D01*
X6477Y4021D01*
Y3850D01*
X6420Y3736D01*
X6362Y3679D01*
X6191Y3622D01*
X5677D01*
X7031Y4421D02*
X6917Y4364D01*
X6802Y4250D01*
X6745Y4079D01*
Y3964D01*
X6802Y3793D01*
X6917Y3679D01*
X7031Y3622D01*
X7202D01*
X7317Y3679D01*
X7431Y3793D01*
X7488Y3964D01*
Y4079D01*
X7431Y4250D01*
X7317Y4364D01*
X7202Y4421D01*
X7031D01*
X8436D02*
Y3622D01*
Y4250D02*
X8322Y4364D01*
X8208Y4421D01*
X8036D01*
X7922Y4364D01*
X7808Y4250D01*
X7751Y4079D01*
Y3964D01*
X7808Y3793D01*
X7922Y3679D01*
X8036Y3622D01*
X8208D01*
X8322Y3679D01*
X8436Y3793D01*
X8756Y4421D02*
Y3622D01*
Y4079D02*
X8813Y4250D01*
X8928Y4364D01*
X9042Y4421D01*
X9213D01*
X10007Y4821D02*
Y3622D01*
Y4250D02*
X9893Y4364D01*
X9779Y4421D01*
X9607D01*
X9493Y4364D01*
X9379Y4250D01*
X9322Y4079D01*
Y3964D01*
X9379Y3793D01*
X9493Y3679D01*
X9607Y3622D01*
X9779D01*
X9893Y3679D01*
X10007Y3793D01*
X11270Y4421D02*
Y3622D01*
Y4079D02*
X11327Y4250D01*
X11441Y4364D01*
X11556Y4421D01*
X11727D01*
X11836Y4079D02*
X12521D01*
Y4193D01*
X12464Y4307D01*
X12407Y4364D01*
X12293Y4421D01*
X12121D01*
X12007Y4364D01*
X11893Y4250D01*
X11836Y4079D01*
Y3964D01*
X11893Y3793D01*
X12007Y3679D01*
X12121Y3622D01*
X12293D01*
X12407Y3679D01*
X12521Y3793D01*
X12778Y4421D02*
X13121Y3622D01*
X13464Y4421D02*
X13121Y3622D01*
X13715Y3736D02*
X13658Y3679D01*
X13715Y3622D01*
X13772Y3679D01*
X13715Y3736D01*
X14035Y4593D02*
X14149Y4650D01*
X14321Y4821D01*
Y3622D01*
X-2633Y-2233D02*
X-2767Y-2100D01*
X-3033D01*
X-3166Y-2233D01*
Y-2767D01*
X-3033Y-2900D01*
X-2767D01*
X-2633Y-2767D01*
X-2367Y-2233D02*
X-2233Y-2100D01*
X-1967D01*
X-1834Y-2233D01*
Y-2367D01*
X-1967Y-2500D01*
X-1834Y-2633D01*
Y-2767D01*
X-1967Y-2900D01*
X-2233D01*
X-2367Y-2767D01*
Y-2633D01*
X-2233Y-2500D01*
X-2367Y-2367D01*
Y-2233D01*
X-2233Y-2500D02*
X-1967D01*
X-3666Y400D02*
Y-267D01*
X-3533Y-400D01*
X-3267D01*
X-3133Y-267D01*
Y400D01*
X-2334Y-400D02*
X-2867D01*
X-2334Y133D01*
Y267D01*
X-2467Y400D01*
X-2733D01*
X-2867Y267D01*
D13*
X-1270Y-3135D02*
Y-1865D01*
X1270D01*
Y-3135D02*
Y-1865D01*
X-1270Y-3135D02*
X1270D01*
M02*
